M48
; DRILL file {KiCad (5.99.0-12261-ga2c28b18a8)} date Tuesday, October 12, 2021 at 01:18:48 PM
; FORMAT={-:-/ absolute / metric / decimal}
; #@! TF.CreationDate,2021-10-12T13:18:48-07:00
; #@! TF.GenerationSoftware,Kicad,Pcbnew,(5.99.0-12261-ga2c28b18a8)
; #@! TF.FileFunction,MixedPlating,1,2
FMAT,2
METRIC
; #@! TA.AperFunction,Plated,PTH,ComponentDrill
T1C2.921
; #@! TA.AperFunction,Plated,PTH,ComponentDrill
T2C3.175
; #@! TA.AperFunction,Plated,PTH,ComponentDrill
T3C6.604
; #@! TA.AperFunction,Plated,PTH,ComponentDrill
T4C7.747
%
G90
G05
T1
X18.357Y-5.588
X18.357Y-17.97
X18.357Y-30.353
X18.357Y-42.735
X18.357Y-55.118
X18.357Y-67.501
X18.357Y-79.883
X18.357Y-92.265
X18.357Y-104.648
T3
X7.366Y-5.588
X7.366Y-17.97
X7.366Y-30.353
X7.366Y-42.735
X7.366Y-55.118
X7.366Y-67.501
X7.366Y-79.883
X7.366Y-92.265
X7.366Y-104.648
X27.381Y-9.03
X27.381Y-21.73
X27.381Y-34.43
X27.381Y-47.13
X27.381Y-59.83
X27.381Y-72.53
X27.381Y-85.23
X27.381Y-97.93
X50.876Y-9.03
X50.876Y-26.683
X50.876Y-44.336
X50.876Y-61.989
X50.876Y-79.642
T4
X50.876Y-93.053
X50.876Y-104.991
T2
X4.942Y5.817G85X8.117Y5.817
G05
X4.942Y-116.688G85X8.117Y-116.688
G05
X50.556Y5.817G85X53.731Y5.817
G05
X50.556Y-116.688G85X53.731Y-116.688
G05
T0
M30
