G04 #@! TF.GenerationSoftware,KiCad,Pcbnew,(5.99.0-12261-ga2c28b18a8)*
G04 #@! TF.CreationDate,2021-10-12T13:18:41-07:00*
G04 #@! TF.ProjectId,SCMv3-faceplate-p2,53434d76-332d-4666-9163-65706c617465,rev?*
G04 #@! TF.SameCoordinates,Original*
G04 #@! TF.FileFunction,Copper,L2,Bot*
G04 #@! TF.FilePolarity,Positive*
%FSLAX46Y46*%
G04 Gerber Fmt 4.6, Leading zero omitted, Abs format (unit mm)*
G04 Created by KiCad (PCBNEW (5.99.0-12261-ga2c28b18a8)) date 2021-10-12 13:18:41*
%MOMM*%
%LPD*%
G01*
G04 APERTURE LIST*
G04 #@! TA.AperFunction,SMDPad,CuDef*
%ADD10R,60.000000X8.000000*%
G04 #@! TD*
G04 #@! TA.AperFunction,ComponentPad*
%ADD11C,3.175000*%
G04 #@! TD*
G04 #@! TA.AperFunction,ComponentPad*
%ADD12C,7.620000*%
G04 #@! TD*
G04 #@! TA.AperFunction,ComponentPad*
%ADD13C,7.112000*%
G04 #@! TD*
G04 #@! TA.AperFunction,ComponentPad*
%ADD14C,8.051800*%
G04 #@! TD*
G04 #@! TA.AperFunction,ComponentPad*
%ADD15O,7.366000X4.191000*%
G04 #@! TD*
G04 APERTURE END LIST*
D10*
X29300000Y-115430000D03*
X29210000Y4460000D03*
D11*
X18356580Y-104648000D03*
D12*
X27381200Y-21729700D03*
X7366000Y-55118000D03*
D11*
X18356580Y-79883000D03*
X18356580Y-55118000D03*
X18356580Y-17970500D03*
D12*
X7366000Y-79883000D03*
D11*
X18356580Y-67500500D03*
X18356580Y-30353000D03*
D13*
X50876200Y-9029700D03*
D11*
X18356580Y-5588000D03*
D13*
X50876200Y-61988700D03*
D11*
X18356580Y-42735500D03*
D12*
X27381200Y-85229700D03*
X27381200Y-47129700D03*
X7366000Y-67500500D03*
X7366000Y-92265500D03*
X27381200Y-59829700D03*
X7366000Y-5588000D03*
D14*
X50876200Y-104990900D03*
D12*
X27381200Y-97929700D03*
X27381200Y-72529700D03*
X7366000Y-104648000D03*
D13*
X50876200Y-79641700D03*
X50876200Y-26682700D03*
D12*
X7366000Y-42735500D03*
X7366000Y-30353000D03*
D11*
X18356580Y-92265500D03*
D13*
X50876200Y-44335700D03*
D12*
X27381200Y-34429700D03*
X27381200Y-9029700D03*
D14*
X50876200Y-93052900D03*
D12*
X7366000Y-17970500D03*
D15*
X52144000Y-116688300D03*
X6529999Y-116688300D03*
X52144000Y5817300D03*
X6529999Y5817300D03*
G04 #@! TA.AperFunction,Conductor*
G36*
X59071121Y8286498D02*
G01*
X59117614Y8232842D01*
X59129000Y8180500D01*
X59129000Y-119051500D01*
X59108998Y-119119621D01*
X59055342Y-119166114D01*
X59003000Y-119177500D01*
X-329000Y-119177500D01*
X-397121Y-119157498D01*
X-443614Y-119103842D01*
X-455000Y-119051500D01*
X-455000Y8180500D01*
X-434998Y8248621D01*
X-381342Y8295114D01*
X-329000Y8306500D01*
X59003000Y8306500D01*
X59071121Y8286498D01*
G37*
G04 #@! TD.AperFunction*
M02*
