%FSLAX45Y45*%
G04 Gerber Fmt 4.5, Leading zero omitted, Abs format (unit mm)*
G04 Created by KiCad (PCBNEW (5.99.0-12261-ga2c28b18a8)) date 2021-10-12 13:18:50*
%MOMM*%
%LPD*%
G01*
G04 APERTURE LIST*
%TA.AperFunction,Profile*%
%ADD10C,0.100000*%
%TD*%
%ADD11C,0.200000*%
%ADD12C,0.292100*%
%ADD13C,0.317500*%
%ADD14C,0.660400*%
%ADD15C,0.774700*%
G04 APERTURE END LIST*
D10*
X5963700Y881450D02*
X5963700Y-11968550D01*
X-96300Y881450D02*
X-96300Y-11968550D01*
X-96300Y881450D02*
X5963700Y881450D01*
X-96300Y-11968550D02*
X5963700Y-11968550D01*
D11*
D12*
X1689608Y-412750D02*
X1981708Y-704850D01*
X1981708Y-412750D02*
X1689608Y-704850D01*
X1689608Y-1651000D02*
X1981708Y-1943100D01*
X1981708Y-1651000D02*
X1689608Y-1943100D01*
X1689608Y-2889250D02*
X1981708Y-3181350D01*
X1981708Y-2889250D02*
X1689608Y-3181350D01*
X1689608Y-4127500D02*
X1981708Y-4419600D01*
X1981708Y-4127500D02*
X1689608Y-4419600D01*
X1689608Y-5365750D02*
X1981708Y-5657850D01*
X1981708Y-5365750D02*
X1689608Y-5657850D01*
X1689608Y-6604000D02*
X1981708Y-6896100D01*
X1981708Y-6604000D02*
X1689608Y-6896100D01*
X1689608Y-7842250D02*
X1981708Y-8134350D01*
X1981708Y-7842250D02*
X1689608Y-8134350D01*
X1689608Y-9080500D02*
X1981708Y-9372600D01*
X1981708Y-9080500D02*
X1689608Y-9372600D01*
X1689608Y-10318750D02*
X1981708Y-10610850D01*
X1981708Y-10318750D02*
X1689608Y-10610850D01*
D13*
X811750Y581730D02*
G75*
G03*
X811750Y581730I-158750J0D01*
G01*
D11*
X494250Y432980D02*
X811750Y432980D01*
X494250Y730480D02*
X811750Y730480D01*
X811750Y432980D02*
G75*
G03*
X811750Y730480I0J148750D01*
G01*
X494250Y730480D02*
G75*
G03*
X494250Y432980I0J-148750D01*
G01*
D13*
X811750Y-11668830D02*
G75*
G03*
X811750Y-11668830I-158750J0D01*
G01*
D11*
X494250Y-11817580D02*
X811750Y-11817580D01*
X494250Y-11520080D02*
X811750Y-11520080D01*
X811750Y-11817580D02*
G75*
G03*
X811750Y-11520080I0J148750D01*
G01*
X494250Y-11520080D02*
G75*
G03*
X494250Y-11817580I0J-148750D01*
G01*
D13*
X5373150Y581730D02*
G75*
G03*
X5373150Y581730I-158750J0D01*
G01*
D11*
X5055650Y432980D02*
X5373150Y432980D01*
X5055650Y730480D02*
X5373150Y730480D01*
X5373150Y432980D02*
G75*
G03*
X5373150Y730480I0J148750D01*
G01*
X5055650Y730480D02*
G75*
G03*
X5055650Y432980I0J-148750D01*
G01*
D13*
X5373150Y-11668830D02*
G75*
G03*
X5373150Y-11668830I-158750J0D01*
G01*
D11*
X5055650Y-11817580D02*
X5373150Y-11817580D01*
X5055650Y-11520080D02*
X5373150Y-11520080D01*
X5373150Y-11817580D02*
G75*
G03*
X5373150Y-11520080I0J148750D01*
G01*
X5055650Y-11520080D02*
G75*
G03*
X5055650Y-11817580I0J-148750D01*
G01*
D14*
X736600Y-228600D02*
X736600Y-889000D01*
X406400Y-558800D02*
X1066800Y-558800D01*
X736600Y-1466850D02*
X736600Y-2127250D01*
X406400Y-1797050D02*
X1066800Y-1797050D01*
X736600Y-2705100D02*
X736600Y-3365500D01*
X406400Y-3035300D02*
X1066800Y-3035300D01*
X736600Y-3943350D02*
X736600Y-4603750D01*
X406400Y-4273550D02*
X1066800Y-4273550D01*
X736600Y-5181600D02*
X736600Y-5842000D01*
X406400Y-5511800D02*
X1066800Y-5511800D01*
X736600Y-6419850D02*
X736600Y-7080250D01*
X406400Y-6750050D02*
X1066800Y-6750050D01*
X736600Y-7658100D02*
X736600Y-8318500D01*
X406400Y-7988300D02*
X1066800Y-7988300D01*
X736600Y-8896350D02*
X736600Y-9556750D01*
X406400Y-9226550D02*
X1066800Y-9226550D01*
X736600Y-10134600D02*
X736600Y-10795000D01*
X406400Y-10464800D02*
X1066800Y-10464800D01*
X2738120Y-572770D02*
X2738120Y-1233170D01*
X2407920Y-902970D02*
X3068320Y-902970D01*
X2738120Y-1842770D02*
X2738120Y-2503170D01*
X2407920Y-2172970D02*
X3068320Y-2172970D01*
X2738120Y-3112770D02*
X2738120Y-3773170D01*
X2407920Y-3442970D02*
X3068320Y-3442970D01*
X2738120Y-4382770D02*
X2738120Y-5043170D01*
X2407920Y-4712970D02*
X3068320Y-4712970D01*
X2738120Y-5652770D02*
X2738120Y-6313170D01*
X2407920Y-5982970D02*
X3068320Y-5982970D01*
X2738120Y-6922770D02*
X2738120Y-7583170D01*
X2407920Y-7252970D02*
X3068320Y-7252970D01*
X2738120Y-8192770D02*
X2738120Y-8853170D01*
X2407920Y-8522970D02*
X3068320Y-8522970D01*
X2738120Y-9462770D02*
X2738120Y-10123170D01*
X2407920Y-9792970D02*
X3068320Y-9792970D01*
X5087620Y-572770D02*
X5087620Y-1233170D01*
X4757420Y-902970D02*
X5417820Y-902970D01*
X5087620Y-2338070D02*
X5087620Y-2998470D01*
X4757420Y-2668270D02*
X5417820Y-2668270D01*
X5087620Y-4103370D02*
X5087620Y-4763770D01*
X4757420Y-4433570D02*
X5417820Y-4433570D01*
X5087620Y-5868670D02*
X5087620Y-6529070D01*
X4757420Y-6198870D02*
X5417820Y-6198870D01*
X5087620Y-7633970D02*
X5087620Y-8294370D01*
X4757420Y-7964170D02*
X5417820Y-7964170D01*
D15*
X5361520Y-9579190D02*
X5361520Y-9031390D01*
X4813720Y-9031390D01*
X4813720Y-9579190D01*
X5361520Y-9579190D01*
X5361520Y-10772990D02*
X5361520Y-10225190D01*
X4813720Y-10225190D01*
X4813720Y-10772990D01*
X5361520Y-10772990D01*
D11*
X156319Y-12284026D02*
X156319Y-12084026D01*
X203938Y-12084026D01*
X232509Y-12093550D01*
X251557Y-12112598D01*
X261081Y-12131645D01*
X270605Y-12169740D01*
X270605Y-12198312D01*
X261081Y-12236407D01*
X251557Y-12255455D01*
X232509Y-12274502D01*
X203938Y-12284026D01*
X156319Y-12284026D01*
X356319Y-12284026D02*
X356319Y-12150693D01*
X356319Y-12188788D02*
X365843Y-12169740D01*
X375367Y-12160217D01*
X394414Y-12150693D01*
X413462Y-12150693D01*
X480128Y-12284026D02*
X480128Y-12150693D01*
X480128Y-12084026D02*
X470605Y-12093550D01*
X480128Y-12103074D01*
X489652Y-12093550D01*
X480128Y-12084026D01*
X480128Y-12103074D01*
X603938Y-12284026D02*
X584890Y-12274502D01*
X575367Y-12255455D01*
X575367Y-12084026D01*
X708700Y-12284026D02*
X689652Y-12274502D01*
X680129Y-12255455D01*
X680129Y-12084026D01*
X937271Y-12284026D02*
X937271Y-12084026D01*
X1003938Y-12226883D01*
X1070605Y-12084026D01*
X1070605Y-12284026D01*
X1251557Y-12284026D02*
X1251557Y-12179264D01*
X1242033Y-12160217D01*
X1222986Y-12150693D01*
X1184890Y-12150693D01*
X1165843Y-12160217D01*
X1251557Y-12274502D02*
X1232510Y-12284026D01*
X1184890Y-12284026D01*
X1165843Y-12274502D01*
X1156319Y-12255455D01*
X1156319Y-12236407D01*
X1165843Y-12217359D01*
X1184890Y-12207836D01*
X1232510Y-12207836D01*
X1251557Y-12198312D01*
X1346795Y-12150693D02*
X1346795Y-12350693D01*
X1346795Y-12160217D02*
X1365843Y-12150693D01*
X1403938Y-12150693D01*
X1422986Y-12160217D01*
X1432509Y-12169740D01*
X1442033Y-12188788D01*
X1442033Y-12245931D01*
X1432509Y-12264978D01*
X1422986Y-12274502D01*
X1403938Y-12284026D01*
X1365843Y-12284026D01*
X1346795Y-12274502D01*
X1527748Y-12264978D02*
X1537271Y-12274502D01*
X1527748Y-12284026D01*
X1518224Y-12274502D01*
X1527748Y-12264978D01*
X1527748Y-12284026D01*
X1527748Y-12160217D02*
X1537271Y-12169740D01*
X1527748Y-12179264D01*
X1518224Y-12169740D01*
X1527748Y-12160217D01*
X1527748Y-12179264D01*
X-301300Y-12513550D02*
X-101300Y-12713550D01*
X-101300Y-12513550D02*
X-301300Y-12713550D01*
X146795Y-12523074D02*
X156319Y-12513550D01*
X175367Y-12504026D01*
X222986Y-12504026D01*
X242033Y-12513550D01*
X251557Y-12523074D01*
X261081Y-12542121D01*
X261081Y-12561169D01*
X251557Y-12589740D01*
X137271Y-12704026D01*
X261081Y-12704026D01*
X346795Y-12684978D02*
X356319Y-12694502D01*
X346795Y-12704026D01*
X337271Y-12694502D01*
X346795Y-12684978D01*
X346795Y-12704026D01*
X451557Y-12704026D02*
X489652Y-12704026D01*
X508700Y-12694502D01*
X518224Y-12684978D01*
X537271Y-12656407D01*
X546795Y-12618312D01*
X546795Y-12542121D01*
X537271Y-12523074D01*
X527748Y-12513550D01*
X508700Y-12504026D01*
X470605Y-12504026D01*
X451557Y-12513550D01*
X442033Y-12523074D01*
X432509Y-12542121D01*
X432509Y-12589740D01*
X442033Y-12608788D01*
X451557Y-12618312D01*
X470605Y-12627836D01*
X508700Y-12627836D01*
X527748Y-12618312D01*
X537271Y-12608788D01*
X546795Y-12589740D01*
X622986Y-12523074D02*
X632510Y-12513550D01*
X651557Y-12504026D01*
X699176Y-12504026D01*
X718224Y-12513550D01*
X727748Y-12523074D01*
X737271Y-12542121D01*
X737271Y-12561169D01*
X727748Y-12589740D01*
X613462Y-12704026D01*
X737271Y-12704026D01*
X927748Y-12704026D02*
X813462Y-12704026D01*
X870605Y-12704026D02*
X870605Y-12504026D01*
X851557Y-12532598D01*
X832509Y-12551645D01*
X813462Y-12561169D01*
X1013462Y-12704026D02*
X1013462Y-12570693D01*
X1013462Y-12589740D02*
X1022986Y-12580217D01*
X1042033Y-12570693D01*
X1070605Y-12570693D01*
X1089652Y-12580217D01*
X1099176Y-12599264D01*
X1099176Y-12704026D01*
X1099176Y-12599264D02*
X1108700Y-12580217D01*
X1127748Y-12570693D01*
X1156319Y-12570693D01*
X1175367Y-12580217D01*
X1184890Y-12599264D01*
X1184890Y-12704026D01*
X1280129Y-12704026D02*
X1280129Y-12570693D01*
X1280129Y-12589740D02*
X1289652Y-12580217D01*
X1308700Y-12570693D01*
X1337271Y-12570693D01*
X1356319Y-12580217D01*
X1365843Y-12599264D01*
X1365843Y-12704026D01*
X1365843Y-12599264D02*
X1375367Y-12580217D01*
X1394414Y-12570693D01*
X1422986Y-12570693D01*
X1442033Y-12580217D01*
X1451557Y-12599264D01*
X1451557Y-12704026D01*
X1842033Y-12494502D02*
X1670605Y-12751645D01*
X2099176Y-12504026D02*
X2118224Y-12504026D01*
X2137271Y-12513550D01*
X2146795Y-12523074D01*
X2156319Y-12542121D01*
X2165843Y-12580217D01*
X2165843Y-12627836D01*
X2156319Y-12665931D01*
X2146795Y-12684978D01*
X2137271Y-12694502D01*
X2118224Y-12704026D01*
X2099176Y-12704026D01*
X2080128Y-12694502D01*
X2070605Y-12684978D01*
X2061081Y-12665931D01*
X2051557Y-12627836D01*
X2051557Y-12580217D01*
X2061081Y-12542121D01*
X2070605Y-12523074D01*
X2080128Y-12513550D01*
X2099176Y-12504026D01*
X2251557Y-12684978D02*
X2261081Y-12694502D01*
X2251557Y-12704026D01*
X2242033Y-12694502D01*
X2251557Y-12684978D01*
X2251557Y-12704026D01*
X2451557Y-12704026D02*
X2337271Y-12704026D01*
X2394414Y-12704026D02*
X2394414Y-12504026D01*
X2375367Y-12532598D01*
X2356319Y-12551645D01*
X2337271Y-12561169D01*
X2642033Y-12704026D02*
X2527748Y-12704026D01*
X2584890Y-12704026D02*
X2584890Y-12504026D01*
X2565843Y-12532598D01*
X2546795Y-12551645D01*
X2527748Y-12561169D01*
X2822986Y-12504026D02*
X2727748Y-12504026D01*
X2718224Y-12599264D01*
X2727748Y-12589740D01*
X2746795Y-12580217D01*
X2794414Y-12580217D01*
X2813462Y-12589740D01*
X2822986Y-12599264D01*
X2832509Y-12618312D01*
X2832509Y-12665931D01*
X2822986Y-12684978D01*
X2813462Y-12694502D01*
X2794414Y-12704026D01*
X2746795Y-12704026D01*
X2727748Y-12694502D01*
X2718224Y-12684978D01*
X2956319Y-12504026D02*
X2975367Y-12504026D01*
X2994414Y-12513550D01*
X3003938Y-12523074D01*
X3013462Y-12542121D01*
X3022986Y-12580217D01*
X3022986Y-12627836D01*
X3013462Y-12665931D01*
X3003938Y-12684978D01*
X2994414Y-12694502D01*
X2975367Y-12704026D01*
X2956319Y-12704026D01*
X2937271Y-12694502D01*
X2927748Y-12684978D01*
X2918224Y-12665931D01*
X2908700Y-12627836D01*
X2908700Y-12580217D01*
X2918224Y-12542121D01*
X2927748Y-12523074D01*
X2937271Y-12513550D01*
X2956319Y-12504026D01*
X3099176Y-12504026D02*
X3099176Y-12542121D01*
X3175367Y-12504026D02*
X3175367Y-12542121D01*
X3470605Y-12780217D02*
X3461081Y-12770693D01*
X3442033Y-12742121D01*
X3432509Y-12723074D01*
X3422986Y-12694502D01*
X3413462Y-12646883D01*
X3413462Y-12608788D01*
X3422986Y-12561169D01*
X3432509Y-12532598D01*
X3442033Y-12513550D01*
X3461081Y-12484978D01*
X3470605Y-12475455D01*
X3556319Y-12704026D02*
X3594414Y-12704026D01*
X3613462Y-12694502D01*
X3622986Y-12684978D01*
X3642033Y-12656407D01*
X3651557Y-12618312D01*
X3651557Y-12542121D01*
X3642033Y-12523074D01*
X3632509Y-12513550D01*
X3613462Y-12504026D01*
X3575367Y-12504026D01*
X3556319Y-12513550D01*
X3546795Y-12523074D01*
X3537271Y-12542121D01*
X3537271Y-12589740D01*
X3546795Y-12608788D01*
X3556319Y-12618312D01*
X3575367Y-12627836D01*
X3613462Y-12627836D01*
X3632509Y-12618312D01*
X3642033Y-12608788D01*
X3651557Y-12589740D01*
X3889652Y-12704026D02*
X3889652Y-12504026D01*
X3975367Y-12704026D02*
X3975367Y-12599264D01*
X3965843Y-12580217D01*
X3946795Y-12570693D01*
X3918224Y-12570693D01*
X3899176Y-12580217D01*
X3889652Y-12589740D01*
X4099176Y-12704026D02*
X4080128Y-12694502D01*
X4070605Y-12684978D01*
X4061081Y-12665931D01*
X4061081Y-12608788D01*
X4070605Y-12589740D01*
X4080128Y-12580217D01*
X4099176Y-12570693D01*
X4127748Y-12570693D01*
X4146795Y-12580217D01*
X4156319Y-12589740D01*
X4165843Y-12608788D01*
X4165843Y-12665931D01*
X4156319Y-12684978D01*
X4146795Y-12694502D01*
X4127748Y-12704026D01*
X4099176Y-12704026D01*
X4280129Y-12704026D02*
X4261081Y-12694502D01*
X4251557Y-12675455D01*
X4251557Y-12504026D01*
X4432510Y-12694502D02*
X4413462Y-12704026D01*
X4375367Y-12704026D01*
X4356319Y-12694502D01*
X4346795Y-12675455D01*
X4346795Y-12599264D01*
X4356319Y-12580217D01*
X4375367Y-12570693D01*
X4413462Y-12570693D01*
X4432510Y-12580217D01*
X4442033Y-12599264D01*
X4442033Y-12618312D01*
X4346795Y-12637359D01*
X4518224Y-12694502D02*
X4537271Y-12704026D01*
X4575367Y-12704026D01*
X4594414Y-12694502D01*
X4603938Y-12675455D01*
X4603938Y-12665931D01*
X4594414Y-12646883D01*
X4575367Y-12637359D01*
X4546795Y-12637359D01*
X4527748Y-12627836D01*
X4518224Y-12608788D01*
X4518224Y-12599264D01*
X4527748Y-12580217D01*
X4546795Y-12570693D01*
X4575367Y-12570693D01*
X4594414Y-12580217D01*
X4670605Y-12780217D02*
X4680129Y-12770693D01*
X4699176Y-12742121D01*
X4708700Y-12723074D01*
X4718224Y-12694502D01*
X4727748Y-12646883D01*
X4727748Y-12608788D01*
X4718224Y-12561169D01*
X4708700Y-12532598D01*
X4699176Y-12513550D01*
X4680129Y-12484978D01*
X4670605Y-12475455D01*
X-101300Y-12933550D02*
G75*
G03*
X-101300Y-12933550I-100000J0D01*
G01*
X137271Y-12824026D02*
X261081Y-12824026D01*
X194414Y-12900217D01*
X222986Y-12900217D01*
X242033Y-12909740D01*
X251557Y-12919264D01*
X261081Y-12938312D01*
X261081Y-12985931D01*
X251557Y-13004978D01*
X242033Y-13014502D01*
X222986Y-13024026D01*
X165843Y-13024026D01*
X146795Y-13014502D01*
X137271Y-13004978D01*
X346795Y-13004978D02*
X356319Y-13014502D01*
X346795Y-13024026D01*
X337271Y-13014502D01*
X346795Y-13004978D01*
X346795Y-13024026D01*
X546795Y-13024026D02*
X432509Y-13024026D01*
X489652Y-13024026D02*
X489652Y-12824026D01*
X470605Y-12852598D01*
X451557Y-12871645D01*
X432509Y-12881169D01*
X613462Y-12824026D02*
X746795Y-12824026D01*
X661081Y-13024026D01*
X918224Y-12824026D02*
X822986Y-12824026D01*
X813462Y-12919264D01*
X822986Y-12909740D01*
X842033Y-12900217D01*
X889652Y-12900217D01*
X908700Y-12909740D01*
X918224Y-12919264D01*
X927748Y-12938312D01*
X927748Y-12985931D01*
X918224Y-13004978D01*
X908700Y-13014502D01*
X889652Y-13024026D01*
X842033Y-13024026D01*
X822986Y-13014502D01*
X813462Y-13004978D01*
X1013462Y-13024026D02*
X1013462Y-12890693D01*
X1013462Y-12909740D02*
X1022986Y-12900217D01*
X1042033Y-12890693D01*
X1070605Y-12890693D01*
X1089652Y-12900217D01*
X1099176Y-12919264D01*
X1099176Y-13024026D01*
X1099176Y-12919264D02*
X1108700Y-12900217D01*
X1127748Y-12890693D01*
X1156319Y-12890693D01*
X1175367Y-12900217D01*
X1184890Y-12919264D01*
X1184890Y-13024026D01*
X1280129Y-13024026D02*
X1280129Y-12890693D01*
X1280129Y-12909740D02*
X1289652Y-12900217D01*
X1308700Y-12890693D01*
X1337271Y-12890693D01*
X1356319Y-12900217D01*
X1365843Y-12919264D01*
X1365843Y-13024026D01*
X1365843Y-12919264D02*
X1375367Y-12900217D01*
X1394414Y-12890693D01*
X1422986Y-12890693D01*
X1442033Y-12900217D01*
X1451557Y-12919264D01*
X1451557Y-13024026D01*
X1842033Y-12814502D02*
X1670605Y-13071645D01*
X2099176Y-12824026D02*
X2118224Y-12824026D01*
X2137271Y-12833550D01*
X2146795Y-12843074D01*
X2156319Y-12862121D01*
X2165843Y-12900217D01*
X2165843Y-12947836D01*
X2156319Y-12985931D01*
X2146795Y-13004978D01*
X2137271Y-13014502D01*
X2118224Y-13024026D01*
X2099176Y-13024026D01*
X2080128Y-13014502D01*
X2070605Y-13004978D01*
X2061081Y-12985931D01*
X2051557Y-12947836D01*
X2051557Y-12900217D01*
X2061081Y-12862121D01*
X2070605Y-12843074D01*
X2080128Y-12833550D01*
X2099176Y-12824026D01*
X2251557Y-13004978D02*
X2261081Y-13014502D01*
X2251557Y-13024026D01*
X2242033Y-13014502D01*
X2251557Y-13004978D01*
X2251557Y-13024026D01*
X2451557Y-13024026D02*
X2337271Y-13024026D01*
X2394414Y-13024026D02*
X2394414Y-12824026D01*
X2375367Y-12852598D01*
X2356319Y-12871645D01*
X2337271Y-12881169D01*
X2527748Y-12843074D02*
X2537271Y-12833550D01*
X2556319Y-12824026D01*
X2603938Y-12824026D01*
X2622986Y-12833550D01*
X2632510Y-12843074D01*
X2642033Y-12862121D01*
X2642033Y-12881169D01*
X2632510Y-12909740D01*
X2518224Y-13024026D01*
X2642033Y-13024026D01*
X2822986Y-12824026D02*
X2727748Y-12824026D01*
X2718224Y-12919264D01*
X2727748Y-12909740D01*
X2746795Y-12900217D01*
X2794414Y-12900217D01*
X2813462Y-12909740D01*
X2822986Y-12919264D01*
X2832509Y-12938312D01*
X2832509Y-12985931D01*
X2822986Y-13004978D01*
X2813462Y-13014502D01*
X2794414Y-13024026D01*
X2746795Y-13024026D01*
X2727748Y-13014502D01*
X2718224Y-13004978D01*
X2956319Y-12824026D02*
X2975367Y-12824026D01*
X2994414Y-12833550D01*
X3003938Y-12843074D01*
X3013462Y-12862121D01*
X3022986Y-12900217D01*
X3022986Y-12947836D01*
X3013462Y-12985931D01*
X3003938Y-13004978D01*
X2994414Y-13014502D01*
X2975367Y-13024026D01*
X2956319Y-13024026D01*
X2937271Y-13014502D01*
X2927748Y-13004978D01*
X2918224Y-12985931D01*
X2908700Y-12947836D01*
X2908700Y-12900217D01*
X2918224Y-12862121D01*
X2927748Y-12843074D01*
X2937271Y-12833550D01*
X2956319Y-12824026D01*
X3099176Y-12824026D02*
X3099176Y-12862121D01*
X3175367Y-12824026D02*
X3175367Y-12862121D01*
X3470605Y-13100217D02*
X3461081Y-13090693D01*
X3442033Y-13062121D01*
X3432509Y-13043074D01*
X3422986Y-13014502D01*
X3413462Y-12966883D01*
X3413462Y-12928788D01*
X3422986Y-12881169D01*
X3432509Y-12852598D01*
X3442033Y-12833550D01*
X3461081Y-12804978D01*
X3470605Y-12795455D01*
X3584890Y-12824026D02*
X3603938Y-12824026D01*
X3622986Y-12833550D01*
X3632509Y-12843074D01*
X3642033Y-12862121D01*
X3651557Y-12900217D01*
X3651557Y-12947836D01*
X3642033Y-12985931D01*
X3632509Y-13004978D01*
X3622986Y-13014502D01*
X3603938Y-13024026D01*
X3584890Y-13024026D01*
X3565843Y-13014502D01*
X3556319Y-13004978D01*
X3546795Y-12985931D01*
X3537271Y-12947836D01*
X3537271Y-12900217D01*
X3546795Y-12862121D01*
X3556319Y-12843074D01*
X3565843Y-12833550D01*
X3584890Y-12824026D01*
X3889652Y-13024026D02*
X3889652Y-12824026D01*
X3975367Y-13024026D02*
X3975367Y-12919264D01*
X3965843Y-12900217D01*
X3946795Y-12890693D01*
X3918224Y-12890693D01*
X3899176Y-12900217D01*
X3889652Y-12909740D01*
X4099176Y-13024026D02*
X4080128Y-13014502D01*
X4070605Y-13004978D01*
X4061081Y-12985931D01*
X4061081Y-12928788D01*
X4070605Y-12909740D01*
X4080128Y-12900217D01*
X4099176Y-12890693D01*
X4127748Y-12890693D01*
X4146795Y-12900217D01*
X4156319Y-12909740D01*
X4165843Y-12928788D01*
X4165843Y-12985931D01*
X4156319Y-13004978D01*
X4146795Y-13014502D01*
X4127748Y-13024026D01*
X4099176Y-13024026D01*
X4280129Y-13024026D02*
X4261081Y-13014502D01*
X4251557Y-12995455D01*
X4251557Y-12824026D01*
X4432510Y-13014502D02*
X4413462Y-13024026D01*
X4375367Y-13024026D01*
X4356319Y-13014502D01*
X4346795Y-12995455D01*
X4346795Y-12919264D01*
X4356319Y-12900217D01*
X4375367Y-12890693D01*
X4413462Y-12890693D01*
X4432510Y-12900217D01*
X4442033Y-12919264D01*
X4442033Y-12938312D01*
X4346795Y-12957359D01*
X4518224Y-13014502D02*
X4537271Y-13024026D01*
X4575367Y-13024026D01*
X4594414Y-13014502D01*
X4603938Y-12995455D01*
X4603938Y-12985931D01*
X4594414Y-12966883D01*
X4575367Y-12957359D01*
X4546795Y-12957359D01*
X4527748Y-12947836D01*
X4518224Y-12928788D01*
X4518224Y-12919264D01*
X4527748Y-12900217D01*
X4546795Y-12890693D01*
X4575367Y-12890693D01*
X4594414Y-12900217D01*
X4842033Y-12947836D02*
X4994414Y-12947836D01*
X4918224Y-13024026D02*
X4918224Y-12871645D01*
X5327748Y-12890693D02*
X5327748Y-13024026D01*
X5280129Y-12814502D02*
X5232510Y-12957359D01*
X5356319Y-12957359D01*
X5575367Y-13014502D02*
X5594414Y-13024026D01*
X5632509Y-13024026D01*
X5651557Y-13014502D01*
X5661081Y-12995455D01*
X5661081Y-12985931D01*
X5651557Y-12966883D01*
X5632509Y-12957359D01*
X5603938Y-12957359D01*
X5584890Y-12947836D01*
X5575367Y-12928788D01*
X5575367Y-12919264D01*
X5584890Y-12900217D01*
X5603938Y-12890693D01*
X5632509Y-12890693D01*
X5651557Y-12900217D01*
X5775367Y-13024026D02*
X5756319Y-13014502D01*
X5746795Y-12995455D01*
X5746795Y-12824026D01*
X5880128Y-13024026D02*
X5861081Y-13014502D01*
X5851557Y-13004978D01*
X5842033Y-12985931D01*
X5842033Y-12928788D01*
X5851557Y-12909740D01*
X5861081Y-12900217D01*
X5880128Y-12890693D01*
X5908700Y-12890693D01*
X5927748Y-12900217D01*
X5937271Y-12909740D01*
X5946795Y-12928788D01*
X5946795Y-12985931D01*
X5937271Y-13004978D01*
X5927748Y-13014502D01*
X5908700Y-13024026D01*
X5880128Y-13024026D01*
X6003938Y-12890693D02*
X6080128Y-12890693D01*
X6032509Y-12824026D02*
X6032509Y-12995455D01*
X6042033Y-13014502D01*
X6061081Y-13024026D01*
X6080128Y-13024026D01*
X6137271Y-13014502D02*
X6156319Y-13024026D01*
X6194414Y-13024026D01*
X6213462Y-13014502D01*
X6222986Y-12995455D01*
X6222986Y-12985931D01*
X6213462Y-12966883D01*
X6194414Y-12957359D01*
X6165843Y-12957359D01*
X6146795Y-12947836D01*
X6137271Y-12928788D01*
X6137271Y-12919264D01*
X6146795Y-12900217D01*
X6165843Y-12890693D01*
X6194414Y-12890693D01*
X6213462Y-12900217D01*
X6289652Y-13100217D02*
X6299176Y-13090693D01*
X6318224Y-13062121D01*
X6327748Y-13043074D01*
X6337271Y-13014502D01*
X6346795Y-12966883D01*
X6346795Y-12928788D01*
X6337271Y-12881169D01*
X6327748Y-12852598D01*
X6318224Y-12833550D01*
X6299176Y-12804978D01*
X6289652Y-12795455D01*
X-201300Y-13153550D02*
X-201300Y-13353550D01*
X-301300Y-13253550D02*
X-101300Y-13253550D01*
X242033Y-13144026D02*
X203938Y-13144026D01*
X184890Y-13153550D01*
X175367Y-13163074D01*
X156319Y-13191645D01*
X146795Y-13229740D01*
X146795Y-13305931D01*
X156319Y-13324978D01*
X165843Y-13334502D01*
X184890Y-13344026D01*
X222986Y-13344026D01*
X242033Y-13334502D01*
X251557Y-13324978D01*
X261081Y-13305931D01*
X261081Y-13258312D01*
X251557Y-13239264D01*
X242033Y-13229740D01*
X222986Y-13220217D01*
X184890Y-13220217D01*
X165843Y-13229740D01*
X156319Y-13239264D01*
X146795Y-13258312D01*
X346795Y-13324978D02*
X356319Y-13334502D01*
X346795Y-13344026D01*
X337271Y-13334502D01*
X346795Y-13324978D01*
X346795Y-13344026D01*
X527748Y-13144026D02*
X489652Y-13144026D01*
X470605Y-13153550D01*
X461081Y-13163074D01*
X442033Y-13191645D01*
X432509Y-13229740D01*
X432509Y-13305931D01*
X442033Y-13324978D01*
X451557Y-13334502D01*
X470605Y-13344026D01*
X508700Y-13344026D01*
X527748Y-13334502D01*
X537271Y-13324978D01*
X546795Y-13305931D01*
X546795Y-13258312D01*
X537271Y-13239264D01*
X527748Y-13229740D01*
X508700Y-13220217D01*
X470605Y-13220217D01*
X451557Y-13229740D01*
X442033Y-13239264D01*
X432509Y-13258312D01*
X670605Y-13144026D02*
X689652Y-13144026D01*
X708700Y-13153550D01*
X718224Y-13163074D01*
X727748Y-13182121D01*
X737271Y-13220217D01*
X737271Y-13267836D01*
X727748Y-13305931D01*
X718224Y-13324978D01*
X708700Y-13334502D01*
X689652Y-13344026D01*
X670605Y-13344026D01*
X651557Y-13334502D01*
X642033Y-13324978D01*
X632510Y-13305931D01*
X622986Y-13267836D01*
X622986Y-13220217D01*
X632510Y-13182121D01*
X642033Y-13163074D01*
X651557Y-13153550D01*
X670605Y-13144026D01*
X908700Y-13210693D02*
X908700Y-13344026D01*
X861081Y-13134502D02*
X813462Y-13277359D01*
X937271Y-13277359D01*
X1013462Y-13344026D02*
X1013462Y-13210693D01*
X1013462Y-13229740D02*
X1022986Y-13220217D01*
X1042033Y-13210693D01*
X1070605Y-13210693D01*
X1089652Y-13220217D01*
X1099176Y-13239264D01*
X1099176Y-13344026D01*
X1099176Y-13239264D02*
X1108700Y-13220217D01*
X1127748Y-13210693D01*
X1156319Y-13210693D01*
X1175367Y-13220217D01*
X1184890Y-13239264D01*
X1184890Y-13344026D01*
X1280129Y-13344026D02*
X1280129Y-13210693D01*
X1280129Y-13229740D02*
X1289652Y-13220217D01*
X1308700Y-13210693D01*
X1337271Y-13210693D01*
X1356319Y-13220217D01*
X1365843Y-13239264D01*
X1365843Y-13344026D01*
X1365843Y-13239264D02*
X1375367Y-13220217D01*
X1394414Y-13210693D01*
X1422986Y-13210693D01*
X1442033Y-13220217D01*
X1451557Y-13239264D01*
X1451557Y-13344026D01*
X1842033Y-13134502D02*
X1670605Y-13391645D01*
X2099176Y-13144026D02*
X2118224Y-13144026D01*
X2137271Y-13153550D01*
X2146795Y-13163074D01*
X2156319Y-13182121D01*
X2165843Y-13220217D01*
X2165843Y-13267836D01*
X2156319Y-13305931D01*
X2146795Y-13324978D01*
X2137271Y-13334502D01*
X2118224Y-13344026D01*
X2099176Y-13344026D01*
X2080128Y-13334502D01*
X2070605Y-13324978D01*
X2061081Y-13305931D01*
X2051557Y-13267836D01*
X2051557Y-13220217D01*
X2061081Y-13182121D01*
X2070605Y-13163074D01*
X2080128Y-13153550D01*
X2099176Y-13144026D01*
X2251557Y-13324978D02*
X2261081Y-13334502D01*
X2251557Y-13344026D01*
X2242033Y-13334502D01*
X2251557Y-13324978D01*
X2251557Y-13344026D01*
X2337271Y-13163074D02*
X2346795Y-13153550D01*
X2365843Y-13144026D01*
X2413462Y-13144026D01*
X2432510Y-13153550D01*
X2442033Y-13163074D01*
X2451557Y-13182121D01*
X2451557Y-13201169D01*
X2442033Y-13229740D01*
X2327748Y-13344026D01*
X2451557Y-13344026D01*
X2622986Y-13144026D02*
X2584890Y-13144026D01*
X2565843Y-13153550D01*
X2556319Y-13163074D01*
X2537271Y-13191645D01*
X2527748Y-13229740D01*
X2527748Y-13305931D01*
X2537271Y-13324978D01*
X2546795Y-13334502D01*
X2565843Y-13344026D01*
X2603938Y-13344026D01*
X2622986Y-13334502D01*
X2632510Y-13324978D01*
X2642033Y-13305931D01*
X2642033Y-13258312D01*
X2632510Y-13239264D01*
X2622986Y-13229740D01*
X2603938Y-13220217D01*
X2565843Y-13220217D01*
X2546795Y-13229740D01*
X2537271Y-13239264D01*
X2527748Y-13258312D01*
X2765843Y-13144026D02*
X2784890Y-13144026D01*
X2803938Y-13153550D01*
X2813462Y-13163074D01*
X2822986Y-13182121D01*
X2832509Y-13220217D01*
X2832509Y-13267836D01*
X2822986Y-13305931D01*
X2813462Y-13324978D01*
X2803938Y-13334502D01*
X2784890Y-13344026D01*
X2765843Y-13344026D01*
X2746795Y-13334502D01*
X2737271Y-13324978D01*
X2727748Y-13305931D01*
X2718224Y-13267836D01*
X2718224Y-13220217D01*
X2727748Y-13182121D01*
X2737271Y-13163074D01*
X2746795Y-13153550D01*
X2765843Y-13144026D01*
X2956319Y-13144026D02*
X2975367Y-13144026D01*
X2994414Y-13153550D01*
X3003938Y-13163074D01*
X3013462Y-13182121D01*
X3022986Y-13220217D01*
X3022986Y-13267836D01*
X3013462Y-13305931D01*
X3003938Y-13324978D01*
X2994414Y-13334502D01*
X2975367Y-13344026D01*
X2956319Y-13344026D01*
X2937271Y-13334502D01*
X2927748Y-13324978D01*
X2918224Y-13305931D01*
X2908700Y-13267836D01*
X2908700Y-13220217D01*
X2918224Y-13182121D01*
X2927748Y-13163074D01*
X2937271Y-13153550D01*
X2956319Y-13144026D01*
X3099176Y-13144026D02*
X3099176Y-13182121D01*
X3175367Y-13144026D02*
X3175367Y-13182121D01*
X3470605Y-13420217D02*
X3461081Y-13410693D01*
X3442033Y-13382121D01*
X3432509Y-13363074D01*
X3422986Y-13334502D01*
X3413462Y-13286883D01*
X3413462Y-13248788D01*
X3422986Y-13201169D01*
X3432509Y-13172598D01*
X3442033Y-13153550D01*
X3461081Y-13124978D01*
X3470605Y-13115455D01*
X3537271Y-13163074D02*
X3546795Y-13153550D01*
X3565843Y-13144026D01*
X3613462Y-13144026D01*
X3632509Y-13153550D01*
X3642033Y-13163074D01*
X3651557Y-13182121D01*
X3651557Y-13201169D01*
X3642033Y-13229740D01*
X3527748Y-13344026D01*
X3651557Y-13344026D01*
X3727748Y-13163074D02*
X3737271Y-13153550D01*
X3756319Y-13144026D01*
X3803938Y-13144026D01*
X3822986Y-13153550D01*
X3832509Y-13163074D01*
X3842033Y-13182121D01*
X3842033Y-13201169D01*
X3832509Y-13229740D01*
X3718224Y-13344026D01*
X3842033Y-13344026D01*
X4080128Y-13344026D02*
X4080128Y-13144026D01*
X4165843Y-13344026D02*
X4165843Y-13239264D01*
X4156319Y-13220217D01*
X4137271Y-13210693D01*
X4108700Y-13210693D01*
X4089652Y-13220217D01*
X4080128Y-13229740D01*
X4289652Y-13344026D02*
X4270605Y-13334502D01*
X4261081Y-13324978D01*
X4251557Y-13305931D01*
X4251557Y-13248788D01*
X4261081Y-13229740D01*
X4270605Y-13220217D01*
X4289652Y-13210693D01*
X4318224Y-13210693D01*
X4337271Y-13220217D01*
X4346795Y-13229740D01*
X4356319Y-13248788D01*
X4356319Y-13305931D01*
X4346795Y-13324978D01*
X4337271Y-13334502D01*
X4318224Y-13344026D01*
X4289652Y-13344026D01*
X4470605Y-13344026D02*
X4451557Y-13334502D01*
X4442033Y-13315455D01*
X4442033Y-13144026D01*
X4622986Y-13334502D02*
X4603938Y-13344026D01*
X4565843Y-13344026D01*
X4546795Y-13334502D01*
X4537271Y-13315455D01*
X4537271Y-13239264D01*
X4546795Y-13220217D01*
X4565843Y-13210693D01*
X4603938Y-13210693D01*
X4622986Y-13220217D01*
X4632510Y-13239264D01*
X4632510Y-13258312D01*
X4537271Y-13277359D01*
X4708700Y-13334502D02*
X4727748Y-13344026D01*
X4765843Y-13344026D01*
X4784890Y-13334502D01*
X4794414Y-13315455D01*
X4794414Y-13305931D01*
X4784890Y-13286883D01*
X4765843Y-13277359D01*
X4737271Y-13277359D01*
X4718224Y-13267836D01*
X4708700Y-13248788D01*
X4708700Y-13239264D01*
X4718224Y-13220217D01*
X4737271Y-13210693D01*
X4765843Y-13210693D01*
X4784890Y-13220217D01*
X4861081Y-13420217D02*
X4870605Y-13410693D01*
X4889652Y-13382121D01*
X4899176Y-13363074D01*
X4908700Y-13334502D01*
X4918224Y-13286883D01*
X4918224Y-13248788D01*
X4908700Y-13201169D01*
X4899176Y-13172598D01*
X4889652Y-13153550D01*
X4870605Y-13124978D01*
X4861081Y-13115455D01*
X-130589Y-13644261D02*
X-130589Y-13502839D01*
X-272011Y-13502839D01*
X-272011Y-13644261D01*
X-130589Y-13644261D01*
X137271Y-13464026D02*
X270605Y-13464026D01*
X184890Y-13664026D01*
X346795Y-13644978D02*
X356319Y-13654502D01*
X346795Y-13664026D01*
X337271Y-13654502D01*
X346795Y-13644978D01*
X346795Y-13664026D01*
X422986Y-13464026D02*
X556319Y-13464026D01*
X470605Y-13664026D01*
X718224Y-13530693D02*
X718224Y-13664026D01*
X670605Y-13454502D02*
X622986Y-13597359D01*
X746795Y-13597359D01*
X803938Y-13464026D02*
X937271Y-13464026D01*
X851557Y-13664026D01*
X1013462Y-13664026D02*
X1013462Y-13530693D01*
X1013462Y-13549740D02*
X1022986Y-13540217D01*
X1042033Y-13530693D01*
X1070605Y-13530693D01*
X1089652Y-13540217D01*
X1099176Y-13559264D01*
X1099176Y-13664026D01*
X1099176Y-13559264D02*
X1108700Y-13540217D01*
X1127748Y-13530693D01*
X1156319Y-13530693D01*
X1175367Y-13540217D01*
X1184890Y-13559264D01*
X1184890Y-13664026D01*
X1280129Y-13664026D02*
X1280129Y-13530693D01*
X1280129Y-13549740D02*
X1289652Y-13540217D01*
X1308700Y-13530693D01*
X1337271Y-13530693D01*
X1356319Y-13540217D01*
X1365843Y-13559264D01*
X1365843Y-13664026D01*
X1365843Y-13559264D02*
X1375367Y-13540217D01*
X1394414Y-13530693D01*
X1422986Y-13530693D01*
X1442033Y-13540217D01*
X1451557Y-13559264D01*
X1451557Y-13664026D01*
X1842033Y-13454502D02*
X1670605Y-13711645D01*
X2099176Y-13464026D02*
X2118224Y-13464026D01*
X2137271Y-13473550D01*
X2146795Y-13483074D01*
X2156319Y-13502121D01*
X2165843Y-13540217D01*
X2165843Y-13587836D01*
X2156319Y-13625931D01*
X2146795Y-13644978D01*
X2137271Y-13654502D01*
X2118224Y-13664026D01*
X2099176Y-13664026D01*
X2080128Y-13654502D01*
X2070605Y-13644978D01*
X2061081Y-13625931D01*
X2051557Y-13587836D01*
X2051557Y-13540217D01*
X2061081Y-13502121D01*
X2070605Y-13483074D01*
X2080128Y-13473550D01*
X2099176Y-13464026D01*
X2251557Y-13644978D02*
X2261081Y-13654502D01*
X2251557Y-13664026D01*
X2242033Y-13654502D01*
X2251557Y-13644978D01*
X2251557Y-13664026D01*
X2327748Y-13464026D02*
X2451557Y-13464026D01*
X2384890Y-13540217D01*
X2413462Y-13540217D01*
X2432510Y-13549740D01*
X2442033Y-13559264D01*
X2451557Y-13578312D01*
X2451557Y-13625931D01*
X2442033Y-13644978D01*
X2432510Y-13654502D01*
X2413462Y-13664026D01*
X2356319Y-13664026D01*
X2337271Y-13654502D01*
X2327748Y-13644978D01*
X2575367Y-13464026D02*
X2594414Y-13464026D01*
X2613462Y-13473550D01*
X2622986Y-13483074D01*
X2632510Y-13502121D01*
X2642033Y-13540217D01*
X2642033Y-13587836D01*
X2632510Y-13625931D01*
X2622986Y-13644978D01*
X2613462Y-13654502D01*
X2594414Y-13664026D01*
X2575367Y-13664026D01*
X2556319Y-13654502D01*
X2546795Y-13644978D01*
X2537271Y-13625931D01*
X2527748Y-13587836D01*
X2527748Y-13540217D01*
X2537271Y-13502121D01*
X2546795Y-13483074D01*
X2556319Y-13473550D01*
X2575367Y-13464026D01*
X2822986Y-13464026D02*
X2727748Y-13464026D01*
X2718224Y-13559264D01*
X2727748Y-13549740D01*
X2746795Y-13540217D01*
X2794414Y-13540217D01*
X2813462Y-13549740D01*
X2822986Y-13559264D01*
X2832509Y-13578312D01*
X2832509Y-13625931D01*
X2822986Y-13644978D01*
X2813462Y-13654502D01*
X2794414Y-13664026D01*
X2746795Y-13664026D01*
X2727748Y-13654502D01*
X2718224Y-13644978D01*
X2956319Y-13464026D02*
X2975367Y-13464026D01*
X2994414Y-13473550D01*
X3003938Y-13483074D01*
X3013462Y-13502121D01*
X3022986Y-13540217D01*
X3022986Y-13587836D01*
X3013462Y-13625931D01*
X3003938Y-13644978D01*
X2994414Y-13654502D01*
X2975367Y-13664026D01*
X2956319Y-13664026D01*
X2937271Y-13654502D01*
X2927748Y-13644978D01*
X2918224Y-13625931D01*
X2908700Y-13587836D01*
X2908700Y-13540217D01*
X2918224Y-13502121D01*
X2927748Y-13483074D01*
X2937271Y-13473550D01*
X2956319Y-13464026D01*
X3099176Y-13464026D02*
X3099176Y-13502121D01*
X3175367Y-13464026D02*
X3175367Y-13502121D01*
X3470605Y-13740217D02*
X3461081Y-13730693D01*
X3442033Y-13702121D01*
X3432509Y-13683074D01*
X3422986Y-13654502D01*
X3413462Y-13606883D01*
X3413462Y-13568788D01*
X3422986Y-13521169D01*
X3432509Y-13492598D01*
X3442033Y-13473550D01*
X3461081Y-13444978D01*
X3470605Y-13435455D01*
X3537271Y-13483074D02*
X3546795Y-13473550D01*
X3565843Y-13464026D01*
X3613462Y-13464026D01*
X3632509Y-13473550D01*
X3642033Y-13483074D01*
X3651557Y-13502121D01*
X3651557Y-13521169D01*
X3642033Y-13549740D01*
X3527748Y-13664026D01*
X3651557Y-13664026D01*
X3889652Y-13664026D02*
X3889652Y-13464026D01*
X3975367Y-13664026D02*
X3975367Y-13559264D01*
X3965843Y-13540217D01*
X3946795Y-13530693D01*
X3918224Y-13530693D01*
X3899176Y-13540217D01*
X3889652Y-13549740D01*
X4099176Y-13664026D02*
X4080128Y-13654502D01*
X4070605Y-13644978D01*
X4061081Y-13625931D01*
X4061081Y-13568788D01*
X4070605Y-13549740D01*
X4080128Y-13540217D01*
X4099176Y-13530693D01*
X4127748Y-13530693D01*
X4146795Y-13540217D01*
X4156319Y-13549740D01*
X4165843Y-13568788D01*
X4165843Y-13625931D01*
X4156319Y-13644978D01*
X4146795Y-13654502D01*
X4127748Y-13664026D01*
X4099176Y-13664026D01*
X4280129Y-13664026D02*
X4261081Y-13654502D01*
X4251557Y-13635455D01*
X4251557Y-13464026D01*
X4432510Y-13654502D02*
X4413462Y-13664026D01*
X4375367Y-13664026D01*
X4356319Y-13654502D01*
X4346795Y-13635455D01*
X4346795Y-13559264D01*
X4356319Y-13540217D01*
X4375367Y-13530693D01*
X4413462Y-13530693D01*
X4432510Y-13540217D01*
X4442033Y-13559264D01*
X4442033Y-13578312D01*
X4346795Y-13597359D01*
X4518224Y-13654502D02*
X4537271Y-13664026D01*
X4575367Y-13664026D01*
X4594414Y-13654502D01*
X4603938Y-13635455D01*
X4603938Y-13625931D01*
X4594414Y-13606883D01*
X4575367Y-13597359D01*
X4546795Y-13597359D01*
X4527748Y-13587836D01*
X4518224Y-13568788D01*
X4518224Y-13559264D01*
X4527748Y-13540217D01*
X4546795Y-13530693D01*
X4575367Y-13530693D01*
X4594414Y-13540217D01*
X4670605Y-13740217D02*
X4680129Y-13730693D01*
X4699176Y-13702121D01*
X4708700Y-13683074D01*
X4718224Y-13654502D01*
X4727748Y-13606883D01*
X4727748Y-13568788D01*
X4718224Y-13521169D01*
X4708700Y-13492598D01*
X4699176Y-13473550D01*
X4680129Y-13444978D01*
X4670605Y-13435455D01*
M02*
