M48
; DRILL file {KiCad (5.99.0-11177-g6c67dfa032)} date Wednesday, August 04, 2021 at 01:54:25 PM
; FORMAT={-:-/ absolute / metric / decimal}
; #@! TF.CreationDate,2021-08-04T13:54:25-07:00
; #@! TF.GenerationSoftware,Kicad,Pcbnew,(5.99.0-11177-g6c67dfa032)
; #@! TF.FileFunction,MixedPlating,1,2
FMAT,2
METRIC
; #@! TA.AperFunction,Plated,PTH,ViaDrill
T1C0.400
; #@! TA.AperFunction,Plated,PTH,ComponentDrill
T2C0.508
; #@! TA.AperFunction,Plated,PTH,ComponentDrill
T3C0.800
; #@! TA.AperFunction,Plated,PTH,ComponentDrill
T4C0.889
; #@! TA.AperFunction,Plated,PTH,ComponentDrill
T5C0.900
; #@! TA.AperFunction,Plated,PTH,ComponentDrill
T6C1.000
; #@! TA.AperFunction,Plated,PTH,ComponentDrill
T7C1.143
; #@! TA.AperFunction,Plated,PTH,ComponentDrill
T8C2.057
%
G90
G05
T1
X4.75Y-87.94
X5.258Y-66.912
X6.16Y-44.07
X7.22Y-63.7
X7.38Y-81.16
X7.399Y-26.681
X8.6Y-85.36
X8.67Y-33.42
X8.84Y-46.87
X8.96Y-78.65
X9.12Y-25.65
X9.14Y-21.7
X9.17Y-13.61
X9.56Y-81.34
X10.04Y-46.18
X11.11Y-88.43
X11.27Y-63.99
X11.49Y-34.12
X12.24Y-66.38
X13.099Y-72.56
X13.58Y-51.13
X13.87Y-12.52
X14.11Y-40.93
X14.6Y-52.4
X15.63Y-89.6
X15.91Y-49.08
X16.296Y-86.028
X16.57Y-105.32
X16.8Y-94.6
X16.96Y-65.54
X17.15Y-90.91
X17.16Y-68.667
X17.284Y-80.2
X17.52Y-78.75
X17.74Y-49.0
X17.74Y-54.96
X18.07Y-69.08
X18.419Y-30.0
X18.42Y-63.99
X19.12Y-27.07
X19.18Y-64.95
X19.38Y-49.94
X19.4Y-58.06
X19.48Y-100.37
X19.68Y-68.78
X19.83Y-64.09
X20.46Y-21.19
X20.802Y-57.05
X21.16Y-82.9
X21.19Y-79.02
X21.76Y-16.05
X21.95Y-81.33
X21.997Y-65.107
X22.1Y-94.67
X22.16Y-49.53
X22.33Y-40.97
X22.34Y-51.84
X22.57Y-9.1
X22.94Y-33.17
X23.05Y-74.64
X23.34Y-24.02
X23.42Y-25.32
X23.42Y-26.93
X24.37Y-81.17
X24.39Y-17.6
X24.41Y-18.86
X24.42Y-49.85
X24.92Y-77.61
X25.19Y-27.01
X25.48Y-62.73
X25.83Y-79.71
X26.34Y-81.71
X26.59Y-104.64
X27.14Y-62.78
X27.32Y-70.44
X28.407Y-69.468
X28.89Y-12.42
X29.46Y-90.91
X29.56Y-64.75
X30.08Y-107.91
X30.22Y-73.59
X30.42Y-104.67
X30.805Y-49.445
X31.17Y-107.51
X31.37Y-29.61
X31.37Y-61.84
X31.38Y-50.87
X31.79Y-78.16
X31.92Y-57.21
X31.95Y-19.98
X32.07Y-17.82
X32.19Y-71.57
X32.521Y-94.56
X32.54Y-55.64
X33.945Y-68.415
X34.148Y-79.362
X34.43Y-78.14
X35.2Y-68.49
X35.82Y-26.75
X36.43Y-76.15
X37.01Y-55.97
X37.79Y-66.34
X37.96Y-15.92
X37.96Y-71.0
X37.97Y-58.14
X38.34Y-13.67
X38.7Y-53.54
X38.96Y-73.12
X39.08Y-87.13
X39.09Y-108.67
X39.62Y-15.51
X40.0Y-68.93
X40.02Y-6.99
X40.121Y-81.29
X40.81Y-73.14
X41.23Y-5.6
X41.26Y-61.36
X41.27Y-64.18
X42.438Y-66.968
X42.51Y-74.27
X42.74Y-104.72
X42.79Y-42.62
X42.81Y-18.08
X42.81Y-30.38
X42.84Y-5.76
X42.87Y-92.33
X42.88Y-55.0
X44.23Y-3.92
X44.32Y-78.35
X44.35Y-57.09
X44.43Y-61.53
X44.52Y-76.47
X46.62Y-65.39
X47.4Y-26.73
X48.02Y-61.02
X48.715Y-66.99
X51.56Y-72.31
X53.42Y-57.05
X55.84Y-62.1
T2
X30.21Y-14.68
X32.75Y-12.14
X35.29Y-14.68
T3
X2.718Y-93.053
X2.718Y-104.991
X5.258Y-90.513
X5.258Y-95.593
X5.258Y-102.451
X5.258Y-107.531
X7.798Y-90.513
X7.798Y-95.593
X7.798Y-102.451
X7.798Y-107.531
X10.338Y-90.513
X10.338Y-95.593
X10.338Y-102.451
X10.338Y-107.531
X12.878Y-93.053
X12.878Y-104.991
T4
X5.258Y-2.017
X5.258Y-19.67
X5.258Y-37.323
X5.258Y-54.976
X5.258Y-72.629
X7.798Y-2.017
X7.798Y-19.67
X7.798Y-37.323
X7.798Y-54.976
X7.798Y-72.629
X10.338Y-2.017
X10.338Y-19.67
X10.338Y-37.323
X10.338Y-54.976
X10.338Y-72.629
X25.527Y-9.03
X25.527Y-21.73
X25.527Y-34.43
X25.527Y-47.13
X25.527Y-59.83
X25.527Y-72.53
X25.527Y-85.23
X25.527Y-97.93
X57.074Y-5.588
X57.074Y-17.97
X57.074Y-30.353
X57.074Y-42.735
X57.074Y-55.118
X57.074Y-67.501
X57.074Y-79.883
X57.074Y-92.265
X57.074Y-104.648
T5
X16.74Y-2.23
X16.74Y-4.77
X16.74Y-7.31
X16.74Y-9.85
X16.74Y-12.39
X16.74Y-14.93
X16.74Y-17.47
X16.74Y-20.01
X19.28Y-2.23
X19.28Y-4.77
X19.28Y-7.31
X19.28Y-9.85
X19.28Y-12.39
X19.28Y-14.93
X19.28Y-17.47
X19.28Y-20.01
X25.02Y-2.42
X27.56Y-2.42
T6
X19.56Y-86.69
X19.56Y-89.23
X19.56Y-91.77
X22.1Y-86.69
X22.1Y-89.23
X22.1Y-91.77
T7
X27.94Y-9.03
X27.94Y-21.73
X27.94Y-34.43
X27.94Y-47.13
X27.94Y-59.83
X27.94Y-72.53
X27.94Y-85.23
X27.94Y-97.93
X36.5Y-9.03
X36.5Y-21.73
X36.5Y-34.43
X36.5Y-47.13
X36.5Y-59.83
X36.5Y-72.53
X36.5Y-85.23
X36.5Y-97.93
X46.101Y-5.588
X46.101Y-17.97
X46.101Y-30.353
X46.101Y-42.735
X46.101Y-55.118
X46.101Y-67.501
X46.101Y-79.883
X46.101Y-92.265
X46.101Y-104.648
X54.661Y-5.588
X54.661Y-17.97
X54.661Y-30.353
X54.661Y-42.735
X54.661Y-55.118
X54.661Y-67.501
X54.661Y-79.883
X54.661Y-92.265
X54.661Y-104.648
T8
X3.404Y-9.028
X3.404Y-26.681
X3.404Y-44.334
X3.404Y-61.987
X3.404Y-79.64
X12.192Y-9.028
X12.192Y-26.681
X12.192Y-44.334
X12.192Y-61.987
X12.192Y-79.64
T0
M30
