G04 #@! TF.GenerationSoftware,KiCad,Pcbnew,(5.99.0-11177-g6c67dfa032)*
G04 #@! TF.CreationDate,2021-08-04T13:50:32-07:00*
G04 #@! TF.ProjectId,SCMv3,53434d76-332e-46b6-9963-61645f706362,rev?*
G04 #@! TF.SameCoordinates,Original*
G04 #@! TF.FileFunction,Legend,Top*
G04 #@! TF.FilePolarity,Positive*
%FSLAX46Y46*%
G04 Gerber Fmt 4.6, Leading zero omitted, Abs format (unit mm)*
G04 Created by KiCad (PCBNEW (5.99.0-11177-g6c67dfa032)) date 2021-08-04 13:50:32*
%MOMM*%
%LPD*%
G01*
G04 APERTURE LIST*
G04 Aperture macros list*
%AMRoundRect*
0 Rectangle with rounded corners*
0 $1 Rounding radius*
0 $2 $3 $4 $5 $6 $7 $8 $9 X,Y pos of 4 corners*
0 Add a 4 corners polygon primitive as box body*
4,1,4,$2,$3,$4,$5,$6,$7,$8,$9,$2,$3,0*
0 Add four circle primitives for the rounded corners*
1,1,$1+$1,$2,$3*
1,1,$1+$1,$4,$5*
1,1,$1+$1,$6,$7*
1,1,$1+$1,$8,$9*
0 Add four rect primitives between the rounded corners*
20,1,$1+$1,$2,$3,$4,$5,0*
20,1,$1+$1,$4,$5,$6,$7,0*
20,1,$1+$1,$6,$7,$8,$9,0*
20,1,$1+$1,$8,$9,$2,$3,0*%
%AMOutline4P*
0 Free polygon, 4 corners , with rotation*
0 The origin of the aperture is its center*
0 number of corners: always 4*
0 $1 to $8 corner X, Y*
0 $9 Rotation angle, in degrees counterclockwise*
0 create outline with 4 corners*
4,1,4,$1,$2,$3,$4,$5,$6,$7,$8,$1,$2,$9*%
G04 Aperture macros list end*
%ADD10C,0.150000*%
%ADD11C,0.152400*%
%ADD12C,0.101600*%
%ADD13C,0.120000*%
%ADD14C,0.127000*%
%ADD15C,0.508000*%
%ADD16C,0.635000*%
%ADD17C,0.100000*%
%ADD18R,0.800100X0.800100*%
%ADD19R,1.200000X2.200000*%
%ADD20R,5.800000X6.400000*%
%ADD21R,1.000000X1.000000*%
%ADD22C,1.651000*%
%ADD23R,1.150000X1.400000*%
%ADD24R,2.499360X1.800860*%
%ADD25R,1.450000X0.450000*%
%ADD26R,0.450000X1.450000*%
%ADD27R,3.000000X1.600000*%
%ADD28C,1.397000*%
%ADD29R,1.700000X1.700000*%
%ADD30O,1.700000X1.700000*%
%ADD31R,1.000000X1.500000*%
%ADD32Outline4P,-1.100000X-0.500000X1.100000X-0.500000X0.400000X0.500000X-0.400000X0.500000X180.000000*%
%ADD33Outline4P,-1.100000X-0.425000X1.100000X-0.425000X0.500000X0.425000X-0.500000X0.425000X0.000000*%
%ADD34R,1.000000X1.800000*%
%ADD35R,2.200000X1.840000*%
%ADD36R,0.550000X1.600000*%
%ADD37R,1.600000X0.550000*%
%ADD38C,1.930400*%
%ADD39C,1.778000*%
%ADD40RoundRect,0.127000X0.635000X0.635000X-0.635000X0.635000X-0.635000X-0.635000X0.635000X-0.635000X0*%
%ADD41C,1.803400*%
%ADD42C,2.667000*%
G04 APERTURE END LIST*
D10*
X12207428Y-20304428D02*
X12788000Y-20304428D01*
X13550000Y-20594714D02*
X13114571Y-20594714D01*
X13332285Y-20594714D02*
X13332285Y-19832714D01*
X13259714Y-19941571D01*
X13187142Y-20014142D01*
X13114571Y-20050428D01*
X13840285Y-19905285D02*
X13876571Y-19869000D01*
X13949142Y-19832714D01*
X14130571Y-19832714D01*
X14203142Y-19869000D01*
X14239428Y-19905285D01*
X14275714Y-19977857D01*
X14275714Y-20050428D01*
X14239428Y-20159285D01*
X13804000Y-20594714D01*
X14275714Y-20594714D01*
X14493428Y-19832714D02*
X14747428Y-20594714D01*
X15001428Y-19832714D01*
X19873809Y-85122380D02*
X19873809Y-84122380D01*
X20302380Y-85074761D02*
X20445238Y-85122380D01*
X20683333Y-85122380D01*
X20778571Y-85074761D01*
X20826190Y-85027142D01*
X20873809Y-84931904D01*
X20873809Y-84836666D01*
X20826190Y-84741428D01*
X20778571Y-84693809D01*
X20683333Y-84646190D01*
X20492857Y-84598571D01*
X20397619Y-84550952D01*
X20350000Y-84503333D01*
X20302380Y-84408095D01*
X20302380Y-84312857D01*
X20350000Y-84217619D01*
X20397619Y-84170000D01*
X20492857Y-84122380D01*
X20730952Y-84122380D01*
X20873809Y-84170000D01*
X21302380Y-85122380D02*
X21302380Y-84122380D01*
X21683333Y-84122380D01*
X21778571Y-84170000D01*
X21826190Y-84217619D01*
X21873809Y-84312857D01*
X21873809Y-84455714D01*
X21826190Y-84550952D01*
X21778571Y-84598571D01*
X21683333Y-84646190D01*
X21302380Y-84646190D01*
X15152380Y-15669523D02*
X14152380Y-15669523D01*
X14152380Y-15288571D01*
X14200000Y-15193333D01*
X14247619Y-15145714D01*
X14342857Y-15098095D01*
X14485714Y-15098095D01*
X14580952Y-15145714D01*
X14628571Y-15193333D01*
X14676190Y-15288571D01*
X14676190Y-15669523D01*
X14152380Y-14479047D02*
X14152380Y-14288571D01*
X14200000Y-14193333D01*
X14295238Y-14098095D01*
X14485714Y-14050476D01*
X14819047Y-14050476D01*
X15009523Y-14098095D01*
X15104761Y-14193333D01*
X15152380Y-14288571D01*
X15152380Y-14479047D01*
X15104761Y-14574285D01*
X15009523Y-14669523D01*
X14819047Y-14717142D01*
X14485714Y-14717142D01*
X14295238Y-14669523D01*
X14200000Y-14574285D01*
X14152380Y-14479047D01*
X14152380Y-13717142D02*
X15152380Y-13479047D01*
X14438095Y-13288571D01*
X15152380Y-13098095D01*
X14152380Y-12860000D01*
X14628571Y-12479047D02*
X14628571Y-12145714D01*
X15152380Y-12002857D02*
X15152380Y-12479047D01*
X14152380Y-12479047D01*
X14152380Y-12002857D01*
X15152380Y-11002857D02*
X14676190Y-11336190D01*
X15152380Y-11574285D02*
X14152380Y-11574285D01*
X14152380Y-11193333D01*
X14200000Y-11098095D01*
X14247619Y-11050476D01*
X14342857Y-11002857D01*
X14485714Y-11002857D01*
X14580952Y-11050476D01*
X14628571Y-11098095D01*
X14676190Y-11193333D01*
X14676190Y-11574285D01*
X32674761Y-108317619D02*
X32579523Y-108270000D01*
X32484285Y-108174761D01*
X32341428Y-108031904D01*
X32246190Y-107984285D01*
X32150952Y-107984285D01*
X32198571Y-108222380D02*
X32103333Y-108174761D01*
X32008095Y-108079523D01*
X31960476Y-107889047D01*
X31960476Y-107555714D01*
X32008095Y-107365238D01*
X32103333Y-107270000D01*
X32198571Y-107222380D01*
X32389047Y-107222380D01*
X32484285Y-107270000D01*
X32579523Y-107365238D01*
X32627142Y-107555714D01*
X32627142Y-107889047D01*
X32579523Y-108079523D01*
X32484285Y-108174761D01*
X32389047Y-108222380D01*
X32198571Y-108222380D01*
X33484285Y-107555714D02*
X33484285Y-108222380D01*
X33246190Y-107174761D02*
X33008095Y-107889047D01*
X33627142Y-107889047D01*
X21914761Y-106507619D02*
X21819523Y-106460000D01*
X21724285Y-106364761D01*
X21581428Y-106221904D01*
X21486190Y-106174285D01*
X21390952Y-106174285D01*
X21438571Y-106412380D02*
X21343333Y-106364761D01*
X21248095Y-106269523D01*
X21200476Y-106079047D01*
X21200476Y-105745714D01*
X21248095Y-105555238D01*
X21343333Y-105460000D01*
X21438571Y-105412380D01*
X21629047Y-105412380D01*
X21724285Y-105460000D01*
X21819523Y-105555238D01*
X21867142Y-105745714D01*
X21867142Y-106079047D01*
X21819523Y-106269523D01*
X21724285Y-106364761D01*
X21629047Y-106412380D01*
X21438571Y-106412380D01*
X22200476Y-105412380D02*
X22819523Y-105412380D01*
X22486190Y-105793333D01*
X22629047Y-105793333D01*
X22724285Y-105840952D01*
X22771904Y-105888571D01*
X22819523Y-105983809D01*
X22819523Y-106221904D01*
X22771904Y-106317142D01*
X22724285Y-106364761D01*
X22629047Y-106412380D01*
X22343333Y-106412380D01*
X22248095Y-106364761D01*
X22200476Y-106317142D01*
X31074761Y-90097619D02*
X30979523Y-90050000D01*
X30884285Y-89954761D01*
X30741428Y-89811904D01*
X30646190Y-89764285D01*
X30550952Y-89764285D01*
X30598571Y-90002380D02*
X30503333Y-89954761D01*
X30408095Y-89859523D01*
X30360476Y-89669047D01*
X30360476Y-89335714D01*
X30408095Y-89145238D01*
X30503333Y-89050000D01*
X30598571Y-89002380D01*
X30789047Y-89002380D01*
X30884285Y-89050000D01*
X30979523Y-89145238D01*
X31027142Y-89335714D01*
X31027142Y-89669047D01*
X30979523Y-89859523D01*
X30884285Y-89954761D01*
X30789047Y-90002380D01*
X30598571Y-90002380D01*
X31408095Y-89097619D02*
X31455714Y-89050000D01*
X31550952Y-89002380D01*
X31789047Y-89002380D01*
X31884285Y-89050000D01*
X31931904Y-89097619D01*
X31979523Y-89192857D01*
X31979523Y-89288095D01*
X31931904Y-89430952D01*
X31360476Y-90002380D01*
X31979523Y-90002380D01*
X13904761Y-99697619D02*
X13809523Y-99650000D01*
X13714285Y-99554761D01*
X13571428Y-99411904D01*
X13476190Y-99364285D01*
X13380952Y-99364285D01*
X13428571Y-99602380D02*
X13333333Y-99554761D01*
X13238095Y-99459523D01*
X13190476Y-99269047D01*
X13190476Y-98935714D01*
X13238095Y-98745238D01*
X13333333Y-98650000D01*
X13428571Y-98602380D01*
X13619047Y-98602380D01*
X13714285Y-98650000D01*
X13809523Y-98745238D01*
X13857142Y-98935714D01*
X13857142Y-99269047D01*
X13809523Y-99459523D01*
X13714285Y-99554761D01*
X13619047Y-99602380D01*
X13428571Y-99602380D01*
X14809523Y-99602380D02*
X14238095Y-99602380D01*
X14523809Y-99602380D02*
X14523809Y-98602380D01*
X14428571Y-98745238D01*
X14333333Y-98840476D01*
X14238095Y-98888095D01*
X22280476Y-36532380D02*
X22613809Y-37532380D01*
X22947142Y-36532380D01*
X23851904Y-37532380D02*
X23518571Y-37056190D01*
X23280476Y-37532380D02*
X23280476Y-36532380D01*
X23661428Y-36532380D01*
X23756666Y-36580000D01*
X23804285Y-36627619D01*
X23851904Y-36722857D01*
X23851904Y-36865714D01*
X23804285Y-36960952D01*
X23756666Y-37008571D01*
X23661428Y-37056190D01*
X23280476Y-37056190D01*
X24804285Y-37532380D02*
X24232857Y-37532380D01*
X24518571Y-37532380D02*
X24518571Y-36532380D01*
X24423333Y-36675238D01*
X24328095Y-36770476D01*
X24232857Y-36818095D01*
X44352142Y-40904047D02*
X44135476Y-40594523D01*
X43980714Y-40904047D02*
X43980714Y-40254047D01*
X44228333Y-40254047D01*
X44290238Y-40285000D01*
X44321190Y-40315952D01*
X44352142Y-40377857D01*
X44352142Y-40470714D01*
X44321190Y-40532619D01*
X44290238Y-40563571D01*
X44228333Y-40594523D01*
X43980714Y-40594523D01*
X44971190Y-40904047D02*
X44599761Y-40904047D01*
X44785476Y-40904047D02*
X44785476Y-40254047D01*
X44723571Y-40346904D01*
X44661666Y-40408809D01*
X44599761Y-40439761D01*
X45187857Y-40254047D02*
X45621190Y-40254047D01*
X45342619Y-40904047D01*
X13791309Y-1012380D02*
X13791309Y-1726666D01*
X13743690Y-1869523D01*
X13648452Y-1964761D01*
X13505595Y-2012380D01*
X13410357Y-2012380D01*
X14172261Y-1012380D02*
X14791309Y-1012380D01*
X14457976Y-1393333D01*
X14600833Y-1393333D01*
X14696071Y-1440952D01*
X14743690Y-1488571D01*
X14791309Y-1583809D01*
X14791309Y-1821904D01*
X14743690Y-1917142D01*
X14696071Y-1964761D01*
X14600833Y-2012380D01*
X14315119Y-2012380D01*
X14219880Y-1964761D01*
X14172261Y-1917142D01*
X55392142Y-65892142D02*
X55361190Y-65923095D01*
X55268333Y-65954047D01*
X55206428Y-65954047D01*
X55113571Y-65923095D01*
X55051666Y-65861190D01*
X55020714Y-65799285D01*
X54989761Y-65675476D01*
X54989761Y-65582619D01*
X55020714Y-65458809D01*
X55051666Y-65396904D01*
X55113571Y-65335000D01*
X55206428Y-65304047D01*
X55268333Y-65304047D01*
X55361190Y-65335000D01*
X55392142Y-65365952D01*
X56011190Y-65954047D02*
X55639761Y-65954047D01*
X55825476Y-65954047D02*
X55825476Y-65304047D01*
X55763571Y-65396904D01*
X55701666Y-65458809D01*
X55639761Y-65489761D01*
X56227857Y-65304047D02*
X56661190Y-65304047D01*
X56382619Y-65954047D01*
X22756071Y-73466190D02*
X22756071Y-73942380D01*
X22422738Y-72942380D02*
X22756071Y-73466190D01*
X23089404Y-72942380D01*
X23946547Y-73942380D02*
X23375119Y-73942380D01*
X23660833Y-73942380D02*
X23660833Y-72942380D01*
X23565595Y-73085238D01*
X23470357Y-73180476D01*
X23375119Y-73228095D01*
X45682142Y-37524047D02*
X45465476Y-37214523D01*
X45310714Y-37524047D02*
X45310714Y-36874047D01*
X45558333Y-36874047D01*
X45620238Y-36905000D01*
X45651190Y-36935952D01*
X45682142Y-36997857D01*
X45682142Y-37090714D01*
X45651190Y-37152619D01*
X45620238Y-37183571D01*
X45558333Y-37214523D01*
X45310714Y-37214523D01*
X46301190Y-37524047D02*
X45929761Y-37524047D01*
X46115476Y-37524047D02*
X46115476Y-36874047D01*
X46053571Y-36966904D01*
X45991666Y-37028809D01*
X45929761Y-37059761D01*
X46548809Y-36935952D02*
X46579761Y-36905000D01*
X46641666Y-36874047D01*
X46796428Y-36874047D01*
X46858333Y-36905000D01*
X46889285Y-36935952D01*
X46920238Y-36997857D01*
X46920238Y-37059761D01*
X46889285Y-37152619D01*
X46517857Y-37524047D01*
X46920238Y-37524047D01*
X47472142Y-106934047D02*
X47255476Y-106624523D01*
X47100714Y-106934047D02*
X47100714Y-106284047D01*
X47348333Y-106284047D01*
X47410238Y-106315000D01*
X47441190Y-106345952D01*
X47472142Y-106407857D01*
X47472142Y-106500714D01*
X47441190Y-106562619D01*
X47410238Y-106593571D01*
X47348333Y-106624523D01*
X47100714Y-106624523D01*
X47688809Y-106284047D02*
X48091190Y-106284047D01*
X47874523Y-106531666D01*
X47967380Y-106531666D01*
X48029285Y-106562619D01*
X48060238Y-106593571D01*
X48091190Y-106655476D01*
X48091190Y-106810238D01*
X48060238Y-106872142D01*
X48029285Y-106903095D01*
X47967380Y-106934047D01*
X47781666Y-106934047D01*
X47719761Y-106903095D01*
X47688809Y-106872142D01*
X48648333Y-106500714D02*
X48648333Y-106934047D01*
X48493571Y-106253095D02*
X48338809Y-106717380D01*
X48741190Y-106717380D01*
X5702142Y-22524047D02*
X5485476Y-22214523D01*
X5330714Y-22524047D02*
X5330714Y-21874047D01*
X5578333Y-21874047D01*
X5640238Y-21905000D01*
X5671190Y-21935952D01*
X5702142Y-21997857D01*
X5702142Y-22090714D01*
X5671190Y-22152619D01*
X5640238Y-22183571D01*
X5578333Y-22214523D01*
X5330714Y-22214523D01*
X5949761Y-21935952D02*
X5980714Y-21905000D01*
X6042619Y-21874047D01*
X6197380Y-21874047D01*
X6259285Y-21905000D01*
X6290238Y-21935952D01*
X6321190Y-21997857D01*
X6321190Y-22059761D01*
X6290238Y-22152619D01*
X5918809Y-22524047D01*
X6321190Y-22524047D01*
X6940238Y-22524047D02*
X6568809Y-22524047D01*
X6754523Y-22524047D02*
X6754523Y-21874047D01*
X6692619Y-21966904D01*
X6630714Y-22028809D01*
X6568809Y-22059761D01*
X27632142Y-19194047D02*
X27415476Y-18884523D01*
X27260714Y-19194047D02*
X27260714Y-18544047D01*
X27508333Y-18544047D01*
X27570238Y-18575000D01*
X27601190Y-18605952D01*
X27632142Y-18667857D01*
X27632142Y-18760714D01*
X27601190Y-18822619D01*
X27570238Y-18853571D01*
X27508333Y-18884523D01*
X27260714Y-18884523D01*
X28189285Y-18760714D02*
X28189285Y-19194047D01*
X28034523Y-18513095D02*
X27879761Y-18977380D01*
X28282142Y-18977380D01*
X28498809Y-18605952D02*
X28529761Y-18575000D01*
X28591666Y-18544047D01*
X28746428Y-18544047D01*
X28808333Y-18575000D01*
X28839285Y-18605952D01*
X28870238Y-18667857D01*
X28870238Y-18729761D01*
X28839285Y-18822619D01*
X28467857Y-19194047D01*
X28870238Y-19194047D01*
X17321666Y-76952142D02*
X17290714Y-76983095D01*
X17197857Y-77014047D01*
X17135952Y-77014047D01*
X17043095Y-76983095D01*
X16981190Y-76921190D01*
X16950238Y-76859285D01*
X16919285Y-76735476D01*
X16919285Y-76642619D01*
X16950238Y-76518809D01*
X16981190Y-76456904D01*
X17043095Y-76395000D01*
X17135952Y-76364047D01*
X17197857Y-76364047D01*
X17290714Y-76395000D01*
X17321666Y-76425952D01*
X17909761Y-76364047D02*
X17600238Y-76364047D01*
X17569285Y-76673571D01*
X17600238Y-76642619D01*
X17662142Y-76611666D01*
X17816904Y-76611666D01*
X17878809Y-76642619D01*
X17909761Y-76673571D01*
X17940714Y-76735476D01*
X17940714Y-76890238D01*
X17909761Y-76952142D01*
X17878809Y-76983095D01*
X17816904Y-77014047D01*
X17662142Y-77014047D01*
X17600238Y-76983095D01*
X17569285Y-76952142D01*
X24162142Y-100734047D02*
X23945476Y-100424523D01*
X23790714Y-100734047D02*
X23790714Y-100084047D01*
X24038333Y-100084047D01*
X24100238Y-100115000D01*
X24131190Y-100145952D01*
X24162142Y-100207857D01*
X24162142Y-100300714D01*
X24131190Y-100362619D01*
X24100238Y-100393571D01*
X24038333Y-100424523D01*
X23790714Y-100424523D01*
X24409761Y-100145952D02*
X24440714Y-100115000D01*
X24502619Y-100084047D01*
X24657380Y-100084047D01*
X24719285Y-100115000D01*
X24750238Y-100145952D01*
X24781190Y-100207857D01*
X24781190Y-100269761D01*
X24750238Y-100362619D01*
X24378809Y-100734047D01*
X24781190Y-100734047D01*
X25028809Y-100145952D02*
X25059761Y-100115000D01*
X25121666Y-100084047D01*
X25276428Y-100084047D01*
X25338333Y-100115000D01*
X25369285Y-100145952D01*
X25400238Y-100207857D01*
X25400238Y-100269761D01*
X25369285Y-100362619D01*
X24997857Y-100734047D01*
X25400238Y-100734047D01*
X45862142Y-86714047D02*
X45645476Y-86404523D01*
X45490714Y-86714047D02*
X45490714Y-86064047D01*
X45738333Y-86064047D01*
X45800238Y-86095000D01*
X45831190Y-86125952D01*
X45862142Y-86187857D01*
X45862142Y-86280714D01*
X45831190Y-86342619D01*
X45800238Y-86373571D01*
X45738333Y-86404523D01*
X45490714Y-86404523D01*
X46109761Y-86125952D02*
X46140714Y-86095000D01*
X46202619Y-86064047D01*
X46357380Y-86064047D01*
X46419285Y-86095000D01*
X46450238Y-86125952D01*
X46481190Y-86187857D01*
X46481190Y-86249761D01*
X46450238Y-86342619D01*
X46078809Y-86714047D01*
X46481190Y-86714047D01*
X46852619Y-86342619D02*
X46790714Y-86311666D01*
X46759761Y-86280714D01*
X46728809Y-86218809D01*
X46728809Y-86187857D01*
X46759761Y-86125952D01*
X46790714Y-86095000D01*
X46852619Y-86064047D01*
X46976428Y-86064047D01*
X47038333Y-86095000D01*
X47069285Y-86125952D01*
X47100238Y-86187857D01*
X47100238Y-86218809D01*
X47069285Y-86280714D01*
X47038333Y-86311666D01*
X46976428Y-86342619D01*
X46852619Y-86342619D01*
X46790714Y-86373571D01*
X46759761Y-86404523D01*
X46728809Y-86466428D01*
X46728809Y-86590238D01*
X46759761Y-86652142D01*
X46790714Y-86683095D01*
X46852619Y-86714047D01*
X46976428Y-86714047D01*
X47038333Y-86683095D01*
X47069285Y-86652142D01*
X47100238Y-86590238D01*
X47100238Y-86466428D01*
X47069285Y-86404523D01*
X47038333Y-86373571D01*
X46976428Y-86342619D01*
X6291904Y-29332380D02*
X6291904Y-28332380D01*
X6530000Y-28332380D01*
X6672857Y-28380000D01*
X6768095Y-28475238D01*
X6815714Y-28570476D01*
X6863333Y-28760952D01*
X6863333Y-28903809D01*
X6815714Y-29094285D01*
X6768095Y-29189523D01*
X6672857Y-29284761D01*
X6530000Y-29332380D01*
X6291904Y-29332380D01*
X7720476Y-28665714D02*
X7720476Y-29332380D01*
X7482380Y-28284761D02*
X7244285Y-28999047D01*
X7863333Y-28999047D01*
X32392142Y-58654047D02*
X32175476Y-58344523D01*
X32020714Y-58654047D02*
X32020714Y-58004047D01*
X32268333Y-58004047D01*
X32330238Y-58035000D01*
X32361190Y-58065952D01*
X32392142Y-58127857D01*
X32392142Y-58220714D01*
X32361190Y-58282619D01*
X32330238Y-58313571D01*
X32268333Y-58344523D01*
X32020714Y-58344523D01*
X32608809Y-58004047D02*
X33011190Y-58004047D01*
X32794523Y-58251666D01*
X32887380Y-58251666D01*
X32949285Y-58282619D01*
X32980238Y-58313571D01*
X33011190Y-58375476D01*
X33011190Y-58530238D01*
X32980238Y-58592142D01*
X32949285Y-58623095D01*
X32887380Y-58654047D01*
X32701666Y-58654047D01*
X32639761Y-58623095D01*
X32608809Y-58592142D01*
X33227857Y-58004047D02*
X33661190Y-58004047D01*
X33382619Y-58654047D01*
X42881666Y-22724047D02*
X42665000Y-22414523D01*
X42510238Y-22724047D02*
X42510238Y-22074047D01*
X42757857Y-22074047D01*
X42819761Y-22105000D01*
X42850714Y-22135952D01*
X42881666Y-22197857D01*
X42881666Y-22290714D01*
X42850714Y-22352619D01*
X42819761Y-22383571D01*
X42757857Y-22414523D01*
X42510238Y-22414523D01*
X43253095Y-22352619D02*
X43191190Y-22321666D01*
X43160238Y-22290714D01*
X43129285Y-22228809D01*
X43129285Y-22197857D01*
X43160238Y-22135952D01*
X43191190Y-22105000D01*
X43253095Y-22074047D01*
X43376904Y-22074047D01*
X43438809Y-22105000D01*
X43469761Y-22135952D01*
X43500714Y-22197857D01*
X43500714Y-22228809D01*
X43469761Y-22290714D01*
X43438809Y-22321666D01*
X43376904Y-22352619D01*
X43253095Y-22352619D01*
X43191190Y-22383571D01*
X43160238Y-22414523D01*
X43129285Y-22476428D01*
X43129285Y-22600238D01*
X43160238Y-22662142D01*
X43191190Y-22693095D01*
X43253095Y-22724047D01*
X43376904Y-22724047D01*
X43438809Y-22693095D01*
X43469761Y-22662142D01*
X43500714Y-22600238D01*
X43500714Y-22476428D01*
X43469761Y-22414523D01*
X43438809Y-22383571D01*
X43376904Y-22352619D01*
X20051904Y-95652380D02*
X20051904Y-94652380D01*
X20290000Y-94652380D01*
X20432857Y-94700000D01*
X20528095Y-94795238D01*
X20575714Y-94890476D01*
X20623333Y-95080952D01*
X20623333Y-95223809D01*
X20575714Y-95414285D01*
X20528095Y-95509523D01*
X20432857Y-95604761D01*
X20290000Y-95652380D01*
X20051904Y-95652380D01*
X21528095Y-94652380D02*
X21051904Y-94652380D01*
X21004285Y-95128571D01*
X21051904Y-95080952D01*
X21147142Y-95033333D01*
X21385238Y-95033333D01*
X21480476Y-95080952D01*
X21528095Y-95128571D01*
X21575714Y-95223809D01*
X21575714Y-95461904D01*
X21528095Y-95557142D01*
X21480476Y-95604761D01*
X21385238Y-95652380D01*
X21147142Y-95652380D01*
X21051904Y-95604761D01*
X21004285Y-95557142D01*
X9802142Y-82492142D02*
X9771190Y-82523095D01*
X9678333Y-82554047D01*
X9616428Y-82554047D01*
X9523571Y-82523095D01*
X9461666Y-82461190D01*
X9430714Y-82399285D01*
X9399761Y-82275476D01*
X9399761Y-82182619D01*
X9430714Y-82058809D01*
X9461666Y-81996904D01*
X9523571Y-81935000D01*
X9616428Y-81904047D01*
X9678333Y-81904047D01*
X9771190Y-81935000D01*
X9802142Y-81965952D01*
X10421190Y-82554047D02*
X10049761Y-82554047D01*
X10235476Y-82554047D02*
X10235476Y-81904047D01*
X10173571Y-81996904D01*
X10111666Y-82058809D01*
X10049761Y-82089761D01*
X11040238Y-82554047D02*
X10668809Y-82554047D01*
X10854523Y-82554047D02*
X10854523Y-81904047D01*
X10792619Y-81996904D01*
X10730714Y-82058809D01*
X10668809Y-82089761D01*
X45652142Y-74364047D02*
X45435476Y-74054523D01*
X45280714Y-74364047D02*
X45280714Y-73714047D01*
X45528333Y-73714047D01*
X45590238Y-73745000D01*
X45621190Y-73775952D01*
X45652142Y-73837857D01*
X45652142Y-73930714D01*
X45621190Y-73992619D01*
X45590238Y-74023571D01*
X45528333Y-74054523D01*
X45280714Y-74054523D01*
X45899761Y-73775952D02*
X45930714Y-73745000D01*
X45992619Y-73714047D01*
X46147380Y-73714047D01*
X46209285Y-73745000D01*
X46240238Y-73775952D01*
X46271190Y-73837857D01*
X46271190Y-73899761D01*
X46240238Y-73992619D01*
X45868809Y-74364047D01*
X46271190Y-74364047D01*
X46487857Y-73714047D02*
X46890238Y-73714047D01*
X46673571Y-73961666D01*
X46766428Y-73961666D01*
X46828333Y-73992619D01*
X46859285Y-74023571D01*
X46890238Y-74085476D01*
X46890238Y-74240238D01*
X46859285Y-74302142D01*
X46828333Y-74333095D01*
X46766428Y-74364047D01*
X46580714Y-74364047D01*
X46518809Y-74333095D01*
X46487857Y-74302142D01*
D11*
X21956285Y-22929619D02*
X21956285Y-21913619D01*
X22198190Y-21913619D01*
X22343333Y-21962000D01*
X22440095Y-22058761D01*
X22488476Y-22155523D01*
X22536857Y-22349047D01*
X22536857Y-22494190D01*
X22488476Y-22687714D01*
X22440095Y-22784476D01*
X22343333Y-22881238D01*
X22198190Y-22929619D01*
X21956285Y-22929619D01*
X23504476Y-22929619D02*
X22923904Y-22929619D01*
X23214190Y-22929619D02*
X23214190Y-21913619D01*
X23117428Y-22058761D01*
X23020666Y-22155523D01*
X22923904Y-22203904D01*
X24472095Y-22929619D02*
X23891523Y-22929619D01*
X24181809Y-22929619D02*
X24181809Y-21913619D01*
X24085047Y-22058761D01*
X23988285Y-22155523D01*
X23891523Y-22203904D01*
D10*
X31973809Y-83492380D02*
X31973809Y-82492380D01*
X33021428Y-83397142D02*
X32973809Y-83444761D01*
X32830952Y-83492380D01*
X32735714Y-83492380D01*
X32592857Y-83444761D01*
X32497619Y-83349523D01*
X32450000Y-83254285D01*
X32402380Y-83063809D01*
X32402380Y-82920952D01*
X32450000Y-82730476D01*
X32497619Y-82635238D01*
X32592857Y-82540000D01*
X32735714Y-82492380D01*
X32830952Y-82492380D01*
X32973809Y-82540000D01*
X33021428Y-82587619D01*
X33402380Y-82587619D02*
X33450000Y-82540000D01*
X33545238Y-82492380D01*
X33783333Y-82492380D01*
X33878571Y-82540000D01*
X33926190Y-82587619D01*
X33973809Y-82682857D01*
X33973809Y-82778095D01*
X33926190Y-82920952D01*
X33354761Y-83492380D01*
X33973809Y-83492380D01*
X40732142Y-107854047D02*
X40515476Y-107544523D01*
X40360714Y-107854047D02*
X40360714Y-107204047D01*
X40608333Y-107204047D01*
X40670238Y-107235000D01*
X40701190Y-107265952D01*
X40732142Y-107327857D01*
X40732142Y-107420714D01*
X40701190Y-107482619D01*
X40670238Y-107513571D01*
X40608333Y-107544523D01*
X40360714Y-107544523D01*
X40948809Y-107204047D02*
X41351190Y-107204047D01*
X41134523Y-107451666D01*
X41227380Y-107451666D01*
X41289285Y-107482619D01*
X41320238Y-107513571D01*
X41351190Y-107575476D01*
X41351190Y-107730238D01*
X41320238Y-107792142D01*
X41289285Y-107823095D01*
X41227380Y-107854047D01*
X41041666Y-107854047D01*
X40979761Y-107823095D01*
X40948809Y-107792142D01*
X41939285Y-107204047D02*
X41629761Y-107204047D01*
X41598809Y-107513571D01*
X41629761Y-107482619D01*
X41691666Y-107451666D01*
X41846428Y-107451666D01*
X41908333Y-107482619D01*
X41939285Y-107513571D01*
X41970238Y-107575476D01*
X41970238Y-107730238D01*
X41939285Y-107792142D01*
X41908333Y-107823095D01*
X41846428Y-107854047D01*
X41691666Y-107854047D01*
X41629761Y-107823095D01*
X41598809Y-107792142D01*
X20692142Y-58772142D02*
X20661190Y-58803095D01*
X20568333Y-58834047D01*
X20506428Y-58834047D01*
X20413571Y-58803095D01*
X20351666Y-58741190D01*
X20320714Y-58679285D01*
X20289761Y-58555476D01*
X20289761Y-58462619D01*
X20320714Y-58338809D01*
X20351666Y-58276904D01*
X20413571Y-58215000D01*
X20506428Y-58184047D01*
X20568333Y-58184047D01*
X20661190Y-58215000D01*
X20692142Y-58245952D01*
X21311190Y-58834047D02*
X20939761Y-58834047D01*
X21125476Y-58834047D02*
X21125476Y-58184047D01*
X21063571Y-58276904D01*
X21001666Y-58338809D01*
X20939761Y-58369761D01*
X21899285Y-58184047D02*
X21589761Y-58184047D01*
X21558809Y-58493571D01*
X21589761Y-58462619D01*
X21651666Y-58431666D01*
X21806428Y-58431666D01*
X21868333Y-58462619D01*
X21899285Y-58493571D01*
X21930238Y-58555476D01*
X21930238Y-58710238D01*
X21899285Y-58772142D01*
X21868333Y-58803095D01*
X21806428Y-58834047D01*
X21651666Y-58834047D01*
X21589761Y-58803095D01*
X21558809Y-58772142D01*
X22272142Y-19232142D02*
X22241190Y-19263095D01*
X22148333Y-19294047D01*
X22086428Y-19294047D01*
X21993571Y-19263095D01*
X21931666Y-19201190D01*
X21900714Y-19139285D01*
X21869761Y-19015476D01*
X21869761Y-18922619D01*
X21900714Y-18798809D01*
X21931666Y-18736904D01*
X21993571Y-18675000D01*
X22086428Y-18644047D01*
X22148333Y-18644047D01*
X22241190Y-18675000D01*
X22272142Y-18705952D01*
X22891190Y-19294047D02*
X22519761Y-19294047D01*
X22705476Y-19294047D02*
X22705476Y-18644047D01*
X22643571Y-18736904D01*
X22581666Y-18798809D01*
X22519761Y-18829761D01*
X23448333Y-18644047D02*
X23324523Y-18644047D01*
X23262619Y-18675000D01*
X23231666Y-18705952D01*
X23169761Y-18798809D01*
X23138809Y-18922619D01*
X23138809Y-19170238D01*
X23169761Y-19232142D01*
X23200714Y-19263095D01*
X23262619Y-19294047D01*
X23386428Y-19294047D01*
X23448333Y-19263095D01*
X23479285Y-19232142D01*
X23510238Y-19170238D01*
X23510238Y-19015476D01*
X23479285Y-18953571D01*
X23448333Y-18922619D01*
X23386428Y-18891666D01*
X23262619Y-18891666D01*
X23200714Y-18922619D01*
X23169761Y-18953571D01*
X23138809Y-19015476D01*
X42482142Y-35174047D02*
X42265476Y-34864523D01*
X42110714Y-35174047D02*
X42110714Y-34524047D01*
X42358333Y-34524047D01*
X42420238Y-34555000D01*
X42451190Y-34585952D01*
X42482142Y-34647857D01*
X42482142Y-34740714D01*
X42451190Y-34802619D01*
X42420238Y-34833571D01*
X42358333Y-34864523D01*
X42110714Y-34864523D01*
X43101190Y-35174047D02*
X42729761Y-35174047D01*
X42915476Y-35174047D02*
X42915476Y-34524047D01*
X42853571Y-34616904D01*
X42791666Y-34678809D01*
X42729761Y-34709761D01*
X43658333Y-34740714D02*
X43658333Y-35174047D01*
X43503571Y-34493095D02*
X43348809Y-34957380D01*
X43751190Y-34957380D01*
X36672142Y-103074047D02*
X36455476Y-102764523D01*
X36300714Y-103074047D02*
X36300714Y-102424047D01*
X36548333Y-102424047D01*
X36610238Y-102455000D01*
X36641190Y-102485952D01*
X36672142Y-102547857D01*
X36672142Y-102640714D01*
X36641190Y-102702619D01*
X36610238Y-102733571D01*
X36548333Y-102764523D01*
X36300714Y-102764523D01*
X36919761Y-102485952D02*
X36950714Y-102455000D01*
X37012619Y-102424047D01*
X37167380Y-102424047D01*
X37229285Y-102455000D01*
X37260238Y-102485952D01*
X37291190Y-102547857D01*
X37291190Y-102609761D01*
X37260238Y-102702619D01*
X36888809Y-103074047D01*
X37291190Y-103074047D01*
X37848333Y-102424047D02*
X37724523Y-102424047D01*
X37662619Y-102455000D01*
X37631666Y-102485952D01*
X37569761Y-102578809D01*
X37538809Y-102702619D01*
X37538809Y-102950238D01*
X37569761Y-103012142D01*
X37600714Y-103043095D01*
X37662619Y-103074047D01*
X37786428Y-103074047D01*
X37848333Y-103043095D01*
X37879285Y-103012142D01*
X37910238Y-102950238D01*
X37910238Y-102795476D01*
X37879285Y-102733571D01*
X37848333Y-102702619D01*
X37786428Y-102671666D01*
X37662619Y-102671666D01*
X37600714Y-102702619D01*
X37569761Y-102733571D01*
X37538809Y-102795476D01*
X11701666Y-22592142D02*
X11670714Y-22623095D01*
X11577857Y-22654047D01*
X11515952Y-22654047D01*
X11423095Y-22623095D01*
X11361190Y-22561190D01*
X11330238Y-22499285D01*
X11299285Y-22375476D01*
X11299285Y-22282619D01*
X11330238Y-22158809D01*
X11361190Y-22096904D01*
X11423095Y-22035000D01*
X11515952Y-22004047D01*
X11577857Y-22004047D01*
X11670714Y-22035000D01*
X11701666Y-22065952D01*
X12258809Y-22004047D02*
X12135000Y-22004047D01*
X12073095Y-22035000D01*
X12042142Y-22065952D01*
X11980238Y-22158809D01*
X11949285Y-22282619D01*
X11949285Y-22530238D01*
X11980238Y-22592142D01*
X12011190Y-22623095D01*
X12073095Y-22654047D01*
X12196904Y-22654047D01*
X12258809Y-22623095D01*
X12289761Y-22592142D01*
X12320714Y-22530238D01*
X12320714Y-22375476D01*
X12289761Y-22313571D01*
X12258809Y-22282619D01*
X12196904Y-22251666D01*
X12073095Y-22251666D01*
X12011190Y-22282619D01*
X11980238Y-22313571D01*
X11949285Y-22375476D01*
X5702142Y-80404047D02*
X5485476Y-80094523D01*
X5330714Y-80404047D02*
X5330714Y-79754047D01*
X5578333Y-79754047D01*
X5640238Y-79785000D01*
X5671190Y-79815952D01*
X5702142Y-79877857D01*
X5702142Y-79970714D01*
X5671190Y-80032619D01*
X5640238Y-80063571D01*
X5578333Y-80094523D01*
X5330714Y-80094523D01*
X6259285Y-79970714D02*
X6259285Y-80404047D01*
X6104523Y-79723095D02*
X5949761Y-80187380D01*
X6352142Y-80187380D01*
X6940238Y-80404047D02*
X6568809Y-80404047D01*
X6754523Y-80404047D02*
X6754523Y-79754047D01*
X6692619Y-79846904D01*
X6630714Y-79908809D01*
X6568809Y-79939761D01*
X9701666Y-85864047D02*
X9485000Y-85554523D01*
X9330238Y-85864047D02*
X9330238Y-85214047D01*
X9577857Y-85214047D01*
X9639761Y-85245000D01*
X9670714Y-85275952D01*
X9701666Y-85337857D01*
X9701666Y-85430714D01*
X9670714Y-85492619D01*
X9639761Y-85523571D01*
X9577857Y-85554523D01*
X9330238Y-85554523D01*
X9918333Y-85214047D02*
X10351666Y-85214047D01*
X10073095Y-85864047D01*
X36871666Y-95244047D02*
X36655000Y-94934523D01*
X36500238Y-95244047D02*
X36500238Y-94594047D01*
X36747857Y-94594047D01*
X36809761Y-94625000D01*
X36840714Y-94655952D01*
X36871666Y-94717857D01*
X36871666Y-94810714D01*
X36840714Y-94872619D01*
X36809761Y-94903571D01*
X36747857Y-94934523D01*
X36500238Y-94934523D01*
X37181190Y-95244047D02*
X37305000Y-95244047D01*
X37366904Y-95213095D01*
X37397857Y-95182142D01*
X37459761Y-95089285D01*
X37490714Y-94965476D01*
X37490714Y-94717857D01*
X37459761Y-94655952D01*
X37428809Y-94625000D01*
X37366904Y-94594047D01*
X37243095Y-94594047D01*
X37181190Y-94625000D01*
X37150238Y-94655952D01*
X37119285Y-94717857D01*
X37119285Y-94872619D01*
X37150238Y-94934523D01*
X37181190Y-94965476D01*
X37243095Y-94996428D01*
X37366904Y-94996428D01*
X37428809Y-94965476D01*
X37459761Y-94934523D01*
X37490714Y-94872619D01*
X12341904Y-90312380D02*
X12341904Y-89312380D01*
X12580000Y-89312380D01*
X12722857Y-89360000D01*
X12818095Y-89455238D01*
X12865714Y-89550476D01*
X12913333Y-89740952D01*
X12913333Y-89883809D01*
X12865714Y-90074285D01*
X12818095Y-90169523D01*
X12722857Y-90264761D01*
X12580000Y-90312380D01*
X12341904Y-90312380D01*
X13294285Y-89407619D02*
X13341904Y-89360000D01*
X13437142Y-89312380D01*
X13675238Y-89312380D01*
X13770476Y-89360000D01*
X13818095Y-89407619D01*
X13865714Y-89502857D01*
X13865714Y-89598095D01*
X13818095Y-89740952D01*
X13246666Y-90312380D01*
X13865714Y-90312380D01*
X26992142Y-83142142D02*
X26961190Y-83173095D01*
X26868333Y-83204047D01*
X26806428Y-83204047D01*
X26713571Y-83173095D01*
X26651666Y-83111190D01*
X26620714Y-83049285D01*
X26589761Y-82925476D01*
X26589761Y-82832619D01*
X26620714Y-82708809D01*
X26651666Y-82646904D01*
X26713571Y-82585000D01*
X26806428Y-82554047D01*
X26868333Y-82554047D01*
X26961190Y-82585000D01*
X26992142Y-82615952D01*
X27239761Y-82615952D02*
X27270714Y-82585000D01*
X27332619Y-82554047D01*
X27487380Y-82554047D01*
X27549285Y-82585000D01*
X27580238Y-82615952D01*
X27611190Y-82677857D01*
X27611190Y-82739761D01*
X27580238Y-82832619D01*
X27208809Y-83204047D01*
X27611190Y-83204047D01*
X28013571Y-82554047D02*
X28075476Y-82554047D01*
X28137380Y-82585000D01*
X28168333Y-82615952D01*
X28199285Y-82677857D01*
X28230238Y-82801666D01*
X28230238Y-82956428D01*
X28199285Y-83080238D01*
X28168333Y-83142142D01*
X28137380Y-83173095D01*
X28075476Y-83204047D01*
X28013571Y-83204047D01*
X27951666Y-83173095D01*
X27920714Y-83142142D01*
X27889761Y-83080238D01*
X27858809Y-82956428D01*
X27858809Y-82801666D01*
X27889761Y-82677857D01*
X27920714Y-82615952D01*
X27951666Y-82585000D01*
X28013571Y-82554047D01*
X45702142Y-62502142D02*
X45671190Y-62533095D01*
X45578333Y-62564047D01*
X45516428Y-62564047D01*
X45423571Y-62533095D01*
X45361666Y-62471190D01*
X45330714Y-62409285D01*
X45299761Y-62285476D01*
X45299761Y-62192619D01*
X45330714Y-62068809D01*
X45361666Y-62006904D01*
X45423571Y-61945000D01*
X45516428Y-61914047D01*
X45578333Y-61914047D01*
X45671190Y-61945000D01*
X45702142Y-61975952D01*
X46321190Y-62564047D02*
X45949761Y-62564047D01*
X46135476Y-62564047D02*
X46135476Y-61914047D01*
X46073571Y-62006904D01*
X46011666Y-62068809D01*
X45949761Y-62099761D01*
X46692619Y-62192619D02*
X46630714Y-62161666D01*
X46599761Y-62130714D01*
X46568809Y-62068809D01*
X46568809Y-62037857D01*
X46599761Y-61975952D01*
X46630714Y-61945000D01*
X46692619Y-61914047D01*
X46816428Y-61914047D01*
X46878333Y-61945000D01*
X46909285Y-61975952D01*
X46940238Y-62037857D01*
X46940238Y-62068809D01*
X46909285Y-62130714D01*
X46878333Y-62161666D01*
X46816428Y-62192619D01*
X46692619Y-62192619D01*
X46630714Y-62223571D01*
X46599761Y-62254523D01*
X46568809Y-62316428D01*
X46568809Y-62440238D01*
X46599761Y-62502142D01*
X46630714Y-62533095D01*
X46692619Y-62564047D01*
X46816428Y-62564047D01*
X46878333Y-62533095D01*
X46909285Y-62502142D01*
X46940238Y-62440238D01*
X46940238Y-62316428D01*
X46909285Y-62254523D01*
X46878333Y-62223571D01*
X46816428Y-62192619D01*
X42492142Y-62524047D02*
X42275476Y-62214523D01*
X42120714Y-62524047D02*
X42120714Y-61874047D01*
X42368333Y-61874047D01*
X42430238Y-61905000D01*
X42461190Y-61935952D01*
X42492142Y-61997857D01*
X42492142Y-62090714D01*
X42461190Y-62152619D01*
X42430238Y-62183571D01*
X42368333Y-62214523D01*
X42120714Y-62214523D01*
X43111190Y-62524047D02*
X42739761Y-62524047D01*
X42925476Y-62524047D02*
X42925476Y-61874047D01*
X42863571Y-61966904D01*
X42801666Y-62028809D01*
X42739761Y-62059761D01*
X43420714Y-62524047D02*
X43544523Y-62524047D01*
X43606428Y-62493095D01*
X43637380Y-62462142D01*
X43699285Y-62369285D01*
X43730238Y-62245476D01*
X43730238Y-61997857D01*
X43699285Y-61935952D01*
X43668333Y-61905000D01*
X43606428Y-61874047D01*
X43482619Y-61874047D01*
X43420714Y-61905000D01*
X43389761Y-61935952D01*
X43358809Y-61997857D01*
X43358809Y-62152619D01*
X43389761Y-62214523D01*
X43420714Y-62245476D01*
X43482619Y-62276428D01*
X43606428Y-62276428D01*
X43668333Y-62245476D01*
X43699285Y-62214523D01*
X43730238Y-62152619D01*
X22171666Y-79162142D02*
X22140714Y-79193095D01*
X22047857Y-79224047D01*
X21985952Y-79224047D01*
X21893095Y-79193095D01*
X21831190Y-79131190D01*
X21800238Y-79069285D01*
X21769285Y-78945476D01*
X21769285Y-78852619D01*
X21800238Y-78728809D01*
X21831190Y-78666904D01*
X21893095Y-78605000D01*
X21985952Y-78574047D01*
X22047857Y-78574047D01*
X22140714Y-78605000D01*
X22171666Y-78635952D01*
X22728809Y-78790714D02*
X22728809Y-79224047D01*
X22574047Y-78543095D02*
X22419285Y-79007380D01*
X22821666Y-79007380D01*
X11564047Y-70137857D02*
X11254523Y-70354523D01*
X11564047Y-70509285D02*
X10914047Y-70509285D01*
X10914047Y-70261666D01*
X10945000Y-70199761D01*
X10975952Y-70168809D01*
X11037857Y-70137857D01*
X11130714Y-70137857D01*
X11192619Y-70168809D01*
X11223571Y-70199761D01*
X11254523Y-70261666D01*
X11254523Y-70509285D01*
X11564047Y-69518809D02*
X11564047Y-69890238D01*
X11564047Y-69704523D02*
X10914047Y-69704523D01*
X11006904Y-69766428D01*
X11068809Y-69828333D01*
X11099761Y-69890238D01*
X10914047Y-68961666D02*
X10914047Y-69085476D01*
X10945000Y-69147380D01*
X10975952Y-69178333D01*
X11068809Y-69240238D01*
X11192619Y-69271190D01*
X11440238Y-69271190D01*
X11502142Y-69240238D01*
X11533095Y-69209285D01*
X11564047Y-69147380D01*
X11564047Y-69023571D01*
X11533095Y-68961666D01*
X11502142Y-68930714D01*
X11440238Y-68899761D01*
X11285476Y-68899761D01*
X11223571Y-68930714D01*
X11192619Y-68961666D01*
X11161666Y-69023571D01*
X11161666Y-69147380D01*
X11192619Y-69209285D01*
X11223571Y-69240238D01*
X11285476Y-69271190D01*
X49753809Y-67742380D02*
X49753809Y-66742380D01*
X50801428Y-67647142D02*
X50753809Y-67694761D01*
X50610952Y-67742380D01*
X50515714Y-67742380D01*
X50372857Y-67694761D01*
X50277619Y-67599523D01*
X50230000Y-67504285D01*
X50182380Y-67313809D01*
X50182380Y-67170952D01*
X50230000Y-66980476D01*
X50277619Y-66885238D01*
X50372857Y-66790000D01*
X50515714Y-66742380D01*
X50610952Y-66742380D01*
X50753809Y-66790000D01*
X50801428Y-66837619D01*
X51753809Y-67742380D02*
X51182380Y-67742380D01*
X51468095Y-67742380D02*
X51468095Y-66742380D01*
X51372857Y-66885238D01*
X51277619Y-66980476D01*
X51182380Y-67028095D01*
X9302142Y-57962142D02*
X9271190Y-57993095D01*
X9178333Y-58024047D01*
X9116428Y-58024047D01*
X9023571Y-57993095D01*
X8961666Y-57931190D01*
X8930714Y-57869285D01*
X8899761Y-57745476D01*
X8899761Y-57652619D01*
X8930714Y-57528809D01*
X8961666Y-57466904D01*
X9023571Y-57405000D01*
X9116428Y-57374047D01*
X9178333Y-57374047D01*
X9271190Y-57405000D01*
X9302142Y-57435952D01*
X9921190Y-58024047D02*
X9549761Y-58024047D01*
X9735476Y-58024047D02*
X9735476Y-57374047D01*
X9673571Y-57466904D01*
X9611666Y-57528809D01*
X9549761Y-57559761D01*
X10323571Y-57374047D02*
X10385476Y-57374047D01*
X10447380Y-57405000D01*
X10478333Y-57435952D01*
X10509285Y-57497857D01*
X10540238Y-57621666D01*
X10540238Y-57776428D01*
X10509285Y-57900238D01*
X10478333Y-57962142D01*
X10447380Y-57993095D01*
X10385476Y-58024047D01*
X10323571Y-58024047D01*
X10261666Y-57993095D01*
X10230714Y-57962142D01*
X10199761Y-57900238D01*
X10168809Y-57776428D01*
X10168809Y-57621666D01*
X10199761Y-57497857D01*
X10230714Y-57435952D01*
X10261666Y-57405000D01*
X10323571Y-57374047D01*
X10771666Y-13292142D02*
X10740714Y-13323095D01*
X10647857Y-13354047D01*
X10585952Y-13354047D01*
X10493095Y-13323095D01*
X10431190Y-13261190D01*
X10400238Y-13199285D01*
X10369285Y-13075476D01*
X10369285Y-12982619D01*
X10400238Y-12858809D01*
X10431190Y-12796904D01*
X10493095Y-12735000D01*
X10585952Y-12704047D01*
X10647857Y-12704047D01*
X10740714Y-12735000D01*
X10771666Y-12765952D01*
X10988333Y-12704047D02*
X11390714Y-12704047D01*
X11174047Y-12951666D01*
X11266904Y-12951666D01*
X11328809Y-12982619D01*
X11359761Y-13013571D01*
X11390714Y-13075476D01*
X11390714Y-13230238D01*
X11359761Y-13292142D01*
X11328809Y-13323095D01*
X11266904Y-13354047D01*
X11081190Y-13354047D01*
X11019285Y-13323095D01*
X10988333Y-13292142D01*
D11*
X18146857Y-51472857D02*
X18098476Y-51521238D01*
X17953333Y-51569619D01*
X17856571Y-51569619D01*
X17711428Y-51521238D01*
X17614666Y-51424476D01*
X17566285Y-51327714D01*
X17517904Y-51134190D01*
X17517904Y-50989047D01*
X17566285Y-50795523D01*
X17614666Y-50698761D01*
X17711428Y-50602000D01*
X17856571Y-50553619D01*
X17953333Y-50553619D01*
X18098476Y-50602000D01*
X18146857Y-50650380D01*
X19114476Y-51569619D02*
X18533904Y-51569619D01*
X18824190Y-51569619D02*
X18824190Y-50553619D01*
X18727428Y-50698761D01*
X18630666Y-50795523D01*
X18533904Y-50843904D01*
X19501523Y-50650380D02*
X19549904Y-50602000D01*
X19646666Y-50553619D01*
X19888571Y-50553619D01*
X19985333Y-50602000D01*
X20033714Y-50650380D01*
X20082095Y-50747142D01*
X20082095Y-50843904D01*
X20033714Y-50989047D01*
X19453142Y-51569619D01*
X20082095Y-51569619D01*
D10*
X15169047Y-49741428D02*
X15930952Y-49741428D01*
X15550000Y-50122380D02*
X15550000Y-49360476D01*
D11*
X11546857Y-35722857D02*
X11498476Y-35771238D01*
X11353333Y-35819619D01*
X11256571Y-35819619D01*
X11111428Y-35771238D01*
X11014666Y-35674476D01*
X10966285Y-35577714D01*
X10917904Y-35384190D01*
X10917904Y-35239047D01*
X10966285Y-35045523D01*
X11014666Y-34948761D01*
X11111428Y-34852000D01*
X11256571Y-34803619D01*
X11353333Y-34803619D01*
X11498476Y-34852000D01*
X11546857Y-34900380D01*
X12514476Y-35819619D02*
X11933904Y-35819619D01*
X12224190Y-35819619D02*
X12224190Y-34803619D01*
X12127428Y-34948761D01*
X12030666Y-35045523D01*
X11933904Y-35093904D01*
X13385333Y-35142285D02*
X13385333Y-35819619D01*
X13143428Y-34755238D02*
X12901523Y-35480952D01*
X13530476Y-35480952D01*
D10*
X13889047Y-29401428D02*
X14650952Y-29401428D01*
X14270000Y-29782380D02*
X14270000Y-29020476D01*
X39201666Y-5584047D02*
X38985000Y-5274523D01*
X38830238Y-5584047D02*
X38830238Y-4934047D01*
X39077857Y-4934047D01*
X39139761Y-4965000D01*
X39170714Y-4995952D01*
X39201666Y-5057857D01*
X39201666Y-5150714D01*
X39170714Y-5212619D01*
X39139761Y-5243571D01*
X39077857Y-5274523D01*
X38830238Y-5274523D01*
X39820714Y-5584047D02*
X39449285Y-5584047D01*
X39635000Y-5584047D02*
X39635000Y-4934047D01*
X39573095Y-5026904D01*
X39511190Y-5088809D01*
X39449285Y-5119761D01*
X32482738Y-18902380D02*
X33054166Y-18902380D01*
X32768452Y-19902380D02*
X32768452Y-18902380D01*
X33958928Y-19902380D02*
X33625595Y-19426190D01*
X33387500Y-19902380D02*
X33387500Y-18902380D01*
X33768452Y-18902380D01*
X33863690Y-18950000D01*
X33911309Y-18997619D01*
X33958928Y-19092857D01*
X33958928Y-19235714D01*
X33911309Y-19330952D01*
X33863690Y-19378571D01*
X33768452Y-19426190D01*
X33387500Y-19426190D01*
X34387500Y-19902380D02*
X34387500Y-18902380D01*
X34863690Y-19902380D02*
X34863690Y-18902380D01*
X35197023Y-19616666D01*
X35530357Y-18902380D01*
X35530357Y-19902380D01*
X36530357Y-19902380D02*
X35958928Y-19902380D01*
X36244642Y-19902380D02*
X36244642Y-18902380D01*
X36149404Y-19045238D01*
X36054166Y-19140476D01*
X35958928Y-19188095D01*
X23856666Y-92642380D02*
X23856666Y-93356666D01*
X23809047Y-93499523D01*
X23713809Y-93594761D01*
X23570952Y-93642380D01*
X23475714Y-93642380D01*
X24856666Y-93642380D02*
X24285238Y-93642380D01*
X24570952Y-93642380D02*
X24570952Y-92642380D01*
X24475714Y-92785238D01*
X24380476Y-92880476D01*
X24285238Y-92928095D01*
X13152142Y-109244047D02*
X12935476Y-108934523D01*
X12780714Y-109244047D02*
X12780714Y-108594047D01*
X13028333Y-108594047D01*
X13090238Y-108625000D01*
X13121190Y-108655952D01*
X13152142Y-108717857D01*
X13152142Y-108810714D01*
X13121190Y-108872619D01*
X13090238Y-108903571D01*
X13028333Y-108934523D01*
X12780714Y-108934523D01*
X13771190Y-109244047D02*
X13399761Y-109244047D01*
X13585476Y-109244047D02*
X13585476Y-108594047D01*
X13523571Y-108686904D01*
X13461666Y-108748809D01*
X13399761Y-108779761D01*
X14142619Y-108872619D02*
X14080714Y-108841666D01*
X14049761Y-108810714D01*
X14018809Y-108748809D01*
X14018809Y-108717857D01*
X14049761Y-108655952D01*
X14080714Y-108625000D01*
X14142619Y-108594047D01*
X14266428Y-108594047D01*
X14328333Y-108625000D01*
X14359285Y-108655952D01*
X14390238Y-108717857D01*
X14390238Y-108748809D01*
X14359285Y-108810714D01*
X14328333Y-108841666D01*
X14266428Y-108872619D01*
X14142619Y-108872619D01*
X14080714Y-108903571D01*
X14049761Y-108934523D01*
X14018809Y-108996428D01*
X14018809Y-109120238D01*
X14049761Y-109182142D01*
X14080714Y-109213095D01*
X14142619Y-109244047D01*
X14266428Y-109244047D01*
X14328333Y-109213095D01*
X14359285Y-109182142D01*
X14390238Y-109120238D01*
X14390238Y-108996428D01*
X14359285Y-108934523D01*
X14328333Y-108903571D01*
X14266428Y-108872619D01*
X36172142Y-90214047D02*
X35955476Y-89904523D01*
X35800714Y-90214047D02*
X35800714Y-89564047D01*
X36048333Y-89564047D01*
X36110238Y-89595000D01*
X36141190Y-89625952D01*
X36172142Y-89687857D01*
X36172142Y-89780714D01*
X36141190Y-89842619D01*
X36110238Y-89873571D01*
X36048333Y-89904523D01*
X35800714Y-89904523D01*
X36791190Y-90214047D02*
X36419761Y-90214047D01*
X36605476Y-90214047D02*
X36605476Y-89564047D01*
X36543571Y-89656904D01*
X36481666Y-89718809D01*
X36419761Y-89749761D01*
X37410238Y-90214047D02*
X37038809Y-90214047D01*
X37224523Y-90214047D02*
X37224523Y-89564047D01*
X37162619Y-89656904D01*
X37100714Y-89718809D01*
X37038809Y-89749761D01*
X6404047Y-58147857D02*
X6094523Y-58364523D01*
X6404047Y-58519285D02*
X5754047Y-58519285D01*
X5754047Y-58271666D01*
X5785000Y-58209761D01*
X5815952Y-58178809D01*
X5877857Y-58147857D01*
X5970714Y-58147857D01*
X6032619Y-58178809D01*
X6063571Y-58209761D01*
X6094523Y-58271666D01*
X6094523Y-58519285D01*
X5754047Y-57931190D02*
X5754047Y-57528809D01*
X6001666Y-57745476D01*
X6001666Y-57652619D01*
X6032619Y-57590714D01*
X6063571Y-57559761D01*
X6125476Y-57528809D01*
X6280238Y-57528809D01*
X6342142Y-57559761D01*
X6373095Y-57590714D01*
X6404047Y-57652619D01*
X6404047Y-57838333D01*
X6373095Y-57900238D01*
X6342142Y-57931190D01*
X6032619Y-57157380D02*
X6001666Y-57219285D01*
X5970714Y-57250238D01*
X5908809Y-57281190D01*
X5877857Y-57281190D01*
X5815952Y-57250238D01*
X5785000Y-57219285D01*
X5754047Y-57157380D01*
X5754047Y-57033571D01*
X5785000Y-56971666D01*
X5815952Y-56940714D01*
X5877857Y-56909761D01*
X5908809Y-56909761D01*
X5970714Y-56940714D01*
X6001666Y-56971666D01*
X6032619Y-57033571D01*
X6032619Y-57157380D01*
X6063571Y-57219285D01*
X6094523Y-57250238D01*
X6156428Y-57281190D01*
X6280238Y-57281190D01*
X6342142Y-57250238D01*
X6373095Y-57219285D01*
X6404047Y-57157380D01*
X6404047Y-57033571D01*
X6373095Y-56971666D01*
X6342142Y-56940714D01*
X6280238Y-56909761D01*
X6156428Y-56909761D01*
X6094523Y-56940714D01*
X6063571Y-56971666D01*
X6032619Y-57033571D01*
X39562142Y-13794047D02*
X39345476Y-13484523D01*
X39190714Y-13794047D02*
X39190714Y-13144047D01*
X39438333Y-13144047D01*
X39500238Y-13175000D01*
X39531190Y-13205952D01*
X39562142Y-13267857D01*
X39562142Y-13360714D01*
X39531190Y-13422619D01*
X39500238Y-13453571D01*
X39438333Y-13484523D01*
X39190714Y-13484523D01*
X39778809Y-13144047D02*
X40181190Y-13144047D01*
X39964523Y-13391666D01*
X40057380Y-13391666D01*
X40119285Y-13422619D01*
X40150238Y-13453571D01*
X40181190Y-13515476D01*
X40181190Y-13670238D01*
X40150238Y-13732142D01*
X40119285Y-13763095D01*
X40057380Y-13794047D01*
X39871666Y-13794047D01*
X39809761Y-13763095D01*
X39778809Y-13732142D01*
X40738333Y-13144047D02*
X40614523Y-13144047D01*
X40552619Y-13175000D01*
X40521666Y-13205952D01*
X40459761Y-13298809D01*
X40428809Y-13422619D01*
X40428809Y-13670238D01*
X40459761Y-13732142D01*
X40490714Y-13763095D01*
X40552619Y-13794047D01*
X40676428Y-13794047D01*
X40738333Y-13763095D01*
X40769285Y-13732142D01*
X40800238Y-13670238D01*
X40800238Y-13515476D01*
X40769285Y-13453571D01*
X40738333Y-13422619D01*
X40676428Y-13391666D01*
X40552619Y-13391666D01*
X40490714Y-13422619D01*
X40459761Y-13453571D01*
X40428809Y-13515476D01*
X31583809Y-9372380D02*
X31583809Y-8372380D01*
X32631428Y-9277142D02*
X32583809Y-9324761D01*
X32440952Y-9372380D01*
X32345714Y-9372380D01*
X32202857Y-9324761D01*
X32107619Y-9229523D01*
X32060000Y-9134285D01*
X32012380Y-8943809D01*
X32012380Y-8800952D01*
X32060000Y-8610476D01*
X32107619Y-8515238D01*
X32202857Y-8420000D01*
X32345714Y-8372380D01*
X32440952Y-8372380D01*
X32583809Y-8420000D01*
X32631428Y-8467619D01*
X32964761Y-8372380D02*
X33583809Y-8372380D01*
X33250476Y-8753333D01*
X33393333Y-8753333D01*
X33488571Y-8800952D01*
X33536190Y-8848571D01*
X33583809Y-8943809D01*
X33583809Y-9181904D01*
X33536190Y-9277142D01*
X33488571Y-9324761D01*
X33393333Y-9372380D01*
X33107619Y-9372380D01*
X33012380Y-9324761D01*
X32964761Y-9277142D01*
X42911666Y-10344047D02*
X42695000Y-10034523D01*
X42540238Y-10344047D02*
X42540238Y-9694047D01*
X42787857Y-9694047D01*
X42849761Y-9725000D01*
X42880714Y-9755952D01*
X42911666Y-9817857D01*
X42911666Y-9910714D01*
X42880714Y-9972619D01*
X42849761Y-10003571D01*
X42787857Y-10034523D01*
X42540238Y-10034523D01*
X43468809Y-9910714D02*
X43468809Y-10344047D01*
X43314047Y-9663095D02*
X43159285Y-10127380D01*
X43561666Y-10127380D01*
X4871904Y-17692380D02*
X4871904Y-16692380D01*
X5110000Y-16692380D01*
X5252857Y-16740000D01*
X5348095Y-16835238D01*
X5395714Y-16930476D01*
X5443333Y-17120952D01*
X5443333Y-17263809D01*
X5395714Y-17454285D01*
X5348095Y-17549523D01*
X5252857Y-17644761D01*
X5110000Y-17692380D01*
X4871904Y-17692380D01*
X5776666Y-16692380D02*
X6395714Y-16692380D01*
X6062380Y-17073333D01*
X6205238Y-17073333D01*
X6300476Y-17120952D01*
X6348095Y-17168571D01*
X6395714Y-17263809D01*
X6395714Y-17501904D01*
X6348095Y-17597142D01*
X6300476Y-17644761D01*
X6205238Y-17692380D01*
X5919523Y-17692380D01*
X5824285Y-17644761D01*
X5776666Y-17597142D01*
X5702142Y-39674047D02*
X5485476Y-39364523D01*
X5330714Y-39674047D02*
X5330714Y-39024047D01*
X5578333Y-39024047D01*
X5640238Y-39055000D01*
X5671190Y-39085952D01*
X5702142Y-39147857D01*
X5702142Y-39240714D01*
X5671190Y-39302619D01*
X5640238Y-39333571D01*
X5578333Y-39364523D01*
X5330714Y-39364523D01*
X5918809Y-39024047D02*
X6321190Y-39024047D01*
X6104523Y-39271666D01*
X6197380Y-39271666D01*
X6259285Y-39302619D01*
X6290238Y-39333571D01*
X6321190Y-39395476D01*
X6321190Y-39550238D01*
X6290238Y-39612142D01*
X6259285Y-39643095D01*
X6197380Y-39674047D01*
X6011666Y-39674047D01*
X5949761Y-39643095D01*
X5918809Y-39612142D01*
X6537857Y-39024047D02*
X6940238Y-39024047D01*
X6723571Y-39271666D01*
X6816428Y-39271666D01*
X6878333Y-39302619D01*
X6909285Y-39333571D01*
X6940238Y-39395476D01*
X6940238Y-39550238D01*
X6909285Y-39612142D01*
X6878333Y-39643095D01*
X6816428Y-39674047D01*
X6630714Y-39674047D01*
X6568809Y-39643095D01*
X6537857Y-39612142D01*
X42022142Y-68264047D02*
X41805476Y-67954523D01*
X41650714Y-68264047D02*
X41650714Y-67614047D01*
X41898333Y-67614047D01*
X41960238Y-67645000D01*
X41991190Y-67675952D01*
X42022142Y-67737857D01*
X42022142Y-67830714D01*
X41991190Y-67892619D01*
X41960238Y-67923571D01*
X41898333Y-67954523D01*
X41650714Y-67954523D01*
X42269761Y-67675952D02*
X42300714Y-67645000D01*
X42362619Y-67614047D01*
X42517380Y-67614047D01*
X42579285Y-67645000D01*
X42610238Y-67675952D01*
X42641190Y-67737857D01*
X42641190Y-67799761D01*
X42610238Y-67892619D01*
X42238809Y-68264047D01*
X42641190Y-68264047D01*
X43229285Y-67614047D02*
X42919761Y-67614047D01*
X42888809Y-67923571D01*
X42919761Y-67892619D01*
X42981666Y-67861666D01*
X43136428Y-67861666D01*
X43198333Y-67892619D01*
X43229285Y-67923571D01*
X43260238Y-67985476D01*
X43260238Y-68140238D01*
X43229285Y-68202142D01*
X43198333Y-68233095D01*
X43136428Y-68264047D01*
X42981666Y-68264047D01*
X42919761Y-68233095D01*
X42888809Y-68202142D01*
X44302142Y-53234047D02*
X44085476Y-52924523D01*
X43930714Y-53234047D02*
X43930714Y-52584047D01*
X44178333Y-52584047D01*
X44240238Y-52615000D01*
X44271190Y-52645952D01*
X44302142Y-52707857D01*
X44302142Y-52800714D01*
X44271190Y-52862619D01*
X44240238Y-52893571D01*
X44178333Y-52924523D01*
X43930714Y-52924523D01*
X44549761Y-52645952D02*
X44580714Y-52615000D01*
X44642619Y-52584047D01*
X44797380Y-52584047D01*
X44859285Y-52615000D01*
X44890238Y-52645952D01*
X44921190Y-52707857D01*
X44921190Y-52769761D01*
X44890238Y-52862619D01*
X44518809Y-53234047D01*
X44921190Y-53234047D01*
X45323571Y-52584047D02*
X45385476Y-52584047D01*
X45447380Y-52615000D01*
X45478333Y-52645952D01*
X45509285Y-52707857D01*
X45540238Y-52831666D01*
X45540238Y-52986428D01*
X45509285Y-53110238D01*
X45478333Y-53172142D01*
X45447380Y-53203095D01*
X45385476Y-53234047D01*
X45323571Y-53234047D01*
X45261666Y-53203095D01*
X45230714Y-53172142D01*
X45199761Y-53110238D01*
X45168809Y-52986428D01*
X45168809Y-52831666D01*
X45199761Y-52707857D01*
X45230714Y-52645952D01*
X45261666Y-52615000D01*
X45323571Y-52584047D01*
X14494285Y-38421428D02*
X14694285Y-39021428D01*
X14894285Y-38421428D01*
X15437142Y-39021428D02*
X15237142Y-38735714D01*
X15094285Y-39021428D02*
X15094285Y-38421428D01*
X15322857Y-38421428D01*
X15380000Y-38450000D01*
X15408571Y-38478571D01*
X15437142Y-38535714D01*
X15437142Y-38621428D01*
X15408571Y-38678571D01*
X15380000Y-38707142D01*
X15322857Y-38735714D01*
X15094285Y-38735714D01*
X15665714Y-38478571D02*
X15694285Y-38450000D01*
X15751428Y-38421428D01*
X15894285Y-38421428D01*
X15951428Y-38450000D01*
X15980000Y-38478571D01*
X16008571Y-38535714D01*
X16008571Y-38592857D01*
X15980000Y-38678571D01*
X15637142Y-39021428D01*
X16008571Y-39021428D01*
X45782142Y-99074047D02*
X45565476Y-98764523D01*
X45410714Y-99074047D02*
X45410714Y-98424047D01*
X45658333Y-98424047D01*
X45720238Y-98455000D01*
X45751190Y-98485952D01*
X45782142Y-98547857D01*
X45782142Y-98640714D01*
X45751190Y-98702619D01*
X45720238Y-98733571D01*
X45658333Y-98764523D01*
X45410714Y-98764523D01*
X45998809Y-98424047D02*
X46401190Y-98424047D01*
X46184523Y-98671666D01*
X46277380Y-98671666D01*
X46339285Y-98702619D01*
X46370238Y-98733571D01*
X46401190Y-98795476D01*
X46401190Y-98950238D01*
X46370238Y-99012142D01*
X46339285Y-99043095D01*
X46277380Y-99074047D01*
X46091666Y-99074047D01*
X46029761Y-99043095D01*
X45998809Y-99012142D01*
X47020238Y-99074047D02*
X46648809Y-99074047D01*
X46834523Y-99074047D02*
X46834523Y-98424047D01*
X46772619Y-98516904D01*
X46710714Y-98578809D01*
X46648809Y-98609761D01*
X14722142Y-94714047D02*
X14505476Y-94404523D01*
X14350714Y-94714047D02*
X14350714Y-94064047D01*
X14598333Y-94064047D01*
X14660238Y-94095000D01*
X14691190Y-94125952D01*
X14722142Y-94187857D01*
X14722142Y-94280714D01*
X14691190Y-94342619D01*
X14660238Y-94373571D01*
X14598333Y-94404523D01*
X14350714Y-94404523D01*
X15341190Y-94714047D02*
X14969761Y-94714047D01*
X15155476Y-94714047D02*
X15155476Y-94064047D01*
X15093571Y-94156904D01*
X15031666Y-94218809D01*
X14969761Y-94249761D01*
X15557857Y-94064047D02*
X15960238Y-94064047D01*
X15743571Y-94311666D01*
X15836428Y-94311666D01*
X15898333Y-94342619D01*
X15929285Y-94373571D01*
X15960238Y-94435476D01*
X15960238Y-94590238D01*
X15929285Y-94652142D01*
X15898333Y-94683095D01*
X15836428Y-94714047D01*
X15650714Y-94714047D01*
X15588809Y-94683095D01*
X15557857Y-94652142D01*
X25252142Y-6584047D02*
X25035476Y-6274523D01*
X24880714Y-6584047D02*
X24880714Y-5934047D01*
X25128333Y-5934047D01*
X25190238Y-5965000D01*
X25221190Y-5995952D01*
X25252142Y-6057857D01*
X25252142Y-6150714D01*
X25221190Y-6212619D01*
X25190238Y-6243571D01*
X25128333Y-6274523D01*
X24880714Y-6274523D01*
X25809285Y-6150714D02*
X25809285Y-6584047D01*
X25654523Y-5903095D02*
X25499761Y-6367380D01*
X25902142Y-6367380D01*
X26273571Y-5934047D02*
X26335476Y-5934047D01*
X26397380Y-5965000D01*
X26428333Y-5995952D01*
X26459285Y-6057857D01*
X26490238Y-6181666D01*
X26490238Y-6336428D01*
X26459285Y-6460238D01*
X26428333Y-6522142D01*
X26397380Y-6553095D01*
X26335476Y-6584047D01*
X26273571Y-6584047D01*
X26211666Y-6553095D01*
X26180714Y-6522142D01*
X26149761Y-6460238D01*
X26118809Y-6336428D01*
X26118809Y-6181666D01*
X26149761Y-6057857D01*
X26180714Y-5995952D01*
X26211666Y-5965000D01*
X26273571Y-5934047D01*
X44142142Y-90144047D02*
X43925476Y-89834523D01*
X43770714Y-90144047D02*
X43770714Y-89494047D01*
X44018333Y-89494047D01*
X44080238Y-89525000D01*
X44111190Y-89555952D01*
X44142142Y-89617857D01*
X44142142Y-89710714D01*
X44111190Y-89772619D01*
X44080238Y-89803571D01*
X44018333Y-89834523D01*
X43770714Y-89834523D01*
X44358809Y-89494047D02*
X44761190Y-89494047D01*
X44544523Y-89741666D01*
X44637380Y-89741666D01*
X44699285Y-89772619D01*
X44730238Y-89803571D01*
X44761190Y-89865476D01*
X44761190Y-90020238D01*
X44730238Y-90082142D01*
X44699285Y-90113095D01*
X44637380Y-90144047D01*
X44451666Y-90144047D01*
X44389761Y-90113095D01*
X44358809Y-90082142D01*
X45008809Y-89555952D02*
X45039761Y-89525000D01*
X45101666Y-89494047D01*
X45256428Y-89494047D01*
X45318333Y-89525000D01*
X45349285Y-89555952D01*
X45380238Y-89617857D01*
X45380238Y-89679761D01*
X45349285Y-89772619D01*
X44977857Y-90144047D01*
X45380238Y-90144047D01*
D11*
X22776285Y-16089619D02*
X22776285Y-15073619D01*
X23018190Y-15073619D01*
X23163333Y-15122000D01*
X23260095Y-15218761D01*
X23308476Y-15315523D01*
X23356857Y-15509047D01*
X23356857Y-15654190D01*
X23308476Y-15847714D01*
X23260095Y-15944476D01*
X23163333Y-16041238D01*
X23018190Y-16089619D01*
X22776285Y-16089619D01*
X24324476Y-16089619D02*
X23743904Y-16089619D01*
X24034190Y-16089619D02*
X24034190Y-15073619D01*
X23937428Y-15218761D01*
X23840666Y-15315523D01*
X23743904Y-15363904D01*
X24953428Y-15073619D02*
X25050190Y-15073619D01*
X25146952Y-15122000D01*
X25195333Y-15170380D01*
X25243714Y-15267142D01*
X25292095Y-15460666D01*
X25292095Y-15702571D01*
X25243714Y-15896095D01*
X25195333Y-15992857D01*
X25146952Y-16041238D01*
X25050190Y-16089619D01*
X24953428Y-16089619D01*
X24856666Y-16041238D01*
X24808285Y-15992857D01*
X24759904Y-15896095D01*
X24711523Y-15702571D01*
X24711523Y-15460666D01*
X24759904Y-15267142D01*
X24808285Y-15170380D01*
X24856666Y-15122000D01*
X24953428Y-15073619D01*
X28876857Y-32572857D02*
X28828476Y-32621238D01*
X28683333Y-32669619D01*
X28586571Y-32669619D01*
X28441428Y-32621238D01*
X28344666Y-32524476D01*
X28296285Y-32427714D01*
X28247904Y-32234190D01*
X28247904Y-32089047D01*
X28296285Y-31895523D01*
X28344666Y-31798761D01*
X28441428Y-31702000D01*
X28586571Y-31653619D01*
X28683333Y-31653619D01*
X28828476Y-31702000D01*
X28876857Y-31750380D01*
X29844476Y-32669619D02*
X29263904Y-32669619D01*
X29554190Y-32669619D02*
X29554190Y-31653619D01*
X29457428Y-31798761D01*
X29360666Y-31895523D01*
X29263904Y-31943904D01*
X30183142Y-31653619D02*
X30812095Y-31653619D01*
X30473428Y-32040666D01*
X30618571Y-32040666D01*
X30715333Y-32089047D01*
X30763714Y-32137428D01*
X30812095Y-32234190D01*
X30812095Y-32476095D01*
X30763714Y-32572857D01*
X30715333Y-32621238D01*
X30618571Y-32669619D01*
X30328285Y-32669619D01*
X30231523Y-32621238D01*
X30183142Y-32572857D01*
D10*
X22719047Y-30951428D02*
X23480952Y-30951428D01*
X23100000Y-31332380D02*
X23100000Y-30570476D01*
X5551904Y-46752380D02*
X5551904Y-45752380D01*
X5790000Y-45752380D01*
X5932857Y-45800000D01*
X6028095Y-45895238D01*
X6075714Y-45990476D01*
X6123333Y-46180952D01*
X6123333Y-46323809D01*
X6075714Y-46514285D01*
X6028095Y-46609523D01*
X5932857Y-46704761D01*
X5790000Y-46752380D01*
X5551904Y-46752380D01*
X6980476Y-45752380D02*
X6790000Y-45752380D01*
X6694761Y-45800000D01*
X6647142Y-45847619D01*
X6551904Y-45990476D01*
X6504285Y-46180952D01*
X6504285Y-46561904D01*
X6551904Y-46657142D01*
X6599523Y-46704761D01*
X6694761Y-46752380D01*
X6885238Y-46752380D01*
X6980476Y-46704761D01*
X7028095Y-46657142D01*
X7075714Y-46561904D01*
X7075714Y-46323809D01*
X7028095Y-46228571D01*
X6980476Y-46180952D01*
X6885238Y-46133333D01*
X6694761Y-46133333D01*
X6599523Y-46180952D01*
X6551904Y-46228571D01*
X6504285Y-46323809D01*
X6052142Y-8934047D02*
X5835476Y-8624523D01*
X5680714Y-8934047D02*
X5680714Y-8284047D01*
X5928333Y-8284047D01*
X5990238Y-8315000D01*
X6021190Y-8345952D01*
X6052142Y-8407857D01*
X6052142Y-8500714D01*
X6021190Y-8562619D01*
X5990238Y-8593571D01*
X5928333Y-8624523D01*
X5680714Y-8624523D01*
X6671190Y-8934047D02*
X6299761Y-8934047D01*
X6485476Y-8934047D02*
X6485476Y-8284047D01*
X6423571Y-8376904D01*
X6361666Y-8438809D01*
X6299761Y-8469761D01*
X7073571Y-8284047D02*
X7135476Y-8284047D01*
X7197380Y-8315000D01*
X7228333Y-8345952D01*
X7259285Y-8407857D01*
X7290238Y-8531666D01*
X7290238Y-8686428D01*
X7259285Y-8810238D01*
X7228333Y-8872142D01*
X7197380Y-8903095D01*
X7135476Y-8934047D01*
X7073571Y-8934047D01*
X7011666Y-8903095D01*
X6980714Y-8872142D01*
X6949761Y-8810238D01*
X6918809Y-8686428D01*
X6918809Y-8531666D01*
X6949761Y-8407857D01*
X6980714Y-8345952D01*
X7011666Y-8315000D01*
X7073571Y-8284047D01*
X42492142Y-80024047D02*
X42275476Y-79714523D01*
X42120714Y-80024047D02*
X42120714Y-79374047D01*
X42368333Y-79374047D01*
X42430238Y-79405000D01*
X42461190Y-79435952D01*
X42492142Y-79497857D01*
X42492142Y-79590714D01*
X42461190Y-79652619D01*
X42430238Y-79683571D01*
X42368333Y-79714523D01*
X42120714Y-79714523D01*
X42739761Y-79435952D02*
X42770714Y-79405000D01*
X42832619Y-79374047D01*
X42987380Y-79374047D01*
X43049285Y-79405000D01*
X43080238Y-79435952D01*
X43111190Y-79497857D01*
X43111190Y-79559761D01*
X43080238Y-79652619D01*
X42708809Y-80024047D01*
X43111190Y-80024047D01*
X43420714Y-80024047D02*
X43544523Y-80024047D01*
X43606428Y-79993095D01*
X43637380Y-79962142D01*
X43699285Y-79869285D01*
X43730238Y-79745476D01*
X43730238Y-79497857D01*
X43699285Y-79435952D01*
X43668333Y-79405000D01*
X43606428Y-79374047D01*
X43482619Y-79374047D01*
X43420714Y-79405000D01*
X43389761Y-79435952D01*
X43358809Y-79497857D01*
X43358809Y-79652619D01*
X43389761Y-79714523D01*
X43420714Y-79745476D01*
X43482619Y-79776428D01*
X43606428Y-79776428D01*
X43668333Y-79745476D01*
X43699285Y-79714523D01*
X43730238Y-79652619D01*
X12792142Y-107384047D02*
X12575476Y-107074523D01*
X12420714Y-107384047D02*
X12420714Y-106734047D01*
X12668333Y-106734047D01*
X12730238Y-106765000D01*
X12761190Y-106795952D01*
X12792142Y-106857857D01*
X12792142Y-106950714D01*
X12761190Y-107012619D01*
X12730238Y-107043571D01*
X12668333Y-107074523D01*
X12420714Y-107074523D01*
X13039761Y-106795952D02*
X13070714Y-106765000D01*
X13132619Y-106734047D01*
X13287380Y-106734047D01*
X13349285Y-106765000D01*
X13380238Y-106795952D01*
X13411190Y-106857857D01*
X13411190Y-106919761D01*
X13380238Y-107012619D01*
X13008809Y-107384047D01*
X13411190Y-107384047D01*
X13627857Y-106734047D02*
X14061190Y-106734047D01*
X13782619Y-107384047D01*
X13021666Y-82632142D02*
X12990714Y-82663095D01*
X12897857Y-82694047D01*
X12835952Y-82694047D01*
X12743095Y-82663095D01*
X12681190Y-82601190D01*
X12650238Y-82539285D01*
X12619285Y-82415476D01*
X12619285Y-82322619D01*
X12650238Y-82198809D01*
X12681190Y-82136904D01*
X12743095Y-82075000D01*
X12835952Y-82044047D01*
X12897857Y-82044047D01*
X12990714Y-82075000D01*
X13021666Y-82105952D01*
X13269285Y-82105952D02*
X13300238Y-82075000D01*
X13362142Y-82044047D01*
X13516904Y-82044047D01*
X13578809Y-82075000D01*
X13609761Y-82105952D01*
X13640714Y-82167857D01*
X13640714Y-82229761D01*
X13609761Y-82322619D01*
X13238333Y-82694047D01*
X13640714Y-82694047D01*
X11521666Y-40412142D02*
X11490714Y-40443095D01*
X11397857Y-40474047D01*
X11335952Y-40474047D01*
X11243095Y-40443095D01*
X11181190Y-40381190D01*
X11150238Y-40319285D01*
X11119285Y-40195476D01*
X11119285Y-40102619D01*
X11150238Y-39978809D01*
X11181190Y-39916904D01*
X11243095Y-39855000D01*
X11335952Y-39824047D01*
X11397857Y-39824047D01*
X11490714Y-39855000D01*
X11521666Y-39885952D01*
X11893095Y-40102619D02*
X11831190Y-40071666D01*
X11800238Y-40040714D01*
X11769285Y-39978809D01*
X11769285Y-39947857D01*
X11800238Y-39885952D01*
X11831190Y-39855000D01*
X11893095Y-39824047D01*
X12016904Y-39824047D01*
X12078809Y-39855000D01*
X12109761Y-39885952D01*
X12140714Y-39947857D01*
X12140714Y-39978809D01*
X12109761Y-40040714D01*
X12078809Y-40071666D01*
X12016904Y-40102619D01*
X11893095Y-40102619D01*
X11831190Y-40133571D01*
X11800238Y-40164523D01*
X11769285Y-40226428D01*
X11769285Y-40350238D01*
X11800238Y-40412142D01*
X11831190Y-40443095D01*
X11893095Y-40474047D01*
X12016904Y-40474047D01*
X12078809Y-40443095D01*
X12109761Y-40412142D01*
X12140714Y-40350238D01*
X12140714Y-40226428D01*
X12109761Y-40164523D01*
X12078809Y-40133571D01*
X12016904Y-40102619D01*
X10631904Y-76092380D02*
X10631904Y-75092380D01*
X10870000Y-75092380D01*
X11012857Y-75140000D01*
X11108095Y-75235238D01*
X11155714Y-75330476D01*
X11203333Y-75520952D01*
X11203333Y-75663809D01*
X11155714Y-75854285D01*
X11108095Y-75949523D01*
X11012857Y-76044761D01*
X10870000Y-76092380D01*
X10631904Y-76092380D01*
X12155714Y-76092380D02*
X11584285Y-76092380D01*
X11870000Y-76092380D02*
X11870000Y-75092380D01*
X11774761Y-75235238D01*
X11679523Y-75330476D01*
X11584285Y-75378095D01*
X36622142Y-108184047D02*
X36405476Y-107874523D01*
X36250714Y-108184047D02*
X36250714Y-107534047D01*
X36498333Y-107534047D01*
X36560238Y-107565000D01*
X36591190Y-107595952D01*
X36622142Y-107657857D01*
X36622142Y-107750714D01*
X36591190Y-107812619D01*
X36560238Y-107843571D01*
X36498333Y-107874523D01*
X36250714Y-107874523D01*
X36869761Y-107595952D02*
X36900714Y-107565000D01*
X36962619Y-107534047D01*
X37117380Y-107534047D01*
X37179285Y-107565000D01*
X37210238Y-107595952D01*
X37241190Y-107657857D01*
X37241190Y-107719761D01*
X37210238Y-107812619D01*
X36838809Y-108184047D01*
X37241190Y-108184047D01*
X37798333Y-107750714D02*
X37798333Y-108184047D01*
X37643571Y-107503095D02*
X37488809Y-107967380D01*
X37891190Y-107967380D01*
X45712142Y-49494047D02*
X45495476Y-49184523D01*
X45340714Y-49494047D02*
X45340714Y-48844047D01*
X45588333Y-48844047D01*
X45650238Y-48875000D01*
X45681190Y-48905952D01*
X45712142Y-48967857D01*
X45712142Y-49060714D01*
X45681190Y-49122619D01*
X45650238Y-49153571D01*
X45588333Y-49184523D01*
X45340714Y-49184523D01*
X46331190Y-49494047D02*
X45959761Y-49494047D01*
X46145476Y-49494047D02*
X46145476Y-48844047D01*
X46083571Y-48936904D01*
X46021666Y-48998809D01*
X45959761Y-49029761D01*
X46919285Y-48844047D02*
X46609761Y-48844047D01*
X46578809Y-49153571D01*
X46609761Y-49122619D01*
X46671666Y-49091666D01*
X46826428Y-49091666D01*
X46888333Y-49122619D01*
X46919285Y-49153571D01*
X46950238Y-49215476D01*
X46950238Y-49370238D01*
X46919285Y-49432142D01*
X46888333Y-49463095D01*
X46826428Y-49494047D01*
X46671666Y-49494047D01*
X46609761Y-49463095D01*
X46578809Y-49432142D01*
D12*
X29723483Y-1432380D02*
X29723483Y-2146666D01*
X29675864Y-2289523D01*
X29580626Y-2384761D01*
X29437769Y-2432380D01*
X29342531Y-2432380D01*
X30152055Y-1527619D02*
X30199674Y-1480000D01*
X30294912Y-1432380D01*
X30533007Y-1432380D01*
X30628245Y-1480000D01*
X30675864Y-1527619D01*
X30723483Y-1622857D01*
X30723483Y-1718095D01*
X30675864Y-1860952D01*
X30104436Y-2432380D01*
X30723483Y-2432380D01*
D10*
X4501904Y-66402380D02*
X4501904Y-65402380D01*
X4740000Y-65402380D01*
X4882857Y-65450000D01*
X4978095Y-65545238D01*
X5025714Y-65640476D01*
X5073333Y-65830952D01*
X5073333Y-65973809D01*
X5025714Y-66164285D01*
X4978095Y-66259523D01*
X4882857Y-66354761D01*
X4740000Y-66402380D01*
X4501904Y-66402380D01*
X5406666Y-65402380D02*
X6073333Y-65402380D01*
X5644761Y-66402380D01*
X39722142Y-74984047D02*
X39505476Y-74674523D01*
X39350714Y-74984047D02*
X39350714Y-74334047D01*
X39598333Y-74334047D01*
X39660238Y-74365000D01*
X39691190Y-74395952D01*
X39722142Y-74457857D01*
X39722142Y-74550714D01*
X39691190Y-74612619D01*
X39660238Y-74643571D01*
X39598333Y-74674523D01*
X39350714Y-74674523D01*
X39938809Y-74334047D02*
X40341190Y-74334047D01*
X40124523Y-74581666D01*
X40217380Y-74581666D01*
X40279285Y-74612619D01*
X40310238Y-74643571D01*
X40341190Y-74705476D01*
X40341190Y-74860238D01*
X40310238Y-74922142D01*
X40279285Y-74953095D01*
X40217380Y-74984047D01*
X40031666Y-74984047D01*
X39969761Y-74953095D01*
X39938809Y-74922142D01*
X40650714Y-74984047D02*
X40774523Y-74984047D01*
X40836428Y-74953095D01*
X40867380Y-74922142D01*
X40929285Y-74829285D01*
X40960238Y-74705476D01*
X40960238Y-74457857D01*
X40929285Y-74395952D01*
X40898333Y-74365000D01*
X40836428Y-74334047D01*
X40712619Y-74334047D01*
X40650714Y-74365000D01*
X40619761Y-74395952D01*
X40588809Y-74457857D01*
X40588809Y-74612619D01*
X40619761Y-74674523D01*
X40650714Y-74705476D01*
X40712619Y-74736428D01*
X40836428Y-74736428D01*
X40898333Y-74705476D01*
X40929285Y-74674523D01*
X40960238Y-74612619D01*
X2311904Y-86642380D02*
X2311904Y-85642380D01*
X2550000Y-85642380D01*
X2692857Y-85690000D01*
X2788095Y-85785238D01*
X2835714Y-85880476D01*
X2883333Y-86070952D01*
X2883333Y-86213809D01*
X2835714Y-86404285D01*
X2788095Y-86499523D01*
X2692857Y-86594761D01*
X2550000Y-86642380D01*
X2311904Y-86642380D01*
X3359523Y-86642380D02*
X3550000Y-86642380D01*
X3645238Y-86594761D01*
X3692857Y-86547142D01*
X3788095Y-86404285D01*
X3835714Y-86213809D01*
X3835714Y-85832857D01*
X3788095Y-85737619D01*
X3740476Y-85690000D01*
X3645238Y-85642380D01*
X3454761Y-85642380D01*
X3359523Y-85690000D01*
X3311904Y-85737619D01*
X3264285Y-85832857D01*
X3264285Y-86070952D01*
X3311904Y-86166190D01*
X3359523Y-86213809D01*
X3454761Y-86261428D01*
X3645238Y-86261428D01*
X3740476Y-86213809D01*
X3788095Y-86166190D01*
X3835714Y-86070952D01*
X46011666Y-12354047D02*
X45795000Y-12044523D01*
X45640238Y-12354047D02*
X45640238Y-11704047D01*
X45887857Y-11704047D01*
X45949761Y-11735000D01*
X45980714Y-11765952D01*
X46011666Y-11827857D01*
X46011666Y-11920714D01*
X45980714Y-11982619D01*
X45949761Y-12013571D01*
X45887857Y-12044523D01*
X45640238Y-12044523D01*
X46228333Y-11704047D02*
X46630714Y-11704047D01*
X46414047Y-11951666D01*
X46506904Y-11951666D01*
X46568809Y-11982619D01*
X46599761Y-12013571D01*
X46630714Y-12075476D01*
X46630714Y-12230238D01*
X46599761Y-12292142D01*
X46568809Y-12323095D01*
X46506904Y-12354047D01*
X46321190Y-12354047D01*
X46259285Y-12323095D01*
X46228333Y-12292142D01*
X46111666Y-24834047D02*
X45895000Y-24524523D01*
X45740238Y-24834047D02*
X45740238Y-24184047D01*
X45987857Y-24184047D01*
X46049761Y-24215000D01*
X46080714Y-24245952D01*
X46111666Y-24307857D01*
X46111666Y-24400714D01*
X46080714Y-24462619D01*
X46049761Y-24493571D01*
X45987857Y-24524523D01*
X45740238Y-24524523D01*
X46668809Y-24184047D02*
X46545000Y-24184047D01*
X46483095Y-24215000D01*
X46452142Y-24245952D01*
X46390238Y-24338809D01*
X46359285Y-24462619D01*
X46359285Y-24710238D01*
X46390238Y-24772142D01*
X46421190Y-24803095D01*
X46483095Y-24834047D01*
X46606904Y-24834047D01*
X46668809Y-24803095D01*
X46699761Y-24772142D01*
X46730714Y-24710238D01*
X46730714Y-24555476D01*
X46699761Y-24493571D01*
X46668809Y-24462619D01*
X46606904Y-24431666D01*
X46483095Y-24431666D01*
X46421190Y-24462619D01*
X46390238Y-24493571D01*
X46359285Y-24555476D01*
X9852142Y-68048333D02*
X9883095Y-68079285D01*
X9914047Y-68172142D01*
X9914047Y-68234047D01*
X9883095Y-68326904D01*
X9821190Y-68388809D01*
X9759285Y-68419761D01*
X9635476Y-68450714D01*
X9542619Y-68450714D01*
X9418809Y-68419761D01*
X9356904Y-68388809D01*
X9295000Y-68326904D01*
X9264047Y-68234047D01*
X9264047Y-68172142D01*
X9295000Y-68079285D01*
X9325952Y-68048333D01*
X9914047Y-67738809D02*
X9914047Y-67615000D01*
X9883095Y-67553095D01*
X9852142Y-67522142D01*
X9759285Y-67460238D01*
X9635476Y-67429285D01*
X9387857Y-67429285D01*
X9325952Y-67460238D01*
X9295000Y-67491190D01*
X9264047Y-67553095D01*
X9264047Y-67676904D01*
X9295000Y-67738809D01*
X9325952Y-67769761D01*
X9387857Y-67800714D01*
X9542619Y-67800714D01*
X9604523Y-67769761D01*
X9635476Y-67738809D01*
X9666428Y-67676904D01*
X9666428Y-67553095D01*
X9635476Y-67491190D01*
X9604523Y-67460238D01*
X9542619Y-67429285D01*
X25071666Y-103762142D02*
X25040714Y-103793095D01*
X24947857Y-103824047D01*
X24885952Y-103824047D01*
X24793095Y-103793095D01*
X24731190Y-103731190D01*
X24700238Y-103669285D01*
X24669285Y-103545476D01*
X24669285Y-103452619D01*
X24700238Y-103328809D01*
X24731190Y-103266904D01*
X24793095Y-103205000D01*
X24885952Y-103174047D01*
X24947857Y-103174047D01*
X25040714Y-103205000D01*
X25071666Y-103235952D01*
X25288333Y-103174047D02*
X25721666Y-103174047D01*
X25443095Y-103824047D01*
X15368095Y-59862380D02*
X15368095Y-60671904D01*
X15415714Y-60767142D01*
X15463333Y-60814761D01*
X15558571Y-60862380D01*
X15749047Y-60862380D01*
X15844285Y-60814761D01*
X15891904Y-60767142D01*
X15939523Y-60671904D01*
X15939523Y-59862380D01*
X16939523Y-60862380D02*
X16368095Y-60862380D01*
X16653809Y-60862380D02*
X16653809Y-59862380D01*
X16558571Y-60005238D01*
X16463333Y-60100476D01*
X16368095Y-60148095D01*
X16421666Y-98714047D02*
X16205000Y-98404523D01*
X16050238Y-98714047D02*
X16050238Y-98064047D01*
X16297857Y-98064047D01*
X16359761Y-98095000D01*
X16390714Y-98125952D01*
X16421666Y-98187857D01*
X16421666Y-98280714D01*
X16390714Y-98342619D01*
X16359761Y-98373571D01*
X16297857Y-98404523D01*
X16050238Y-98404523D01*
X17009761Y-98064047D02*
X16700238Y-98064047D01*
X16669285Y-98373571D01*
X16700238Y-98342619D01*
X16762142Y-98311666D01*
X16916904Y-98311666D01*
X16978809Y-98342619D01*
X17009761Y-98373571D01*
X17040714Y-98435476D01*
X17040714Y-98590238D01*
X17009761Y-98652142D01*
X16978809Y-98683095D01*
X16916904Y-98714047D01*
X16762142Y-98714047D01*
X16700238Y-98683095D01*
X16669285Y-98652142D01*
X14941666Y-80432142D02*
X14910714Y-80463095D01*
X14817857Y-80494047D01*
X14755952Y-80494047D01*
X14663095Y-80463095D01*
X14601190Y-80401190D01*
X14570238Y-80339285D01*
X14539285Y-80215476D01*
X14539285Y-80122619D01*
X14570238Y-79998809D01*
X14601190Y-79936904D01*
X14663095Y-79875000D01*
X14755952Y-79844047D01*
X14817857Y-79844047D01*
X14910714Y-79875000D01*
X14941666Y-79905952D01*
X15560714Y-80494047D02*
X15189285Y-80494047D01*
X15375000Y-80494047D02*
X15375000Y-79844047D01*
X15313095Y-79936904D01*
X15251190Y-79998809D01*
X15189285Y-80029761D01*
X33942142Y-48954047D02*
X33725476Y-48644523D01*
X33570714Y-48954047D02*
X33570714Y-48304047D01*
X33818333Y-48304047D01*
X33880238Y-48335000D01*
X33911190Y-48365952D01*
X33942142Y-48427857D01*
X33942142Y-48520714D01*
X33911190Y-48582619D01*
X33880238Y-48613571D01*
X33818333Y-48644523D01*
X33570714Y-48644523D01*
X34158809Y-48304047D02*
X34561190Y-48304047D01*
X34344523Y-48551666D01*
X34437380Y-48551666D01*
X34499285Y-48582619D01*
X34530238Y-48613571D01*
X34561190Y-48675476D01*
X34561190Y-48830238D01*
X34530238Y-48892142D01*
X34499285Y-48923095D01*
X34437380Y-48954047D01*
X34251666Y-48954047D01*
X34189761Y-48923095D01*
X34158809Y-48892142D01*
X34963571Y-48304047D02*
X35025476Y-48304047D01*
X35087380Y-48335000D01*
X35118333Y-48365952D01*
X35149285Y-48427857D01*
X35180238Y-48551666D01*
X35180238Y-48706428D01*
X35149285Y-48830238D01*
X35118333Y-48892142D01*
X35087380Y-48923095D01*
X35025476Y-48954047D01*
X34963571Y-48954047D01*
X34901666Y-48923095D01*
X34870714Y-48892142D01*
X34839761Y-48830238D01*
X34808809Y-48706428D01*
X34808809Y-48551666D01*
X34839761Y-48427857D01*
X34870714Y-48365952D01*
X34901666Y-48335000D01*
X34963571Y-48304047D01*
X23382142Y-40972142D02*
X23351190Y-41003095D01*
X23258333Y-41034047D01*
X23196428Y-41034047D01*
X23103571Y-41003095D01*
X23041666Y-40941190D01*
X23010714Y-40879285D01*
X22979761Y-40755476D01*
X22979761Y-40662619D01*
X23010714Y-40538809D01*
X23041666Y-40476904D01*
X23103571Y-40415000D01*
X23196428Y-40384047D01*
X23258333Y-40384047D01*
X23351190Y-40415000D01*
X23382142Y-40445952D01*
X24001190Y-41034047D02*
X23629761Y-41034047D01*
X23815476Y-41034047D02*
X23815476Y-40384047D01*
X23753571Y-40476904D01*
X23691666Y-40538809D01*
X23629761Y-40569761D01*
X24310714Y-41034047D02*
X24434523Y-41034047D01*
X24496428Y-41003095D01*
X24527380Y-40972142D01*
X24589285Y-40879285D01*
X24620238Y-40755476D01*
X24620238Y-40507857D01*
X24589285Y-40445952D01*
X24558333Y-40415000D01*
X24496428Y-40384047D01*
X24372619Y-40384047D01*
X24310714Y-40415000D01*
X24279761Y-40445952D01*
X24248809Y-40507857D01*
X24248809Y-40662619D01*
X24279761Y-40724523D01*
X24310714Y-40755476D01*
X24372619Y-40786428D01*
X24496428Y-40786428D01*
X24558333Y-40755476D01*
X24589285Y-40724523D01*
X24620238Y-40662619D01*
X4641904Y-60372380D02*
X4641904Y-59372380D01*
X4880000Y-59372380D01*
X5022857Y-59420000D01*
X5118095Y-59515238D01*
X5165714Y-59610476D01*
X5213333Y-59800952D01*
X5213333Y-59943809D01*
X5165714Y-60134285D01*
X5118095Y-60229523D01*
X5022857Y-60324761D01*
X4880000Y-60372380D01*
X4641904Y-60372380D01*
X5784761Y-59800952D02*
X5689523Y-59753333D01*
X5641904Y-59705714D01*
X5594285Y-59610476D01*
X5594285Y-59562857D01*
X5641904Y-59467619D01*
X5689523Y-59420000D01*
X5784761Y-59372380D01*
X5975238Y-59372380D01*
X6070476Y-59420000D01*
X6118095Y-59467619D01*
X6165714Y-59562857D01*
X6165714Y-59610476D01*
X6118095Y-59705714D01*
X6070476Y-59753333D01*
X5975238Y-59800952D01*
X5784761Y-59800952D01*
X5689523Y-59848571D01*
X5641904Y-59896190D01*
X5594285Y-59991428D01*
X5594285Y-60181904D01*
X5641904Y-60277142D01*
X5689523Y-60324761D01*
X5784761Y-60372380D01*
X5975238Y-60372380D01*
X6070476Y-60324761D01*
X6118095Y-60277142D01*
X6165714Y-60181904D01*
X6165714Y-59991428D01*
X6118095Y-59896190D01*
X6070476Y-59848571D01*
X5975238Y-59800952D01*
X44431666Y-2984047D02*
X44215000Y-2674523D01*
X44060238Y-2984047D02*
X44060238Y-2334047D01*
X44307857Y-2334047D01*
X44369761Y-2365000D01*
X44400714Y-2395952D01*
X44431666Y-2457857D01*
X44431666Y-2550714D01*
X44400714Y-2612619D01*
X44369761Y-2643571D01*
X44307857Y-2674523D01*
X44060238Y-2674523D01*
X44679285Y-2395952D02*
X44710238Y-2365000D01*
X44772142Y-2334047D01*
X44926904Y-2334047D01*
X44988809Y-2365000D01*
X45019761Y-2395952D01*
X45050714Y-2457857D01*
X45050714Y-2519761D01*
X45019761Y-2612619D01*
X44648333Y-2984047D01*
X45050714Y-2984047D01*
X32762142Y-53882142D02*
X32731190Y-53913095D01*
X32638333Y-53944047D01*
X32576428Y-53944047D01*
X32483571Y-53913095D01*
X32421666Y-53851190D01*
X32390714Y-53789285D01*
X32359761Y-53665476D01*
X32359761Y-53572619D01*
X32390714Y-53448809D01*
X32421666Y-53386904D01*
X32483571Y-53325000D01*
X32576428Y-53294047D01*
X32638333Y-53294047D01*
X32731190Y-53325000D01*
X32762142Y-53355952D01*
X33009761Y-53355952D02*
X33040714Y-53325000D01*
X33102619Y-53294047D01*
X33257380Y-53294047D01*
X33319285Y-53325000D01*
X33350238Y-53355952D01*
X33381190Y-53417857D01*
X33381190Y-53479761D01*
X33350238Y-53572619D01*
X32978809Y-53944047D01*
X33381190Y-53944047D01*
X34000238Y-53944047D02*
X33628809Y-53944047D01*
X33814523Y-53944047D02*
X33814523Y-53294047D01*
X33752619Y-53386904D01*
X33690714Y-53448809D01*
X33628809Y-53479761D01*
X31470840Y-105920240D02*
X31519100Y-105920240D01*
X34269820Y-105219200D02*
X34269820Y-105920240D01*
X34269820Y-105920240D02*
X34020900Y-105920240D01*
X31470840Y-105920240D02*
X31270180Y-105920240D01*
X31270180Y-105920240D02*
X31270180Y-105219200D01*
X20289160Y-103579760D02*
X20240900Y-103579760D01*
X17490180Y-104280800D02*
X17490180Y-103579760D01*
X17490180Y-103579760D02*
X17739100Y-103579760D01*
X20289160Y-103579760D02*
X20489820Y-103579760D01*
X20489820Y-103579760D02*
X20489820Y-104280800D01*
X30790840Y-92750240D02*
X30839100Y-92750240D01*
X33589820Y-92049200D02*
X33589820Y-92750240D01*
X33589820Y-92750240D02*
X33340900Y-92750240D01*
X30790840Y-92750240D02*
X30590180Y-92750240D01*
X30590180Y-92750240D02*
X30590180Y-92049200D01*
X14100840Y-102190240D02*
X14149100Y-102190240D01*
X16899820Y-101489200D02*
X16899820Y-102190240D01*
X16899820Y-102190240D02*
X16650900Y-102190240D01*
X14100840Y-102190240D02*
X13900180Y-102190240D01*
X13900180Y-102190240D02*
X13900180Y-101489200D01*
D13*
X22090000Y-29550000D02*
X21820000Y-29550000D01*
X15190000Y-31050000D02*
X15190000Y-29550000D01*
X15190000Y-29550000D02*
X15460000Y-29550000D01*
X21820000Y-29550000D02*
X21820000Y-26720000D01*
X22090000Y-31050000D02*
X22090000Y-29550000D01*
X15460000Y-29550000D02*
X15460000Y-28450000D01*
D10*
X43560000Y-39610000D02*
X43560000Y-41310000D01*
X42160000Y-41310000D02*
X42160000Y-39610000D01*
D14*
X15470000Y-6040000D02*
X15470000Y-8580000D01*
X20550000Y-21280000D02*
X20550000Y-18740000D01*
X15470000Y-13660000D02*
X15470000Y-16200000D01*
X15470000Y-11120000D02*
X15470000Y-13660000D01*
X20550000Y-18740000D02*
X20550000Y-16200000D01*
X15470000Y-16200000D02*
X15470000Y-18740000D01*
X15470000Y-3500000D02*
X15470000Y-6040000D01*
X18010000Y-960000D02*
X15470000Y-960000D01*
X20550000Y-960000D02*
X18010000Y-960000D01*
X15470000Y-960000D02*
X15470000Y-3500000D01*
X20550000Y-3500000D02*
X20550000Y-960000D01*
X20550000Y-13660000D02*
X20550000Y-11120000D01*
X15470000Y-8580000D02*
X15470000Y-11120000D01*
X18010000Y-21280000D02*
X15470000Y-21280000D01*
X20550000Y-21280000D02*
X18010000Y-21280000D01*
X20550000Y-8580000D02*
X20550000Y-6040000D01*
X20550000Y-16200000D02*
X20550000Y-13660000D01*
X15470000Y-18740000D02*
X15470000Y-21280000D01*
X20550000Y-11120000D02*
X20550000Y-8580000D01*
X20550000Y-6040000D02*
X20550000Y-3500000D01*
D10*
X54650000Y-63570000D02*
X54650000Y-65070000D01*
X54950000Y-65070000D02*
X54950000Y-63570000D01*
D14*
X19042200Y-72645800D02*
X21937800Y-72645800D01*
X21937800Y-72645800D02*
X21937800Y-76354200D01*
X20617000Y-74754000D02*
X20363000Y-74246000D01*
X20312200Y-74500000D02*
X20566200Y-74347600D01*
X20388400Y-74652400D02*
X20642400Y-74500000D01*
X19042200Y-76354200D02*
X19042200Y-72645800D01*
X21937800Y-76354200D02*
X19042200Y-76354200D01*
D10*
X45410000Y-35850000D02*
X45410000Y-34150000D01*
X46810000Y-34150000D02*
X46810000Y-35850000D01*
X46770000Y-106920000D02*
X46770000Y-108620000D01*
X45370000Y-108620000D02*
X45370000Y-106920000D01*
X7170000Y-23860000D02*
X7170000Y-22160000D01*
X8570000Y-22160000D02*
X8570000Y-23860000D01*
X27600000Y-17500000D02*
X27600000Y-15800000D01*
X29000000Y-15800000D02*
X29000000Y-17500000D01*
X18460000Y-74390000D02*
X16960000Y-74390000D01*
X16960000Y-74690000D02*
X18460000Y-74690000D01*
X20940000Y-99610000D02*
X22640000Y-99610000D01*
X22640000Y-101010000D02*
X20940000Y-101010000D01*
X45480000Y-85060000D02*
X45480000Y-83360000D01*
X46880000Y-83360000D02*
X46880000Y-85060000D01*
X9299820Y-25869760D02*
X9299820Y-26570800D01*
X6300180Y-25869760D02*
X6549100Y-25869760D01*
X9099160Y-25869760D02*
X9050900Y-25869760D01*
X6300180Y-26570800D02*
X6300180Y-25869760D01*
X9099160Y-25869760D02*
X9299820Y-25869760D01*
X31710000Y-58960000D02*
X33410000Y-58960000D01*
X33410000Y-60360000D02*
X31710000Y-60360000D01*
X43630000Y-19420000D02*
X43630000Y-21120000D01*
X42230000Y-21120000D02*
X42230000Y-19420000D01*
X20400840Y-98110240D02*
X20449100Y-98110240D01*
X23199820Y-97409200D02*
X23199820Y-98110240D01*
X20400840Y-98110240D02*
X20200180Y-98110240D01*
X23199820Y-98110240D02*
X22950900Y-98110240D01*
X20200180Y-98110240D02*
X20200180Y-97409200D01*
X8600000Y-83950000D02*
X8600000Y-82450000D01*
X8300000Y-82450000D02*
X8300000Y-83950000D01*
X46840000Y-71030000D02*
X46840000Y-72730000D01*
X45440000Y-72730000D02*
X45440000Y-71030000D01*
X20199000Y-25718000D02*
X20199000Y-25210000D01*
X16820800Y-22670000D02*
X16008000Y-22670000D01*
X16008000Y-25718000D02*
X16008000Y-25210000D01*
D15*
X16262000Y-22416000D02*
X16617600Y-22416000D01*
D10*
X16008000Y-22162000D02*
X20199000Y-22162000D01*
X16008000Y-22162000D02*
X16008000Y-22670000D01*
X16820800Y-22162000D02*
X16820800Y-22670000D01*
X16008000Y-25718000D02*
X20199000Y-25718000D01*
D16*
X16262000Y-25464000D02*
X16592200Y-25464000D01*
D10*
X16820800Y-25718000D02*
X16820800Y-25210000D01*
X20199000Y-22162000D02*
X20199000Y-22670000D01*
X16820800Y-25210000D02*
X16008000Y-25210000D01*
D14*
X18120322Y-23940000D02*
G75*
G03*
X18120322Y-23940000I-80322J0D01*
G01*
D10*
X30625000Y-76865000D02*
X30625000Y-77090000D01*
X35275000Y-76865000D02*
X30625000Y-76865000D01*
X35275000Y-81990000D02*
X36625000Y-81990000D01*
X30625000Y-82115000D02*
X30625000Y-81890000D01*
X35275000Y-82115000D02*
X30625000Y-82115000D01*
X35275000Y-76865000D02*
X35275000Y-77090000D01*
X35275000Y-82115000D02*
X35275000Y-81990000D01*
X40980000Y-105440000D02*
X42680000Y-105440000D01*
X42680000Y-106840000D02*
X40980000Y-106840000D01*
X20400000Y-60560000D02*
X20400000Y-59060000D01*
X20100000Y-59060000D02*
X20100000Y-60560000D01*
X22430000Y-19580000D02*
X22430000Y-21080000D01*
X22730000Y-21080000D02*
X22730000Y-19580000D01*
X43610000Y-31780000D02*
X43610000Y-33480000D01*
X42210000Y-33480000D02*
X42210000Y-31780000D01*
X36530000Y-102080000D02*
X34830000Y-102080000D01*
X34830000Y-100680000D02*
X36530000Y-100680000D01*
X10490000Y-22790000D02*
X10490000Y-24290000D01*
X10790000Y-24290000D02*
X10790000Y-22790000D01*
X6480000Y-81340000D02*
X6480000Y-83040000D01*
X5080000Y-83040000D02*
X5080000Y-81340000D01*
X10040000Y-86080000D02*
X11740000Y-86080000D01*
X11740000Y-87480000D02*
X10040000Y-87480000D01*
X36560000Y-94230000D02*
X34860000Y-94230000D01*
X34860000Y-92830000D02*
X36560000Y-92830000D01*
X15919160Y-86779760D02*
X16119820Y-86779760D01*
X16119820Y-86779760D02*
X16119820Y-87480800D01*
X13120180Y-86779760D02*
X13369100Y-86779760D01*
X13120180Y-87480800D02*
X13120180Y-86779760D01*
X15919160Y-86779760D02*
X15870900Y-86779760D01*
X28670000Y-80580000D02*
X27170000Y-80580000D01*
X27170000Y-80880000D02*
X28670000Y-80880000D01*
X47110000Y-59930000D02*
X45610000Y-59930000D01*
X45610000Y-60230000D02*
X47110000Y-60230000D01*
X45100000Y-59030000D02*
X45100000Y-60730000D01*
X43700000Y-60730000D02*
X43700000Y-59030000D01*
X20550000Y-78420000D02*
X20550000Y-76920000D01*
X20250000Y-76920000D02*
X20250000Y-78420000D01*
X13410000Y-68810000D02*
X13410000Y-70510000D01*
X12010000Y-70510000D02*
X12010000Y-68810000D01*
X52715000Y-60095000D02*
X52715000Y-64745000D01*
X52715000Y-64745000D02*
X52490000Y-64745000D01*
X52590000Y-60095000D02*
X52590000Y-58745000D01*
X47465000Y-64745000D02*
X47690000Y-64745000D01*
X47465000Y-60095000D02*
X47690000Y-60095000D01*
X52715000Y-60095000D02*
X52590000Y-60095000D01*
X47465000Y-60095000D02*
X47465000Y-64745000D01*
X9700000Y-58330000D02*
X9700000Y-59830000D01*
X10000000Y-59830000D02*
X10000000Y-58330000D01*
X9740000Y-10970000D02*
X9740000Y-12470000D01*
X10040000Y-12470000D02*
X10040000Y-10970000D01*
D13*
X16260000Y-49210000D02*
X17020000Y-49980000D01*
X17020000Y-44680000D02*
X16260000Y-45450000D01*
X21600000Y-49980000D02*
X21600000Y-48430000D01*
X17020000Y-49980000D02*
X21600000Y-49980000D01*
X16260000Y-49210000D02*
X16260000Y-48430000D01*
X16260000Y-45450000D02*
X16260000Y-46230000D01*
X21600000Y-44680000D02*
X17020000Y-44680000D01*
X21600000Y-44680000D02*
X21600000Y-46230000D01*
X16795743Y-48460243D02*
G75*
G03*
X21080000Y-48430000I2134257J1130243D01*
G01*
X21064257Y-46199757D02*
G75*
G03*
X16780000Y-46230000I-2134257J-1130243D01*
G01*
X12800000Y-34320000D02*
X13560000Y-33550000D01*
X13560000Y-33550000D02*
X13560000Y-32770000D01*
X8220000Y-34320000D02*
X12800000Y-34320000D01*
X8220000Y-29020000D02*
X8220000Y-30570000D01*
X13560000Y-29790000D02*
X13560000Y-30570000D01*
X8220000Y-34320000D02*
X8220000Y-32770000D01*
X12800000Y-29020000D02*
X8220000Y-29020000D01*
X13560000Y-29790000D02*
X12800000Y-29020000D01*
X13024257Y-30539757D02*
G75*
G03*
X8740000Y-30570000I-2134257J-1130243D01*
G01*
X8755743Y-32800243D02*
G75*
G03*
X13040000Y-32770000I2134257J1130243D01*
G01*
D10*
X39540000Y-3190000D02*
X41240000Y-3190000D01*
X41240000Y-4590000D02*
X39540000Y-4590000D01*
D14*
X30950000Y-18480000D02*
X30950000Y-18080000D01*
X31750000Y-14680000D02*
X31450000Y-14680000D01*
X32750000Y-13580000D02*
X32750000Y-13380000D01*
X34550000Y-18080000D02*
X34550000Y-18480000D01*
X29450000Y-11480000D02*
X29450000Y-18480000D01*
X32750000Y-15580000D02*
X32750000Y-13780000D01*
X36050000Y-18480000D02*
X36050000Y-11480000D01*
X30950000Y-18080000D02*
X34550000Y-18080000D01*
X34550000Y-18480000D02*
X36050000Y-18480000D01*
X36050000Y-11480000D02*
X29450000Y-11480000D01*
X32750000Y-13780000D02*
X32550000Y-13980000D01*
X33850000Y-14680000D02*
X34050000Y-14680000D01*
X32750000Y-13780000D02*
X32950000Y-13980000D01*
X29450000Y-18480000D02*
X30950000Y-18480000D01*
X33750000Y-14680000D02*
G75*
G03*
X33750000Y-14680000I-1000000J0D01*
G01*
D13*
X23330000Y-85480000D02*
X18330000Y-85480000D01*
X18330000Y-92980000D02*
X18330000Y-85480000D01*
X23330000Y-92980000D02*
X23330000Y-85480000D01*
X23330000Y-92980000D02*
X18330000Y-92980000D01*
D10*
X15390000Y-107770000D02*
X17090000Y-107770000D01*
X17090000Y-109170000D02*
X15390000Y-109170000D01*
X36440000Y-89190000D02*
X34740000Y-89190000D01*
X34740000Y-87790000D02*
X36440000Y-87790000D01*
X6610000Y-59230000D02*
X6610000Y-57530000D01*
X8010000Y-57530000D02*
X8010000Y-59230000D01*
X39320000Y-10620000D02*
X39320000Y-12320000D01*
X37920000Y-12320000D02*
X37920000Y-10620000D01*
X34885000Y-7395000D02*
X36235000Y-7395000D01*
X34885000Y-4345000D02*
X30235000Y-4345000D01*
X34885000Y-4345000D02*
X34885000Y-4545000D01*
X30235000Y-4345000D02*
X30235000Y-4545000D01*
X30235000Y-7595000D02*
X30235000Y-7395000D01*
X34885000Y-7595000D02*
X34885000Y-7395000D01*
X34885000Y-7595000D02*
X30235000Y-7595000D01*
X34390605Y-7113000D02*
G75*
G03*
X34390605Y-7113000I-179605J0D01*
G01*
X42170000Y-8720000D02*
X42170000Y-7020000D01*
X43570000Y-7020000D02*
X43570000Y-8720000D01*
X7939160Y-14129760D02*
X7890900Y-14129760D01*
X8139820Y-14129760D02*
X8139820Y-14830800D01*
X7939160Y-14129760D02*
X8139820Y-14129760D01*
X5140180Y-14830800D02*
X5140180Y-14129760D01*
X5140180Y-14129760D02*
X5389100Y-14129760D01*
X8590000Y-39710000D02*
X8590000Y-41410000D01*
X7190000Y-41410000D02*
X7190000Y-39710000D01*
X43590000Y-64340000D02*
X43590000Y-66040000D01*
X42190000Y-66040000D02*
X42190000Y-64340000D01*
X43600000Y-52000000D02*
X43600000Y-53700000D01*
X42200000Y-53700000D02*
X42200000Y-52000000D01*
D13*
X21270000Y-39320000D02*
X21270000Y-42020000D01*
X16470000Y-43320000D02*
X16470000Y-39320000D01*
X20070000Y-39320000D02*
X21270000Y-39320000D01*
X16470000Y-39320000D02*
X17670000Y-39320000D01*
D10*
X45410000Y-97370000D02*
X45410000Y-95670000D01*
X46810000Y-95670000D02*
X46810000Y-97370000D01*
X15090000Y-92440000D02*
X16790000Y-92440000D01*
X16790000Y-93840000D02*
X15090000Y-93840000D01*
X27240000Y-5600000D02*
X25540000Y-5600000D01*
X25540000Y-4200000D02*
X27240000Y-4200000D01*
X42140000Y-90720000D02*
X42140000Y-89020000D01*
X43540000Y-89020000D02*
X43540000Y-90720000D01*
X22701000Y-11052000D02*
X22701000Y-11560000D01*
X26079200Y-14608000D02*
X26079200Y-14100000D01*
X26079200Y-11560000D02*
X26892000Y-11560000D01*
X26892000Y-14608000D02*
X22701000Y-14608000D01*
X26079200Y-11052000D02*
X26079200Y-11560000D01*
X26892000Y-11052000D02*
X22701000Y-11052000D01*
X26892000Y-11052000D02*
X26892000Y-11560000D01*
D16*
X26638000Y-11306000D02*
X26307800Y-11306000D01*
D10*
X26892000Y-14608000D02*
X26892000Y-14100000D01*
D15*
X26638000Y-14354000D02*
X26282400Y-14354000D01*
D10*
X26079200Y-14100000D02*
X26892000Y-14100000D01*
X22701000Y-14608000D02*
X22701000Y-14100000D01*
D14*
X24940322Y-12830000D02*
G75*
G03*
X24940322Y-12830000I-80322J0D01*
G01*
D13*
X23810000Y-30420000D02*
X23810000Y-29640000D01*
X24570000Y-31190000D02*
X29150000Y-31190000D01*
X29150000Y-31190000D02*
X29150000Y-29640000D01*
X23810000Y-30420000D02*
X24570000Y-31190000D01*
X24570000Y-25890000D02*
X23810000Y-26660000D01*
X29150000Y-25890000D02*
X29150000Y-27440000D01*
X29150000Y-25890000D02*
X24570000Y-25890000D01*
X23810000Y-26660000D02*
X23810000Y-27440000D01*
X24345743Y-29670243D02*
G75*
G03*
X28630000Y-29640000I2134257J1130243D01*
G01*
X28614257Y-27409757D02*
G75*
G03*
X24330000Y-27440000I-2134257J-1130243D01*
G01*
D10*
X9169160Y-43279760D02*
X9120900Y-43279760D01*
X9369820Y-43279760D02*
X9369820Y-43980800D01*
X9169160Y-43279760D02*
X9369820Y-43279760D01*
X6370180Y-43279760D02*
X6619100Y-43279760D01*
X6370180Y-43980800D02*
X6370180Y-43279760D01*
X5910000Y-11590000D02*
X5910000Y-9890000D01*
X7310000Y-9890000D02*
X7310000Y-11590000D01*
X42180000Y-78380000D02*
X42180000Y-76680000D01*
X43580000Y-76680000D02*
X43580000Y-78380000D01*
X14320000Y-106650000D02*
X14320000Y-104950000D01*
X15720000Y-104950000D02*
X15720000Y-106650000D01*
X15330000Y-83760000D02*
X13830000Y-83760000D01*
X13830000Y-84060000D02*
X15330000Y-84060000D01*
X10630000Y-42200000D02*
X10630000Y-40700000D01*
X10330000Y-40700000D02*
X10330000Y-42200000D01*
X14750240Y-75869160D02*
X14750240Y-75820900D01*
X14750240Y-73070180D02*
X14750240Y-73319100D01*
X14750240Y-75869160D02*
X14750240Y-76069820D01*
X14750240Y-76069820D02*
X14049200Y-76069820D01*
X14049200Y-73070180D02*
X14750240Y-73070180D01*
X35370000Y-105700000D02*
X37070000Y-105700000D01*
X37070000Y-107100000D02*
X35370000Y-107100000D01*
X46840000Y-46140000D02*
X46840000Y-47840000D01*
X45440000Y-47840000D02*
X45440000Y-46140000D01*
D17*
X23890000Y-1170000D02*
X28690000Y-1170000D01*
X28690000Y-3670000D02*
X23890000Y-3670000D01*
X23890000Y-3670000D02*
X23890000Y-1170000D01*
X28690000Y-1170000D02*
X28690000Y-3670000D01*
D10*
X8019200Y-64470180D02*
X8720240Y-64470180D01*
X8720240Y-64470180D02*
X8720240Y-64719100D01*
X8720240Y-67469820D02*
X8019200Y-67469820D01*
X8720240Y-67269160D02*
X8720240Y-67220900D01*
X8720240Y-67269160D02*
X8720240Y-67469820D01*
X36620000Y-74230000D02*
X38320000Y-74230000D01*
X38320000Y-75630000D02*
X36620000Y-75630000D01*
X7279820Y-84919760D02*
X7279820Y-85620800D01*
X7079160Y-84919760D02*
X7030900Y-84919760D01*
X4280180Y-85620800D02*
X4280180Y-84919760D01*
X4280180Y-84919760D02*
X4529100Y-84919760D01*
X7079160Y-84919760D02*
X7279820Y-84919760D01*
X46740000Y-8990000D02*
X46740000Y-10690000D01*
X45340000Y-10690000D02*
X45340000Y-8990000D01*
X46770000Y-21500000D02*
X46770000Y-23200000D01*
X45370000Y-23200000D02*
X45370000Y-21500000D01*
X11550000Y-66780000D02*
X10050000Y-66780000D01*
X10050000Y-67080000D02*
X11550000Y-67080000D01*
X23690000Y-101330000D02*
X23690000Y-102830000D01*
X23990000Y-102830000D02*
X23990000Y-101330000D01*
X22815000Y-70355000D02*
X22490000Y-70355000D01*
X15565000Y-70355000D02*
X15565000Y-70030000D01*
X15565000Y-70355000D02*
X15790000Y-70355000D01*
X22815000Y-63105000D02*
X22815000Y-63430000D01*
X15565000Y-63105000D02*
X15890000Y-63105000D01*
X15565000Y-63105000D02*
X15565000Y-63430000D01*
X15790000Y-70355000D02*
X15790000Y-71780000D01*
X22815000Y-63105000D02*
X22490000Y-63105000D01*
X22815000Y-70355000D02*
X22815000Y-70030000D01*
X18760000Y-96290000D02*
X18760000Y-97990000D01*
X17360000Y-97990000D02*
X17360000Y-96290000D01*
X15820000Y-77900000D02*
X14320000Y-77900000D01*
X14320000Y-78200000D02*
X15820000Y-78200000D01*
X34660000Y-49300000D02*
X36360000Y-49300000D01*
X36360000Y-50700000D02*
X34660000Y-50700000D01*
X23330000Y-43090000D02*
X23330000Y-41590000D01*
X23030000Y-41590000D02*
X23030000Y-43090000D01*
X5800180Y-61810800D02*
X5800180Y-61109760D01*
X8599160Y-61109760D02*
X8799820Y-61109760D01*
X8799820Y-61109760D02*
X8799820Y-61810800D01*
X8599160Y-61109760D02*
X8550900Y-61109760D01*
X5800180Y-61109760D02*
X6049100Y-61109760D01*
X43690000Y-2220000D02*
X43690000Y-3920000D01*
X42290000Y-3920000D02*
X42290000Y-2220000D01*
X33330000Y-52930000D02*
X33330000Y-51430000D01*
X33030000Y-51430000D02*
X33030000Y-52930000D01*
%LPC*%
D18*
X33720000Y-104269240D03*
X31820000Y-104269240D03*
X32770000Y-106268220D03*
X18040000Y-105230760D03*
X19940000Y-105230760D03*
X18990000Y-103231780D03*
X33040000Y-91099240D03*
X31140000Y-91099240D03*
X32090000Y-93098220D03*
X16350000Y-100539240D03*
X14450000Y-100539240D03*
X15400000Y-102538220D03*
D19*
X20920000Y-27820000D03*
D20*
X18640000Y-34120000D03*
D19*
X16360000Y-27820000D03*
D21*
X42860000Y-39610000D03*
X42860000Y-41310000D03*
D22*
X16740000Y-2230000D03*
X19280000Y-2230000D03*
X16740000Y-4770000D03*
X19280000Y-4770000D03*
X16740000Y-7310000D03*
X19280000Y-7310000D03*
X16740000Y-9850000D03*
X19280000Y-9850000D03*
X16740000Y-12390000D03*
X19280000Y-12390000D03*
X16740000Y-14930000D03*
X19280000Y-14930000D03*
X16740000Y-17470000D03*
X19280000Y-17470000D03*
X16740000Y-20010000D03*
X19280000Y-20010000D03*
D21*
X53950000Y-64320000D03*
X55650000Y-64320000D03*
D23*
X21240000Y-75550000D03*
X19740000Y-73450000D03*
X21240000Y-73450000D03*
X19740000Y-75550000D03*
D21*
X46110000Y-35850000D03*
X46110000Y-34150000D03*
X46070000Y-108620000D03*
X46070000Y-106920000D03*
X7870000Y-22160000D03*
X7870000Y-23860000D03*
X28300000Y-15800000D03*
X28300000Y-17500000D03*
X17710000Y-73690000D03*
X17710000Y-75390000D03*
X22640000Y-100310000D03*
X20940000Y-100310000D03*
X46180000Y-85060000D03*
X46180000Y-83360000D03*
D18*
X6850000Y-27520760D03*
X8750000Y-27520760D03*
X7800000Y-25521780D03*
D21*
X33410000Y-59660000D03*
X31710000Y-59660000D03*
X42930000Y-21120000D03*
X42930000Y-19420000D03*
D18*
X22650000Y-96459240D03*
X20750000Y-96459240D03*
X21700000Y-98458220D03*
D21*
X7600000Y-83200000D03*
X9300000Y-83200000D03*
X46140000Y-72730000D03*
X46140000Y-71030000D03*
D24*
X16041020Y-23940000D03*
X20038980Y-23940000D03*
D25*
X35900000Y-81440000D03*
X35900000Y-80790000D03*
X35900000Y-80140000D03*
X35900000Y-79490000D03*
X35900000Y-78840000D03*
X35900000Y-78190000D03*
X35900000Y-77540000D03*
X30000000Y-77540000D03*
X30000000Y-78190000D03*
X30000000Y-78840000D03*
X30000000Y-79490000D03*
X30000000Y-80140000D03*
X30000000Y-80790000D03*
X30000000Y-81440000D03*
D21*
X40980000Y-106140000D03*
X42680000Y-106140000D03*
X21100000Y-59810000D03*
X19400000Y-59810000D03*
X21730000Y-20330000D03*
X23430000Y-20330000D03*
X42910000Y-33480000D03*
X42910000Y-31780000D03*
X34830000Y-101380000D03*
X36530000Y-101380000D03*
X9790000Y-23540000D03*
X11490000Y-23540000D03*
X5780000Y-81340000D03*
X5780000Y-83040000D03*
X11740000Y-86780000D03*
X10040000Y-86780000D03*
X34860000Y-93530000D03*
X36560000Y-93530000D03*
D18*
X13670000Y-88430760D03*
X15570000Y-88430760D03*
X14620000Y-86431780D03*
D21*
X27920000Y-81580000D03*
X27920000Y-79880000D03*
X46360000Y-59230000D03*
X46360000Y-60930000D03*
X44400000Y-60730000D03*
X44400000Y-59030000D03*
X21250000Y-77670000D03*
X19550000Y-77670000D03*
X12710000Y-68810000D03*
X12710000Y-70510000D03*
D26*
X52040000Y-59470000D03*
X51390000Y-59470000D03*
X50740000Y-59470000D03*
X50090000Y-59470000D03*
X49440000Y-59470000D03*
X48790000Y-59470000D03*
X48140000Y-59470000D03*
X48140000Y-65370000D03*
X48790000Y-65370000D03*
X49440000Y-65370000D03*
X50090000Y-65370000D03*
X50740000Y-65370000D03*
X51390000Y-65370000D03*
X52040000Y-65370000D03*
D21*
X9000000Y-59080000D03*
X10700000Y-59080000D03*
X9040000Y-11720000D03*
X10740000Y-11720000D03*
D27*
X16730000Y-47330000D03*
X21130000Y-47330000D03*
X13090000Y-31670000D03*
X8690000Y-31670000D03*
D21*
X39540000Y-3890000D03*
X41240000Y-3890000D03*
D28*
X30210000Y-14680000D03*
X32750000Y-12140000D03*
X35290000Y-14680000D03*
D29*
X19560000Y-86690000D03*
D30*
X22100000Y-86690000D03*
X19560000Y-89230000D03*
X22100000Y-89230000D03*
X19560000Y-91770000D03*
X22100000Y-91770000D03*
D21*
X17090000Y-108470000D03*
X15390000Y-108470000D03*
X34740000Y-88490000D03*
X36440000Y-88490000D03*
X7310000Y-57530000D03*
X7310000Y-59230000D03*
X38620000Y-10620000D03*
X38620000Y-12320000D03*
D25*
X35510000Y-6945000D03*
X35510000Y-6295000D03*
X35510000Y-5645000D03*
X35510000Y-4995000D03*
X29610000Y-4995000D03*
X29610000Y-5645000D03*
X29610000Y-6295000D03*
X29610000Y-6945000D03*
D21*
X42870000Y-8720000D03*
X42870000Y-7020000D03*
D18*
X5690000Y-15780760D03*
X7590000Y-15780760D03*
X6640000Y-13781780D03*
D21*
X7890000Y-39710000D03*
X7890000Y-41410000D03*
X42890000Y-64340000D03*
X42890000Y-66040000D03*
X42900000Y-52000000D03*
X42900000Y-53700000D03*
D31*
X17370000Y-42580000D03*
D32*
X18870000Y-41176200D03*
D33*
X18870000Y-38433000D03*
D34*
X18870000Y-42433500D03*
D35*
X18870000Y-39766500D03*
D31*
X20370000Y-42580000D03*
D21*
X46110000Y-97370000D03*
X46110000Y-95670000D03*
X16790000Y-93140000D03*
X15090000Y-93140000D03*
X27240000Y-4900000D03*
X25540000Y-4900000D03*
X42840000Y-89020000D03*
X42840000Y-90720000D03*
D24*
X26858980Y-12830000D03*
X22861020Y-12830000D03*
D27*
X24280000Y-28540000D03*
X28680000Y-28540000D03*
D18*
X6920000Y-44930760D03*
X8820000Y-44930760D03*
X7870000Y-42931780D03*
D21*
X6610000Y-9890000D03*
X6610000Y-11590000D03*
X42880000Y-76680000D03*
X42880000Y-78380000D03*
X15020000Y-106650000D03*
X15020000Y-104950000D03*
X14580000Y-84760000D03*
X14580000Y-83060000D03*
X9630000Y-41450000D03*
X11330000Y-41450000D03*
D18*
X13099240Y-73620000D03*
X13099240Y-75520000D03*
X15098220Y-74570000D03*
D21*
X35370000Y-106400000D03*
X37070000Y-106400000D03*
X46140000Y-47840000D03*
X46140000Y-46140000D03*
D22*
X27560000Y-2420000D03*
X25020000Y-2420000D03*
D18*
X7069240Y-65020000D03*
X7069240Y-66920000D03*
X9068220Y-65970000D03*
D21*
X38320000Y-74930000D03*
X36620000Y-74930000D03*
D18*
X4830000Y-86570760D03*
X6730000Y-86570760D03*
X5780000Y-84571780D03*
D21*
X46040000Y-8990000D03*
X46040000Y-10690000D03*
X46070000Y-23200000D03*
X46070000Y-21500000D03*
X10800000Y-66080000D03*
X10800000Y-67780000D03*
X22990000Y-102080000D03*
X24690000Y-102080000D03*
D36*
X16390000Y-70980000D03*
X17190000Y-70980000D03*
X17990000Y-70980000D03*
X18790000Y-70980000D03*
X19590000Y-70980000D03*
X20390000Y-70980000D03*
X21190000Y-70980000D03*
X21990000Y-70980000D03*
D37*
X23440000Y-69530000D03*
X23440000Y-68730000D03*
X23440000Y-67930000D03*
X23440000Y-67130000D03*
X23440000Y-66330000D03*
X23440000Y-65530000D03*
X23440000Y-64730000D03*
X23440000Y-63930000D03*
D36*
X21990000Y-62480000D03*
X21190000Y-62480000D03*
X20390000Y-62480000D03*
X19590000Y-62480000D03*
X18790000Y-62480000D03*
X17990000Y-62480000D03*
X17190000Y-62480000D03*
X16390000Y-62480000D03*
D37*
X14940000Y-63930000D03*
X14940000Y-64730000D03*
X14940000Y-65530000D03*
X14940000Y-66330000D03*
X14940000Y-67130000D03*
X14940000Y-67930000D03*
X14940000Y-68730000D03*
X14940000Y-69530000D03*
D21*
X18060000Y-97990000D03*
X18060000Y-96290000D03*
X15070000Y-77200000D03*
X15070000Y-78900000D03*
X36360000Y-50000000D03*
X34660000Y-50000000D03*
X22330000Y-42340000D03*
X24030000Y-42340000D03*
D18*
X6350000Y-62760760D03*
X8250000Y-62760760D03*
X7300000Y-60761780D03*
D21*
X42990000Y-2220000D03*
X42990000Y-3920000D03*
X32330000Y-52180000D03*
X34030000Y-52180000D03*
D38*
X46101000Y-17970500D03*
X57073800Y-17970500D03*
X54660800Y-17970500D03*
D39*
X5257800Y-90512900D03*
X7797800Y-90512900D03*
X10337800Y-90512900D03*
X5257800Y-95592900D03*
X7797800Y-95592900D03*
X10337800Y-95592900D03*
D40*
X2717800Y-93052900D03*
D39*
X12877800Y-93052900D03*
D38*
X36499800Y-9029700D03*
X25527000Y-9029700D03*
X27940000Y-9029700D03*
X36499800Y-34429700D03*
X25527000Y-34429700D03*
X27940000Y-34429700D03*
D41*
X5257963Y-37323457D03*
X7797963Y-37323457D03*
X10337963Y-37323457D03*
D42*
X3403763Y-44333857D03*
X12192163Y-44333857D03*
D38*
X46101000Y-30353000D03*
X57073800Y-30353000D03*
X54660800Y-30353000D03*
X46101000Y-42735500D03*
X57073800Y-42735500D03*
X54660800Y-42735500D03*
D41*
X5257963Y-19670457D03*
X7797963Y-19670457D03*
X10337963Y-19670457D03*
D42*
X3403763Y-26680857D03*
X12192163Y-26680857D03*
D41*
X5257963Y-72629457D03*
X7797963Y-72629457D03*
X10337963Y-72629457D03*
D42*
X3403763Y-79639857D03*
X12192163Y-79639857D03*
D38*
X46101000Y-104648000D03*
X57073800Y-104648000D03*
X54660800Y-104648000D03*
X36499800Y-72529700D03*
X25527000Y-72529700D03*
X27940000Y-72529700D03*
X36499800Y-97929700D03*
X25527000Y-97929700D03*
X27940000Y-97929700D03*
D39*
X5257800Y-102450900D03*
X7797800Y-102450900D03*
X10337800Y-102450900D03*
X5257800Y-107530900D03*
X7797800Y-107530900D03*
X10337800Y-107530900D03*
D40*
X2717800Y-104990900D03*
D39*
X12877800Y-104990900D03*
D38*
X46101000Y-5588000D03*
X57073800Y-5588000D03*
X54660800Y-5588000D03*
X36499800Y-59829700D03*
X25527000Y-59829700D03*
X27940000Y-59829700D03*
X46101000Y-92265500D03*
X57073800Y-92265500D03*
X54660800Y-92265500D03*
X46101000Y-67500500D03*
X57073800Y-67500500D03*
X54660800Y-67500500D03*
X36499800Y-47129700D03*
X25527000Y-47129700D03*
X27940000Y-47129700D03*
X36499800Y-85229700D03*
X25527000Y-85229700D03*
X27940000Y-85229700D03*
D41*
X5257963Y-54976457D03*
X7797963Y-54976457D03*
X10337963Y-54976457D03*
D42*
X3403763Y-61986857D03*
X12192163Y-61986857D03*
D41*
X5257963Y-2017457D03*
X7797963Y-2017457D03*
X10337963Y-2017457D03*
D42*
X3403763Y-9027857D03*
X12192163Y-9027857D03*
D38*
X46101000Y-79883000D03*
X57073800Y-79883000D03*
X54660800Y-79883000D03*
X46101000Y-55118000D03*
X57073800Y-55118000D03*
X54660800Y-55118000D03*
X36499800Y-21729700D03*
X25527000Y-21729700D03*
X27940000Y-21729700D03*
M02*
