G04 #@! TF.GenerationSoftware,KiCad,Pcbnew,(5.99.0-11177-g6c67dfa032)*
G04 #@! TF.CreationDate,2021-08-04T13:50:32-07:00*
G04 #@! TF.ProjectId,SCMv3,53434d76-332e-46b6-9963-61645f706362,rev?*
G04 #@! TF.SameCoordinates,Original*
G04 #@! TF.FileFunction,Legend,Bot*
G04 #@! TF.FilePolarity,Positive*
%FSLAX46Y46*%
G04 Gerber Fmt 4.6, Leading zero omitted, Abs format (unit mm)*
G04 Created by KiCad (PCBNEW (5.99.0-11177-g6c67dfa032)) date 2021-08-04 13:50:32*
%MOMM*%
%LPD*%
G01*
G04 APERTURE LIST*
G04 Aperture macros list*
%AMRoundRect*
0 Rectangle with rounded corners*
0 $1 Rounding radius*
0 $2 $3 $4 $5 $6 $7 $8 $9 X,Y pos of 4 corners*
0 Add a 4 corners polygon primitive as box body*
4,1,4,$2,$3,$4,$5,$6,$7,$8,$9,$2,$3,0*
0 Add four circle primitives for the rounded corners*
1,1,$1+$1,$2,$3*
1,1,$1+$1,$4,$5*
1,1,$1+$1,$6,$7*
1,1,$1+$1,$8,$9*
0 Add four rect primitives between the rounded corners*
20,1,$1+$1,$2,$3,$4,$5,0*
20,1,$1+$1,$4,$5,$6,$7,0*
20,1,$1+$1,$6,$7,$8,$9,0*
20,1,$1+$1,$8,$9,$2,$3,0*%
G04 Aperture macros list end*
%ADD10C,0.152400*%
%ADD11C,0.150000*%
%ADD12C,0.127000*%
%ADD13C,0.120000*%
%ADD14C,0.254000*%
%ADD15C,0.250000*%
%ADD16C,0.200000*%
%ADD17C,1.651000*%
%ADD18C,1.397000*%
%ADD19R,1.700000X1.700000*%
%ADD20O,1.700000X1.700000*%
%ADD21C,1.930400*%
%ADD22C,1.778000*%
%ADD23RoundRect,0.127000X0.635000X0.635000X-0.635000X0.635000X-0.635000X-0.635000X0.635000X-0.635000X0*%
%ADD24C,1.803400*%
%ADD25C,2.667000*%
%ADD26R,1.100000X1.500000*%
G04 APERTURE END LIST*
D10*
X56845321Y-23106047D02*
X56845321Y-23967833D01*
X56902774Y-24140190D01*
X57017679Y-24255095D01*
X57190036Y-24312547D01*
X57304940Y-24312547D01*
X56098440Y-23623119D02*
X56213345Y-23565666D01*
X56270798Y-23508214D01*
X56328250Y-23393309D01*
X56328250Y-23335857D01*
X56270798Y-23220952D01*
X56213345Y-23163500D01*
X56098440Y-23106047D01*
X55868631Y-23106047D01*
X55753726Y-23163500D01*
X55696274Y-23220952D01*
X55638821Y-23335857D01*
X55638821Y-23393309D01*
X55696274Y-23508214D01*
X55753726Y-23565666D01*
X55868631Y-23623119D01*
X56098440Y-23623119D01*
X56213345Y-23680571D01*
X56270798Y-23738023D01*
X56328250Y-23852928D01*
X56328250Y-24082738D01*
X56270798Y-24197642D01*
X56213345Y-24255095D01*
X56098440Y-24312547D01*
X55868631Y-24312547D01*
X55753726Y-24255095D01*
X55696274Y-24197642D01*
X55638821Y-24082738D01*
X55638821Y-23852928D01*
X55696274Y-23738023D01*
X55753726Y-23680571D01*
X55868631Y-23623119D01*
X55121750Y-23852928D02*
X54202512Y-23852928D01*
X53398179Y-23106047D02*
X53168369Y-23106047D01*
X53053464Y-23163500D01*
X52938560Y-23278404D01*
X52881107Y-23508214D01*
X52881107Y-23910380D01*
X52938560Y-24140190D01*
X53053464Y-24255095D01*
X53168369Y-24312547D01*
X53398179Y-24312547D01*
X53513083Y-24255095D01*
X53627988Y-24140190D01*
X53685440Y-23910380D01*
X53685440Y-23508214D01*
X53627988Y-23278404D01*
X53513083Y-23163500D01*
X53398179Y-23106047D01*
X52364036Y-23106047D02*
X52364036Y-24082738D01*
X52306583Y-24197642D01*
X52249131Y-24255095D01*
X52134226Y-24312547D01*
X51904417Y-24312547D01*
X51789512Y-24255095D01*
X51732060Y-24197642D01*
X51674607Y-24082738D01*
X51674607Y-23106047D01*
X51272440Y-23106047D02*
X50583012Y-23106047D01*
X50927726Y-24312547D02*
X50927726Y-23106047D01*
X49548869Y-24312547D02*
X50238298Y-24312547D01*
X49893583Y-24312547D02*
X49893583Y-23106047D01*
X50008488Y-23278404D01*
X50123393Y-23393309D01*
X50238298Y-23450761D01*
D11*
X11961071Y-97878571D02*
X11818214Y-97926190D01*
X11770595Y-97973809D01*
X11722976Y-98069047D01*
X11722976Y-98211904D01*
X11770595Y-98307142D01*
X11818214Y-98354761D01*
X11913452Y-98402380D01*
X12294404Y-98402380D01*
X12294404Y-97402380D01*
X11961071Y-97402380D01*
X11865833Y-97450000D01*
X11818214Y-97497619D01*
X11770595Y-97592857D01*
X11770595Y-97688095D01*
X11818214Y-97783333D01*
X11865833Y-97830952D01*
X11961071Y-97878571D01*
X12294404Y-97878571D01*
X10961071Y-97878571D02*
X11294404Y-97878571D01*
X11294404Y-98402380D02*
X11294404Y-97402380D01*
X10818214Y-97402380D01*
X10484880Y-98116666D02*
X10008690Y-98116666D01*
X10580119Y-98402380D02*
X10246785Y-97402380D01*
X9913452Y-98402380D01*
X9627738Y-98354761D02*
X9484880Y-98402380D01*
X9246785Y-98402380D01*
X9151547Y-98354761D01*
X9103928Y-98307142D01*
X9056309Y-98211904D01*
X9056309Y-98116666D01*
X9103928Y-98021428D01*
X9151547Y-97973809D01*
X9246785Y-97926190D01*
X9437261Y-97878571D01*
X9532500Y-97830952D01*
X9580119Y-97783333D01*
X9627738Y-97688095D01*
X9627738Y-97592857D01*
X9580119Y-97497619D01*
X9532500Y-97450000D01*
X9437261Y-97402380D01*
X9199166Y-97402380D01*
X9056309Y-97450000D01*
X8770595Y-97402380D02*
X8199166Y-97402380D01*
X8484880Y-98402380D02*
X8484880Y-97402380D01*
X7342023Y-98402380D02*
X7913452Y-98402380D01*
X7627738Y-98402380D02*
X7627738Y-97402380D01*
X7722976Y-97545238D01*
X7818214Y-97640476D01*
X7913452Y-97688095D01*
D10*
X35578963Y-2899747D02*
X35578963Y-3761533D01*
X35636416Y-3933890D01*
X35751320Y-4048795D01*
X35923678Y-4106247D01*
X36038582Y-4106247D01*
X34315011Y-4106247D02*
X34717178Y-3531723D01*
X35004440Y-4106247D02*
X35004440Y-2899747D01*
X34544820Y-2899747D01*
X34429916Y-2957200D01*
X34372463Y-3014652D01*
X34315011Y-3129557D01*
X34315011Y-3301914D01*
X34372463Y-3416819D01*
X34429916Y-3474271D01*
X34544820Y-3531723D01*
X35004440Y-3531723D01*
X33797940Y-3474271D02*
X33395773Y-3474271D01*
X33223416Y-4106247D02*
X33797940Y-4106247D01*
X33797940Y-2899747D01*
X33223416Y-2899747D01*
X32763797Y-4048795D02*
X32591440Y-4106247D01*
X32304178Y-4106247D01*
X32189273Y-4048795D01*
X32131820Y-3991342D01*
X32074368Y-3876438D01*
X32074368Y-3761533D01*
X32131820Y-3646628D01*
X32189273Y-3589176D01*
X32304178Y-3531723D01*
X32533987Y-3474271D01*
X32648892Y-3416819D01*
X32706344Y-3359366D01*
X32763797Y-3244461D01*
X32763797Y-3129557D01*
X32706344Y-3014652D01*
X32648892Y-2957200D01*
X32533987Y-2899747D01*
X32246725Y-2899747D01*
X32074368Y-2957200D01*
X31327487Y-3531723D02*
X31327487Y-4106247D01*
X31729654Y-2899747D02*
X31327487Y-3531723D01*
X30925320Y-2899747D01*
X30523154Y-4106247D02*
X30523154Y-2899747D01*
X29833725Y-4106247D01*
X29833725Y-2899747D01*
X28569773Y-3991342D02*
X28627225Y-4048795D01*
X28799582Y-4106247D01*
X28914487Y-4106247D01*
X29086844Y-4048795D01*
X29201749Y-3933890D01*
X29259201Y-3818985D01*
X29316654Y-3589176D01*
X29316654Y-3416819D01*
X29259201Y-3187009D01*
X29201749Y-3072104D01*
X29086844Y-2957200D01*
X28914487Y-2899747D01*
X28799582Y-2899747D01*
X28627225Y-2957200D01*
X28569773Y-3014652D01*
X27420725Y-4106247D02*
X28110154Y-4106247D01*
X27765440Y-4106247D02*
X27765440Y-2899747D01*
X27880344Y-3072104D01*
X27995249Y-3187009D01*
X28110154Y-3244461D01*
X35578963Y-28299747D02*
X35578963Y-29161533D01*
X35636416Y-29333890D01*
X35751320Y-29448795D01*
X35923678Y-29506247D01*
X36038582Y-29506247D01*
X35061892Y-29448795D02*
X34889535Y-29506247D01*
X34602273Y-29506247D01*
X34487368Y-29448795D01*
X34429916Y-29391342D01*
X34372463Y-29276438D01*
X34372463Y-29161533D01*
X34429916Y-29046628D01*
X34487368Y-28989176D01*
X34602273Y-28931723D01*
X34832082Y-28874271D01*
X34946987Y-28816819D01*
X35004440Y-28759366D01*
X35061892Y-28644461D01*
X35061892Y-28529557D01*
X35004440Y-28414652D01*
X34946987Y-28357200D01*
X34832082Y-28299747D01*
X34544820Y-28299747D01*
X34372463Y-28357200D01*
X33280868Y-29506247D02*
X33855392Y-29506247D01*
X33855392Y-28299747D01*
X32878701Y-29506247D02*
X32878701Y-28299747D01*
X32304178Y-29506247D02*
X32304178Y-28299747D01*
X31844559Y-28299747D01*
X31729654Y-28357200D01*
X31672201Y-28414652D01*
X31614749Y-28529557D01*
X31614749Y-28701914D01*
X31672201Y-28816819D01*
X31729654Y-28874271D01*
X31844559Y-28931723D01*
X32304178Y-28931723D01*
X30465701Y-29506247D02*
X31155130Y-29506247D01*
X30810416Y-29506247D02*
X30810416Y-28299747D01*
X30925320Y-28472104D01*
X31040225Y-28587009D01*
X31155130Y-28644461D01*
D11*
X13154404Y-51422380D02*
X13154404Y-50422380D01*
X12773452Y-50422380D01*
X12678214Y-50470000D01*
X12630595Y-50517619D01*
X12582976Y-50612857D01*
X12582976Y-50755714D01*
X12630595Y-50850952D01*
X12678214Y-50898571D01*
X12773452Y-50946190D01*
X13154404Y-50946190D01*
X12202023Y-51374761D02*
X12059166Y-51422380D01*
X11821071Y-51422380D01*
X11725833Y-51374761D01*
X11678214Y-51327142D01*
X11630595Y-51231904D01*
X11630595Y-51136666D01*
X11678214Y-51041428D01*
X11725833Y-50993809D01*
X11821071Y-50946190D01*
X12011547Y-50898571D01*
X12106785Y-50850952D01*
X12154404Y-50803333D01*
X12202023Y-50708095D01*
X12202023Y-50612857D01*
X12154404Y-50517619D01*
X12106785Y-50470000D01*
X12011547Y-50422380D01*
X11773452Y-50422380D01*
X11630595Y-50470000D01*
X11202023Y-51422380D02*
X11202023Y-50422380D01*
X11202023Y-50898571D02*
X10630595Y-50898571D01*
X10630595Y-51422380D02*
X10630595Y-50422380D01*
X10154404Y-50422380D02*
X10154404Y-51231904D01*
X10106785Y-51327142D01*
X10059166Y-51374761D01*
X9963928Y-51422380D01*
X9773452Y-51422380D01*
X9678214Y-51374761D01*
X9630595Y-51327142D01*
X9582976Y-51231904D01*
X9582976Y-50422380D01*
X8773452Y-50898571D02*
X9106785Y-50898571D01*
X9106785Y-51422380D02*
X9106785Y-50422380D01*
X8630595Y-50422380D01*
X7916309Y-50898571D02*
X8249642Y-50898571D01*
X8249642Y-51422380D02*
X8249642Y-50422380D01*
X7773452Y-50422380D01*
X6916309Y-51422380D02*
X7392500Y-51422380D01*
X7392500Y-50422380D01*
X6582976Y-50898571D02*
X6249642Y-50898571D01*
X6106785Y-51422380D02*
X6582976Y-51422380D01*
X6582976Y-50422380D01*
X6106785Y-50422380D01*
X5154404Y-51422380D02*
X5725833Y-51422380D01*
X5440119Y-51422380D02*
X5440119Y-50422380D01*
X5535357Y-50565238D01*
X5630595Y-50660476D01*
X5725833Y-50708095D01*
X10047800Y-44915080D02*
X10047800Y-43915080D01*
X9833514Y-43915080D01*
X9704942Y-43962700D01*
X9619228Y-44057938D01*
X9576371Y-44153176D01*
X9533514Y-44343652D01*
X9533514Y-44486509D01*
X9576371Y-44676985D01*
X9619228Y-44772223D01*
X9704942Y-44867461D01*
X9833514Y-44915080D01*
X10047800Y-44915080D01*
X9190657Y-44867461D02*
X9062085Y-44915080D01*
X8847800Y-44915080D01*
X8762085Y-44867461D01*
X8719228Y-44819842D01*
X8676371Y-44724604D01*
X8676371Y-44629366D01*
X8719228Y-44534128D01*
X8762085Y-44486509D01*
X8847800Y-44438890D01*
X9019228Y-44391271D01*
X9104942Y-44343652D01*
X9147800Y-44296033D01*
X9190657Y-44200795D01*
X9190657Y-44105557D01*
X9147800Y-44010319D01*
X9104942Y-43962700D01*
X9019228Y-43915080D01*
X8804942Y-43915080D01*
X8676371Y-43962700D01*
X8290657Y-44915080D02*
X8290657Y-43915080D01*
X8290657Y-44391271D02*
X7776371Y-44391271D01*
X7776371Y-44915080D02*
X7776371Y-43915080D01*
X7390657Y-44629366D02*
X6962085Y-44629366D01*
X7476371Y-44915080D02*
X7176371Y-43915080D01*
X6876371Y-44915080D01*
X6276371Y-44391271D02*
X6576371Y-44391271D01*
X6576371Y-44915080D02*
X6576371Y-43915080D01*
X6147800Y-43915080D01*
X5933514Y-43915080D02*
X5419228Y-43915080D01*
X5676371Y-44915080D02*
X5676371Y-43915080D01*
X10250180Y-49338080D02*
X10250180Y-48338080D01*
X10012085Y-48338080D01*
X9869228Y-48385700D01*
X9773990Y-48480938D01*
X9726371Y-48576176D01*
X9678752Y-48766652D01*
X9678752Y-48909509D01*
X9726371Y-49099985D01*
X9773990Y-49195223D01*
X9869228Y-49290461D01*
X10012085Y-49338080D01*
X10250180Y-49338080D01*
X9250180Y-48814271D02*
X8916847Y-48814271D01*
X8773990Y-49338080D02*
X9250180Y-49338080D01*
X9250180Y-48338080D01*
X8773990Y-48338080D01*
X8488276Y-48338080D02*
X7916847Y-48338080D01*
X8202561Y-49338080D02*
X8202561Y-48338080D01*
X7583514Y-48814271D02*
X7250180Y-48814271D01*
X7107323Y-49338080D02*
X7583514Y-49338080D01*
X7583514Y-48338080D01*
X7107323Y-48338080D01*
X6678752Y-49338080D02*
X6678752Y-48338080D01*
X6107323Y-49338080D01*
X6107323Y-48338080D01*
X5773990Y-48338080D02*
X5202561Y-48338080D01*
X5488276Y-49338080D02*
X5488276Y-48338080D01*
D12*
X43041735Y-96361619D02*
X43525545Y-96361619D01*
X43525545Y-95345619D01*
X42703069Y-95829428D02*
X42364402Y-95829428D01*
X42219259Y-96361619D02*
X42703069Y-96361619D01*
X42703069Y-95345619D01*
X42219259Y-95345619D01*
X41783830Y-96361619D02*
X41783830Y-95345619D01*
X41541926Y-95345619D01*
X41396783Y-95394000D01*
X41300021Y-95490761D01*
X41251640Y-95587523D01*
X41203259Y-95781047D01*
X41203259Y-95926190D01*
X41251640Y-96119714D01*
X41300021Y-96216476D01*
X41396783Y-96313238D01*
X41541926Y-96361619D01*
X41783830Y-96361619D01*
X40816211Y-95442380D02*
X40767830Y-95394000D01*
X40671069Y-95345619D01*
X40429164Y-95345619D01*
X40332402Y-95394000D01*
X40284021Y-95442380D01*
X40235640Y-95539142D01*
X40235640Y-95635904D01*
X40284021Y-95781047D01*
X40864592Y-96361619D01*
X40235640Y-96361619D01*
D13*
X43837400Y-90885738D02*
X43806447Y-90823833D01*
X43806447Y-90730976D01*
X43837400Y-90638119D01*
X43899304Y-90576214D01*
X43961209Y-90545261D01*
X44085019Y-90514309D01*
X44177876Y-90514309D01*
X44301685Y-90545261D01*
X44363590Y-90576214D01*
X44425495Y-90638119D01*
X44456447Y-90730976D01*
X44456447Y-90792880D01*
X44425495Y-90885738D01*
X44394542Y-90916690D01*
X44177876Y-90916690D01*
X44177876Y-90792880D01*
X44165971Y-93861928D02*
X44196923Y-93954785D01*
X44227876Y-93985738D01*
X44289780Y-94016690D01*
X44382638Y-94016690D01*
X44444542Y-93985738D01*
X44475495Y-93954785D01*
X44506447Y-93892880D01*
X44506447Y-93645261D01*
X43856447Y-93645261D01*
X43856447Y-93861928D01*
X43887400Y-93923833D01*
X43918352Y-93954785D01*
X43980257Y-93985738D01*
X44042161Y-93985738D01*
X44104066Y-93954785D01*
X44135019Y-93923833D01*
X44165971Y-93861928D01*
X44165971Y-93645261D01*
X40206447Y-90866690D02*
X39896923Y-90650023D01*
X40206447Y-90495261D02*
X39556447Y-90495261D01*
X39556447Y-90742880D01*
X39587400Y-90804785D01*
X39618352Y-90835738D01*
X39680257Y-90866690D01*
X39773114Y-90866690D01*
X39835019Y-90835738D01*
X39865971Y-90804785D01*
X39896923Y-90742880D01*
X39896923Y-90495261D01*
X39833828Y-93417880D02*
X39833828Y-93913119D01*
X40081447Y-93665500D02*
X39586209Y-93665500D01*
D10*
X57065321Y-35466047D02*
X57065321Y-36327833D01*
X57122774Y-36500190D01*
X57237679Y-36615095D01*
X57410036Y-36672547D01*
X57524940Y-36672547D01*
X56605702Y-35466047D02*
X55801369Y-35466047D01*
X56318440Y-36672547D01*
X55341750Y-36212928D02*
X54422512Y-36212928D01*
X53618179Y-35466047D02*
X53388369Y-35466047D01*
X53273464Y-35523500D01*
X53158560Y-35638404D01*
X53101107Y-35868214D01*
X53101107Y-36270380D01*
X53158560Y-36500190D01*
X53273464Y-36615095D01*
X53388369Y-36672547D01*
X53618179Y-36672547D01*
X53733083Y-36615095D01*
X53847988Y-36500190D01*
X53905440Y-36270380D01*
X53905440Y-35868214D01*
X53847988Y-35638404D01*
X53733083Y-35523500D01*
X53618179Y-35466047D01*
X52584036Y-35466047D02*
X52584036Y-36442738D01*
X52526583Y-36557642D01*
X52469131Y-36615095D01*
X52354226Y-36672547D01*
X52124417Y-36672547D01*
X52009512Y-36615095D01*
X51952060Y-36557642D01*
X51894607Y-36442738D01*
X51894607Y-35466047D01*
X51492440Y-35466047D02*
X50803012Y-35466047D01*
X51147726Y-36672547D02*
X51147726Y-35466047D01*
X50458298Y-35580952D02*
X50400845Y-35523500D01*
X50285940Y-35466047D01*
X49998679Y-35466047D01*
X49883774Y-35523500D01*
X49826321Y-35580952D01*
X49768869Y-35695857D01*
X49768869Y-35810761D01*
X49826321Y-35983119D01*
X50515750Y-36672547D01*
X49768869Y-36672547D01*
X57065321Y-47836047D02*
X57065321Y-48697833D01*
X57122774Y-48870190D01*
X57237679Y-48985095D01*
X57410036Y-49042547D01*
X57524940Y-49042547D01*
X55973726Y-47836047D02*
X56203536Y-47836047D01*
X56318440Y-47893500D01*
X56375893Y-47950952D01*
X56490798Y-48123309D01*
X56548250Y-48353119D01*
X56548250Y-48812738D01*
X56490798Y-48927642D01*
X56433345Y-48985095D01*
X56318440Y-49042547D01*
X56088631Y-49042547D01*
X55973726Y-48985095D01*
X55916274Y-48927642D01*
X55858821Y-48812738D01*
X55858821Y-48525476D01*
X55916274Y-48410571D01*
X55973726Y-48353119D01*
X56088631Y-48295666D01*
X56318440Y-48295666D01*
X56433345Y-48353119D01*
X56490798Y-48410571D01*
X56548250Y-48525476D01*
X55341750Y-48582928D02*
X54422512Y-48582928D01*
X53618179Y-47836047D02*
X53388369Y-47836047D01*
X53273464Y-47893500D01*
X53158560Y-48008404D01*
X53101107Y-48238214D01*
X53101107Y-48640380D01*
X53158560Y-48870190D01*
X53273464Y-48985095D01*
X53388369Y-49042547D01*
X53618179Y-49042547D01*
X53733083Y-48985095D01*
X53847988Y-48870190D01*
X53905440Y-48640380D01*
X53905440Y-48238214D01*
X53847988Y-48008404D01*
X53733083Y-47893500D01*
X53618179Y-47836047D01*
X52584036Y-47836047D02*
X52584036Y-48812738D01*
X52526583Y-48927642D01*
X52469131Y-48985095D01*
X52354226Y-49042547D01*
X52124417Y-49042547D01*
X52009512Y-48985095D01*
X51952060Y-48927642D01*
X51894607Y-48812738D01*
X51894607Y-47836047D01*
X51492440Y-47836047D02*
X50803012Y-47836047D01*
X51147726Y-49042547D02*
X51147726Y-47836047D01*
X50515750Y-47836047D02*
X49768869Y-47836047D01*
X50171036Y-48295666D01*
X49998679Y-48295666D01*
X49883774Y-48353119D01*
X49826321Y-48410571D01*
X49768869Y-48525476D01*
X49768869Y-48812738D01*
X49826321Y-48927642D01*
X49883774Y-48985095D01*
X49998679Y-49042547D01*
X50343393Y-49042547D01*
X50458298Y-48985095D01*
X50515750Y-48927642D01*
D11*
X12254404Y-33702380D02*
X12254404Y-32702380D01*
X11873452Y-32702380D01*
X11778214Y-32750000D01*
X11730595Y-32797619D01*
X11682976Y-32892857D01*
X11682976Y-33035714D01*
X11730595Y-33130952D01*
X11778214Y-33178571D01*
X11873452Y-33226190D01*
X12254404Y-33226190D01*
X11302023Y-33654761D02*
X11159166Y-33702380D01*
X10921071Y-33702380D01*
X10825833Y-33654761D01*
X10778214Y-33607142D01*
X10730595Y-33511904D01*
X10730595Y-33416666D01*
X10778214Y-33321428D01*
X10825833Y-33273809D01*
X10921071Y-33226190D01*
X11111547Y-33178571D01*
X11206785Y-33130952D01*
X11254404Y-33083333D01*
X11302023Y-32988095D01*
X11302023Y-32892857D01*
X11254404Y-32797619D01*
X11206785Y-32750000D01*
X11111547Y-32702380D01*
X10873452Y-32702380D01*
X10730595Y-32750000D01*
X9825833Y-33702380D02*
X10302023Y-33702380D01*
X10302023Y-32702380D01*
X9492500Y-33702380D02*
X9492500Y-32702380D01*
X9016309Y-33702380D02*
X9016309Y-32702380D01*
X8635357Y-32702380D01*
X8540119Y-32750000D01*
X8492500Y-32797619D01*
X8444880Y-32892857D01*
X8444880Y-33035714D01*
X8492500Y-33130952D01*
X8540119Y-33178571D01*
X8635357Y-33226190D01*
X9016309Y-33226190D01*
X7492500Y-33702380D02*
X8063928Y-33702380D01*
X7778214Y-33702380D02*
X7778214Y-32702380D01*
X7873452Y-32845238D01*
X7968690Y-32940476D01*
X8063928Y-32988095D01*
X10250180Y-31685080D02*
X10250180Y-30685080D01*
X10012085Y-30685080D01*
X9869228Y-30732700D01*
X9773990Y-30827938D01*
X9726371Y-30923176D01*
X9678752Y-31113652D01*
X9678752Y-31256509D01*
X9726371Y-31446985D01*
X9773990Y-31542223D01*
X9869228Y-31637461D01*
X10012085Y-31685080D01*
X10250180Y-31685080D01*
X9250180Y-31161271D02*
X8916847Y-31161271D01*
X8773990Y-31685080D02*
X9250180Y-31685080D01*
X9250180Y-30685080D01*
X8773990Y-30685080D01*
X8488276Y-30685080D02*
X7916847Y-30685080D01*
X8202561Y-31685080D02*
X8202561Y-30685080D01*
X7583514Y-31161271D02*
X7250180Y-31161271D01*
X7107323Y-31685080D02*
X7583514Y-31685080D01*
X7583514Y-30685080D01*
X7107323Y-30685080D01*
X6678752Y-31685080D02*
X6678752Y-30685080D01*
X6107323Y-31685080D01*
X6107323Y-30685080D01*
X5773990Y-30685080D02*
X5202561Y-30685080D01*
X5488276Y-31685080D02*
X5488276Y-30685080D01*
X10047800Y-27262080D02*
X10047800Y-26262080D01*
X9833514Y-26262080D01*
X9704942Y-26309700D01*
X9619228Y-26404938D01*
X9576371Y-26500176D01*
X9533514Y-26690652D01*
X9533514Y-26833509D01*
X9576371Y-27023985D01*
X9619228Y-27119223D01*
X9704942Y-27214461D01*
X9833514Y-27262080D01*
X10047800Y-27262080D01*
X9190657Y-27214461D02*
X9062085Y-27262080D01*
X8847800Y-27262080D01*
X8762085Y-27214461D01*
X8719228Y-27166842D01*
X8676371Y-27071604D01*
X8676371Y-26976366D01*
X8719228Y-26881128D01*
X8762085Y-26833509D01*
X8847800Y-26785890D01*
X9019228Y-26738271D01*
X9104942Y-26690652D01*
X9147800Y-26643033D01*
X9190657Y-26547795D01*
X9190657Y-26452557D01*
X9147800Y-26357319D01*
X9104942Y-26309700D01*
X9019228Y-26262080D01*
X8804942Y-26262080D01*
X8676371Y-26309700D01*
X8290657Y-27262080D02*
X8290657Y-26262080D01*
X8290657Y-26738271D02*
X7776371Y-26738271D01*
X7776371Y-27262080D02*
X7776371Y-26262080D01*
X7390657Y-26976366D02*
X6962085Y-26976366D01*
X7476371Y-27262080D02*
X7176371Y-26262080D01*
X6876371Y-27262080D01*
X6276371Y-26738271D02*
X6576371Y-26738271D01*
X6576371Y-27262080D02*
X6576371Y-26262080D01*
X6147800Y-26262080D01*
X5933514Y-26262080D02*
X5419228Y-26262080D01*
X5676371Y-27262080D02*
X5676371Y-26262080D01*
X12604404Y-86742380D02*
X12604404Y-85742380D01*
X12223452Y-85742380D01*
X12128214Y-85790000D01*
X12080595Y-85837619D01*
X12032976Y-85932857D01*
X12032976Y-86075714D01*
X12080595Y-86170952D01*
X12128214Y-86218571D01*
X12223452Y-86266190D01*
X12604404Y-86266190D01*
X11604404Y-86742380D02*
X11604404Y-85742380D01*
X11223452Y-85742380D01*
X11128214Y-85790000D01*
X11080595Y-85837619D01*
X11032976Y-85932857D01*
X11032976Y-86075714D01*
X11080595Y-86170952D01*
X11128214Y-86218571D01*
X11223452Y-86266190D01*
X11604404Y-86266190D01*
X10699642Y-85742380D02*
X10461547Y-86742380D01*
X10271071Y-86028095D01*
X10080595Y-86742380D01*
X9842500Y-85742380D01*
X8937738Y-86742380D02*
X9509166Y-86742380D01*
X9223452Y-86742380D02*
X9223452Y-85742380D01*
X9318690Y-85885238D01*
X9413928Y-85980476D01*
X9509166Y-86028095D01*
X10047800Y-80221080D02*
X10047800Y-79221080D01*
X9833514Y-79221080D01*
X9704942Y-79268700D01*
X9619228Y-79363938D01*
X9576371Y-79459176D01*
X9533514Y-79649652D01*
X9533514Y-79792509D01*
X9576371Y-79982985D01*
X9619228Y-80078223D01*
X9704942Y-80173461D01*
X9833514Y-80221080D01*
X10047800Y-80221080D01*
X9190657Y-80173461D02*
X9062085Y-80221080D01*
X8847800Y-80221080D01*
X8762085Y-80173461D01*
X8719228Y-80125842D01*
X8676371Y-80030604D01*
X8676371Y-79935366D01*
X8719228Y-79840128D01*
X8762085Y-79792509D01*
X8847800Y-79744890D01*
X9019228Y-79697271D01*
X9104942Y-79649652D01*
X9147800Y-79602033D01*
X9190657Y-79506795D01*
X9190657Y-79411557D01*
X9147800Y-79316319D01*
X9104942Y-79268700D01*
X9019228Y-79221080D01*
X8804942Y-79221080D01*
X8676371Y-79268700D01*
X8290657Y-80221080D02*
X8290657Y-79221080D01*
X8290657Y-79697271D02*
X7776371Y-79697271D01*
X7776371Y-80221080D02*
X7776371Y-79221080D01*
X7390657Y-79935366D02*
X6962085Y-79935366D01*
X7476371Y-80221080D02*
X7176371Y-79221080D01*
X6876371Y-80221080D01*
X6276371Y-79697271D02*
X6576371Y-79697271D01*
X6576371Y-80221080D02*
X6576371Y-79221080D01*
X6147800Y-79221080D01*
X5933514Y-79221080D02*
X5419228Y-79221080D01*
X5676371Y-80221080D02*
X5676371Y-79221080D01*
X10250180Y-84644080D02*
X10250180Y-83644080D01*
X10012085Y-83644080D01*
X9869228Y-83691700D01*
X9773990Y-83786938D01*
X9726371Y-83882176D01*
X9678752Y-84072652D01*
X9678752Y-84215509D01*
X9726371Y-84405985D01*
X9773990Y-84501223D01*
X9869228Y-84596461D01*
X10012085Y-84644080D01*
X10250180Y-84644080D01*
X9250180Y-84120271D02*
X8916847Y-84120271D01*
X8773990Y-84644080D02*
X9250180Y-84644080D01*
X9250180Y-83644080D01*
X8773990Y-83644080D01*
X8488276Y-83644080D02*
X7916847Y-83644080D01*
X8202561Y-84644080D02*
X8202561Y-83644080D01*
X7583514Y-84120271D02*
X7250180Y-84120271D01*
X7107323Y-84644080D02*
X7583514Y-84644080D01*
X7583514Y-83644080D01*
X7107323Y-83644080D01*
X6678752Y-84644080D02*
X6678752Y-83644080D01*
X6107323Y-84644080D01*
X6107323Y-83644080D01*
X5773990Y-83644080D02*
X5202561Y-83644080D01*
X5488276Y-84644080D02*
X5488276Y-83644080D01*
D10*
X57405321Y-107636047D02*
X57405321Y-108497833D01*
X57462774Y-108670190D01*
X57577679Y-108785095D01*
X57750036Y-108842547D01*
X57864940Y-108842547D01*
X56198821Y-108842547D02*
X56888250Y-108842547D01*
X56543536Y-108842547D02*
X56543536Y-107636047D01*
X56658440Y-107808404D01*
X56773345Y-107923309D01*
X56888250Y-107980761D01*
X55681750Y-108382928D02*
X54762512Y-108382928D01*
X53958179Y-107636047D02*
X53728369Y-107636047D01*
X53613464Y-107693500D01*
X53498560Y-107808404D01*
X53441107Y-108038214D01*
X53441107Y-108440380D01*
X53498560Y-108670190D01*
X53613464Y-108785095D01*
X53728369Y-108842547D01*
X53958179Y-108842547D01*
X54073083Y-108785095D01*
X54187988Y-108670190D01*
X54245440Y-108440380D01*
X54245440Y-108038214D01*
X54187988Y-107808404D01*
X54073083Y-107693500D01*
X53958179Y-107636047D01*
X52924036Y-107636047D02*
X52924036Y-108612738D01*
X52866583Y-108727642D01*
X52809131Y-108785095D01*
X52694226Y-108842547D01*
X52464417Y-108842547D01*
X52349512Y-108785095D01*
X52292060Y-108727642D01*
X52234607Y-108612738D01*
X52234607Y-107636047D01*
X51832440Y-107636047D02*
X51143012Y-107636047D01*
X51487726Y-108842547D02*
X51487726Y-107636047D01*
X50568488Y-108153119D02*
X50683393Y-108095666D01*
X50740845Y-108038214D01*
X50798298Y-107923309D01*
X50798298Y-107865857D01*
X50740845Y-107750952D01*
X50683393Y-107693500D01*
X50568488Y-107636047D01*
X50338679Y-107636047D01*
X50223774Y-107693500D01*
X50166321Y-107750952D01*
X50108869Y-107865857D01*
X50108869Y-107923309D01*
X50166321Y-108038214D01*
X50223774Y-108095666D01*
X50338679Y-108153119D01*
X50568488Y-108153119D01*
X50683393Y-108210571D01*
X50740845Y-108268023D01*
X50798298Y-108382928D01*
X50798298Y-108612738D01*
X50740845Y-108727642D01*
X50683393Y-108785095D01*
X50568488Y-108842547D01*
X50338679Y-108842547D01*
X50223774Y-108785095D01*
X50166321Y-108727642D01*
X50108869Y-108612738D01*
X50108869Y-108382928D01*
X50166321Y-108268023D01*
X50223774Y-108210571D01*
X50338679Y-108153119D01*
X35578963Y-66399747D02*
X35578963Y-67261533D01*
X35636416Y-67433890D01*
X35751320Y-67548795D01*
X35923678Y-67606247D01*
X36038582Y-67606247D01*
X35004440Y-67606247D02*
X35004440Y-66399747D01*
X34544820Y-66399747D01*
X34429916Y-66457200D01*
X34372463Y-66514652D01*
X34315011Y-66629557D01*
X34315011Y-66801914D01*
X34372463Y-66916819D01*
X34429916Y-66974271D01*
X34544820Y-67031723D01*
X35004440Y-67031723D01*
X33912844Y-66399747D02*
X33625582Y-67606247D01*
X33395773Y-66744461D01*
X33165963Y-67606247D01*
X32878701Y-66399747D01*
X31787106Y-67606247D02*
X32476535Y-67606247D01*
X32131820Y-67606247D02*
X32131820Y-66399747D01*
X32246725Y-66572104D01*
X32361630Y-66687009D01*
X32476535Y-66744461D01*
X35578963Y-91799747D02*
X35578963Y-92661533D01*
X35636416Y-92833890D01*
X35751320Y-92948795D01*
X35923678Y-93006247D01*
X36038582Y-93006247D01*
X35004440Y-93006247D02*
X35004440Y-91799747D01*
X34602273Y-92661533D01*
X34200106Y-91799747D01*
X34200106Y-93006247D01*
X33625582Y-91799747D02*
X33625582Y-92776438D01*
X33568130Y-92891342D01*
X33510678Y-92948795D01*
X33395773Y-93006247D01*
X33165963Y-93006247D01*
X33051059Y-92948795D01*
X32993606Y-92891342D01*
X32936154Y-92776438D01*
X32936154Y-91799747D01*
X32533987Y-91799747D02*
X31844559Y-91799747D01*
X32189273Y-93006247D02*
X32189273Y-91799747D01*
X31442392Y-92374271D02*
X31040225Y-92374271D01*
X30867868Y-93006247D02*
X31442392Y-93006247D01*
X31442392Y-91799747D01*
X30867868Y-91799747D01*
X29718820Y-93006247D02*
X30408249Y-93006247D01*
X30063535Y-93006247D02*
X30063535Y-91799747D01*
X30178440Y-91972104D01*
X30293344Y-92087009D01*
X30408249Y-92144461D01*
D11*
X17251071Y-107508571D02*
X17108214Y-107556190D01*
X17060595Y-107603809D01*
X17012976Y-107699047D01*
X17012976Y-107841904D01*
X17060595Y-107937142D01*
X17108214Y-107984761D01*
X17203452Y-108032380D01*
X17584404Y-108032380D01*
X17584404Y-107032380D01*
X17251071Y-107032380D01*
X17155833Y-107080000D01*
X17108214Y-107127619D01*
X17060595Y-107222857D01*
X17060595Y-107318095D01*
X17108214Y-107413333D01*
X17155833Y-107460952D01*
X17251071Y-107508571D01*
X17584404Y-107508571D01*
X16584404Y-108032380D02*
X16584404Y-107032380D01*
X16251071Y-107746666D01*
X15917738Y-107032380D01*
X15917738Y-108032380D01*
X15441547Y-107032380D02*
X15441547Y-107841904D01*
X15393928Y-107937142D01*
X15346309Y-107984761D01*
X15251071Y-108032380D01*
X15060595Y-108032380D01*
X14965357Y-107984761D01*
X14917738Y-107937142D01*
X14870119Y-107841904D01*
X14870119Y-107032380D01*
X14536785Y-107032380D02*
X13965357Y-107032380D01*
X14251071Y-108032380D02*
X14251071Y-107032380D01*
X13632023Y-107508571D02*
X13298690Y-107508571D01*
X13155833Y-108032380D02*
X13632023Y-108032380D01*
X13632023Y-107032380D01*
X13155833Y-107032380D01*
X12203452Y-108032380D02*
X12774880Y-108032380D01*
X12489166Y-108032380D02*
X12489166Y-107032380D01*
X12584404Y-107175238D01*
X12679642Y-107270476D01*
X12774880Y-107318095D01*
D10*
X56345583Y-10656047D02*
X56345583Y-11517833D01*
X56403036Y-11690190D01*
X56517940Y-11805095D01*
X56690298Y-11862547D01*
X56805202Y-11862547D01*
X55713607Y-11862547D02*
X55483798Y-11862547D01*
X55368893Y-11805095D01*
X55311440Y-11747642D01*
X55196536Y-11575285D01*
X55139083Y-11345476D01*
X55139083Y-10885857D01*
X55196536Y-10770952D01*
X55253988Y-10713500D01*
X55368893Y-10656047D01*
X55598702Y-10656047D01*
X55713607Y-10713500D01*
X55771060Y-10770952D01*
X55828512Y-10885857D01*
X55828512Y-11173119D01*
X55771060Y-11288023D01*
X55713607Y-11345476D01*
X55598702Y-11402928D01*
X55368893Y-11402928D01*
X55253988Y-11345476D01*
X55196536Y-11288023D01*
X55139083Y-11173119D01*
X54622012Y-11402928D02*
X53702774Y-11402928D01*
X52438821Y-11747642D02*
X52496274Y-11805095D01*
X52668631Y-11862547D01*
X52783536Y-11862547D01*
X52955893Y-11805095D01*
X53070798Y-11690190D01*
X53128250Y-11575285D01*
X53185702Y-11345476D01*
X53185702Y-11173119D01*
X53128250Y-10943309D01*
X53070798Y-10828404D01*
X52955893Y-10713500D01*
X52783536Y-10656047D01*
X52668631Y-10656047D01*
X52496274Y-10713500D01*
X52438821Y-10770952D01*
X51347226Y-11862547D02*
X51921750Y-11862547D01*
X51921750Y-10656047D01*
X50945060Y-11862547D02*
X50945060Y-10656047D01*
X50255631Y-11862547D02*
X50772702Y-11173119D01*
X50255631Y-10656047D02*
X50945060Y-11345476D01*
X50025821Y-11977452D02*
X49106583Y-11977452D01*
X48819321Y-11862547D02*
X48819321Y-10656047D01*
X48244798Y-11862547D02*
X48244798Y-10656047D01*
X47555369Y-11862547D01*
X47555369Y-10656047D01*
X46348869Y-11862547D02*
X47038298Y-11862547D01*
X46693583Y-11862547D02*
X46693583Y-10656047D01*
X46808488Y-10828404D01*
X46923393Y-10943309D01*
X47038298Y-11000761D01*
X35578963Y-53699747D02*
X35578963Y-54561533D01*
X35636416Y-54733890D01*
X35751320Y-54848795D01*
X35923678Y-54906247D01*
X36038582Y-54906247D01*
X35061892Y-54848795D02*
X34889535Y-54906247D01*
X34602273Y-54906247D01*
X34487368Y-54848795D01*
X34429916Y-54791342D01*
X34372463Y-54676438D01*
X34372463Y-54561533D01*
X34429916Y-54446628D01*
X34487368Y-54389176D01*
X34602273Y-54331723D01*
X34832082Y-54274271D01*
X34946987Y-54216819D01*
X35004440Y-54159366D01*
X35061892Y-54044461D01*
X35061892Y-53929557D01*
X35004440Y-53814652D01*
X34946987Y-53757200D01*
X34832082Y-53699747D01*
X34544820Y-53699747D01*
X34372463Y-53757200D01*
X33855392Y-54906247D02*
X33855392Y-53699747D01*
X33165963Y-54906247D02*
X33683035Y-54216819D01*
X33165963Y-53699747D02*
X33855392Y-54389176D01*
X32648892Y-54906247D02*
X32648892Y-53699747D01*
X32074368Y-54906247D02*
X32074368Y-53699747D01*
X31614749Y-53699747D01*
X31499844Y-53757200D01*
X31442392Y-53814652D01*
X31384940Y-53929557D01*
X31384940Y-54101914D01*
X31442392Y-54216819D01*
X31499844Y-54274271D01*
X31614749Y-54331723D01*
X32074368Y-54331723D01*
X30235892Y-54906247D02*
X30925320Y-54906247D01*
X30580606Y-54906247D02*
X30580606Y-53699747D01*
X30695511Y-53872104D01*
X30810416Y-53987009D01*
X30925320Y-54044461D01*
X57735321Y-97346047D02*
X57735321Y-98207833D01*
X57792774Y-98380190D01*
X57907679Y-98495095D01*
X58080036Y-98552547D01*
X58194940Y-98552547D01*
X57218250Y-97460952D02*
X57160798Y-97403500D01*
X57045893Y-97346047D01*
X56758631Y-97346047D01*
X56643726Y-97403500D01*
X56586274Y-97460952D01*
X56528821Y-97575857D01*
X56528821Y-97690761D01*
X56586274Y-97863119D01*
X57275702Y-98552547D01*
X56528821Y-98552547D01*
X56011750Y-98092928D02*
X55092512Y-98092928D01*
X54288179Y-97346047D02*
X54058369Y-97346047D01*
X53943464Y-97403500D01*
X53828560Y-97518404D01*
X53771107Y-97748214D01*
X53771107Y-98150380D01*
X53828560Y-98380190D01*
X53943464Y-98495095D01*
X54058369Y-98552547D01*
X54288179Y-98552547D01*
X54403083Y-98495095D01*
X54517988Y-98380190D01*
X54575440Y-98150380D01*
X54575440Y-97748214D01*
X54517988Y-97518404D01*
X54403083Y-97403500D01*
X54288179Y-97346047D01*
X53254036Y-97346047D02*
X53254036Y-98322738D01*
X53196583Y-98437642D01*
X53139131Y-98495095D01*
X53024226Y-98552547D01*
X52794417Y-98552547D01*
X52679512Y-98495095D01*
X52622060Y-98437642D01*
X52564607Y-98322738D01*
X52564607Y-97346047D01*
X52162440Y-97346047D02*
X51473012Y-97346047D01*
X51817726Y-98552547D02*
X51817726Y-97346047D01*
X51185750Y-97346047D02*
X50381417Y-97346047D01*
X50898488Y-98552547D01*
X57405321Y-72506047D02*
X57405321Y-73367833D01*
X57462774Y-73540190D01*
X57577679Y-73655095D01*
X57750036Y-73712547D01*
X57864940Y-73712547D01*
X56313726Y-72908214D02*
X56313726Y-73712547D01*
X56600988Y-72448595D02*
X56888250Y-73310380D01*
X56141369Y-73310380D01*
X55681750Y-73252928D02*
X54762512Y-73252928D01*
X53958179Y-72506047D02*
X53728369Y-72506047D01*
X53613464Y-72563500D01*
X53498560Y-72678404D01*
X53441107Y-72908214D01*
X53441107Y-73310380D01*
X53498560Y-73540190D01*
X53613464Y-73655095D01*
X53728369Y-73712547D01*
X53958179Y-73712547D01*
X54073083Y-73655095D01*
X54187988Y-73540190D01*
X54245440Y-73310380D01*
X54245440Y-72908214D01*
X54187988Y-72678404D01*
X54073083Y-72563500D01*
X53958179Y-72506047D01*
X52924036Y-72506047D02*
X52924036Y-73482738D01*
X52866583Y-73597642D01*
X52809131Y-73655095D01*
X52694226Y-73712547D01*
X52464417Y-73712547D01*
X52349512Y-73655095D01*
X52292060Y-73597642D01*
X52234607Y-73482738D01*
X52234607Y-72506047D01*
X51832440Y-72506047D02*
X51143012Y-72506047D01*
X51487726Y-73712547D02*
X51487726Y-72506047D01*
X50166321Y-72506047D02*
X50740845Y-72506047D01*
X50798298Y-73080571D01*
X50740845Y-73023119D01*
X50625940Y-72965666D01*
X50338679Y-72965666D01*
X50223774Y-73023119D01*
X50166321Y-73080571D01*
X50108869Y-73195476D01*
X50108869Y-73482738D01*
X50166321Y-73597642D01*
X50223774Y-73655095D01*
X50338679Y-73712547D01*
X50625940Y-73712547D01*
X50740845Y-73655095D01*
X50798298Y-73597642D01*
X35578963Y-40999747D02*
X35578963Y-41861533D01*
X35636416Y-42033890D01*
X35751320Y-42148795D01*
X35923678Y-42206247D01*
X36038582Y-42206247D01*
X35061892Y-42148795D02*
X34889535Y-42206247D01*
X34602273Y-42206247D01*
X34487368Y-42148795D01*
X34429916Y-42091342D01*
X34372463Y-41976438D01*
X34372463Y-41861533D01*
X34429916Y-41746628D01*
X34487368Y-41689176D01*
X34602273Y-41631723D01*
X34832082Y-41574271D01*
X34946987Y-41516819D01*
X35004440Y-41459366D01*
X35061892Y-41344461D01*
X35061892Y-41229557D01*
X35004440Y-41114652D01*
X34946987Y-41057200D01*
X34832082Y-40999747D01*
X34544820Y-40999747D01*
X34372463Y-41057200D01*
X33855392Y-42206247D02*
X33855392Y-40999747D01*
X33855392Y-41574271D02*
X33165963Y-41574271D01*
X33165963Y-42206247D02*
X33165963Y-40999747D01*
X32591440Y-40999747D02*
X32591440Y-41976438D01*
X32533987Y-42091342D01*
X32476535Y-42148795D01*
X32361630Y-42206247D01*
X32131820Y-42206247D01*
X32016916Y-42148795D01*
X31959463Y-42091342D01*
X31902011Y-41976438D01*
X31902011Y-40999747D01*
X30925320Y-41574271D02*
X31327487Y-41574271D01*
X31327487Y-42206247D02*
X31327487Y-40999747D01*
X30752963Y-40999747D01*
X29891178Y-41574271D02*
X30293344Y-41574271D01*
X30293344Y-42206247D02*
X30293344Y-40999747D01*
X29718820Y-40999747D01*
X28684678Y-42206247D02*
X29259201Y-42206247D01*
X29259201Y-40999747D01*
X28282511Y-41574271D02*
X27880344Y-41574271D01*
X27707987Y-42206247D02*
X28282511Y-42206247D01*
X28282511Y-40999747D01*
X27707987Y-40999747D01*
X26558940Y-42206247D02*
X27248368Y-42206247D01*
X26903654Y-42206247D02*
X26903654Y-40999747D01*
X27018559Y-41172104D01*
X27133463Y-41287009D01*
X27248368Y-41344461D01*
X35578963Y-79099747D02*
X35578963Y-79961533D01*
X35636416Y-80133890D01*
X35751320Y-80248795D01*
X35923678Y-80306247D01*
X36038582Y-80306247D01*
X34602273Y-79674271D02*
X35004440Y-79674271D01*
X35004440Y-80306247D02*
X35004440Y-79099747D01*
X34429916Y-79099747D01*
X34027749Y-79961533D02*
X33453225Y-79961533D01*
X34142654Y-80306247D02*
X33740487Y-79099747D01*
X33338320Y-80306247D01*
X32993606Y-80248795D02*
X32821249Y-80306247D01*
X32533987Y-80306247D01*
X32419082Y-80248795D01*
X32361630Y-80191342D01*
X32304178Y-80076438D01*
X32304178Y-79961533D01*
X32361630Y-79846628D01*
X32419082Y-79789176D01*
X32533987Y-79731723D01*
X32763797Y-79674271D01*
X32878701Y-79616819D01*
X32936154Y-79559366D01*
X32993606Y-79444461D01*
X32993606Y-79329557D01*
X32936154Y-79214652D01*
X32878701Y-79157200D01*
X32763797Y-79099747D01*
X32476535Y-79099747D01*
X32304178Y-79157200D01*
X31959463Y-79099747D02*
X31270035Y-79099747D01*
X31614749Y-80306247D02*
X31614749Y-79099747D01*
X30235892Y-80306247D02*
X30925320Y-80306247D01*
X30580606Y-80306247D02*
X30580606Y-79099747D01*
X30695511Y-79272104D01*
X30810416Y-79387009D01*
X30925320Y-79444461D01*
D12*
X42891735Y-46741619D02*
X43375545Y-46741619D01*
X43375545Y-45725619D01*
X42553069Y-46209428D02*
X42214402Y-46209428D01*
X42069259Y-46741619D02*
X42553069Y-46741619D01*
X42553069Y-45725619D01*
X42069259Y-45725619D01*
X41633830Y-46741619D02*
X41633830Y-45725619D01*
X41391926Y-45725619D01*
X41246783Y-45774000D01*
X41150021Y-45870761D01*
X41101640Y-45967523D01*
X41053259Y-46161047D01*
X41053259Y-46306190D01*
X41101640Y-46499714D01*
X41150021Y-46596476D01*
X41246783Y-46693238D01*
X41391926Y-46741619D01*
X41633830Y-46741619D01*
X40182402Y-45725619D02*
X40375926Y-45725619D01*
X40472688Y-45774000D01*
X40521069Y-45822380D01*
X40617830Y-45967523D01*
X40666211Y-46161047D01*
X40666211Y-46548095D01*
X40617830Y-46644857D01*
X40569450Y-46693238D01*
X40472688Y-46741619D01*
X40279164Y-46741619D01*
X40182402Y-46693238D01*
X40134021Y-46644857D01*
X40085640Y-46548095D01*
X40085640Y-46306190D01*
X40134021Y-46209428D01*
X40182402Y-46161047D01*
X40279164Y-46112666D01*
X40472688Y-46112666D01*
X40569450Y-46161047D01*
X40617830Y-46209428D01*
X40666211Y-46306190D01*
D13*
X40206447Y-41336690D02*
X39896923Y-41120023D01*
X40206447Y-40965261D02*
X39556447Y-40965261D01*
X39556447Y-41212880D01*
X39587400Y-41274785D01*
X39618352Y-41305738D01*
X39680257Y-41336690D01*
X39773114Y-41336690D01*
X39835019Y-41305738D01*
X39865971Y-41274785D01*
X39896923Y-41212880D01*
X39896923Y-40965261D01*
X44165971Y-44331928D02*
X44196923Y-44424785D01*
X44227876Y-44455738D01*
X44289780Y-44486690D01*
X44382638Y-44486690D01*
X44444542Y-44455738D01*
X44475495Y-44424785D01*
X44506447Y-44362880D01*
X44506447Y-44115261D01*
X43856447Y-44115261D01*
X43856447Y-44331928D01*
X43887400Y-44393833D01*
X43918352Y-44424785D01*
X43980257Y-44455738D01*
X44042161Y-44455738D01*
X44104066Y-44424785D01*
X44135019Y-44393833D01*
X44165971Y-44331928D01*
X44165971Y-44115261D01*
X43837400Y-41355738D02*
X43806447Y-41293833D01*
X43806447Y-41200976D01*
X43837400Y-41108119D01*
X43899304Y-41046214D01*
X43961209Y-41015261D01*
X44085019Y-40984309D01*
X44177876Y-40984309D01*
X44301685Y-41015261D01*
X44363590Y-41046214D01*
X44425495Y-41108119D01*
X44456447Y-41200976D01*
X44456447Y-41262880D01*
X44425495Y-41355738D01*
X44394542Y-41386690D01*
X44177876Y-41386690D01*
X44177876Y-41262880D01*
X39833828Y-43887880D02*
X39833828Y-44383119D01*
X40081447Y-44135500D02*
X39586209Y-44135500D01*
D11*
X12674404Y-69132380D02*
X12674404Y-68132380D01*
X12293452Y-68132380D01*
X12198214Y-68180000D01*
X12150595Y-68227619D01*
X12102976Y-68322857D01*
X12102976Y-68465714D01*
X12150595Y-68560952D01*
X12198214Y-68608571D01*
X12293452Y-68656190D01*
X12674404Y-68656190D01*
X11722023Y-69084761D02*
X11579166Y-69132380D01*
X11341071Y-69132380D01*
X11245833Y-69084761D01*
X11198214Y-69037142D01*
X11150595Y-68941904D01*
X11150595Y-68846666D01*
X11198214Y-68751428D01*
X11245833Y-68703809D01*
X11341071Y-68656190D01*
X11531547Y-68608571D01*
X11626785Y-68560952D01*
X11674404Y-68513333D01*
X11722023Y-68418095D01*
X11722023Y-68322857D01*
X11674404Y-68227619D01*
X11626785Y-68180000D01*
X11531547Y-68132380D01*
X11293452Y-68132380D01*
X11150595Y-68180000D01*
X10722023Y-69132380D02*
X10722023Y-68132380D01*
X10150595Y-69132380D02*
X10579166Y-68560952D01*
X10150595Y-68132380D02*
X10722023Y-68703809D01*
X9722023Y-69132380D02*
X9722023Y-68132380D01*
X9245833Y-69132380D02*
X9245833Y-68132380D01*
X8864880Y-68132380D01*
X8769642Y-68180000D01*
X8722023Y-68227619D01*
X8674404Y-68322857D01*
X8674404Y-68465714D01*
X8722023Y-68560952D01*
X8769642Y-68608571D01*
X8864880Y-68656190D01*
X9245833Y-68656190D01*
X7722023Y-69132380D02*
X8293452Y-69132380D01*
X8007738Y-69132380D02*
X8007738Y-68132380D01*
X8102976Y-68275238D01*
X8198214Y-68370476D01*
X8293452Y-68418095D01*
X10250180Y-66991080D02*
X10250180Y-65991080D01*
X10012085Y-65991080D01*
X9869228Y-66038700D01*
X9773990Y-66133938D01*
X9726371Y-66229176D01*
X9678752Y-66419652D01*
X9678752Y-66562509D01*
X9726371Y-66752985D01*
X9773990Y-66848223D01*
X9869228Y-66943461D01*
X10012085Y-66991080D01*
X10250180Y-66991080D01*
X9250180Y-66467271D02*
X8916847Y-66467271D01*
X8773990Y-66991080D02*
X9250180Y-66991080D01*
X9250180Y-65991080D01*
X8773990Y-65991080D01*
X8488276Y-65991080D02*
X7916847Y-65991080D01*
X8202561Y-66991080D02*
X8202561Y-65991080D01*
X7583514Y-66467271D02*
X7250180Y-66467271D01*
X7107323Y-66991080D02*
X7583514Y-66991080D01*
X7583514Y-65991080D01*
X7107323Y-65991080D01*
X6678752Y-66991080D02*
X6678752Y-65991080D01*
X6107323Y-66991080D01*
X6107323Y-65991080D01*
X5773990Y-65991080D02*
X5202561Y-65991080D01*
X5488276Y-66991080D02*
X5488276Y-65991080D01*
X10047800Y-62568080D02*
X10047800Y-61568080D01*
X9833514Y-61568080D01*
X9704942Y-61615700D01*
X9619228Y-61710938D01*
X9576371Y-61806176D01*
X9533514Y-61996652D01*
X9533514Y-62139509D01*
X9576371Y-62329985D01*
X9619228Y-62425223D01*
X9704942Y-62520461D01*
X9833514Y-62568080D01*
X10047800Y-62568080D01*
X9190657Y-62520461D02*
X9062085Y-62568080D01*
X8847800Y-62568080D01*
X8762085Y-62520461D01*
X8719228Y-62472842D01*
X8676371Y-62377604D01*
X8676371Y-62282366D01*
X8719228Y-62187128D01*
X8762085Y-62139509D01*
X8847800Y-62091890D01*
X9019228Y-62044271D01*
X9104942Y-61996652D01*
X9147800Y-61949033D01*
X9190657Y-61853795D01*
X9190657Y-61758557D01*
X9147800Y-61663319D01*
X9104942Y-61615700D01*
X9019228Y-61568080D01*
X8804942Y-61568080D01*
X8676371Y-61615700D01*
X8290657Y-62568080D02*
X8290657Y-61568080D01*
X8290657Y-62044271D02*
X7776371Y-62044271D01*
X7776371Y-62568080D02*
X7776371Y-61568080D01*
X7390657Y-62282366D02*
X6962085Y-62282366D01*
X7476371Y-62568080D02*
X7176371Y-61568080D01*
X6876371Y-62568080D01*
X6276371Y-62044271D02*
X6576371Y-62044271D01*
X6576371Y-62568080D02*
X6576371Y-61568080D01*
X6147800Y-61568080D01*
X5933514Y-61568080D02*
X5419228Y-61568080D01*
X5676371Y-62568080D02*
X5676371Y-61568080D01*
D12*
X42791735Y-9751619D02*
X43275545Y-9751619D01*
X43275545Y-8735619D01*
X42453069Y-9219428D02*
X42114402Y-9219428D01*
X41969259Y-9751619D02*
X42453069Y-9751619D01*
X42453069Y-8735619D01*
X41969259Y-8735619D01*
X41533830Y-9751619D02*
X41533830Y-8735619D01*
X41291926Y-8735619D01*
X41146783Y-8784000D01*
X41050021Y-8880761D01*
X41001640Y-8977523D01*
X40953259Y-9171047D01*
X40953259Y-9316190D01*
X41001640Y-9509714D01*
X41050021Y-9606476D01*
X41146783Y-9703238D01*
X41291926Y-9751619D01*
X41533830Y-9751619D01*
X40469450Y-9751619D02*
X40275926Y-9751619D01*
X40179164Y-9703238D01*
X40130783Y-9654857D01*
X40034021Y-9509714D01*
X39985640Y-9316190D01*
X39985640Y-8929142D01*
X40034021Y-8832380D01*
X40082402Y-8784000D01*
X40179164Y-8735619D01*
X40372688Y-8735619D01*
X40469450Y-8784000D01*
X40517830Y-8832380D01*
X40566211Y-8929142D01*
X40566211Y-9171047D01*
X40517830Y-9267809D01*
X40469450Y-9316190D01*
X40372688Y-9364571D01*
X40179164Y-9364571D01*
X40082402Y-9316190D01*
X40034021Y-9267809D01*
X39985640Y-9171047D01*
D13*
X44165971Y-7184428D02*
X44196923Y-7277285D01*
X44227876Y-7308238D01*
X44289780Y-7339190D01*
X44382638Y-7339190D01*
X44444542Y-7308238D01*
X44475495Y-7277285D01*
X44506447Y-7215380D01*
X44506447Y-6967761D01*
X43856447Y-6967761D01*
X43856447Y-7184428D01*
X43887400Y-7246333D01*
X43918352Y-7277285D01*
X43980257Y-7308238D01*
X44042161Y-7308238D01*
X44104066Y-7277285D01*
X44135019Y-7246333D01*
X44165971Y-7184428D01*
X44165971Y-6967761D01*
X43837400Y-4208238D02*
X43806447Y-4146333D01*
X43806447Y-4053476D01*
X43837400Y-3960619D01*
X43899304Y-3898714D01*
X43961209Y-3867761D01*
X44085019Y-3836809D01*
X44177876Y-3836809D01*
X44301685Y-3867761D01*
X44363590Y-3898714D01*
X44425495Y-3960619D01*
X44456447Y-4053476D01*
X44456447Y-4115380D01*
X44425495Y-4208238D01*
X44394542Y-4239190D01*
X44177876Y-4239190D01*
X44177876Y-4115380D01*
X40206447Y-4189190D02*
X39896923Y-3972523D01*
X40206447Y-3817761D02*
X39556447Y-3817761D01*
X39556447Y-4065380D01*
X39587400Y-4127285D01*
X39618352Y-4158238D01*
X39680257Y-4189190D01*
X39773114Y-4189190D01*
X39835019Y-4158238D01*
X39865971Y-4127285D01*
X39896923Y-4065380D01*
X39896923Y-3817761D01*
X39833828Y-6740380D02*
X39833828Y-7235619D01*
X40081447Y-6988000D02*
X39586209Y-6988000D01*
D11*
X12184404Y-15992380D02*
X12184404Y-14992380D01*
X11803452Y-14992380D01*
X11708214Y-15040000D01*
X11660595Y-15087619D01*
X11612976Y-15182857D01*
X11612976Y-15325714D01*
X11660595Y-15420952D01*
X11708214Y-15468571D01*
X11803452Y-15516190D01*
X12184404Y-15516190D01*
X10612976Y-15992380D02*
X10946309Y-15516190D01*
X11184404Y-15992380D02*
X11184404Y-14992380D01*
X10803452Y-14992380D01*
X10708214Y-15040000D01*
X10660595Y-15087619D01*
X10612976Y-15182857D01*
X10612976Y-15325714D01*
X10660595Y-15420952D01*
X10708214Y-15468571D01*
X10803452Y-15516190D01*
X11184404Y-15516190D01*
X9993928Y-14992380D02*
X9803452Y-14992380D01*
X9708214Y-15040000D01*
X9612976Y-15135238D01*
X9565357Y-15325714D01*
X9565357Y-15659047D01*
X9612976Y-15849523D01*
X9708214Y-15944761D01*
X9803452Y-15992380D01*
X9993928Y-15992380D01*
X10089166Y-15944761D01*
X10184404Y-15849523D01*
X10232023Y-15659047D01*
X10232023Y-15325714D01*
X10184404Y-15135238D01*
X10089166Y-15040000D01*
X9993928Y-14992380D01*
X9279642Y-14992380D02*
X8708214Y-14992380D01*
X8993928Y-15992380D02*
X8993928Y-14992380D01*
X8422500Y-15706666D02*
X7946309Y-15706666D01*
X8517738Y-15992380D02*
X8184404Y-14992380D01*
X7851071Y-15992380D01*
X7660595Y-14992380D02*
X7089166Y-14992380D01*
X7374880Y-15992380D02*
X7374880Y-14992380D01*
X6755833Y-15468571D02*
X6422500Y-15468571D01*
X6279642Y-15992380D02*
X6755833Y-15992380D01*
X6755833Y-14992380D01*
X6279642Y-14992380D01*
X5327261Y-15992380D02*
X5898690Y-15992380D01*
X5612976Y-15992380D02*
X5612976Y-14992380D01*
X5708214Y-15135238D01*
X5803452Y-15230476D01*
X5898690Y-15278095D01*
X10232380Y-13672380D02*
X10232380Y-12672380D01*
X9994285Y-12672380D01*
X9851428Y-12720000D01*
X9756190Y-12815238D01*
X9708571Y-12910476D01*
X9660952Y-13100952D01*
X9660952Y-13243809D01*
X9708571Y-13434285D01*
X9756190Y-13529523D01*
X9851428Y-13624761D01*
X9994285Y-13672380D01*
X10232380Y-13672380D01*
X9232380Y-13148571D02*
X8899047Y-13148571D01*
X8756190Y-13672380D02*
X9232380Y-13672380D01*
X9232380Y-12672380D01*
X8756190Y-12672380D01*
X8470476Y-12672380D02*
X7899047Y-12672380D01*
X8184761Y-13672380D02*
X8184761Y-12672380D01*
X7565714Y-13148571D02*
X7232380Y-13148571D01*
X7089523Y-13672380D02*
X7565714Y-13672380D01*
X7565714Y-12672380D01*
X7089523Y-12672380D01*
X6660952Y-13672380D02*
X6660952Y-12672380D01*
X6089523Y-13672380D01*
X6089523Y-12672380D01*
X5756190Y-12672380D02*
X5184761Y-12672380D01*
X5470476Y-13672380D02*
X5470476Y-12672380D01*
X10047800Y-9609080D02*
X10047800Y-8609080D01*
X9833514Y-8609080D01*
X9704942Y-8656700D01*
X9619228Y-8751938D01*
X9576371Y-8847176D01*
X9533514Y-9037652D01*
X9533514Y-9180509D01*
X9576371Y-9370985D01*
X9619228Y-9466223D01*
X9704942Y-9561461D01*
X9833514Y-9609080D01*
X10047800Y-9609080D01*
X9190657Y-9561461D02*
X9062085Y-9609080D01*
X8847800Y-9609080D01*
X8762085Y-9561461D01*
X8719228Y-9513842D01*
X8676371Y-9418604D01*
X8676371Y-9323366D01*
X8719228Y-9228128D01*
X8762085Y-9180509D01*
X8847800Y-9132890D01*
X9019228Y-9085271D01*
X9104942Y-9037652D01*
X9147800Y-8990033D01*
X9190657Y-8894795D01*
X9190657Y-8799557D01*
X9147800Y-8704319D01*
X9104942Y-8656700D01*
X9019228Y-8609080D01*
X8804942Y-8609080D01*
X8676371Y-8656700D01*
X8290657Y-9609080D02*
X8290657Y-8609080D01*
X8290657Y-9085271D02*
X7776371Y-9085271D01*
X7776371Y-9609080D02*
X7776371Y-8609080D01*
X7390657Y-9323366D02*
X6962085Y-9323366D01*
X7476371Y-9609080D02*
X7176371Y-8609080D01*
X6876371Y-9609080D01*
X6276371Y-9085271D02*
X6576371Y-9085271D01*
X6576371Y-9609080D02*
X6576371Y-8609080D01*
X6147800Y-8609080D01*
X5933514Y-8609080D02*
X5419228Y-8609080D01*
X5676371Y-9609080D02*
X5676371Y-8609080D01*
D12*
X42931735Y-34391619D02*
X43415545Y-34391619D01*
X43415545Y-33375619D01*
X42593069Y-33859428D02*
X42254402Y-33859428D01*
X42109259Y-34391619D02*
X42593069Y-34391619D01*
X42593069Y-33375619D01*
X42109259Y-33375619D01*
X41673830Y-34391619D02*
X41673830Y-33375619D01*
X41431926Y-33375619D01*
X41286783Y-33424000D01*
X41190021Y-33520761D01*
X41141640Y-33617523D01*
X41093259Y-33811047D01*
X41093259Y-33956190D01*
X41141640Y-34149714D01*
X41190021Y-34246476D01*
X41286783Y-34343238D01*
X41431926Y-34391619D01*
X41673830Y-34391619D01*
X40754592Y-33375619D02*
X40077259Y-33375619D01*
X40512688Y-34391619D01*
D13*
X44165971Y-31949428D02*
X44196923Y-32042285D01*
X44227876Y-32073238D01*
X44289780Y-32104190D01*
X44382638Y-32104190D01*
X44444542Y-32073238D01*
X44475495Y-32042285D01*
X44506447Y-31980380D01*
X44506447Y-31732761D01*
X43856447Y-31732761D01*
X43856447Y-31949428D01*
X43887400Y-32011333D01*
X43918352Y-32042285D01*
X43980257Y-32073238D01*
X44042161Y-32073238D01*
X44104066Y-32042285D01*
X44135019Y-32011333D01*
X44165971Y-31949428D01*
X44165971Y-31732761D01*
X43837400Y-28973238D02*
X43806447Y-28911333D01*
X43806447Y-28818476D01*
X43837400Y-28725619D01*
X43899304Y-28663714D01*
X43961209Y-28632761D01*
X44085019Y-28601809D01*
X44177876Y-28601809D01*
X44301685Y-28632761D01*
X44363590Y-28663714D01*
X44425495Y-28725619D01*
X44456447Y-28818476D01*
X44456447Y-28880380D01*
X44425495Y-28973238D01*
X44394542Y-29004190D01*
X44177876Y-29004190D01*
X44177876Y-28880380D01*
X40206447Y-28954190D02*
X39896923Y-28737523D01*
X40206447Y-28582761D02*
X39556447Y-28582761D01*
X39556447Y-28830380D01*
X39587400Y-28892285D01*
X39618352Y-28923238D01*
X39680257Y-28954190D01*
X39773114Y-28954190D01*
X39835019Y-28923238D01*
X39865971Y-28892285D01*
X39896923Y-28830380D01*
X39896923Y-28582761D01*
X39833828Y-31505380D02*
X39833828Y-32000619D01*
X40081447Y-31753000D02*
X39586209Y-31753000D01*
D12*
X42791735Y-71641619D02*
X43275545Y-71641619D01*
X43275545Y-70625619D01*
X42453069Y-71109428D02*
X42114402Y-71109428D01*
X41969259Y-71641619D02*
X42453069Y-71641619D01*
X42453069Y-70625619D01*
X41969259Y-70625619D01*
X41533830Y-71641619D02*
X41533830Y-70625619D01*
X41291926Y-70625619D01*
X41146783Y-70674000D01*
X41050021Y-70770761D01*
X41001640Y-70867523D01*
X40953259Y-71061047D01*
X40953259Y-71206190D01*
X41001640Y-71399714D01*
X41050021Y-71496476D01*
X41146783Y-71593238D01*
X41291926Y-71641619D01*
X41533830Y-71641619D01*
X40082402Y-70964285D02*
X40082402Y-71641619D01*
X40324307Y-70577238D02*
X40566211Y-71302952D01*
X39937259Y-71302952D01*
D13*
X39833828Y-68652880D02*
X39833828Y-69148119D01*
X40081447Y-68900500D02*
X39586209Y-68900500D01*
X44165971Y-69096928D02*
X44196923Y-69189785D01*
X44227876Y-69220738D01*
X44289780Y-69251690D01*
X44382638Y-69251690D01*
X44444542Y-69220738D01*
X44475495Y-69189785D01*
X44506447Y-69127880D01*
X44506447Y-68880261D01*
X43856447Y-68880261D01*
X43856447Y-69096928D01*
X43887400Y-69158833D01*
X43918352Y-69189785D01*
X43980257Y-69220738D01*
X44042161Y-69220738D01*
X44104066Y-69189785D01*
X44135019Y-69158833D01*
X44165971Y-69096928D01*
X44165971Y-68880261D01*
X43837400Y-66120738D02*
X43806447Y-66058833D01*
X43806447Y-65965976D01*
X43837400Y-65873119D01*
X43899304Y-65811214D01*
X43961209Y-65780261D01*
X44085019Y-65749309D01*
X44177876Y-65749309D01*
X44301685Y-65780261D01*
X44363590Y-65811214D01*
X44425495Y-65873119D01*
X44456447Y-65965976D01*
X44456447Y-66027880D01*
X44425495Y-66120738D01*
X44394542Y-66151690D01*
X44177876Y-66151690D01*
X44177876Y-66027880D01*
X40206447Y-66101690D02*
X39896923Y-65885023D01*
X40206447Y-65730261D02*
X39556447Y-65730261D01*
X39556447Y-65977880D01*
X39587400Y-66039785D01*
X39618352Y-66070738D01*
X39680257Y-66101690D01*
X39773114Y-66101690D01*
X39835019Y-66070738D01*
X39865971Y-66039785D01*
X39896923Y-65977880D01*
X39896923Y-65730261D01*
D10*
X57795321Y-85146047D02*
X57795321Y-86007833D01*
X57852774Y-86180190D01*
X57967679Y-86295095D01*
X58140036Y-86352547D01*
X58254940Y-86352547D01*
X57335702Y-85146047D02*
X56588821Y-85146047D01*
X56990988Y-85605666D01*
X56818631Y-85605666D01*
X56703726Y-85663119D01*
X56646274Y-85720571D01*
X56588821Y-85835476D01*
X56588821Y-86122738D01*
X56646274Y-86237642D01*
X56703726Y-86295095D01*
X56818631Y-86352547D01*
X57163345Y-86352547D01*
X57278250Y-86295095D01*
X57335702Y-86237642D01*
X56071750Y-85892928D02*
X55152512Y-85892928D01*
X54348179Y-85146047D02*
X54118369Y-85146047D01*
X54003464Y-85203500D01*
X53888560Y-85318404D01*
X53831107Y-85548214D01*
X53831107Y-85950380D01*
X53888560Y-86180190D01*
X54003464Y-86295095D01*
X54118369Y-86352547D01*
X54348179Y-86352547D01*
X54463083Y-86295095D01*
X54577988Y-86180190D01*
X54635440Y-85950380D01*
X54635440Y-85548214D01*
X54577988Y-85318404D01*
X54463083Y-85203500D01*
X54348179Y-85146047D01*
X53314036Y-85146047D02*
X53314036Y-86122738D01*
X53256583Y-86237642D01*
X53199131Y-86295095D01*
X53084226Y-86352547D01*
X52854417Y-86352547D01*
X52739512Y-86295095D01*
X52682060Y-86237642D01*
X52624607Y-86122738D01*
X52624607Y-85146047D01*
X52222440Y-85146047D02*
X51533012Y-85146047D01*
X51877726Y-86352547D02*
X51877726Y-85146047D01*
X50613774Y-85146047D02*
X50843583Y-85146047D01*
X50958488Y-85203500D01*
X51015940Y-85260952D01*
X51130845Y-85433309D01*
X51188298Y-85663119D01*
X51188298Y-86122738D01*
X51130845Y-86237642D01*
X51073393Y-86295095D01*
X50958488Y-86352547D01*
X50728679Y-86352547D01*
X50613774Y-86295095D01*
X50556321Y-86237642D01*
X50498869Y-86122738D01*
X50498869Y-85835476D01*
X50556321Y-85720571D01*
X50613774Y-85663119D01*
X50728679Y-85605666D01*
X50958488Y-85605666D01*
X51073393Y-85663119D01*
X51130845Y-85720571D01*
X51188298Y-85835476D01*
D12*
X42571735Y-22001619D02*
X43055545Y-22001619D01*
X43055545Y-20985619D01*
X42233069Y-21469428D02*
X41894402Y-21469428D01*
X41749259Y-22001619D02*
X42233069Y-22001619D01*
X42233069Y-20985619D01*
X41749259Y-20985619D01*
X41313830Y-22001619D02*
X41313830Y-20985619D01*
X41071926Y-20985619D01*
X40926783Y-21034000D01*
X40830021Y-21130761D01*
X40781640Y-21227523D01*
X40733259Y-21421047D01*
X40733259Y-21566190D01*
X40781640Y-21759714D01*
X40830021Y-21856476D01*
X40926783Y-21953238D01*
X41071926Y-22001619D01*
X41313830Y-22001619D01*
X40152688Y-21421047D02*
X40249450Y-21372666D01*
X40297830Y-21324285D01*
X40346211Y-21227523D01*
X40346211Y-21179142D01*
X40297830Y-21082380D01*
X40249450Y-21034000D01*
X40152688Y-20985619D01*
X39959164Y-20985619D01*
X39862402Y-21034000D01*
X39814021Y-21082380D01*
X39765640Y-21179142D01*
X39765640Y-21227523D01*
X39814021Y-21324285D01*
X39862402Y-21372666D01*
X39959164Y-21421047D01*
X40152688Y-21421047D01*
X40249450Y-21469428D01*
X40297830Y-21517809D01*
X40346211Y-21614571D01*
X40346211Y-21808095D01*
X40297830Y-21904857D01*
X40249450Y-21953238D01*
X40152688Y-22001619D01*
X39959164Y-22001619D01*
X39862402Y-21953238D01*
X39814021Y-21904857D01*
X39765640Y-21808095D01*
X39765640Y-21614571D01*
X39814021Y-21517809D01*
X39862402Y-21469428D01*
X39959164Y-21421047D01*
D13*
X44165971Y-19566928D02*
X44196923Y-19659785D01*
X44227876Y-19690738D01*
X44289780Y-19721690D01*
X44382638Y-19721690D01*
X44444542Y-19690738D01*
X44475495Y-19659785D01*
X44506447Y-19597880D01*
X44506447Y-19350261D01*
X43856447Y-19350261D01*
X43856447Y-19566928D01*
X43887400Y-19628833D01*
X43918352Y-19659785D01*
X43980257Y-19690738D01*
X44042161Y-19690738D01*
X44104066Y-19659785D01*
X44135019Y-19628833D01*
X44165971Y-19566928D01*
X44165971Y-19350261D01*
X43837400Y-16590738D02*
X43806447Y-16528833D01*
X43806447Y-16435976D01*
X43837400Y-16343119D01*
X43899304Y-16281214D01*
X43961209Y-16250261D01*
X44085019Y-16219309D01*
X44177876Y-16219309D01*
X44301685Y-16250261D01*
X44363590Y-16281214D01*
X44425495Y-16343119D01*
X44456447Y-16435976D01*
X44456447Y-16497880D01*
X44425495Y-16590738D01*
X44394542Y-16621690D01*
X44177876Y-16621690D01*
X44177876Y-16497880D01*
X39833828Y-19122880D02*
X39833828Y-19618119D01*
X40081447Y-19370500D02*
X39586209Y-19370500D01*
X40206447Y-16571690D02*
X39896923Y-16355023D01*
X40206447Y-16200261D02*
X39556447Y-16200261D01*
X39556447Y-16447880D01*
X39587400Y-16509785D01*
X39618352Y-16540738D01*
X39680257Y-16571690D01*
X39773114Y-16571690D01*
X39835019Y-16540738D01*
X39865971Y-16509785D01*
X39896923Y-16447880D01*
X39896923Y-16200261D01*
D12*
X42741735Y-59111619D02*
X43225545Y-59111619D01*
X43225545Y-58095619D01*
X42403069Y-58579428D02*
X42064402Y-58579428D01*
X41919259Y-59111619D02*
X42403069Y-59111619D01*
X42403069Y-58095619D01*
X41919259Y-58095619D01*
X41483830Y-59111619D02*
X41483830Y-58095619D01*
X41241926Y-58095619D01*
X41096783Y-58144000D01*
X41000021Y-58240761D01*
X40951640Y-58337523D01*
X40903259Y-58531047D01*
X40903259Y-58676190D01*
X40951640Y-58869714D01*
X41000021Y-58966476D01*
X41096783Y-59063238D01*
X41241926Y-59111619D01*
X41483830Y-59111619D01*
X39984021Y-58095619D02*
X40467830Y-58095619D01*
X40516211Y-58579428D01*
X40467830Y-58531047D01*
X40371069Y-58482666D01*
X40129164Y-58482666D01*
X40032402Y-58531047D01*
X39984021Y-58579428D01*
X39935640Y-58676190D01*
X39935640Y-58918095D01*
X39984021Y-59014857D01*
X40032402Y-59063238D01*
X40129164Y-59111619D01*
X40371069Y-59111619D01*
X40467830Y-59063238D01*
X40516211Y-59014857D01*
D13*
X39833828Y-56270380D02*
X39833828Y-56765619D01*
X40081447Y-56518000D02*
X39586209Y-56518000D01*
X44165971Y-56714428D02*
X44196923Y-56807285D01*
X44227876Y-56838238D01*
X44289780Y-56869190D01*
X44382638Y-56869190D01*
X44444542Y-56838238D01*
X44475495Y-56807285D01*
X44506447Y-56745380D01*
X44506447Y-56497761D01*
X43856447Y-56497761D01*
X43856447Y-56714428D01*
X43887400Y-56776333D01*
X43918352Y-56807285D01*
X43980257Y-56838238D01*
X44042161Y-56838238D01*
X44104066Y-56807285D01*
X44135019Y-56776333D01*
X44165971Y-56714428D01*
X44165971Y-56497761D01*
X40206447Y-53719190D02*
X39896923Y-53502523D01*
X40206447Y-53347761D02*
X39556447Y-53347761D01*
X39556447Y-53595380D01*
X39587400Y-53657285D01*
X39618352Y-53688238D01*
X39680257Y-53719190D01*
X39773114Y-53719190D01*
X39835019Y-53688238D01*
X39865971Y-53657285D01*
X39896923Y-53595380D01*
X39896923Y-53347761D01*
X43837400Y-53738238D02*
X43806447Y-53676333D01*
X43806447Y-53583476D01*
X43837400Y-53490619D01*
X43899304Y-53428714D01*
X43961209Y-53397761D01*
X44085019Y-53366809D01*
X44177876Y-53366809D01*
X44301685Y-53397761D01*
X44363590Y-53428714D01*
X44425495Y-53490619D01*
X44456447Y-53583476D01*
X44456447Y-53645380D01*
X44425495Y-53738238D01*
X44394542Y-53769190D01*
X44177876Y-53769190D01*
X44177876Y-53645380D01*
D12*
X42871735Y-83721619D02*
X43355545Y-83721619D01*
X43355545Y-82705619D01*
X42533069Y-83189428D02*
X42194402Y-83189428D01*
X42049259Y-83721619D02*
X42533069Y-83721619D01*
X42533069Y-82705619D01*
X42049259Y-82705619D01*
X41613830Y-83721619D02*
X41613830Y-82705619D01*
X41371926Y-82705619D01*
X41226783Y-82754000D01*
X41130021Y-82850761D01*
X41081640Y-82947523D01*
X41033259Y-83141047D01*
X41033259Y-83286190D01*
X41081640Y-83479714D01*
X41130021Y-83576476D01*
X41226783Y-83673238D01*
X41371926Y-83721619D01*
X41613830Y-83721619D01*
X40694592Y-82705619D02*
X40065640Y-82705619D01*
X40404307Y-83092666D01*
X40259164Y-83092666D01*
X40162402Y-83141047D01*
X40114021Y-83189428D01*
X40065640Y-83286190D01*
X40065640Y-83528095D01*
X40114021Y-83624857D01*
X40162402Y-83673238D01*
X40259164Y-83721619D01*
X40549450Y-83721619D01*
X40646211Y-83673238D01*
X40694592Y-83624857D01*
D13*
X44165971Y-81479428D02*
X44196923Y-81572285D01*
X44227876Y-81603238D01*
X44289780Y-81634190D01*
X44382638Y-81634190D01*
X44444542Y-81603238D01*
X44475495Y-81572285D01*
X44506447Y-81510380D01*
X44506447Y-81262761D01*
X43856447Y-81262761D01*
X43856447Y-81479428D01*
X43887400Y-81541333D01*
X43918352Y-81572285D01*
X43980257Y-81603238D01*
X44042161Y-81603238D01*
X44104066Y-81572285D01*
X44135019Y-81541333D01*
X44165971Y-81479428D01*
X44165971Y-81262761D01*
X43837400Y-78503238D02*
X43806447Y-78441333D01*
X43806447Y-78348476D01*
X43837400Y-78255619D01*
X43899304Y-78193714D01*
X43961209Y-78162761D01*
X44085019Y-78131809D01*
X44177876Y-78131809D01*
X44301685Y-78162761D01*
X44363590Y-78193714D01*
X44425495Y-78255619D01*
X44456447Y-78348476D01*
X44456447Y-78410380D01*
X44425495Y-78503238D01*
X44394542Y-78534190D01*
X44177876Y-78534190D01*
X44177876Y-78410380D01*
X40206447Y-78484190D02*
X39896923Y-78267523D01*
X40206447Y-78112761D02*
X39556447Y-78112761D01*
X39556447Y-78360380D01*
X39587400Y-78422285D01*
X39618352Y-78453238D01*
X39680257Y-78484190D01*
X39773114Y-78484190D01*
X39835019Y-78453238D01*
X39865971Y-78422285D01*
X39896923Y-78360380D01*
X39896923Y-78112761D01*
X39833828Y-81035380D02*
X39833828Y-81530619D01*
X40081447Y-81283000D02*
X39586209Y-81283000D01*
D10*
X56565321Y-60306047D02*
X56565321Y-61167833D01*
X56622774Y-61340190D01*
X56737679Y-61455095D01*
X56910036Y-61512547D01*
X57024940Y-61512547D01*
X55416274Y-60306047D02*
X55990798Y-60306047D01*
X56048250Y-60880571D01*
X55990798Y-60823119D01*
X55875893Y-60765666D01*
X55588631Y-60765666D01*
X55473726Y-60823119D01*
X55416274Y-60880571D01*
X55358821Y-60995476D01*
X55358821Y-61282738D01*
X55416274Y-61397642D01*
X55473726Y-61455095D01*
X55588631Y-61512547D01*
X55875893Y-61512547D01*
X55990798Y-61455095D01*
X56048250Y-61397642D01*
X54841750Y-61052928D02*
X53922512Y-61052928D01*
X53118179Y-60306047D02*
X52888369Y-60306047D01*
X52773464Y-60363500D01*
X52658560Y-60478404D01*
X52601107Y-60708214D01*
X52601107Y-61110380D01*
X52658560Y-61340190D01*
X52773464Y-61455095D01*
X52888369Y-61512547D01*
X53118179Y-61512547D01*
X53233083Y-61455095D01*
X53347988Y-61340190D01*
X53405440Y-61110380D01*
X53405440Y-60708214D01*
X53347988Y-60478404D01*
X53233083Y-60363500D01*
X53118179Y-60306047D01*
X52084036Y-60306047D02*
X52084036Y-61282738D01*
X52026583Y-61397642D01*
X51969131Y-61455095D01*
X51854226Y-61512547D01*
X51624417Y-61512547D01*
X51509512Y-61455095D01*
X51452060Y-61397642D01*
X51394607Y-61282738D01*
X51394607Y-60306047D01*
X50992440Y-60306047D02*
X50303012Y-60306047D01*
X50647726Y-61512547D02*
X50647726Y-60306047D01*
X49383774Y-60708214D02*
X49383774Y-61512547D01*
X49671036Y-60248595D02*
X49958298Y-61110380D01*
X49211417Y-61110380D01*
X35578963Y-15599747D02*
X35578963Y-16461533D01*
X35636416Y-16633890D01*
X35751320Y-16748795D01*
X35923678Y-16806247D01*
X36038582Y-16806247D01*
X34315011Y-16806247D02*
X34717178Y-16231723D01*
X35004440Y-16806247D02*
X35004440Y-15599747D01*
X34544820Y-15599747D01*
X34429916Y-15657200D01*
X34372463Y-15714652D01*
X34315011Y-15829557D01*
X34315011Y-16001914D01*
X34372463Y-16116819D01*
X34429916Y-16174271D01*
X34544820Y-16231723D01*
X35004440Y-16231723D01*
X33568130Y-15599747D02*
X33338320Y-15599747D01*
X33223416Y-15657200D01*
X33108511Y-15772104D01*
X33051059Y-16001914D01*
X33051059Y-16404080D01*
X33108511Y-16633890D01*
X33223416Y-16748795D01*
X33338320Y-16806247D01*
X33568130Y-16806247D01*
X33683035Y-16748795D01*
X33797940Y-16633890D01*
X33855392Y-16404080D01*
X33855392Y-16001914D01*
X33797940Y-15772104D01*
X33683035Y-15657200D01*
X33568130Y-15599747D01*
X32706344Y-15599747D02*
X32016916Y-15599747D01*
X32361630Y-16806247D02*
X32361630Y-15599747D01*
X31672201Y-16461533D02*
X31097678Y-16461533D01*
X31787106Y-16806247D02*
X31384940Y-15599747D01*
X30982773Y-16806247D01*
X30752963Y-15599747D02*
X30063535Y-15599747D01*
X30408249Y-16806247D02*
X30408249Y-15599747D01*
X29661368Y-16174271D02*
X29259201Y-16174271D01*
X29086844Y-16806247D02*
X29661368Y-16806247D01*
X29661368Y-15599747D01*
X29086844Y-15599747D01*
X27937797Y-16806247D02*
X28627225Y-16806247D01*
X28282511Y-16806247D02*
X28282511Y-15599747D01*
X28397416Y-15772104D01*
X28512320Y-15887009D01*
X28627225Y-15944461D01*
D12*
X42781735Y-108871619D02*
X43265545Y-108871619D01*
X43265545Y-107855619D01*
X42443069Y-108339428D02*
X42104402Y-108339428D01*
X41959259Y-108871619D02*
X42443069Y-108871619D01*
X42443069Y-107855619D01*
X41959259Y-107855619D01*
X41523830Y-108871619D02*
X41523830Y-107855619D01*
X41281926Y-107855619D01*
X41136783Y-107904000D01*
X41040021Y-108000761D01*
X40991640Y-108097523D01*
X40943259Y-108291047D01*
X40943259Y-108436190D01*
X40991640Y-108629714D01*
X41040021Y-108726476D01*
X41136783Y-108823238D01*
X41281926Y-108871619D01*
X41523830Y-108871619D01*
X39975640Y-108871619D02*
X40556211Y-108871619D01*
X40265926Y-108871619D02*
X40265926Y-107855619D01*
X40362688Y-108000761D01*
X40459450Y-108097523D01*
X40556211Y-108145904D01*
D13*
X44165971Y-106244428D02*
X44196923Y-106337285D01*
X44227876Y-106368238D01*
X44289780Y-106399190D01*
X44382638Y-106399190D01*
X44444542Y-106368238D01*
X44475495Y-106337285D01*
X44506447Y-106275380D01*
X44506447Y-106027761D01*
X43856447Y-106027761D01*
X43856447Y-106244428D01*
X43887400Y-106306333D01*
X43918352Y-106337285D01*
X43980257Y-106368238D01*
X44042161Y-106368238D01*
X44104066Y-106337285D01*
X44135019Y-106306333D01*
X44165971Y-106244428D01*
X44165971Y-106027761D01*
X40206447Y-103249190D02*
X39896923Y-103032523D01*
X40206447Y-102877761D02*
X39556447Y-102877761D01*
X39556447Y-103125380D01*
X39587400Y-103187285D01*
X39618352Y-103218238D01*
X39680257Y-103249190D01*
X39773114Y-103249190D01*
X39835019Y-103218238D01*
X39865971Y-103187285D01*
X39896923Y-103125380D01*
X39896923Y-102877761D01*
X43837400Y-103268238D02*
X43806447Y-103206333D01*
X43806447Y-103113476D01*
X43837400Y-103020619D01*
X43899304Y-102958714D01*
X43961209Y-102927761D01*
X44085019Y-102896809D01*
X44177876Y-102896809D01*
X44301685Y-102927761D01*
X44363590Y-102958714D01*
X44425495Y-103020619D01*
X44456447Y-103113476D01*
X44456447Y-103175380D01*
X44425495Y-103268238D01*
X44394542Y-103299190D01*
X44177876Y-103299190D01*
X44177876Y-103175380D01*
X39833828Y-105800380D02*
X39833828Y-106295619D01*
X40081447Y-106048000D02*
X39586209Y-106048000D01*
D14*
X45135800Y-13525500D02*
X55803800Y-13525500D01*
X55803800Y-22415500D02*
X45135800Y-22415500D01*
X55803800Y-13525500D02*
X55803800Y-22415500D01*
X45135800Y-22415500D02*
X45135800Y-13525500D01*
D12*
X53581300Y-17970500D02*
G75*
G03*
X53581300Y-17970500I-2286000J0D01*
G01*
X52870100Y-17970500D02*
G75*
G03*
X52870100Y-17970500I-1574800J0D01*
G01*
X7797800Y-93052900D02*
X7797800Y-92417900D01*
X8432800Y-93052900D02*
X8432800Y-93687900D01*
D15*
X13512800Y-91147900D02*
X12242800Y-91147900D01*
D12*
X8432800Y-93052900D02*
X10337800Y-93052900D01*
X7797800Y-92417900D02*
X8432800Y-93052900D01*
D15*
X11607800Y-89242900D02*
X11607800Y-96862900D01*
X3987800Y-96862900D02*
X3987800Y-89242900D01*
X3352800Y-91147900D02*
X2082800Y-91147900D01*
X3987800Y-89242900D02*
X11607800Y-89242900D01*
D12*
X8432800Y-93052900D02*
X7797800Y-93687900D01*
D15*
X2717800Y-91782900D02*
X2717800Y-90512900D01*
D12*
X5257800Y-93052900D02*
X7797800Y-93052900D01*
D15*
X11607800Y-96862900D02*
X3987800Y-96862900D01*
D12*
X7797800Y-93687900D02*
X7797800Y-93052900D01*
X8432800Y-92417900D02*
X8432800Y-93052900D01*
D14*
X37465000Y-13474700D02*
X26797000Y-13474700D01*
X26797000Y-4584700D02*
X37465000Y-4584700D01*
X26797000Y-13474700D02*
X26797000Y-4584700D01*
X37465000Y-4584700D02*
X37465000Y-13474700D01*
D12*
X33591500Y-9029700D02*
G75*
G03*
X33591500Y-9029700I-2286000J0D01*
G01*
X32880300Y-9029700D02*
G75*
G03*
X32880300Y-9029700I-1574800J0D01*
G01*
D14*
X26797000Y-38874700D02*
X26797000Y-29984700D01*
X26797000Y-29984700D02*
X37465000Y-29984700D01*
X37465000Y-29984700D02*
X37465000Y-38874700D01*
X37465000Y-38874700D02*
X26797000Y-38874700D01*
D12*
X32880300Y-34429700D02*
G75*
G03*
X32880300Y-34429700I-1574800J0D01*
G01*
X33591500Y-34429700D02*
G75*
G03*
X33591500Y-34429700I-2286000J0D01*
G01*
X12207800Y-49835700D02*
X3387800Y-49835700D01*
X3387800Y-38835700D02*
X12207800Y-38835700D01*
X2947800Y-49395700D02*
X2947800Y-39275700D01*
X12647800Y-39275700D02*
X12647800Y-49395700D01*
D16*
X7797800Y-47002700D02*
X7797800Y-45986700D01*
D12*
X2947913Y-49385718D02*
G75*
G03*
X3387800Y-49835700I439887J-9982D01*
G01*
X12647687Y-39285682D02*
G75*
G03*
X12207800Y-38835700I-439887J9982D01*
G01*
D11*
X10515719Y-44335700D02*
G75*
G03*
X10515719Y-44335700I-2717919J0D01*
G01*
D12*
X12197818Y-49835587D02*
G75*
G03*
X12647800Y-49395700I9982J439887D01*
G01*
X3397782Y-38835813D02*
G75*
G03*
X2947800Y-39275700I-9982J-439887D01*
G01*
X11297963Y-44333857D02*
G75*
G03*
X11297963Y-44333857I-3500000J0D01*
G01*
X41554400Y-92773500D02*
X42443400Y-92773500D01*
D10*
X43586400Y-94678500D02*
X43586400Y-89725500D01*
X40411400Y-89725500D02*
X40411400Y-89344500D01*
X40411400Y-89725500D02*
X40030400Y-89725500D01*
X40411400Y-94678500D02*
X43586400Y-94678500D01*
D12*
X41554400Y-92138500D02*
X41554400Y-92773500D01*
X42443400Y-91757500D02*
X41935400Y-91757500D01*
X42443400Y-92773500D02*
X42443400Y-91757500D01*
D10*
X40411400Y-90106500D02*
X40411400Y-94678500D01*
X39649400Y-88963500D02*
X40411400Y-89725500D01*
X43586400Y-89725500D02*
X40792400Y-89725500D01*
X40792400Y-89725500D02*
X40411400Y-90106500D01*
D12*
X41554400Y-92138500D02*
X41935400Y-91757500D01*
X42174203Y-92265500D02*
G75*
G03*
X42174203Y-92265500I-111803J0D01*
G01*
D14*
X45135800Y-34798000D02*
X45135800Y-25908000D01*
X55803800Y-34798000D02*
X45135800Y-34798000D01*
X45135800Y-25908000D02*
X55803800Y-25908000D01*
X55803800Y-25908000D02*
X55803800Y-34798000D01*
D12*
X52870100Y-30353000D02*
G75*
G03*
X52870100Y-30353000I-1574800J0D01*
G01*
X53581300Y-30353000D02*
G75*
G03*
X53581300Y-30353000I-2286000J0D01*
G01*
D14*
X55803800Y-38290500D02*
X55803800Y-47180500D01*
X55803800Y-47180500D02*
X45135800Y-47180500D01*
X45135800Y-38290500D02*
X55803800Y-38290500D01*
X45135800Y-47180500D02*
X45135800Y-38290500D01*
D12*
X53581300Y-42735500D02*
G75*
G03*
X53581300Y-42735500I-2286000J0D01*
G01*
X52870100Y-42735500D02*
G75*
G03*
X52870100Y-42735500I-1574800J0D01*
G01*
D16*
X7797800Y-29349700D02*
X7797800Y-28333700D01*
D12*
X2947800Y-31742700D02*
X2947800Y-21622700D01*
X12207800Y-32182700D02*
X3387800Y-32182700D01*
X12647800Y-21622700D02*
X12647800Y-31742700D01*
X3387800Y-21182700D02*
X12207800Y-21182700D01*
D11*
X10515719Y-26682700D02*
G75*
G03*
X10515719Y-26682700I-2717919J0D01*
G01*
D12*
X2947913Y-31732718D02*
G75*
G03*
X3387800Y-32182700I439887J-9982D01*
G01*
X12197818Y-32182587D02*
G75*
G03*
X12647800Y-31742700I9982J439887D01*
G01*
X12647687Y-21632682D02*
G75*
G03*
X12207800Y-21182700I-439887J9982D01*
G01*
X3397782Y-21182813D02*
G75*
G03*
X2947800Y-21622700I-9982J-439887D01*
G01*
X11297963Y-26680857D02*
G75*
G03*
X11297963Y-26680857I-3500000J0D01*
G01*
X12207800Y-85141700D02*
X3387800Y-85141700D01*
X2947800Y-84701700D02*
X2947800Y-74581700D01*
D16*
X7797800Y-82308700D02*
X7797800Y-81292700D01*
D12*
X12647800Y-74581700D02*
X12647800Y-84701700D01*
X3387800Y-74141700D02*
X12207800Y-74141700D01*
X12647687Y-74591682D02*
G75*
G03*
X12207800Y-74141700I-439887J9982D01*
G01*
X12197818Y-85141587D02*
G75*
G03*
X12647800Y-84701700I9982J439887D01*
G01*
D11*
X10515719Y-79641700D02*
G75*
G03*
X10515719Y-79641700I-2717919J0D01*
G01*
D12*
X2947913Y-84691718D02*
G75*
G03*
X3387800Y-85141700I439887J-9982D01*
G01*
X3397782Y-74141813D02*
G75*
G03*
X2947800Y-74581700I-9982J-439887D01*
G01*
X11297963Y-79639857D02*
G75*
G03*
X11297963Y-79639857I-3500000J0D01*
G01*
D14*
X45135800Y-109093000D02*
X45135800Y-100203000D01*
X45135800Y-100203000D02*
X55803800Y-100203000D01*
X55803800Y-109093000D02*
X45135800Y-109093000D01*
X55803800Y-100203000D02*
X55803800Y-109093000D01*
D12*
X52870100Y-104648000D02*
G75*
G03*
X52870100Y-104648000I-1574800J0D01*
G01*
X53581300Y-104648000D02*
G75*
G03*
X53581300Y-104648000I-2286000J0D01*
G01*
D14*
X37465000Y-76974700D02*
X26797000Y-76974700D01*
X26797000Y-76974700D02*
X26797000Y-68084700D01*
X37465000Y-68084700D02*
X37465000Y-76974700D01*
X26797000Y-68084700D02*
X37465000Y-68084700D01*
D12*
X33591500Y-72529700D02*
G75*
G03*
X33591500Y-72529700I-2286000J0D01*
G01*
X32880300Y-72529700D02*
G75*
G03*
X32880300Y-72529700I-1574800J0D01*
G01*
D14*
X37465000Y-93484700D02*
X37465000Y-102374700D01*
X26797000Y-102374700D02*
X26797000Y-93484700D01*
X37465000Y-102374700D02*
X26797000Y-102374700D01*
X26797000Y-93484700D02*
X37465000Y-93484700D01*
D12*
X32880300Y-97929700D02*
G75*
G03*
X32880300Y-97929700I-1574800J0D01*
G01*
X33591500Y-97929700D02*
G75*
G03*
X33591500Y-97929700I-2286000J0D01*
G01*
X8432800Y-104355900D02*
X8432800Y-104990900D01*
X5257800Y-104990900D02*
X7797800Y-104990900D01*
D15*
X11607800Y-101180900D02*
X11607800Y-108800900D01*
X2717800Y-103720900D02*
X2717800Y-102450900D01*
X3987800Y-101180900D02*
X11607800Y-101180900D01*
X11607800Y-108800900D02*
X3987800Y-108800900D01*
D12*
X7797800Y-104990900D02*
X7797800Y-104355900D01*
X7797800Y-105625900D02*
X7797800Y-104990900D01*
X7797800Y-104355900D02*
X8432800Y-104990900D01*
X8432800Y-104990900D02*
X8432800Y-105625900D01*
D15*
X3987800Y-108800900D02*
X3987800Y-101180900D01*
D12*
X8432800Y-104990900D02*
X7797800Y-105625900D01*
X8432800Y-104990900D02*
X10337800Y-104990900D01*
D15*
X13512800Y-103085900D02*
X12242800Y-103085900D01*
X3352800Y-103085900D02*
X2082800Y-103085900D01*
D14*
X45135800Y-1143000D02*
X55803800Y-1143000D01*
X55803800Y-10033000D02*
X45135800Y-10033000D01*
X55803800Y-1143000D02*
X55803800Y-10033000D01*
X45135800Y-10033000D02*
X45135800Y-1143000D01*
D12*
X52870100Y-5588000D02*
G75*
G03*
X52870100Y-5588000I-1574800J0D01*
G01*
X53581300Y-5588000D02*
G75*
G03*
X53581300Y-5588000I-2286000J0D01*
G01*
D14*
X37465000Y-64274700D02*
X26797000Y-64274700D01*
X26797000Y-64274700D02*
X26797000Y-55384700D01*
X37465000Y-55384700D02*
X37465000Y-64274700D01*
X26797000Y-55384700D02*
X37465000Y-55384700D01*
D12*
X32880300Y-59829700D02*
G75*
G03*
X32880300Y-59829700I-1574800J0D01*
G01*
X33591500Y-59829700D02*
G75*
G03*
X33591500Y-59829700I-2286000J0D01*
G01*
D14*
X45135800Y-87820500D02*
X55803800Y-87820500D01*
X55803800Y-87820500D02*
X55803800Y-96710500D01*
X45135800Y-96710500D02*
X45135800Y-87820500D01*
X55803800Y-96710500D02*
X45135800Y-96710500D01*
D12*
X53581300Y-92265500D02*
G75*
G03*
X53581300Y-92265500I-2286000J0D01*
G01*
X52870100Y-92265500D02*
G75*
G03*
X52870100Y-92265500I-1574800J0D01*
G01*
D14*
X45135800Y-71945500D02*
X45135800Y-63055500D01*
X55803800Y-71945500D02*
X45135800Y-71945500D01*
X45135800Y-63055500D02*
X55803800Y-63055500D01*
X55803800Y-63055500D02*
X55803800Y-71945500D01*
D12*
X53581300Y-67500500D02*
G75*
G03*
X53581300Y-67500500I-2286000J0D01*
G01*
X52870100Y-67500500D02*
G75*
G03*
X52870100Y-67500500I-1574800J0D01*
G01*
D14*
X26797000Y-51574700D02*
X26797000Y-42684700D01*
X37465000Y-51574700D02*
X26797000Y-51574700D01*
X37465000Y-42684700D02*
X37465000Y-51574700D01*
X26797000Y-42684700D02*
X37465000Y-42684700D01*
D12*
X33591500Y-47129700D02*
G75*
G03*
X33591500Y-47129700I-2286000J0D01*
G01*
X32880300Y-47129700D02*
G75*
G03*
X32880300Y-47129700I-1574800J0D01*
G01*
D14*
X26797000Y-89674700D02*
X26797000Y-80784700D01*
X26797000Y-80784700D02*
X37465000Y-80784700D01*
X37465000Y-89674700D02*
X26797000Y-89674700D01*
X37465000Y-80784700D02*
X37465000Y-89674700D01*
D12*
X32880300Y-85229700D02*
G75*
G03*
X32880300Y-85229700I-1574800J0D01*
G01*
X33591500Y-85229700D02*
G75*
G03*
X33591500Y-85229700I-2286000J0D01*
G01*
X41554400Y-42608500D02*
X41935400Y-42227500D01*
D10*
X40411400Y-45148500D02*
X43586400Y-45148500D01*
X43586400Y-45148500D02*
X43586400Y-40195500D01*
D12*
X42443400Y-42227500D02*
X41935400Y-42227500D01*
D10*
X40411400Y-40576500D02*
X40411400Y-45148500D01*
D12*
X42443400Y-43243500D02*
X42443400Y-42227500D01*
D10*
X39649400Y-39433500D02*
X40411400Y-40195500D01*
X40411400Y-40195500D02*
X40030400Y-40195500D01*
D12*
X41554400Y-42608500D02*
X41554400Y-43243500D01*
D10*
X40411400Y-40195500D02*
X40411400Y-39814500D01*
X43586400Y-40195500D02*
X40792400Y-40195500D01*
X40792400Y-40195500D02*
X40411400Y-40576500D01*
D12*
X41554400Y-43243500D02*
X42443400Y-43243500D01*
X42174203Y-42735500D02*
G75*
G03*
X42174203Y-42735500I-111803J0D01*
G01*
X12647800Y-56928700D02*
X12647800Y-67048700D01*
X2947800Y-67048700D02*
X2947800Y-56928700D01*
D16*
X7797800Y-64655700D02*
X7797800Y-63639700D01*
D12*
X3387800Y-56488700D02*
X12207800Y-56488700D01*
X12207800Y-67488700D02*
X3387800Y-67488700D01*
D11*
X10515719Y-61988700D02*
G75*
G03*
X10515719Y-61988700I-2717919J0D01*
G01*
D12*
X12647687Y-56938682D02*
G75*
G03*
X12207800Y-56488700I-439887J9982D01*
G01*
X2947913Y-67038718D02*
G75*
G03*
X3387800Y-67488700I439887J-9982D01*
G01*
X12197818Y-67488587D02*
G75*
G03*
X12647800Y-67048700I9982J439887D01*
G01*
X3397782Y-56488813D02*
G75*
G03*
X2947800Y-56928700I-9982J-439887D01*
G01*
X11297963Y-61986857D02*
G75*
G03*
X11297963Y-61986857I-3500000J0D01*
G01*
D10*
X43586400Y-8001000D02*
X43586400Y-3048000D01*
D12*
X41554400Y-5461000D02*
X41554400Y-6096000D01*
X41554400Y-5461000D02*
X41935400Y-5080000D01*
D10*
X40792400Y-3048000D02*
X40411400Y-3429000D01*
X40411400Y-3048000D02*
X40030400Y-3048000D01*
X40411400Y-3048000D02*
X40411400Y-2667000D01*
X43586400Y-3048000D02*
X40792400Y-3048000D01*
X39649400Y-2286000D02*
X40411400Y-3048000D01*
D12*
X42443400Y-6096000D02*
X42443400Y-5080000D01*
D10*
X40411400Y-8001000D02*
X43586400Y-8001000D01*
D12*
X42443400Y-5080000D02*
X41935400Y-5080000D01*
D10*
X40411400Y-3429000D02*
X40411400Y-8001000D01*
D12*
X41554400Y-6096000D02*
X42443400Y-6096000D01*
X42174203Y-5588000D02*
G75*
G03*
X42174203Y-5588000I-111803J0D01*
G01*
D16*
X7797800Y-11696700D02*
X7797800Y-10680700D01*
D12*
X12207800Y-14529700D02*
X3387800Y-14529700D01*
X12647800Y-3969700D02*
X12647800Y-14089700D01*
X2947800Y-14089700D02*
X2947800Y-3969700D01*
X3387800Y-3529700D02*
X12207800Y-3529700D01*
X12647687Y-3979682D02*
G75*
G03*
X12207800Y-3529700I-439887J9982D01*
G01*
D11*
X10515719Y-9029700D02*
G75*
G03*
X10515719Y-9029700I-2717919J0D01*
G01*
D12*
X2947913Y-14079718D02*
G75*
G03*
X3387800Y-14529700I439887J-9982D01*
G01*
X3397782Y-3529813D02*
G75*
G03*
X2947800Y-3969700I-9982J-439887D01*
G01*
X12197818Y-14529587D02*
G75*
G03*
X12647800Y-14089700I9982J439887D01*
G01*
X11297963Y-9027857D02*
G75*
G03*
X11297963Y-9027857I-3500000J0D01*
G01*
X42443400Y-30861000D02*
X42443400Y-29845000D01*
D10*
X40792400Y-27813000D02*
X40411400Y-28194000D01*
D12*
X42443400Y-29845000D02*
X41935400Y-29845000D01*
D10*
X40411400Y-27813000D02*
X40030400Y-27813000D01*
D12*
X41554400Y-30226000D02*
X41935400Y-29845000D01*
D10*
X40411400Y-32766000D02*
X43586400Y-32766000D01*
X40411400Y-28194000D02*
X40411400Y-32766000D01*
X40411400Y-27813000D02*
X40411400Y-27432000D01*
X39649400Y-27051000D02*
X40411400Y-27813000D01*
X43586400Y-27813000D02*
X40792400Y-27813000D01*
X43586400Y-32766000D02*
X43586400Y-27813000D01*
D12*
X41554400Y-30861000D02*
X42443400Y-30861000D01*
X41554400Y-30226000D02*
X41554400Y-30861000D01*
X42174203Y-30353000D02*
G75*
G03*
X42174203Y-30353000I-111803J0D01*
G01*
D10*
X40411400Y-69913500D02*
X43586400Y-69913500D01*
X40411400Y-64960500D02*
X40411400Y-64579500D01*
D12*
X42443400Y-66992500D02*
X41935400Y-66992500D01*
X41554400Y-68008500D02*
X42443400Y-68008500D01*
D10*
X40411400Y-64960500D02*
X40030400Y-64960500D01*
X40792400Y-64960500D02*
X40411400Y-65341500D01*
X43586400Y-69913500D02*
X43586400Y-64960500D01*
X43586400Y-64960500D02*
X40792400Y-64960500D01*
D12*
X41554400Y-67373500D02*
X41935400Y-66992500D01*
D10*
X39649400Y-64198500D02*
X40411400Y-64960500D01*
X40411400Y-65341500D02*
X40411400Y-69913500D01*
D12*
X42443400Y-68008500D02*
X42443400Y-66992500D01*
X41554400Y-67373500D02*
X41554400Y-68008500D01*
X42174203Y-67500500D02*
G75*
G03*
X42174203Y-67500500I-111803J0D01*
G01*
D14*
X55803800Y-75438000D02*
X55803800Y-84328000D01*
X45135800Y-84328000D02*
X45135800Y-75438000D01*
X55803800Y-84328000D02*
X45135800Y-84328000D01*
X45135800Y-75438000D02*
X55803800Y-75438000D01*
D12*
X53581300Y-79883000D02*
G75*
G03*
X53581300Y-79883000I-2286000J0D01*
G01*
X52870100Y-79883000D02*
G75*
G03*
X52870100Y-79883000I-1574800J0D01*
G01*
D10*
X40411400Y-20383500D02*
X43586400Y-20383500D01*
X39649400Y-14668500D02*
X40411400Y-15430500D01*
X43586400Y-20383500D02*
X43586400Y-15430500D01*
X43586400Y-15430500D02*
X40792400Y-15430500D01*
X40411400Y-15811500D02*
X40411400Y-20383500D01*
X40411400Y-15430500D02*
X40411400Y-15049500D01*
D12*
X41554400Y-17843500D02*
X41935400Y-17462500D01*
X42443400Y-18478500D02*
X42443400Y-17462500D01*
X41554400Y-17843500D02*
X41554400Y-18478500D01*
D10*
X40792400Y-15430500D02*
X40411400Y-15811500D01*
D12*
X41554400Y-18478500D02*
X42443400Y-18478500D01*
D10*
X40411400Y-15430500D02*
X40030400Y-15430500D01*
D12*
X42443400Y-17462500D02*
X41935400Y-17462500D01*
X42174203Y-17970500D02*
G75*
G03*
X42174203Y-17970500I-111803J0D01*
G01*
D10*
X43586400Y-52578000D02*
X40792400Y-52578000D01*
D12*
X42443400Y-54610000D02*
X41935400Y-54610000D01*
X42443400Y-55626000D02*
X42443400Y-54610000D01*
X41554400Y-54991000D02*
X41935400Y-54610000D01*
X41554400Y-54991000D02*
X41554400Y-55626000D01*
D10*
X39649400Y-51816000D02*
X40411400Y-52578000D01*
X40411400Y-52578000D02*
X40411400Y-52197000D01*
X40792400Y-52578000D02*
X40411400Y-52959000D01*
X40411400Y-57531000D02*
X43586400Y-57531000D01*
X40411400Y-52959000D02*
X40411400Y-57531000D01*
X43586400Y-57531000D02*
X43586400Y-52578000D01*
D12*
X41554400Y-55626000D02*
X42443400Y-55626000D01*
D10*
X40411400Y-52578000D02*
X40030400Y-52578000D01*
D12*
X42174203Y-55118000D02*
G75*
G03*
X42174203Y-55118000I-111803J0D01*
G01*
D10*
X40411400Y-77724000D02*
X40411400Y-82296000D01*
D12*
X41554400Y-80391000D02*
X42443400Y-80391000D01*
D10*
X39649400Y-76581000D02*
X40411400Y-77343000D01*
D12*
X42443400Y-80391000D02*
X42443400Y-79375000D01*
D10*
X43586400Y-82296000D02*
X43586400Y-77343000D01*
X40411400Y-82296000D02*
X43586400Y-82296000D01*
D12*
X41554400Y-79756000D02*
X41554400Y-80391000D01*
D10*
X43586400Y-77343000D02*
X40792400Y-77343000D01*
D12*
X41554400Y-79756000D02*
X41935400Y-79375000D01*
D10*
X40411400Y-77343000D02*
X40030400Y-77343000D01*
X40411400Y-77343000D02*
X40411400Y-76962000D01*
D12*
X42443400Y-79375000D02*
X41935400Y-79375000D01*
D10*
X40792400Y-77343000D02*
X40411400Y-77724000D01*
D12*
X42174203Y-79883000D02*
G75*
G03*
X42174203Y-79883000I-111803J0D01*
G01*
D14*
X55803800Y-59563000D02*
X45135800Y-59563000D01*
X45135800Y-59563000D02*
X45135800Y-50673000D01*
X45135800Y-50673000D02*
X55803800Y-50673000D01*
X55803800Y-50673000D02*
X55803800Y-59563000D01*
D12*
X52870100Y-55118000D02*
G75*
G03*
X52870100Y-55118000I-1574800J0D01*
G01*
X53581300Y-55118000D02*
G75*
G03*
X53581300Y-55118000I-2286000J0D01*
G01*
D14*
X26797000Y-26174700D02*
X26797000Y-17284700D01*
X37465000Y-17284700D02*
X37465000Y-26174700D01*
X26797000Y-17284700D02*
X37465000Y-17284700D01*
X37465000Y-26174700D02*
X26797000Y-26174700D01*
D12*
X32880300Y-21729700D02*
G75*
G03*
X32880300Y-21729700I-1574800J0D01*
G01*
X33591500Y-21729700D02*
G75*
G03*
X33591500Y-21729700I-2286000J0D01*
G01*
X41554400Y-104521000D02*
X41935400Y-104140000D01*
X41554400Y-105156000D02*
X42443400Y-105156000D01*
D10*
X40411400Y-107061000D02*
X43586400Y-107061000D01*
D12*
X41554400Y-104521000D02*
X41554400Y-105156000D01*
X42443400Y-104140000D02*
X41935400Y-104140000D01*
D10*
X40792400Y-102108000D02*
X40411400Y-102489000D01*
X39649400Y-101346000D02*
X40411400Y-102108000D01*
X40411400Y-102108000D02*
X40030400Y-102108000D01*
X40411400Y-102489000D02*
X40411400Y-107061000D01*
D12*
X42443400Y-105156000D02*
X42443400Y-104140000D01*
D10*
X40411400Y-102108000D02*
X40411400Y-101727000D01*
X43586400Y-102108000D02*
X40792400Y-102108000D01*
X43586400Y-107061000D02*
X43586400Y-102108000D01*
D12*
X42174203Y-104648000D02*
G75*
G03*
X42174203Y-104648000I-111803J0D01*
G01*
%LPC*%
D17*
X16740000Y-2230000D03*
X19280000Y-2230000D03*
X16740000Y-4770000D03*
X19280000Y-4770000D03*
X16740000Y-7310000D03*
X19280000Y-7310000D03*
X16740000Y-9850000D03*
X19280000Y-9850000D03*
X16740000Y-12390000D03*
X19280000Y-12390000D03*
X16740000Y-14930000D03*
X19280000Y-14930000D03*
X16740000Y-17470000D03*
X19280000Y-17470000D03*
X16740000Y-20010000D03*
X19280000Y-20010000D03*
D18*
X30210000Y-14680000D03*
X32750000Y-12140000D03*
X35290000Y-14680000D03*
D19*
X19560000Y-86690000D03*
D20*
X22100000Y-86690000D03*
X19560000Y-89230000D03*
X22100000Y-89230000D03*
X19560000Y-91770000D03*
X22100000Y-91770000D03*
D17*
X27560000Y-2420000D03*
X25020000Y-2420000D03*
D21*
X46101000Y-17970500D03*
X57073800Y-17970500D03*
X54660800Y-17970500D03*
D22*
X5257800Y-90512900D03*
X7797800Y-90512900D03*
X10337800Y-90512900D03*
X5257800Y-95592900D03*
X7797800Y-95592900D03*
X10337800Y-95592900D03*
D23*
X2717800Y-93052900D03*
D22*
X12877800Y-93052900D03*
D21*
X36499800Y-9029700D03*
X25527000Y-9029700D03*
X27940000Y-9029700D03*
X36499800Y-34429700D03*
X25527000Y-34429700D03*
X27940000Y-34429700D03*
D24*
X5257963Y-37323457D03*
X7797963Y-37323457D03*
X10337963Y-37323457D03*
D25*
X3403763Y-44333857D03*
X12192163Y-44333857D03*
D26*
X41312400Y-90765500D03*
X41312400Y-93765500D03*
X42812400Y-93765500D03*
X42812400Y-90765500D03*
D21*
X46101000Y-30353000D03*
X57073800Y-30353000D03*
X54660800Y-30353000D03*
X46101000Y-42735500D03*
X57073800Y-42735500D03*
X54660800Y-42735500D03*
D24*
X5257963Y-19670457D03*
X7797963Y-19670457D03*
X10337963Y-19670457D03*
D25*
X3403763Y-26680857D03*
X12192163Y-26680857D03*
D24*
X5257963Y-72629457D03*
X7797963Y-72629457D03*
X10337963Y-72629457D03*
D25*
X3403763Y-79639857D03*
X12192163Y-79639857D03*
D21*
X46101000Y-104648000D03*
X57073800Y-104648000D03*
X54660800Y-104648000D03*
X36499800Y-72529700D03*
X25527000Y-72529700D03*
X27940000Y-72529700D03*
X36499800Y-97929700D03*
X25527000Y-97929700D03*
X27940000Y-97929700D03*
D22*
X5257800Y-102450900D03*
X7797800Y-102450900D03*
X10337800Y-102450900D03*
X5257800Y-107530900D03*
X7797800Y-107530900D03*
X10337800Y-107530900D03*
D23*
X2717800Y-104990900D03*
D22*
X12877800Y-104990900D03*
D21*
X46101000Y-5588000D03*
X57073800Y-5588000D03*
X54660800Y-5588000D03*
X36499800Y-59829700D03*
X25527000Y-59829700D03*
X27940000Y-59829700D03*
X46101000Y-92265500D03*
X57073800Y-92265500D03*
X54660800Y-92265500D03*
X46101000Y-67500500D03*
X57073800Y-67500500D03*
X54660800Y-67500500D03*
X36499800Y-47129700D03*
X25527000Y-47129700D03*
X27940000Y-47129700D03*
X36499800Y-85229700D03*
X25527000Y-85229700D03*
X27940000Y-85229700D03*
D26*
X41312400Y-41235500D03*
X41312400Y-44235500D03*
X42812400Y-44235500D03*
X42812400Y-41235500D03*
D24*
X5257963Y-54976457D03*
X7797963Y-54976457D03*
X10337963Y-54976457D03*
D25*
X3403763Y-61986857D03*
X12192163Y-61986857D03*
D26*
X41312400Y-4088000D03*
X41312400Y-7088000D03*
X42812400Y-7088000D03*
X42812400Y-4088000D03*
D24*
X5257963Y-2017457D03*
X7797963Y-2017457D03*
X10337963Y-2017457D03*
D25*
X3403763Y-9027857D03*
X12192163Y-9027857D03*
D26*
X41312400Y-28853000D03*
X41312400Y-31853000D03*
X42812400Y-31853000D03*
X42812400Y-28853000D03*
X41312400Y-66000500D03*
X41312400Y-69000500D03*
X42812400Y-69000500D03*
X42812400Y-66000500D03*
D21*
X46101000Y-79883000D03*
X57073800Y-79883000D03*
X54660800Y-79883000D03*
D26*
X41312400Y-16470500D03*
X41312400Y-19470500D03*
X42812400Y-19470500D03*
X42812400Y-16470500D03*
X41312400Y-53618000D03*
X41312400Y-56618000D03*
X42812400Y-56618000D03*
X42812400Y-53618000D03*
X41312400Y-78383000D03*
X41312400Y-81383000D03*
X42812400Y-81383000D03*
X42812400Y-78383000D03*
D21*
X46101000Y-55118000D03*
X57073800Y-55118000D03*
X54660800Y-55118000D03*
X36499800Y-21729700D03*
X25527000Y-21729700D03*
X27940000Y-21729700D03*
D26*
X41312400Y-103148000D03*
X41312400Y-106148000D03*
X42812400Y-106148000D03*
X42812400Y-103148000D03*
M02*
