G04 #@! TF.GenerationSoftware,KiCad,Pcbnew,(5.99.0-11177-g6c67dfa032)*
G04 #@! TF.CreationDate,2021-08-04T13:50:32-07:00*
G04 #@! TF.ProjectId,SCMv3,53434d76-332e-46b6-9963-61645f706362,rev?*
G04 #@! TF.SameCoordinates,Original*
G04 #@! TF.FileFunction,Copper,L1,Top*
G04 #@! TF.FilePolarity,Positive*
%FSLAX46Y46*%
G04 Gerber Fmt 4.6, Leading zero omitted, Abs format (unit mm)*
G04 Created by KiCad (PCBNEW (5.99.0-11177-g6c67dfa032)) date 2021-08-04 13:50:32*
%MOMM*%
%LPD*%
G01*
G04 APERTURE LIST*
G04 Aperture macros list*
%AMOutline4P*
0 Free polygon, 4 corners , with rotation*
0 The origin of the aperture is its center*
0 number of corners: always 4*
0 $1 to $8 corner X, Y*
0 $9 Rotation angle, in degrees counterclockwise*
0 create outline with 4 corners*
4,1,4,$1,$2,$3,$4,$5,$6,$7,$8,$1,$2,$9*%
G04 Aperture macros list end*
G04 #@! TA.AperFunction,SMDPad,CuDef*
%ADD10R,0.800100X0.800100*%
G04 #@! TD*
G04 #@! TA.AperFunction,SMDPad,CuDef*
%ADD11R,1.200000X2.200000*%
G04 #@! TD*
G04 #@! TA.AperFunction,SMDPad,CuDef*
%ADD12R,5.800000X6.400000*%
G04 #@! TD*
G04 #@! TA.AperFunction,SMDPad,CuDef*
%ADD13R,1.000000X1.000000*%
G04 #@! TD*
G04 #@! TA.AperFunction,ComponentPad*
%ADD14C,1.651000*%
G04 #@! TD*
G04 #@! TA.AperFunction,SMDPad,CuDef*
%ADD15R,1.150000X1.400000*%
G04 #@! TD*
G04 #@! TA.AperFunction,SMDPad,CuDef*
%ADD16R,2.499360X1.800860*%
G04 #@! TD*
G04 #@! TA.AperFunction,SMDPad,CuDef*
%ADD17R,1.450000X0.450000*%
G04 #@! TD*
G04 #@! TA.AperFunction,SMDPad,CuDef*
%ADD18R,0.450000X1.450000*%
G04 #@! TD*
G04 #@! TA.AperFunction,SMDPad,CuDef*
%ADD19R,3.000000X1.600000*%
G04 #@! TD*
G04 #@! TA.AperFunction,ComponentPad*
%ADD20C,1.397000*%
G04 #@! TD*
G04 #@! TA.AperFunction,ComponentPad*
%ADD21R,1.700000X1.700000*%
G04 #@! TD*
G04 #@! TA.AperFunction,ComponentPad*
%ADD22O,1.700000X1.700000*%
G04 #@! TD*
G04 #@! TA.AperFunction,SMDPad,CuDef*
%ADD23R,1.000000X1.500000*%
G04 #@! TD*
G04 #@! TA.AperFunction,SMDPad,CuDef*
%ADD24Outline4P,-1.100000X-0.500000X1.100000X-0.500000X0.400000X0.500000X-0.400000X0.500000X180.000000*%
G04 #@! TD*
G04 #@! TA.AperFunction,SMDPad,CuDef*
%ADD25Outline4P,-1.100000X-0.425000X1.100000X-0.425000X0.500000X0.425000X-0.500000X0.425000X0.000000*%
G04 #@! TD*
G04 #@! TA.AperFunction,SMDPad,CuDef*
%ADD26R,1.000000X1.800000*%
G04 #@! TD*
G04 #@! TA.AperFunction,SMDPad,CuDef*
%ADD27R,2.200000X1.840000*%
G04 #@! TD*
G04 #@! TA.AperFunction,SMDPad,CuDef*
%ADD28R,0.550000X1.600000*%
G04 #@! TD*
G04 #@! TA.AperFunction,SMDPad,CuDef*
%ADD29R,1.600000X0.550000*%
G04 #@! TD*
G04 #@! TA.AperFunction,ComponentPad*
%ADD30C,1.930400*%
G04 #@! TD*
G04 #@! TA.AperFunction,ComponentPad*
%ADD31C,1.524000*%
G04 #@! TD*
G04 #@! TA.AperFunction,ComponentPad*
%ADD32R,1.270000X1.270000*%
G04 #@! TD*
G04 #@! TA.AperFunction,ComponentPad*
%ADD33C,1.803400*%
G04 #@! TD*
G04 #@! TA.AperFunction,ComponentPad*
%ADD34C,2.667000*%
G04 #@! TD*
G04 #@! TA.AperFunction,ViaPad*
%ADD35C,0.800000*%
G04 #@! TD*
G04 #@! TA.AperFunction,Conductor*
%ADD36C,0.203200*%
G04 #@! TD*
G04 #@! TA.AperFunction,Conductor*
%ADD37C,0.250000*%
G04 #@! TD*
G04 APERTURE END LIST*
D10*
X33720000Y-104269240D03*
X31820000Y-104269240D03*
X32770000Y-106268220D03*
X18040000Y-105230760D03*
X19940000Y-105230760D03*
X18990000Y-103231780D03*
X33040000Y-91099240D03*
X31140000Y-91099240D03*
X32090000Y-93098220D03*
X16350000Y-100539240D03*
X14450000Y-100539240D03*
X15400000Y-102538220D03*
D11*
X20920000Y-27820000D03*
D12*
X18640000Y-34120000D03*
D11*
X16360000Y-27820000D03*
D13*
X42860000Y-39610000D03*
X42860000Y-41310000D03*
D14*
X16740000Y-2230000D03*
X19280000Y-2230000D03*
X16740000Y-4770000D03*
X19280000Y-4770000D03*
X16740000Y-7310000D03*
X19280000Y-7310000D03*
X16740000Y-9850000D03*
X19280000Y-9850000D03*
X16740000Y-12390000D03*
X19280000Y-12390000D03*
X16740000Y-14930000D03*
X19280000Y-14930000D03*
X16740000Y-17470000D03*
X19280000Y-17470000D03*
X16740000Y-20010000D03*
X19280000Y-20010000D03*
D13*
X53950000Y-64320000D03*
X55650000Y-64320000D03*
D15*
X21240000Y-75550000D03*
X19740000Y-73450000D03*
X21240000Y-73450000D03*
X19740000Y-75550000D03*
D13*
X46110000Y-35850000D03*
X46110000Y-34150000D03*
X46070000Y-108620000D03*
X46070000Y-106920000D03*
X7870000Y-22160000D03*
X7870000Y-23860000D03*
X28300000Y-15800000D03*
X28300000Y-17500000D03*
X17710000Y-73690000D03*
X17710000Y-75390000D03*
X22640000Y-100310000D03*
X20940000Y-100310000D03*
X46180000Y-85060000D03*
X46180000Y-83360000D03*
D10*
X6850000Y-27520760D03*
X8750000Y-27520760D03*
X7800000Y-25521780D03*
D13*
X33410000Y-59660000D03*
X31710000Y-59660000D03*
X42930000Y-21120000D03*
X42930000Y-19420000D03*
D10*
X22650000Y-96459240D03*
X20750000Y-96459240D03*
X21700000Y-98458220D03*
D13*
X7600000Y-83200000D03*
X9300000Y-83200000D03*
X46140000Y-72730000D03*
X46140000Y-71030000D03*
D16*
X16041020Y-23940000D03*
X20038980Y-23940000D03*
D17*
X35900000Y-81440000D03*
X35900000Y-80790000D03*
X35900000Y-80140000D03*
X35900000Y-79490000D03*
X35900000Y-78840000D03*
X35900000Y-78190000D03*
X35900000Y-77540000D03*
X30000000Y-77540000D03*
X30000000Y-78190000D03*
X30000000Y-78840000D03*
X30000000Y-79490000D03*
X30000000Y-80140000D03*
X30000000Y-80790000D03*
X30000000Y-81440000D03*
D13*
X40980000Y-106140000D03*
X42680000Y-106140000D03*
X21100000Y-59810000D03*
X19400000Y-59810000D03*
X21730000Y-20330000D03*
X23430000Y-20330000D03*
X42910000Y-33480000D03*
X42910000Y-31780000D03*
X34830000Y-101380000D03*
X36530000Y-101380000D03*
X9790000Y-23540000D03*
X11490000Y-23540000D03*
X5780000Y-81340000D03*
X5780000Y-83040000D03*
X11740000Y-86780000D03*
X10040000Y-86780000D03*
X34860000Y-93530000D03*
X36560000Y-93530000D03*
D10*
X13670000Y-88430760D03*
X15570000Y-88430760D03*
X14620000Y-86431780D03*
D13*
X27920000Y-81580000D03*
X27920000Y-79880000D03*
X46360000Y-59230000D03*
X46360000Y-60930000D03*
X44400000Y-60730000D03*
X44400000Y-59030000D03*
X21250000Y-77670000D03*
X19550000Y-77670000D03*
X12710000Y-68810000D03*
X12710000Y-70510000D03*
D18*
X52040000Y-59470000D03*
X51390000Y-59470000D03*
X50740000Y-59470000D03*
X50090000Y-59470000D03*
X49440000Y-59470000D03*
X48790000Y-59470000D03*
X48140000Y-59470000D03*
X48140000Y-65370000D03*
X48790000Y-65370000D03*
X49440000Y-65370000D03*
X50090000Y-65370000D03*
X50740000Y-65370000D03*
X51390000Y-65370000D03*
X52040000Y-65370000D03*
D13*
X9000000Y-59080000D03*
X10700000Y-59080000D03*
X9040000Y-11720000D03*
X10740000Y-11720000D03*
D19*
X16730000Y-47330000D03*
X21130000Y-47330000D03*
X13090000Y-31670000D03*
X8690000Y-31670000D03*
D13*
X39540000Y-3890000D03*
X41240000Y-3890000D03*
D20*
X30210000Y-14680000D03*
X32750000Y-12140000D03*
X35290000Y-14680000D03*
D21*
X19560000Y-86690000D03*
D22*
X22100000Y-86690000D03*
X19560000Y-89230000D03*
X22100000Y-89230000D03*
X19560000Y-91770000D03*
X22100000Y-91770000D03*
D13*
X17090000Y-108470000D03*
X15390000Y-108470000D03*
X34740000Y-88490000D03*
X36440000Y-88490000D03*
X7310000Y-57530000D03*
X7310000Y-59230000D03*
X38620000Y-10620000D03*
X38620000Y-12320000D03*
D17*
X35510000Y-6945000D03*
X35510000Y-6295000D03*
X35510000Y-5645000D03*
X35510000Y-4995000D03*
X29610000Y-4995000D03*
X29610000Y-5645000D03*
X29610000Y-6295000D03*
X29610000Y-6945000D03*
D13*
X42870000Y-8720000D03*
X42870000Y-7020000D03*
D10*
X5690000Y-15780760D03*
X7590000Y-15780760D03*
X6640000Y-13781780D03*
D13*
X7890000Y-39710000D03*
X7890000Y-41410000D03*
X42890000Y-64340000D03*
X42890000Y-66040000D03*
X42900000Y-52000000D03*
X42900000Y-53700000D03*
D23*
X17370000Y-42580000D03*
D24*
X18870000Y-41176200D03*
D25*
X18870000Y-38433000D03*
D26*
X18870000Y-42433500D03*
D27*
X18870000Y-39766500D03*
D23*
X20370000Y-42580000D03*
D13*
X46110000Y-97370000D03*
X46110000Y-95670000D03*
X16790000Y-93140000D03*
X15090000Y-93140000D03*
X27240000Y-4900000D03*
X25540000Y-4900000D03*
X42840000Y-89020000D03*
X42840000Y-90720000D03*
D16*
X26858980Y-12830000D03*
X22861020Y-12830000D03*
D19*
X24280000Y-28540000D03*
X28680000Y-28540000D03*
D10*
X6920000Y-44930760D03*
X8820000Y-44930760D03*
X7870000Y-42931780D03*
D13*
X6610000Y-9890000D03*
X6610000Y-11590000D03*
X42880000Y-76680000D03*
X42880000Y-78380000D03*
X15020000Y-106650000D03*
X15020000Y-104950000D03*
X14580000Y-84760000D03*
X14580000Y-83060000D03*
X9630000Y-41450000D03*
X11330000Y-41450000D03*
D10*
X13099240Y-73620000D03*
X13099240Y-75520000D03*
X15098220Y-74570000D03*
D13*
X35370000Y-106400000D03*
X37070000Y-106400000D03*
X46140000Y-47840000D03*
X46140000Y-46140000D03*
D14*
X27560000Y-2420000D03*
X25020000Y-2420000D03*
D10*
X7069240Y-65020000D03*
X7069240Y-66920000D03*
X9068220Y-65970000D03*
D13*
X38320000Y-74930000D03*
X36620000Y-74930000D03*
D10*
X4830000Y-86570760D03*
X6730000Y-86570760D03*
X5780000Y-84571780D03*
D13*
X46040000Y-8990000D03*
X46040000Y-10690000D03*
X46070000Y-23200000D03*
X46070000Y-21500000D03*
X10800000Y-66080000D03*
X10800000Y-67780000D03*
X22990000Y-102080000D03*
X24690000Y-102080000D03*
D28*
X16390000Y-70980000D03*
X17190000Y-70980000D03*
X17990000Y-70980000D03*
X18790000Y-70980000D03*
X19590000Y-70980000D03*
X20390000Y-70980000D03*
X21190000Y-70980000D03*
X21990000Y-70980000D03*
D29*
X23440000Y-69530000D03*
X23440000Y-68730000D03*
X23440000Y-67930000D03*
X23440000Y-67130000D03*
X23440000Y-66330000D03*
X23440000Y-65530000D03*
X23440000Y-64730000D03*
X23440000Y-63930000D03*
D28*
X21990000Y-62480000D03*
X21190000Y-62480000D03*
X20390000Y-62480000D03*
X19590000Y-62480000D03*
X18790000Y-62480000D03*
X17990000Y-62480000D03*
X17190000Y-62480000D03*
X16390000Y-62480000D03*
D29*
X14940000Y-63930000D03*
X14940000Y-64730000D03*
X14940000Y-65530000D03*
X14940000Y-66330000D03*
X14940000Y-67130000D03*
X14940000Y-67930000D03*
X14940000Y-68730000D03*
X14940000Y-69530000D03*
D13*
X18060000Y-97990000D03*
X18060000Y-96290000D03*
X15070000Y-77200000D03*
X15070000Y-78900000D03*
X36360000Y-50000000D03*
X34660000Y-50000000D03*
X22330000Y-42340000D03*
X24030000Y-42340000D03*
D10*
X6350000Y-62760760D03*
X8250000Y-62760760D03*
X7300000Y-60761780D03*
D13*
X42990000Y-2220000D03*
X42990000Y-3920000D03*
X32330000Y-52180000D03*
X34030000Y-52180000D03*
D30*
X46101000Y-17970500D03*
X57073800Y-17970500D03*
X54660800Y-17970500D03*
D31*
X5257800Y-90512900D03*
X7797800Y-90512900D03*
X10337800Y-90512900D03*
X5257800Y-95592900D03*
X7797800Y-95592900D03*
X10337800Y-95592900D03*
D32*
X2717800Y-93052900D03*
D31*
X12877800Y-93052900D03*
D30*
X36499800Y-9029700D03*
X25527000Y-9029700D03*
X27940000Y-9029700D03*
X36499800Y-34429700D03*
X25527000Y-34429700D03*
X27940000Y-34429700D03*
D33*
X5257963Y-37323457D03*
X7797963Y-37323457D03*
X10337963Y-37323457D03*
D34*
X3403763Y-44333857D03*
X12192163Y-44333857D03*
D30*
X46101000Y-30353000D03*
X57073800Y-30353000D03*
X54660800Y-30353000D03*
X46101000Y-42735500D03*
X57073800Y-42735500D03*
X54660800Y-42735500D03*
D33*
X5257963Y-19670457D03*
X7797963Y-19670457D03*
X10337963Y-19670457D03*
D34*
X3403763Y-26680857D03*
X12192163Y-26680857D03*
D33*
X5257963Y-72629457D03*
X7797963Y-72629457D03*
X10337963Y-72629457D03*
D34*
X3403763Y-79639857D03*
X12192163Y-79639857D03*
D30*
X46101000Y-104648000D03*
X57073800Y-104648000D03*
X54660800Y-104648000D03*
X36499800Y-72529700D03*
X25527000Y-72529700D03*
X27940000Y-72529700D03*
X36499800Y-97929700D03*
X25527000Y-97929700D03*
X27940000Y-97929700D03*
D31*
X5257800Y-102450900D03*
X7797800Y-102450900D03*
X10337800Y-102450900D03*
X5257800Y-107530900D03*
X7797800Y-107530900D03*
X10337800Y-107530900D03*
D32*
X2717800Y-104990900D03*
D31*
X12877800Y-104990900D03*
D30*
X46101000Y-5588000D03*
X57073800Y-5588000D03*
X54660800Y-5588000D03*
X36499800Y-59829700D03*
X25527000Y-59829700D03*
X27940000Y-59829700D03*
X46101000Y-92265500D03*
X57073800Y-92265500D03*
X54660800Y-92265500D03*
X46101000Y-67500500D03*
X57073800Y-67500500D03*
X54660800Y-67500500D03*
X36499800Y-47129700D03*
X25527000Y-47129700D03*
X27940000Y-47129700D03*
X36499800Y-85229700D03*
X25527000Y-85229700D03*
X27940000Y-85229700D03*
D33*
X5257963Y-54976457D03*
X7797963Y-54976457D03*
X10337963Y-54976457D03*
D34*
X3403763Y-61986857D03*
X12192163Y-61986857D03*
D33*
X5257963Y-2017457D03*
X7797963Y-2017457D03*
X10337963Y-2017457D03*
D34*
X3403763Y-9027857D03*
X12192163Y-9027857D03*
D30*
X46101000Y-79883000D03*
X57073800Y-79883000D03*
X54660800Y-79883000D03*
X46101000Y-55118000D03*
X57073800Y-55118000D03*
X54660800Y-55118000D03*
X36499800Y-21729700D03*
X25527000Y-21729700D03*
X27940000Y-21729700D03*
D35*
X30805275Y-49444918D03*
X11490000Y-34120000D03*
X19400000Y-58060000D03*
X37970000Y-58140000D03*
X35820000Y-26750000D03*
X11110000Y-88430000D03*
X25190000Y-27010000D03*
X22340000Y-51840000D03*
X31370000Y-29610000D03*
X47400000Y-26730000D03*
X8670000Y-33420000D03*
X21190000Y-79020000D03*
X26590000Y-104640000D03*
X19120000Y-27070000D03*
X31380000Y-50870000D03*
X27140000Y-62780000D03*
X21950000Y-81330000D03*
X13099299Y-72560000D03*
X24390000Y-17600000D03*
X37010000Y-55970000D03*
X24370000Y-81170000D03*
X16800000Y-94600000D03*
X25830000Y-79710000D03*
X18420000Y-63990000D03*
X31790000Y-78160000D03*
X48020000Y-61020000D03*
X7399143Y-26680857D03*
X34430000Y-78140000D03*
X22570000Y-9100000D03*
X18070000Y-69080000D03*
X22160000Y-49530000D03*
X19380000Y-49940000D03*
X4750000Y-87940000D03*
X20460000Y-21190000D03*
X16570000Y-105320000D03*
X6160000Y-44070000D03*
X22100000Y-94670000D03*
X30420000Y-104670000D03*
X55840000Y-62100000D03*
X19680000Y-68780000D03*
X9120000Y-25650000D03*
X8600000Y-85360000D03*
X5257963Y-66912037D03*
X7220000Y-63700000D03*
X13580000Y-51130000D03*
X15630000Y-89600000D03*
X32070000Y-17820000D03*
X14110000Y-40930000D03*
X18418900Y-30000000D03*
X9140000Y-21700000D03*
X8840000Y-46870000D03*
X7380000Y-81160000D03*
X19480000Y-100370000D03*
X13870000Y-12520000D03*
X24410011Y-18859989D03*
X32521100Y-94560000D03*
X31170000Y-107510000D03*
X39620000Y-15510000D03*
X19830000Y-64090000D03*
X24920000Y-77610000D03*
X16295500Y-86028336D03*
X9170000Y-13610000D03*
X14600000Y-52400000D03*
X12240000Y-66380000D03*
X10040000Y-46180000D03*
X31950000Y-19980000D03*
X16960000Y-65540000D03*
X38340000Y-13670000D03*
X23340000Y-24020000D03*
X31370000Y-61840000D03*
X19180000Y-64950000D03*
X9560000Y-81340000D03*
X11270000Y-63990000D03*
X36430000Y-76150000D03*
X8960000Y-78650000D03*
X31920000Y-57210000D03*
X17740000Y-54960000D03*
X21160000Y-82900000D03*
X26340000Y-81710000D03*
X15910000Y-49080000D03*
X17520000Y-78750000D03*
X17740000Y-49000000D03*
X20802201Y-57050000D03*
X53420000Y-57050000D03*
X44350000Y-57090000D03*
X23420000Y-25320000D03*
X37790000Y-66340000D03*
X23420000Y-26930000D03*
X24420000Y-49850000D03*
X37960000Y-71000000D03*
X22330000Y-40970000D03*
X22940000Y-33170000D03*
X39080000Y-87130000D03*
X21760000Y-16050000D03*
X28890000Y-12420000D03*
X44430000Y-61530000D03*
X46620000Y-65390000D03*
X48715500Y-66990000D03*
X38700000Y-53540000D03*
X33945000Y-68415000D03*
X32190000Y-71570000D03*
X30220000Y-73590000D03*
X29560000Y-64750000D03*
X27320000Y-70440000D03*
X30080000Y-107910000D03*
X39090000Y-108670000D03*
X28406979Y-69467781D03*
X29460000Y-90910000D03*
X34147500Y-79362500D03*
X17284010Y-80200000D03*
X41270000Y-64180000D03*
X21997125Y-65107474D03*
X41260000Y-61360000D03*
X25480000Y-62730000D03*
X23050000Y-74640000D03*
X51560000Y-72310000D03*
X44520000Y-76470000D03*
X40810000Y-73140000D03*
X42510000Y-74270000D03*
X38960000Y-73120000D03*
X40020000Y-6990000D03*
X40000000Y-68930000D03*
X40121100Y-81290000D03*
X42740000Y-104720000D03*
X42870000Y-92330000D03*
X44320000Y-78350000D03*
X42437701Y-66967701D03*
X42880000Y-55000000D03*
X42790000Y-42620000D03*
X42810000Y-30380000D03*
X42810000Y-18080000D03*
X44230000Y-3920000D03*
X42840000Y-5760000D03*
X41230000Y-5600000D03*
X17159631Y-68667405D03*
X37960000Y-15920000D03*
X17150000Y-90910000D03*
X32540000Y-55640000D03*
X35200000Y-68490000D03*
D36*
X25527000Y-55027000D02*
X22340000Y-51840000D01*
D37*
X19380000Y-69080000D02*
X19680000Y-68780000D01*
X6980000Y-85520000D02*
X9300000Y-83200000D01*
D36*
X55650000Y-62290000D02*
X55650000Y-64320000D01*
D37*
X27750000Y-79710000D02*
X27920000Y-79880000D01*
X18070000Y-69080000D02*
X19380000Y-69080000D01*
X3403763Y-61986857D02*
X3403763Y-79639857D01*
D36*
X6920000Y-44930760D02*
X6920000Y-44830000D01*
X16759520Y-39766500D02*
X12192163Y-44333857D01*
D37*
X5690000Y-15780760D02*
X6414561Y-15056199D01*
X5257963Y-19670457D02*
X3403763Y-21524657D01*
X57073800Y-104648000D02*
X57073800Y-92265500D01*
X5230142Y-86570760D02*
X6280902Y-85520000D01*
D36*
X11490000Y-23540000D02*
X11490000Y-25978694D01*
X30300000Y-28540000D02*
X31370000Y-29610000D01*
D37*
X9429098Y-67780000D02*
X10800000Y-67780000D01*
X18790000Y-63620000D02*
X18420000Y-63990000D01*
D36*
X31760000Y-78190000D02*
X31790000Y-78160000D01*
X24030000Y-40960000D02*
X30805275Y-47735275D01*
D37*
X16790000Y-93140000D02*
X16790000Y-94590000D01*
D36*
X21130000Y-48500000D02*
X21130000Y-47330000D01*
X25217300Y-34120000D02*
X25527000Y-34429700D01*
D37*
X6414561Y-15056199D02*
X13823801Y-15056199D01*
D36*
X19550000Y-77670000D02*
X17710000Y-75830000D01*
D37*
X5257963Y-19670457D02*
X3403763Y-17816257D01*
X25830000Y-79710000D02*
X27750000Y-79710000D01*
D36*
X18640000Y-34120000D02*
X18640000Y-39536500D01*
D37*
X25540000Y-6130000D02*
X22570000Y-9100000D01*
D36*
X28310000Y-79490000D02*
X30000000Y-79490000D01*
X31090000Y-80628200D02*
X31090000Y-79328200D01*
X11330000Y-43471694D02*
X12192163Y-44333857D01*
X11330000Y-38315494D02*
X11330000Y-41450000D01*
X24120460Y-97929700D02*
X22650000Y-96459240D01*
D37*
X18070000Y-70900000D02*
X17990000Y-70980000D01*
D36*
X25527000Y-31693000D02*
X28680000Y-28540000D01*
X6850000Y-27520760D02*
X6850000Y-27230000D01*
X47400000Y-26730000D02*
X35840000Y-26730000D01*
X18640000Y-34120000D02*
X19120000Y-33640000D01*
X17710000Y-75830000D02*
X17710000Y-75390000D01*
D37*
X30949022Y-80790000D02*
X30000000Y-80790000D01*
X12192163Y-79639857D02*
X14330143Y-79639857D01*
D36*
X22836500Y-39766500D02*
X18870000Y-39766500D01*
D37*
X26260000Y-83060000D02*
X24370000Y-81170000D01*
D36*
X28680000Y-28540000D02*
X27150000Y-27010000D01*
D37*
X3403763Y-61986857D02*
X5576097Y-61986857D01*
D36*
X20460000Y-21190000D02*
X20460000Y-18650000D01*
D37*
X5576097Y-61986857D02*
X6350000Y-62760760D01*
D36*
X24690000Y-102080000D02*
X26590000Y-103980000D01*
D37*
X3403763Y-79639857D02*
X3403763Y-85144523D01*
X46490000Y-61060000D02*
X46360000Y-60930000D01*
D36*
X31140000Y-103652500D02*
X31140000Y-91162500D01*
X25527000Y-97929700D02*
X27940000Y-97929700D01*
X34430000Y-78140000D02*
X35130000Y-78840000D01*
X27920000Y-79880000D02*
X28310000Y-79490000D01*
D37*
X3403763Y-21524657D02*
X3403763Y-26680857D01*
D36*
X34030000Y-51476800D02*
X33863200Y-51310000D01*
X16740000Y-17470000D02*
X19280000Y-17470000D01*
X14440000Y-83200000D02*
X14580000Y-83060000D01*
X25527000Y-34429700D02*
X25527000Y-31693000D01*
X16740000Y-14930000D02*
X16740000Y-17470000D01*
D37*
X10700000Y-55338494D02*
X10337963Y-54976457D01*
D36*
X6850000Y-27230000D02*
X7399143Y-26680857D01*
X31820000Y-51310000D02*
X31380000Y-50870000D01*
X22100000Y-91770000D02*
X22100000Y-94670000D01*
D37*
X7069240Y-65420142D02*
X9429098Y-67780000D01*
X19400000Y-59810000D02*
X18790000Y-60420000D01*
D36*
X11490000Y-25978694D02*
X12192163Y-26680857D01*
D37*
X31140000Y-86160000D02*
X28040000Y-83060000D01*
D36*
X18870000Y-39766500D02*
X16759520Y-39766500D01*
X19280000Y-17470000D02*
X19280000Y-14930000D01*
D37*
X31140000Y-91162500D02*
X31140000Y-86160000D01*
X57073800Y-55118000D02*
X57073800Y-60866200D01*
X25540000Y-9016700D02*
X25527000Y-9029700D01*
D36*
X19120000Y-33640000D02*
X19120000Y-27070000D01*
D37*
X16790000Y-93140000D02*
X13670000Y-90020000D01*
D36*
X31820000Y-104332500D02*
X31140000Y-103652500D01*
X31090000Y-79328200D02*
X30928200Y-79490000D01*
X16908889Y-73061111D02*
X17940000Y-72030000D01*
X25527000Y-59829700D02*
X25527000Y-55027000D01*
D37*
X6280902Y-85520000D02*
X6980000Y-85520000D01*
X19590000Y-71904022D02*
X19590000Y-70980000D01*
X23430000Y-18560000D02*
X24390000Y-17600000D01*
D36*
X24030000Y-40960000D02*
X22836500Y-39766500D01*
X30000000Y-78190000D02*
X30928200Y-78190000D01*
D37*
X19380000Y-49940000D02*
X18870000Y-49430000D01*
X18790000Y-62480000D02*
X18790000Y-63620000D01*
X4750000Y-87940000D02*
X4750000Y-86650760D01*
X23430000Y-20330000D02*
X23430000Y-18560000D01*
D36*
X35840000Y-26730000D02*
X35820000Y-26750000D01*
X28300000Y-17500000D02*
X24490000Y-17500000D01*
D37*
X18870000Y-49430000D02*
X18870000Y-47330000D01*
X7069240Y-65020000D02*
X7069240Y-65420142D01*
D36*
X30805275Y-47735275D02*
X30805275Y-49444918D01*
D37*
X19389511Y-72104511D02*
X19590000Y-71904022D01*
X12192163Y-61986857D02*
X10700000Y-60494694D01*
X3403763Y-44333857D02*
X3403763Y-61986857D01*
D36*
X30928200Y-78190000D02*
X31090000Y-78351800D01*
X34030000Y-52990000D02*
X37010000Y-55970000D01*
D37*
X13670000Y-88430760D02*
X11110760Y-88430760D01*
X21190000Y-79020000D02*
X21190000Y-80570000D01*
D36*
X55840000Y-62100000D02*
X57073800Y-63333800D01*
D37*
X6350000Y-64300760D02*
X7069240Y-65020000D01*
D36*
X16570000Y-105320000D02*
X15240000Y-106650000D01*
X9300000Y-83200000D02*
X14440000Y-83200000D01*
X25527000Y-59829700D02*
X27140000Y-61442700D01*
X25527000Y-97929700D02*
X24120460Y-97929700D01*
D37*
X16790000Y-94590000D02*
X16800000Y-94600000D01*
D36*
X25326700Y-47330000D02*
X25527000Y-47129700D01*
D37*
X18790000Y-60420000D02*
X18790000Y-62480000D01*
D36*
X22100000Y-91770000D02*
X25527000Y-88343000D01*
X30928200Y-79490000D02*
X30000000Y-79490000D01*
D37*
X10740000Y-11720000D02*
X13950000Y-14930000D01*
D36*
X37970000Y-58140000D02*
X39758889Y-59928889D01*
X26590000Y-103980000D02*
X26590000Y-104640000D01*
X30420000Y-104670000D02*
X31482500Y-104670000D01*
D37*
X5690000Y-19238420D02*
X5257963Y-19670457D01*
X17990000Y-70980000D02*
X17990000Y-72030000D01*
D36*
X27150000Y-27010000D02*
X25190000Y-27010000D01*
D37*
X10700000Y-59080000D02*
X10700000Y-55338494D01*
D36*
X11330000Y-41450000D02*
X11330000Y-43471694D01*
X25527000Y-43837000D02*
X24030000Y-42340000D01*
X31090000Y-78351800D02*
X31090000Y-79328200D01*
X20460000Y-18650000D02*
X19280000Y-17470000D01*
X27140000Y-61442700D02*
X27140000Y-62780000D01*
D37*
X4750000Y-86650760D02*
X4830000Y-86570760D01*
D36*
X6920000Y-44830000D02*
X6160000Y-44070000D01*
X8670000Y-33420000D02*
X8670000Y-31690000D01*
X34030000Y-52180000D02*
X34030000Y-52990000D01*
X16908889Y-74588889D02*
X16908889Y-73061111D01*
D37*
X4830000Y-86570760D02*
X5230142Y-86570760D01*
D36*
X17940000Y-72030000D02*
X17990000Y-72030000D01*
X22100000Y-94670000D02*
X22100000Y-95909240D01*
D37*
X14330143Y-79639857D02*
X15070000Y-78900000D01*
D36*
X30000000Y-78190000D02*
X31760000Y-78190000D01*
X46360000Y-60930000D02*
X47930000Y-60930000D01*
D37*
X13823801Y-15056199D02*
X13950000Y-14930000D01*
X21130000Y-47330000D02*
X18870000Y-47330000D01*
D36*
X17710000Y-75390000D02*
X16908889Y-74588889D01*
D37*
X21190000Y-80570000D02*
X21950000Y-81330000D01*
D36*
X33863200Y-51310000D02*
X31820000Y-51310000D01*
D37*
X13670000Y-90020000D02*
X13670000Y-88430760D01*
X6350000Y-62760760D02*
X6350000Y-64300760D01*
D36*
X34030000Y-52180000D02*
X34030000Y-51476800D01*
D37*
X57073800Y-60866200D02*
X55840000Y-62100000D01*
D36*
X30000000Y-80790000D02*
X30928200Y-80790000D01*
X39758889Y-59928889D02*
X45358889Y-59928889D01*
X35130000Y-78840000D02*
X35900000Y-78840000D01*
X31482500Y-104670000D02*
X31820000Y-104332500D01*
X30928200Y-80790000D02*
X31090000Y-80628200D01*
D37*
X57073800Y-92265500D02*
X57073800Y-79883000D01*
D36*
X10337963Y-37323457D02*
X11330000Y-38315494D01*
X19280000Y-14930000D02*
X19280000Y-12390000D01*
D37*
X57073800Y-30353000D02*
X57073800Y-42735500D01*
D36*
X22160000Y-49530000D02*
X21130000Y-48500000D01*
X16740000Y-12390000D02*
X19280000Y-12390000D01*
X8670000Y-31690000D02*
X8690000Y-31670000D01*
D37*
X57073800Y-67500500D02*
X57073800Y-79883000D01*
D36*
X25527000Y-47129700D02*
X25527000Y-43837000D01*
D37*
X10700000Y-60494694D02*
X10700000Y-59080000D01*
X18064511Y-72104511D02*
X19389511Y-72104511D01*
X57073800Y-5588000D02*
X57073800Y-17970500D01*
D36*
X34130000Y-52280000D02*
X34030000Y-52180000D01*
X13099240Y-73620000D02*
X13099240Y-72560061D01*
D37*
X18070000Y-69080000D02*
X18070000Y-70900000D01*
D36*
X18640000Y-34120000D02*
X11490000Y-34120000D01*
D37*
X57073800Y-17970500D02*
X57073800Y-30353000D01*
X18870000Y-47330000D02*
X18870000Y-42433500D01*
D36*
X13099240Y-72560061D02*
X13099301Y-72560000D01*
X16740000Y-12390000D02*
X16740000Y-14930000D01*
D37*
X13950000Y-14930000D02*
X16740000Y-14930000D01*
D36*
X57073800Y-63333800D02*
X57073800Y-67500500D01*
X55840000Y-62100000D02*
X55650000Y-62290000D01*
D37*
X17990000Y-72030000D02*
X18064511Y-72104511D01*
X11110760Y-88430760D02*
X11110000Y-88430000D01*
X19400000Y-59810000D02*
X19400000Y-58060000D01*
D36*
X24030000Y-42340000D02*
X24030000Y-40960000D01*
X47930000Y-60930000D02*
X48020000Y-61020000D01*
X22100000Y-95909240D02*
X22650000Y-96459240D01*
X45358889Y-59928889D02*
X46360000Y-60930000D01*
X16740000Y-14930000D02*
X19280000Y-14930000D01*
D37*
X3403763Y-17816257D02*
X3403763Y-9027857D01*
D36*
X28680000Y-28540000D02*
X30300000Y-28540000D01*
D37*
X25540000Y-4900000D02*
X25540000Y-6130000D01*
D36*
X25527000Y-88343000D02*
X25527000Y-85229700D01*
X15240000Y-106650000D02*
X15020000Y-106650000D01*
D37*
X3403763Y-85144523D02*
X4830000Y-86570760D01*
X25527000Y-9029700D02*
X27940000Y-9029700D01*
D36*
X24490000Y-17500000D02*
X24390000Y-17600000D01*
D37*
X57073800Y-55118000D02*
X57073800Y-42735500D01*
D36*
X18640000Y-39536500D02*
X18870000Y-39766500D01*
D37*
X28040000Y-83060000D02*
X26260000Y-83060000D01*
D36*
X12260000Y-31670000D02*
X13090000Y-31670000D01*
X9670000Y-75520000D02*
X7380000Y-77810000D01*
X9650000Y-34280000D02*
X14110000Y-38740000D01*
X8820000Y-44930760D02*
X8820000Y-46850000D01*
D37*
X20750000Y-96459240D02*
X20900000Y-96309240D01*
D36*
X5257963Y-37323457D02*
X6159663Y-38225157D01*
X7646750Y-62760760D02*
X8250000Y-62760760D01*
X20390000Y-64761508D02*
X21190000Y-63961508D01*
X8301420Y-34280000D02*
X9650000Y-34280000D01*
X12710000Y-70510000D02*
X10659240Y-70510000D01*
X21190000Y-63961508D02*
X21190000Y-62480000D01*
X13090000Y-31090000D02*
X13090000Y-31670000D01*
X5265926Y-66920000D02*
X5257963Y-66912037D01*
X7069240Y-66920000D02*
X5265926Y-66920000D01*
X35290000Y-14680000D02*
X32150000Y-17820000D01*
X7590000Y-15780760D02*
X9135152Y-17325912D01*
X12710000Y-70510000D02*
X11840000Y-71380000D01*
D37*
X20900000Y-88540000D02*
X22100000Y-87340000D01*
D36*
X18790000Y-70980000D02*
X18790000Y-69976800D01*
X20390000Y-69976800D02*
X20390000Y-70980000D01*
X5257963Y-37323457D02*
X8301420Y-34280000D01*
X9120000Y-27150760D02*
X8750000Y-27520760D01*
X18916800Y-69850000D02*
X20263200Y-69850000D01*
X9650000Y-34280000D02*
X12260000Y-31670000D01*
X13099240Y-75520000D02*
X9670000Y-75520000D01*
X6730000Y-86570760D02*
X7389240Y-86570760D01*
X21100000Y-62390000D02*
X21190000Y-62480000D01*
X22000000Y-58910000D02*
X21100000Y-59810000D01*
X18870000Y-51130000D02*
X22000000Y-54260000D01*
X22000000Y-54260000D02*
X22000000Y-58910000D01*
X6159663Y-42623765D02*
X8466658Y-44930760D01*
X8466658Y-44930760D02*
X8820000Y-44930760D01*
X16360000Y-27820000D02*
X18418900Y-29878900D01*
X5257963Y-60371973D02*
X7646750Y-62760760D01*
X8940760Y-27520760D02*
X13090000Y-31670000D01*
X19590000Y-61476800D02*
X19687911Y-61378889D01*
X7310760Y-63700000D02*
X8250000Y-62760760D01*
D37*
X20900000Y-96309240D02*
X20900000Y-88540000D01*
D36*
X18418900Y-29878900D02*
X18418900Y-30000000D01*
X9135152Y-17325912D02*
X9135152Y-21695152D01*
X20390000Y-70980000D02*
X20390000Y-64761508D01*
X32150000Y-17820000D02*
X32070000Y-17820000D01*
X21190000Y-61430000D02*
X21190000Y-62480000D01*
X11840000Y-71380000D02*
X11840000Y-74260760D01*
X9135152Y-21695152D02*
X9140000Y-21700000D01*
X19590000Y-62480000D02*
X19590000Y-61476800D01*
X9120000Y-25650000D02*
X9120000Y-27150760D01*
X19687911Y-61378889D02*
X21138889Y-61378889D01*
X11840000Y-74260760D02*
X13099240Y-75520000D01*
D37*
X15630000Y-89600000D02*
X15630000Y-88490760D01*
X22100000Y-87340000D02*
X22100000Y-86690000D01*
D36*
X14110000Y-38740000D02*
X14110000Y-40930000D01*
X21138889Y-61378889D02*
X21190000Y-61430000D01*
X20263200Y-69850000D02*
X20390000Y-69976800D01*
X6159663Y-38225157D02*
X6159663Y-42623765D01*
X8820000Y-46850000D02*
X8840000Y-46870000D01*
X7389240Y-86570760D02*
X8600000Y-85360000D01*
X5257963Y-54976457D02*
X5257963Y-60371973D01*
X21100000Y-59810000D02*
X21100000Y-62390000D01*
X7380000Y-77810000D02*
X7380000Y-81160000D01*
X18790000Y-69976800D02*
X18916800Y-69850000D01*
X10659240Y-70510000D02*
X7069240Y-66920000D01*
X8750000Y-27520760D02*
X8940760Y-27520760D01*
X13580000Y-51130000D02*
X18870000Y-51130000D01*
X7220000Y-63700000D02*
X7310760Y-63700000D01*
X16360000Y-27820000D02*
X13090000Y-31090000D01*
D37*
X15630000Y-88490760D02*
X15570000Y-88430760D01*
D36*
X44400000Y-58100000D02*
X44400000Y-59030000D01*
X46101000Y-55118000D02*
X46101000Y-56399000D01*
X46101000Y-56399000D02*
X44400000Y-58100000D01*
D37*
X10040000Y-88270700D02*
X7797800Y-90512900D01*
X10040000Y-86780000D02*
X10040000Y-88270700D01*
X12964900Y-93140000D02*
X12877800Y-93052900D01*
X15090000Y-93140000D02*
X12964900Y-93140000D01*
X2717800Y-95677800D02*
X2717800Y-93052900D01*
X14450000Y-100602500D02*
X7642500Y-100602500D01*
X7642500Y-100602500D02*
X2717800Y-95677800D01*
X20880000Y-100370000D02*
X20940000Y-100310000D01*
X19480000Y-100370000D02*
X20880000Y-100370000D01*
X15020000Y-104950000D02*
X12918700Y-104950000D01*
X12918700Y-104950000D02*
X12877800Y-104990900D01*
X17539022Y-109670000D02*
X4990000Y-109670000D01*
X2717800Y-107397800D02*
X2717800Y-104990900D01*
X4990000Y-109670000D02*
X2717800Y-107397800D01*
X19940000Y-105167500D02*
X19940000Y-107269022D01*
X19940000Y-107269022D02*
X17539022Y-109670000D01*
X38320000Y-74930000D02*
X38320000Y-74349900D01*
X38320000Y-74349900D02*
X36499800Y-72529700D01*
D36*
X38620000Y-10620000D02*
X38090100Y-10620000D01*
X38090100Y-10620000D02*
X36499800Y-9029700D01*
D37*
X13870000Y-5549494D02*
X10337963Y-2017457D01*
X36499800Y-21729700D02*
X33630089Y-18859989D01*
X33630089Y-18859989D02*
X24410011Y-18859989D01*
X13870000Y-12520000D02*
X13870000Y-5549494D01*
D36*
X36499800Y-47129700D02*
X36499800Y-49860200D01*
X36499800Y-49860200D02*
X36360000Y-50000000D01*
X33410000Y-59660000D02*
X36330100Y-59660000D01*
X36330100Y-59660000D02*
X36499800Y-59829700D01*
D37*
X36499800Y-33064702D02*
X29595098Y-26160000D01*
X13120000Y-22452494D02*
X10337963Y-19670457D01*
X29595098Y-26160000D02*
X15461888Y-26160000D01*
X36499800Y-34429700D02*
X36499800Y-33064702D01*
X13120000Y-23818112D02*
X13120000Y-22452494D01*
X15461888Y-26160000D02*
X13120000Y-23818112D01*
X5780000Y-74647420D02*
X7797963Y-72629457D01*
X5780000Y-81340000D02*
X5780000Y-74647420D01*
D36*
X6610000Y-3205420D02*
X7797963Y-2017457D01*
X6610000Y-9890000D02*
X6610000Y-3205420D01*
X7797963Y-39617963D02*
X7890000Y-39710000D01*
X7797963Y-37323457D02*
X7797963Y-39617963D01*
D37*
X7310000Y-57530000D02*
X7310000Y-55464420D01*
X7310000Y-55464420D02*
X7797963Y-54976457D01*
D36*
X7797963Y-19670457D02*
X7797963Y-22087963D01*
X7797963Y-22087963D02*
X7870000Y-22160000D01*
X32090000Y-93037500D02*
X32521100Y-93468600D01*
X32521100Y-93468600D02*
X32521100Y-94560000D01*
X32090000Y-93037500D02*
X32582500Y-93530000D01*
X32582500Y-93530000D02*
X34860000Y-93530000D01*
D37*
X17670589Y-96679411D02*
X18060000Y-96290000D01*
X7797800Y-95592900D02*
X8884311Y-96679411D01*
X8884311Y-96679411D02*
X17670589Y-96679411D01*
D36*
X36440000Y-85289500D02*
X36499800Y-85229700D01*
X36440000Y-88490000D02*
X36440000Y-85289500D01*
D37*
X32770000Y-106207500D02*
X35177500Y-106207500D01*
X31467500Y-107510000D02*
X32770000Y-106207500D01*
X35177500Y-106207500D02*
X35370000Y-106400000D01*
X31170000Y-107510000D02*
X31467500Y-107510000D01*
X15242589Y-108617411D02*
X8884311Y-108617411D01*
X15390000Y-108470000D02*
X15242589Y-108617411D01*
X8884311Y-108617411D02*
X7797800Y-107530900D01*
X36530000Y-101380000D02*
X36530000Y-97959900D01*
X36530000Y-97959900D02*
X36499800Y-97929700D01*
X15070000Y-74598220D02*
X15098220Y-74570000D01*
D36*
X39620000Y-15510000D02*
X44440000Y-10690000D01*
X16458530Y-68765894D02*
X16458530Y-68376998D01*
X44440000Y-10690000D02*
X46040000Y-10690000D01*
D37*
X15098220Y-74570000D02*
X15098220Y-69688220D01*
D36*
X19987289Y-65158601D02*
X19987289Y-64247289D01*
D37*
X15070000Y-77200000D02*
X15070000Y-74598220D01*
D36*
X16458530Y-68376998D02*
X16869224Y-67966304D01*
X16869224Y-67966304D02*
X17179586Y-67966304D01*
X15694424Y-69530000D02*
X16458530Y-68765894D01*
X17179586Y-67966304D02*
X19987289Y-65158601D01*
X19987289Y-64247289D02*
X19830000Y-64090000D01*
X14940000Y-69530000D02*
X15694424Y-69530000D01*
X14580000Y-84760000D02*
X14680011Y-84659989D01*
D37*
X14580000Y-84760000D02*
X14580000Y-86391780D01*
D36*
X24920000Y-74190000D02*
X24920000Y-77610000D01*
X23440000Y-72710000D02*
X24920000Y-74190000D01*
X14680011Y-84659989D02*
X14680011Y-84647791D01*
D37*
X14271780Y-86780000D02*
X14620000Y-86431780D01*
X14580000Y-86391780D02*
X14620000Y-86431780D01*
D36*
X15027156Y-84760000D02*
X16295500Y-86028344D01*
X14580000Y-84760000D02*
X15027156Y-84760000D01*
D37*
X11740000Y-86780000D02*
X14271780Y-86780000D01*
D36*
X23440000Y-69530000D02*
X23440000Y-72710000D01*
X9040000Y-11720000D02*
X6740000Y-11720000D01*
X9170000Y-11850000D02*
X9040000Y-11720000D01*
X16910000Y-61196800D02*
X16910000Y-54710000D01*
X16910000Y-54710000D02*
X14600000Y-52400000D01*
X9170000Y-13610000D02*
X9170000Y-11850000D01*
X17190000Y-61476800D02*
X16910000Y-61196800D01*
X6740000Y-11720000D02*
X6610000Y-11590000D01*
X17190000Y-62480000D02*
X17190000Y-61476800D01*
X6610000Y-11590000D02*
X6610000Y-13751780D01*
D37*
X21250000Y-77670000D02*
X21250000Y-75560000D01*
X21240000Y-75550000D02*
X22139511Y-74650489D01*
X22139511Y-71129511D02*
X21990000Y-70980000D01*
X22139511Y-74650489D02*
X22139511Y-71129511D01*
X21250000Y-75560000D02*
X21240000Y-75550000D01*
X19740000Y-72500000D02*
X19740000Y-73450000D01*
X20050000Y-72190000D02*
X19740000Y-72500000D01*
X21190000Y-70980000D02*
X21190000Y-72030000D01*
X21030000Y-72190000D02*
X20050000Y-72190000D01*
X17950000Y-73450000D02*
X19740000Y-73450000D01*
X17710000Y-73690000D02*
X17950000Y-73450000D01*
X21190000Y-72030000D02*
X21030000Y-72190000D01*
D36*
X7178220Y-25521780D02*
X7800000Y-25521780D01*
X4055152Y-28644848D02*
X7178220Y-25521780D01*
X7870000Y-25451780D02*
X7800000Y-25521780D01*
X9470000Y-23860000D02*
X9790000Y-23540000D01*
X16390000Y-62480000D02*
X16390000Y-55790000D01*
X7870000Y-23860000D02*
X7870000Y-25451780D01*
X7870000Y-23860000D02*
X9470000Y-23860000D01*
X5038374Y-38838374D02*
X4055152Y-37855152D01*
X5038374Y-44438374D02*
X5038374Y-38838374D01*
X4055152Y-37855152D02*
X4055152Y-28644848D01*
X16390000Y-55790000D02*
X5038374Y-44438374D01*
D37*
X17190000Y-72030000D02*
X17190000Y-70980000D01*
X22990000Y-100660000D02*
X22640000Y-100310000D01*
X22640000Y-100310000D02*
X22640000Y-99398220D01*
X16482779Y-72737221D02*
X17190000Y-72030000D01*
X19170000Y-95600000D02*
X17874501Y-94304501D01*
X17874501Y-82074501D02*
X16482779Y-80682779D01*
X21700000Y-98458220D02*
X20468220Y-98458220D01*
X19170000Y-97160000D02*
X19170000Y-95600000D01*
X16482779Y-80682779D02*
X16482779Y-72737221D01*
X22990000Y-102080000D02*
X22990000Y-100660000D01*
X22640000Y-99398220D02*
X21700000Y-98458220D01*
X20468220Y-98458220D02*
X19170000Y-97160000D01*
X17874501Y-94304501D02*
X17874501Y-82074501D01*
X10040000Y-46180000D02*
X9630000Y-45770000D01*
D36*
X9630000Y-41450000D02*
X7930000Y-41450000D01*
D37*
X34514501Y-50145499D02*
X34660000Y-50000000D01*
X12290000Y-66330000D02*
X12240000Y-66380000D01*
X30465400Y-50670000D02*
X30989901Y-50145499D01*
D36*
X7890000Y-42911780D02*
X7870000Y-42931780D01*
D37*
X14530000Y-50670000D02*
X30465400Y-50670000D01*
X30989901Y-50145499D02*
X34514501Y-50145499D01*
X9630000Y-45770000D02*
X9630000Y-41450000D01*
D36*
X7930000Y-41450000D02*
X7890000Y-41410000D01*
X7890000Y-41410000D02*
X7890000Y-42911780D01*
D37*
X10040000Y-46180000D02*
X14530000Y-50670000D01*
X14940000Y-66330000D02*
X12290000Y-66330000D01*
X38340000Y-13670000D02*
X38340000Y-12600000D01*
X9068220Y-65970000D02*
X10690000Y-65970000D01*
X11350000Y-65530000D02*
X14940000Y-65530000D01*
X14940000Y-65530000D02*
X16950000Y-65530000D01*
X23340000Y-24020000D02*
X27910000Y-24020000D01*
X10800000Y-66080000D02*
X11350000Y-65530000D01*
X38340000Y-12600000D02*
X38620000Y-12320000D01*
X27910000Y-24020000D02*
X31950000Y-19980000D01*
X16950000Y-65530000D02*
X16960000Y-65540000D01*
X10690000Y-65970000D02*
X10800000Y-66080000D01*
X7460000Y-59080000D02*
X7310000Y-59230000D01*
X7310000Y-59230000D02*
X7310000Y-60751780D01*
X7310000Y-60751780D02*
X7300000Y-60761780D01*
X31370000Y-60000000D02*
X31710000Y-59660000D01*
X10560000Y-64730000D02*
X9000000Y-63170000D01*
X9000000Y-59080000D02*
X7460000Y-59080000D01*
X9000000Y-63170000D02*
X9000000Y-59080000D01*
X14940000Y-64730000D02*
X18960000Y-64730000D01*
X18960000Y-64730000D02*
X19180000Y-64950000D01*
X14940000Y-64730000D02*
X10560000Y-64730000D01*
X31370000Y-61840000D02*
X31370000Y-60000000D01*
X9060000Y-81740000D02*
X9502132Y-81297868D01*
D36*
X11330000Y-63930000D02*
X11270000Y-63990000D01*
X8960000Y-78650000D02*
X8960000Y-81640000D01*
D37*
X7440000Y-83040000D02*
X7600000Y-83200000D01*
X9517868Y-81297868D02*
X9560000Y-81340000D01*
X36620000Y-75960000D02*
X36430000Y-76150000D01*
D36*
X8960000Y-81640000D02*
X9060000Y-81740000D01*
D37*
X36620000Y-74930000D02*
X36620000Y-75960000D01*
X7600000Y-83200000D02*
X9060000Y-81740000D01*
X5780000Y-84571780D02*
X5780000Y-83040000D01*
X9502132Y-81297868D02*
X9517868Y-81297868D01*
X5780000Y-83040000D02*
X7440000Y-83040000D01*
D36*
X14940000Y-63930000D02*
X11330000Y-63930000D01*
X17520000Y-79380000D02*
X21040000Y-82900000D01*
X17520000Y-78750000D02*
X17520000Y-79380000D01*
X16730000Y-47330000D02*
X17740000Y-48340000D01*
X15910000Y-48150000D02*
X15910000Y-49080000D01*
X16730000Y-47330000D02*
X17930000Y-46130000D01*
D37*
X52900000Y-65370000D02*
X53950000Y-64320000D01*
D36*
X20802201Y-57050000D02*
X19830000Y-57050000D01*
X17930000Y-43495722D02*
X17370000Y-42935722D01*
X21040000Y-82900000D02*
X21160000Y-82900000D01*
X19830000Y-57050000D02*
X17740000Y-54960000D01*
X16730000Y-47330000D02*
X15910000Y-48150000D01*
X27920000Y-81580000D02*
X29860000Y-81580000D01*
X17930000Y-46130000D02*
X17930000Y-43495722D01*
X26470000Y-81580000D02*
X26340000Y-81710000D01*
X31920000Y-57210000D02*
X44230000Y-57210000D01*
X44230000Y-57210000D02*
X44350000Y-57090000D01*
D37*
X52040000Y-65370000D02*
X52900000Y-65370000D01*
D36*
X29860000Y-81580000D02*
X30000000Y-81440000D01*
X17370000Y-42935722D02*
X17370000Y-42580000D01*
X27920000Y-81580000D02*
X26470000Y-81580000D01*
X53420000Y-57050000D02*
X53950000Y-57580000D01*
X53950000Y-57580000D02*
X53950000Y-64320000D01*
X17740000Y-48340000D02*
X17740000Y-49000000D01*
X23560000Y-27820000D02*
X24280000Y-28540000D01*
X24280000Y-31830000D02*
X22940000Y-33170000D01*
X20370000Y-43763535D02*
X24420000Y-47813535D01*
D37*
X23420000Y-27680000D02*
X24280000Y-28540000D01*
D36*
X22330000Y-42340000D02*
X22330000Y-40970000D01*
D37*
X26858980Y-12341186D02*
X29610000Y-9590166D01*
D36*
X24280000Y-28540000D02*
X24280000Y-31830000D01*
X39160000Y-87210000D02*
X39080000Y-87130000D01*
X37766111Y-94736111D02*
X37766111Y-105703889D01*
D37*
X18990000Y-103292500D02*
X23222500Y-103292500D01*
D36*
X39160000Y-90930000D02*
X39160000Y-87210000D01*
X20920000Y-27820000D02*
X23560000Y-27820000D01*
X24420000Y-47813535D02*
X24420000Y-49850000D01*
X20370000Y-42580000D02*
X20370000Y-43763535D01*
D37*
X22554511Y-17134469D02*
X22554511Y-24454511D01*
D36*
X36560000Y-93530000D02*
X37766111Y-94736111D01*
X37960000Y-71000000D02*
X37960000Y-66510000D01*
D37*
X22554511Y-24454511D02*
X23420000Y-25320000D01*
D36*
X22090000Y-42580000D02*
X22330000Y-42340000D01*
D37*
X23222500Y-103292500D02*
X29530000Y-109600000D01*
D36*
X36560000Y-93530000D02*
X39160000Y-90930000D01*
D37*
X16215000Y-103292500D02*
X18990000Y-103292500D01*
X15400000Y-102477500D02*
X16215000Y-103292500D01*
X33870000Y-109600000D02*
X37070000Y-106400000D01*
D36*
X20370000Y-42580000D02*
X22090000Y-42580000D01*
D37*
X29530000Y-109600000D02*
X33870000Y-109600000D01*
X23420000Y-26930000D02*
X23420000Y-27680000D01*
X29610000Y-9590166D02*
X29610000Y-6945000D01*
X26858980Y-12830000D02*
X22554511Y-17134469D01*
X26858980Y-12830000D02*
X26858980Y-12341186D01*
D36*
X37960000Y-66510000D02*
X37790000Y-66340000D01*
X37766111Y-105703889D02*
X37070000Y-106400000D01*
X21760000Y-16050000D02*
X21730000Y-16080000D01*
X34165000Y-4995000D02*
X32447289Y-6712711D01*
X21730000Y-16080000D02*
X21730000Y-20330000D01*
X35510000Y-4995000D02*
X34165000Y-4995000D01*
X21730000Y-22248980D02*
X20038980Y-23940000D01*
X32447289Y-8862711D02*
X28890000Y-12420000D01*
X21730000Y-20330000D02*
X21730000Y-22248980D01*
X32447289Y-6712711D02*
X32447289Y-8862711D01*
X19280000Y-9850000D02*
X22260000Y-12830000D01*
X22260000Y-12830000D02*
X22861020Y-12830000D01*
D37*
X16740000Y-23241020D02*
X16041020Y-23940000D01*
X16041020Y-23940000D02*
X16041020Y-20708980D01*
X16041020Y-20708980D02*
X16740000Y-20010000D01*
X16041020Y-23653480D02*
X16490000Y-23204500D01*
X16740000Y-20010000D02*
X19280000Y-20010000D01*
X16041020Y-23940000D02*
X16041020Y-23653480D01*
X52040000Y-59470000D02*
X52040000Y-27520978D01*
X49075000Y-63410000D02*
X39030000Y-63410000D01*
X46843533Y-22324511D02*
X44134511Y-22324511D01*
X44134511Y-22324511D02*
X42930000Y-21120000D01*
X35310000Y-67130000D02*
X23440000Y-67130000D01*
X39030000Y-63410000D02*
X35310000Y-67130000D01*
X52040000Y-60445000D02*
X49075000Y-63410000D01*
X52040000Y-27520978D02*
X46843533Y-22324511D01*
X52040000Y-59470000D02*
X52040000Y-60445000D01*
D36*
X51390000Y-59470000D02*
X51390000Y-28520000D01*
X51390000Y-28520000D02*
X46070000Y-23200000D01*
D37*
X50740000Y-59470000D02*
X50740000Y-38830978D01*
X48268889Y-62916111D02*
X50740000Y-60445000D01*
X44430000Y-35000000D02*
X42910000Y-33480000D01*
X50740000Y-60445000D02*
X50740000Y-59470000D01*
X46909022Y-35000000D02*
X44430000Y-35000000D01*
X23440000Y-66330000D02*
X35400000Y-66330000D01*
X50740000Y-38830978D02*
X46909022Y-35000000D01*
X35400000Y-66330000D02*
X38813889Y-62916111D01*
X38813889Y-62916111D02*
X48268889Y-62916111D01*
D36*
X50090000Y-39830000D02*
X46110000Y-35850000D01*
X50090000Y-59470000D02*
X50090000Y-39830000D01*
X35420000Y-65530000D02*
X23440000Y-65530000D01*
X49440000Y-59470000D02*
X49440000Y-40540000D01*
X49440000Y-59470000D02*
X49440000Y-60860000D01*
X49440000Y-40540000D02*
X48510000Y-39610000D01*
X38510000Y-62440000D02*
X35420000Y-65530000D01*
X48510000Y-39610000D02*
X42860000Y-39610000D01*
X49440000Y-60860000D02*
X47860000Y-62440000D01*
X47860000Y-62440000D02*
X38510000Y-62440000D01*
X48790000Y-59470000D02*
X48790000Y-50490000D01*
X48790000Y-50490000D02*
X46140000Y-47840000D01*
D37*
X48120000Y-65390000D02*
X48140000Y-65370000D01*
X44400000Y-60730000D02*
X44400000Y-61500000D01*
X44400000Y-61500000D02*
X44430000Y-61530000D01*
X46620000Y-65390000D02*
X48120000Y-65390000D01*
X33945000Y-69815000D02*
X33945000Y-68415000D01*
X23634012Y-80710588D02*
X30220000Y-74124600D01*
X23634012Y-87695988D02*
X23634012Y-80710588D01*
X22100000Y-89230000D02*
X23634012Y-87695988D01*
X30220000Y-74124600D02*
X30220000Y-73590000D01*
X32190000Y-71570000D02*
X33945000Y-69815000D01*
X40240000Y-52000000D02*
X38700000Y-53540000D01*
X48790000Y-66915500D02*
X48715500Y-66990000D01*
X29540000Y-64730000D02*
X29560000Y-64750000D01*
X42900000Y-52000000D02*
X40240000Y-52000000D01*
X48790000Y-65370000D02*
X48790000Y-66915500D01*
X23440000Y-64730000D02*
X29540000Y-64730000D01*
X35900000Y-81440000D02*
X35900000Y-82080000D01*
X25844600Y-67930000D02*
X33100000Y-75185400D01*
X35900000Y-82080000D02*
X42840000Y-89020000D01*
X33100000Y-75185400D02*
X33100000Y-80400000D01*
X34140000Y-81440000D02*
X35900000Y-81440000D01*
X23440000Y-67930000D02*
X25844600Y-67930000D01*
X33100000Y-80400000D02*
X34140000Y-81440000D01*
X47390711Y-91305711D02*
X47390711Y-96089289D01*
X47390711Y-96089289D02*
X46110000Y-97370000D01*
X35900000Y-80790000D02*
X36875000Y-80790000D01*
X36875000Y-80790000D02*
X47390711Y-91305711D01*
X34925000Y-80140000D02*
X34147500Y-79362500D01*
X25610000Y-68730000D02*
X27320000Y-70440000D01*
X29550000Y-107380000D02*
X29550000Y-91000000D01*
X39090000Y-108670000D02*
X40980000Y-106780000D01*
X35900000Y-80140000D02*
X34925000Y-80140000D01*
X29550000Y-91000000D02*
X29460000Y-90910000D01*
X33549520Y-78764520D02*
X33549520Y-74769520D01*
X30080000Y-107910000D02*
X29550000Y-107380000D01*
X23440000Y-68730000D02*
X25610000Y-68730000D01*
X40980000Y-106780000D02*
X40980000Y-106140000D01*
X33549520Y-74769520D02*
X28406979Y-69626979D01*
X28406979Y-69626979D02*
X28406979Y-69467781D01*
X34147500Y-79362500D02*
X33549520Y-78764520D01*
X48420000Y-91035000D02*
X48420000Y-106270000D01*
X36875000Y-79490000D02*
X48420000Y-91035000D01*
X35900000Y-79490000D02*
X36875000Y-79490000D01*
X48420000Y-106270000D02*
X46070000Y-108620000D01*
X22390000Y-63930000D02*
X21997125Y-64322875D01*
X23440000Y-63930000D02*
X22390000Y-63930000D01*
X38170000Y-61360000D02*
X41260000Y-61360000D01*
X42730000Y-64180000D02*
X42890000Y-64340000D01*
X41270000Y-64180000D02*
X42730000Y-64180000D01*
X21997125Y-64322875D02*
X21997125Y-65107474D01*
X23440000Y-63930000D02*
X35600000Y-63930000D01*
X42910000Y-64320000D02*
X42890000Y-64340000D01*
X19560000Y-82475990D02*
X17284010Y-80200000D01*
X50015000Y-64320000D02*
X42910000Y-64320000D01*
X50090000Y-64395000D02*
X50015000Y-64320000D01*
X50090000Y-65370000D02*
X50090000Y-64395000D01*
X19560000Y-86690000D02*
X19560000Y-82475990D01*
X35600000Y-63930000D02*
X38170000Y-61360000D01*
X38960000Y-73120000D02*
X40790000Y-73120000D01*
X44520000Y-76470000D02*
X43090000Y-76470000D01*
X42510000Y-74270000D02*
X42880000Y-74640000D01*
X40790000Y-73120000D02*
X40810000Y-73140000D01*
X51390000Y-65370000D02*
X51390000Y-72140000D01*
X20925489Y-85174511D02*
X23184501Y-82915499D01*
X23184501Y-82915499D02*
X23184501Y-74774501D01*
X20925489Y-87864511D02*
X20925489Y-85174511D01*
X19560000Y-89230000D02*
X20925489Y-87864511D01*
X21990000Y-62480000D02*
X25230000Y-62480000D01*
X42880000Y-74640000D02*
X42880000Y-76680000D01*
X51390000Y-72140000D02*
X51560000Y-72310000D01*
X23184501Y-74774501D02*
X23050000Y-74640000D01*
X25230000Y-62480000D02*
X25480000Y-62730000D01*
X43090000Y-76470000D02*
X42880000Y-76680000D01*
X21990000Y-62480000D02*
X21990000Y-63404022D01*
D36*
X35510000Y-6295000D02*
X35510000Y-6945000D01*
X39940000Y-81108900D02*
X40121100Y-81290000D01*
X39975000Y-6945000D02*
X40020000Y-6990000D01*
X42241101Y-73340407D02*
X39940000Y-75641508D01*
X42241101Y-71171101D02*
X42241101Y-73340407D01*
X35510000Y-6945000D02*
X39975000Y-6945000D01*
X40000000Y-68930000D02*
X42241101Y-71171101D01*
X39940000Y-75641508D02*
X39940000Y-81108900D01*
X35510000Y-5645000D02*
X34565000Y-5645000D01*
X34120000Y-10770000D02*
X32750000Y-12140000D01*
X34120000Y-6090000D02*
X34120000Y-10770000D01*
X34565000Y-5645000D02*
X34120000Y-6090000D01*
X27240000Y-2740000D02*
X27560000Y-2420000D01*
D37*
X27560000Y-4580000D02*
X27240000Y-4900000D01*
D36*
X27335000Y-4995000D02*
X27240000Y-4900000D01*
X27240000Y-4900000D02*
X27240000Y-2740000D01*
X29610000Y-4995000D02*
X27335000Y-4995000D01*
X29610000Y-5645000D02*
X31934852Y-5645000D01*
X50132800Y-1060000D02*
X54660800Y-5588000D01*
X36519852Y-1060000D02*
X50132800Y-1060000D01*
X31934852Y-5645000D02*
X36519852Y-1060000D01*
X29610000Y-5645000D02*
X29610000Y-6295000D01*
X24830000Y-2230000D02*
X25020000Y-2420000D01*
X16740000Y-2230000D02*
X19280000Y-2230000D01*
X19280000Y-2230000D02*
X24830000Y-2230000D01*
X46101000Y-106889000D02*
X46070000Y-106920000D01*
X46101000Y-104648000D02*
X46101000Y-106889000D01*
X46101000Y-92265500D02*
X46101000Y-95661000D01*
X46101000Y-95661000D02*
X46110000Y-95670000D01*
X46101000Y-83281000D02*
X46180000Y-83360000D01*
X46101000Y-79883000D02*
X46101000Y-83281000D01*
X46101000Y-70991000D02*
X46140000Y-71030000D01*
X46101000Y-67500500D02*
X46101000Y-70991000D01*
X46101000Y-42735500D02*
X46101000Y-46101000D01*
X46101000Y-46101000D02*
X46140000Y-46140000D01*
X46101000Y-34141000D02*
X46110000Y-34150000D01*
X46101000Y-30353000D02*
X46101000Y-34141000D01*
X46101000Y-17970500D02*
X46101000Y-21469000D01*
X46101000Y-21469000D02*
X46070000Y-21500000D01*
D37*
X42680000Y-104780000D02*
X42740000Y-104720000D01*
X42680000Y-106140000D02*
X42680000Y-104780000D01*
D36*
X42840000Y-90720000D02*
X42840000Y-92300000D01*
X42840000Y-92300000D02*
X42870000Y-92330000D01*
X44320000Y-78350000D02*
X42910000Y-78350000D01*
X42910000Y-78350000D02*
X42880000Y-78380000D01*
X42890000Y-66040000D02*
X42890000Y-66515402D01*
X42890000Y-66515402D02*
X42437701Y-66967701D01*
X42900000Y-54980000D02*
X42880000Y-55000000D01*
X42900000Y-53700000D02*
X42900000Y-54980000D01*
X42860000Y-42550000D02*
X42790000Y-42620000D01*
X42860000Y-41310000D02*
X42860000Y-42550000D01*
X42910000Y-30480000D02*
X42810000Y-30380000D01*
X42910000Y-31780000D02*
X42910000Y-30480000D01*
X42930000Y-18200000D02*
X42810000Y-18080000D01*
X42930000Y-19420000D02*
X42930000Y-18200000D01*
X42990000Y-3920000D02*
X44230000Y-3920000D01*
X42870000Y-5790000D02*
X42840000Y-5760000D01*
X42870000Y-7020000D02*
X42870000Y-5790000D01*
X41240000Y-3890000D02*
X41240000Y-5590000D01*
X41240000Y-5590000D02*
X41230000Y-5600000D01*
D37*
X18060000Y-97990000D02*
X18060000Y-98892500D01*
X18060000Y-98892500D02*
X16350000Y-100602500D01*
D36*
X33040000Y-91162500D02*
X33040000Y-90190000D01*
X33040000Y-90190000D02*
X34740000Y-88490000D01*
D37*
X18040000Y-107520000D02*
X17090000Y-108470000D01*
X18040000Y-105167500D02*
X18040000Y-107520000D01*
X33720000Y-102490000D02*
X34830000Y-101380000D01*
X33720000Y-104332500D02*
X33720000Y-102490000D01*
D36*
X39540000Y-5390000D02*
X42870000Y-8720000D01*
X42990000Y-2220000D02*
X41210000Y-2220000D01*
X39540000Y-3890000D02*
X39540000Y-5390000D01*
D37*
X42870000Y-11010000D02*
X42870000Y-8720000D01*
D36*
X41210000Y-2220000D02*
X39540000Y-3890000D01*
D37*
X16390000Y-70980000D02*
X16390000Y-69437036D01*
X37960000Y-15920000D02*
X42870000Y-11010000D01*
X16390000Y-69437036D02*
X17159631Y-68667405D01*
X11790000Y-82220000D02*
X16110000Y-82220000D01*
X12710000Y-68810000D02*
X12710000Y-68060000D01*
X13640000Y-67130000D02*
X14940000Y-67130000D01*
X16110000Y-82220000D02*
X17150000Y-83260000D01*
X12710000Y-68810000D02*
X13823801Y-69923801D01*
X13210000Y-77320000D02*
X12167237Y-77320000D01*
X10180000Y-80610000D02*
X11790000Y-82220000D01*
X12710000Y-68060000D02*
X13640000Y-67130000D01*
X13823801Y-76706199D02*
X13210000Y-77320000D01*
X13823801Y-69923801D02*
X13823801Y-76706199D01*
X10180000Y-79307237D02*
X10180000Y-80610000D01*
X17150000Y-83260000D02*
X17150000Y-90910000D01*
X12167237Y-77320000D02*
X10180000Y-79307237D01*
X28300000Y-15800000D02*
X29090000Y-15800000D01*
X29090000Y-15800000D02*
X30210000Y-14680000D01*
D36*
X46040000Y-5649000D02*
X46101000Y-5588000D01*
X46040000Y-8990000D02*
X46040000Y-5649000D01*
D37*
X49440000Y-69430000D02*
X46140000Y-72730000D01*
X49440000Y-65370000D02*
X49440000Y-69430000D01*
X50740000Y-80500000D02*
X46180000Y-85060000D01*
X50740000Y-65370000D02*
X50740000Y-80500000D01*
D36*
X47900000Y-59230000D02*
X48140000Y-59470000D01*
X46360000Y-59230000D02*
X47900000Y-59230000D01*
D37*
X32540000Y-55640000D02*
X32330000Y-55430000D01*
X32330000Y-55430000D02*
X32330000Y-52180000D01*
X35900000Y-77540000D02*
X35210089Y-76850089D01*
X35210089Y-68500089D02*
X35200000Y-68490000D01*
X35210089Y-76850089D02*
X35210089Y-68500089D01*
M02*
