G04 #@! TF.GenerationSoftware,KiCad,Pcbnew,(5.99.0-11177-g6c67dfa032)*
G04 #@! TF.CreationDate,2021-08-04T13:50:32-07:00*
G04 #@! TF.ProjectId,SCMv3,53434d76-332e-46b6-9963-61645f706362,rev?*
G04 #@! TF.SameCoordinates,Original*
G04 #@! TF.FileFunction,Paste,Top*
G04 #@! TF.FilePolarity,Positive*
%FSLAX46Y46*%
G04 Gerber Fmt 4.6, Leading zero omitted, Abs format (unit mm)*
G04 Created by KiCad (PCBNEW (5.99.0-11177-g6c67dfa032)) date 2021-08-04 13:50:32*
%MOMM*%
%LPD*%
G01*
G04 APERTURE LIST*
G04 Aperture macros list*
%AMOutline4P*
0 Free polygon, 4 corners , with rotation*
0 The origin of the aperture is its center*
0 number of corners: always 4*
0 $1 to $8 corner X, Y*
0 $9 Rotation angle, in degrees counterclockwise*
0 create outline with 4 corners*
4,1,4,$1,$2,$3,$4,$5,$6,$7,$8,$1,$2,$9*%
G04 Aperture macros list end*
%ADD10R,0.800100X0.800100*%
%ADD11R,2.750000X3.050000*%
%ADD12R,1.200000X2.200000*%
%ADD13R,1.000000X1.000000*%
%ADD14R,1.150000X1.400000*%
%ADD15R,2.499360X1.800860*%
%ADD16R,1.450000X0.450000*%
%ADD17R,0.450000X1.450000*%
%ADD18R,3.000000X1.600000*%
%ADD19R,1.000000X1.500000*%
%ADD20Outline4P,-1.100000X-0.500000X1.100000X-0.500000X0.400000X0.500000X-0.400000X0.500000X180.000000*%
%ADD21Outline4P,-1.100000X-0.425000X1.100000X-0.425000X0.500000X0.425000X-0.500000X0.425000X0.000000*%
%ADD22R,1.000000X1.800000*%
%ADD23R,2.200000X1.840000*%
%ADD24R,0.550000X1.600000*%
%ADD25R,1.600000X0.550000*%
G04 APERTURE END LIST*
D10*
X33720000Y-104269240D03*
X31820000Y-104269240D03*
X32770000Y-106268220D03*
X18040000Y-105230760D03*
X19940000Y-105230760D03*
X18990000Y-103231780D03*
X33040000Y-91099240D03*
X31140000Y-91099240D03*
X32090000Y-93098220D03*
X16350000Y-100539240D03*
X14450000Y-100539240D03*
X15400000Y-102538220D03*
D11*
X17115000Y-35795000D03*
X20165000Y-32445000D03*
X20165000Y-35795000D03*
X17115000Y-32445000D03*
D12*
X20920000Y-27820000D03*
X16360000Y-27820000D03*
D13*
X42860000Y-39610000D03*
X42860000Y-41310000D03*
X53950000Y-64320000D03*
X55650000Y-64320000D03*
D14*
X21240000Y-75550000D03*
X19740000Y-73450000D03*
X21240000Y-73450000D03*
X19740000Y-75550000D03*
D13*
X46110000Y-35850000D03*
X46110000Y-34150000D03*
X46070000Y-108620000D03*
X46070000Y-106920000D03*
X7870000Y-22160000D03*
X7870000Y-23860000D03*
X28300000Y-15800000D03*
X28300000Y-17500000D03*
X17710000Y-73690000D03*
X17710000Y-75390000D03*
X22640000Y-100310000D03*
X20940000Y-100310000D03*
X46180000Y-85060000D03*
X46180000Y-83360000D03*
D10*
X6850000Y-27520760D03*
X8750000Y-27520760D03*
X7800000Y-25521780D03*
D13*
X33410000Y-59660000D03*
X31710000Y-59660000D03*
X42930000Y-21120000D03*
X42930000Y-19420000D03*
D10*
X22650000Y-96459240D03*
X20750000Y-96459240D03*
X21700000Y-98458220D03*
D13*
X7600000Y-83200000D03*
X9300000Y-83200000D03*
X46140000Y-72730000D03*
X46140000Y-71030000D03*
D15*
X16041020Y-23940000D03*
X20038980Y-23940000D03*
D16*
X35900000Y-81440000D03*
X35900000Y-80790000D03*
X35900000Y-80140000D03*
X35900000Y-79490000D03*
X35900000Y-78840000D03*
X35900000Y-78190000D03*
X35900000Y-77540000D03*
X30000000Y-77540000D03*
X30000000Y-78190000D03*
X30000000Y-78840000D03*
X30000000Y-79490000D03*
X30000000Y-80140000D03*
X30000000Y-80790000D03*
X30000000Y-81440000D03*
D13*
X40980000Y-106140000D03*
X42680000Y-106140000D03*
X21100000Y-59810000D03*
X19400000Y-59810000D03*
X21730000Y-20330000D03*
X23430000Y-20330000D03*
X42910000Y-33480000D03*
X42910000Y-31780000D03*
X34830000Y-101380000D03*
X36530000Y-101380000D03*
X9790000Y-23540000D03*
X11490000Y-23540000D03*
X5780000Y-81340000D03*
X5780000Y-83040000D03*
X11740000Y-86780000D03*
X10040000Y-86780000D03*
X34860000Y-93530000D03*
X36560000Y-93530000D03*
D10*
X13670000Y-88430760D03*
X15570000Y-88430760D03*
X14620000Y-86431780D03*
D13*
X27920000Y-81580000D03*
X27920000Y-79880000D03*
X46360000Y-59230000D03*
X46360000Y-60930000D03*
X44400000Y-60730000D03*
X44400000Y-59030000D03*
X21250000Y-77670000D03*
X19550000Y-77670000D03*
X12710000Y-68810000D03*
X12710000Y-70510000D03*
D17*
X52040000Y-59470000D03*
X51390000Y-59470000D03*
X50740000Y-59470000D03*
X50090000Y-59470000D03*
X49440000Y-59470000D03*
X48790000Y-59470000D03*
X48140000Y-59470000D03*
X48140000Y-65370000D03*
X48790000Y-65370000D03*
X49440000Y-65370000D03*
X50090000Y-65370000D03*
X50740000Y-65370000D03*
X51390000Y-65370000D03*
X52040000Y-65370000D03*
D13*
X9000000Y-59080000D03*
X10700000Y-59080000D03*
X9040000Y-11720000D03*
X10740000Y-11720000D03*
D18*
X16730000Y-47330000D03*
X21130000Y-47330000D03*
X13090000Y-31670000D03*
X8690000Y-31670000D03*
D13*
X39540000Y-3890000D03*
X41240000Y-3890000D03*
X17090000Y-108470000D03*
X15390000Y-108470000D03*
X34740000Y-88490000D03*
X36440000Y-88490000D03*
X7310000Y-57530000D03*
X7310000Y-59230000D03*
X38620000Y-10620000D03*
X38620000Y-12320000D03*
D16*
X35510000Y-6945000D03*
X35510000Y-6295000D03*
X35510000Y-5645000D03*
X35510000Y-4995000D03*
X29610000Y-4995000D03*
X29610000Y-5645000D03*
X29610000Y-6295000D03*
X29610000Y-6945000D03*
D13*
X42870000Y-8720000D03*
X42870000Y-7020000D03*
D10*
X5690000Y-15780760D03*
X7590000Y-15780760D03*
X6640000Y-13781780D03*
D13*
X7890000Y-39710000D03*
X7890000Y-41410000D03*
X42890000Y-64340000D03*
X42890000Y-66040000D03*
X42900000Y-52000000D03*
X42900000Y-53700000D03*
D19*
X17370000Y-42580000D03*
D20*
X18870000Y-41176200D03*
D21*
X18870000Y-38433000D03*
D22*
X18870000Y-42433500D03*
D23*
X18870000Y-39766500D03*
D19*
X20370000Y-42580000D03*
D13*
X46110000Y-97370000D03*
X46110000Y-95670000D03*
X16790000Y-93140000D03*
X15090000Y-93140000D03*
X27240000Y-4900000D03*
X25540000Y-4900000D03*
X42840000Y-89020000D03*
X42840000Y-90720000D03*
D15*
X26858980Y-12830000D03*
X22861020Y-12830000D03*
D18*
X24280000Y-28540000D03*
X28680000Y-28540000D03*
D10*
X6920000Y-44930760D03*
X8820000Y-44930760D03*
X7870000Y-42931780D03*
D13*
X6610000Y-9890000D03*
X6610000Y-11590000D03*
X42880000Y-76680000D03*
X42880000Y-78380000D03*
X15020000Y-106650000D03*
X15020000Y-104950000D03*
X14580000Y-84760000D03*
X14580000Y-83060000D03*
X9630000Y-41450000D03*
X11330000Y-41450000D03*
D10*
X13099240Y-73620000D03*
X13099240Y-75520000D03*
X15098220Y-74570000D03*
D13*
X35370000Y-106400000D03*
X37070000Y-106400000D03*
X46140000Y-47840000D03*
X46140000Y-46140000D03*
D10*
X7069240Y-65020000D03*
X7069240Y-66920000D03*
X9068220Y-65970000D03*
D13*
X38320000Y-74930000D03*
X36620000Y-74930000D03*
D10*
X4830000Y-86570760D03*
X6730000Y-86570760D03*
X5780000Y-84571780D03*
D13*
X46040000Y-8990000D03*
X46040000Y-10690000D03*
X46070000Y-23200000D03*
X46070000Y-21500000D03*
X10800000Y-66080000D03*
X10800000Y-67780000D03*
X22990000Y-102080000D03*
X24690000Y-102080000D03*
D24*
X16390000Y-70980000D03*
X17190000Y-70980000D03*
X17990000Y-70980000D03*
X18790000Y-70980000D03*
X19590000Y-70980000D03*
X20390000Y-70980000D03*
X21190000Y-70980000D03*
X21990000Y-70980000D03*
D25*
X23440000Y-69530000D03*
X23440000Y-68730000D03*
X23440000Y-67930000D03*
X23440000Y-67130000D03*
X23440000Y-66330000D03*
X23440000Y-65530000D03*
X23440000Y-64730000D03*
X23440000Y-63930000D03*
D24*
X21990000Y-62480000D03*
X21190000Y-62480000D03*
X20390000Y-62480000D03*
X19590000Y-62480000D03*
X18790000Y-62480000D03*
X17990000Y-62480000D03*
X17190000Y-62480000D03*
X16390000Y-62480000D03*
D25*
X14940000Y-63930000D03*
X14940000Y-64730000D03*
X14940000Y-65530000D03*
X14940000Y-66330000D03*
X14940000Y-67130000D03*
X14940000Y-67930000D03*
X14940000Y-68730000D03*
X14940000Y-69530000D03*
D13*
X18060000Y-97990000D03*
X18060000Y-96290000D03*
X15070000Y-77200000D03*
X15070000Y-78900000D03*
X36360000Y-50000000D03*
X34660000Y-50000000D03*
X22330000Y-42340000D03*
X24030000Y-42340000D03*
D10*
X6350000Y-62760760D03*
X8250000Y-62760760D03*
X7300000Y-60761780D03*
D13*
X42990000Y-2220000D03*
X42990000Y-3920000D03*
X32330000Y-52180000D03*
X34030000Y-52180000D03*
M02*
