G04 #@! TF.GenerationSoftware,KiCad,Pcbnew,(5.99.0-11177-g6c67dfa032)*
G04 #@! TF.CreationDate,2021-08-04T13:50:32-07:00*
G04 #@! TF.ProjectId,SCMv3,53434d76-332e-46b6-9963-61645f706362,rev?*
G04 #@! TF.SameCoordinates,Original*
G04 #@! TF.FileFunction,Copper,L2,Bot*
G04 #@! TF.FilePolarity,Positive*
%FSLAX46Y46*%
G04 Gerber Fmt 4.6, Leading zero omitted, Abs format (unit mm)*
G04 Created by KiCad (PCBNEW (5.99.0-11177-g6c67dfa032)) date 2021-08-04 13:50:32*
%MOMM*%
%LPD*%
G01*
G04 APERTURE LIST*
G04 #@! TA.AperFunction,ComponentPad*
%ADD10C,1.651000*%
G04 #@! TD*
G04 #@! TA.AperFunction,ComponentPad*
%ADD11C,1.397000*%
G04 #@! TD*
G04 #@! TA.AperFunction,ComponentPad*
%ADD12R,1.700000X1.700000*%
G04 #@! TD*
G04 #@! TA.AperFunction,ComponentPad*
%ADD13O,1.700000X1.700000*%
G04 #@! TD*
G04 #@! TA.AperFunction,ComponentPad*
%ADD14C,1.930400*%
G04 #@! TD*
G04 #@! TA.AperFunction,ComponentPad*
%ADD15C,1.524000*%
G04 #@! TD*
G04 #@! TA.AperFunction,ComponentPad*
%ADD16R,1.270000X1.270000*%
G04 #@! TD*
G04 #@! TA.AperFunction,ComponentPad*
%ADD17C,1.803400*%
G04 #@! TD*
G04 #@! TA.AperFunction,ComponentPad*
%ADD18C,2.667000*%
G04 #@! TD*
G04 #@! TA.AperFunction,SMDPad,CuDef*
%ADD19R,1.100000X1.500000*%
G04 #@! TD*
G04 #@! TA.AperFunction,ViaPad*
%ADD20C,0.800000*%
G04 #@! TD*
G04 #@! TA.AperFunction,Conductor*
%ADD21C,0.250000*%
G04 #@! TD*
G04 #@! TA.AperFunction,Conductor*
%ADD22C,0.203200*%
G04 #@! TD*
G04 APERTURE END LIST*
D10*
X16740000Y-2230000D03*
X19280000Y-2230000D03*
X16740000Y-4770000D03*
X19280000Y-4770000D03*
X16740000Y-7310000D03*
X19280000Y-7310000D03*
X16740000Y-9850000D03*
X19280000Y-9850000D03*
X16740000Y-12390000D03*
X19280000Y-12390000D03*
X16740000Y-14930000D03*
X19280000Y-14930000D03*
X16740000Y-17470000D03*
X19280000Y-17470000D03*
X16740000Y-20010000D03*
X19280000Y-20010000D03*
D11*
X30210000Y-14680000D03*
X32750000Y-12140000D03*
X35290000Y-14680000D03*
D12*
X19560000Y-86690000D03*
D13*
X22100000Y-86690000D03*
X19560000Y-89230000D03*
X22100000Y-89230000D03*
X19560000Y-91770000D03*
X22100000Y-91770000D03*
D10*
X27560000Y-2420000D03*
X25020000Y-2420000D03*
D14*
X46101000Y-17970500D03*
X57073800Y-17970500D03*
X54660800Y-17970500D03*
D15*
X5257800Y-90512900D03*
X7797800Y-90512900D03*
X10337800Y-90512900D03*
X5257800Y-95592900D03*
X7797800Y-95592900D03*
X10337800Y-95592900D03*
D16*
X2717800Y-93052900D03*
D15*
X12877800Y-93052900D03*
D14*
X36499800Y-9029700D03*
X25527000Y-9029700D03*
X27940000Y-9029700D03*
X36499800Y-34429700D03*
X25527000Y-34429700D03*
X27940000Y-34429700D03*
D17*
X5257963Y-37323457D03*
X7797963Y-37323457D03*
X10337963Y-37323457D03*
D18*
X3403763Y-44333857D03*
X12192163Y-44333857D03*
D19*
X41312400Y-90765500D03*
X41312400Y-93765500D03*
X42812400Y-93765500D03*
X42812400Y-90765500D03*
D14*
X46101000Y-30353000D03*
X57073800Y-30353000D03*
X54660800Y-30353000D03*
X46101000Y-42735500D03*
X57073800Y-42735500D03*
X54660800Y-42735500D03*
D17*
X5257963Y-19670457D03*
X7797963Y-19670457D03*
X10337963Y-19670457D03*
D18*
X3403763Y-26680857D03*
X12192163Y-26680857D03*
D17*
X5257963Y-72629457D03*
X7797963Y-72629457D03*
X10337963Y-72629457D03*
D18*
X3403763Y-79639857D03*
X12192163Y-79639857D03*
D14*
X46101000Y-104648000D03*
X57073800Y-104648000D03*
X54660800Y-104648000D03*
X36499800Y-72529700D03*
X25527000Y-72529700D03*
X27940000Y-72529700D03*
X36499800Y-97929700D03*
X25527000Y-97929700D03*
X27940000Y-97929700D03*
D15*
X5257800Y-102450900D03*
X7797800Y-102450900D03*
X10337800Y-102450900D03*
X5257800Y-107530900D03*
X7797800Y-107530900D03*
X10337800Y-107530900D03*
D16*
X2717800Y-104990900D03*
D15*
X12877800Y-104990900D03*
D14*
X46101000Y-5588000D03*
X57073800Y-5588000D03*
X54660800Y-5588000D03*
X36499800Y-59829700D03*
X25527000Y-59829700D03*
X27940000Y-59829700D03*
X46101000Y-92265500D03*
X57073800Y-92265500D03*
X54660800Y-92265500D03*
X46101000Y-67500500D03*
X57073800Y-67500500D03*
X54660800Y-67500500D03*
X36499800Y-47129700D03*
X25527000Y-47129700D03*
X27940000Y-47129700D03*
X36499800Y-85229700D03*
X25527000Y-85229700D03*
X27940000Y-85229700D03*
D19*
X41312400Y-41235500D03*
X41312400Y-44235500D03*
X42812400Y-44235500D03*
X42812400Y-41235500D03*
D17*
X5257963Y-54976457D03*
X7797963Y-54976457D03*
X10337963Y-54976457D03*
D18*
X3403763Y-61986857D03*
X12192163Y-61986857D03*
D19*
X41312400Y-4088000D03*
X41312400Y-7088000D03*
X42812400Y-7088000D03*
X42812400Y-4088000D03*
D17*
X5257963Y-2017457D03*
X7797963Y-2017457D03*
X10337963Y-2017457D03*
D18*
X3403763Y-9027857D03*
X12192163Y-9027857D03*
D19*
X41312400Y-28853000D03*
X41312400Y-31853000D03*
X42812400Y-31853000D03*
X42812400Y-28853000D03*
X41312400Y-66000500D03*
X41312400Y-69000500D03*
X42812400Y-69000500D03*
X42812400Y-66000500D03*
D14*
X46101000Y-79883000D03*
X57073800Y-79883000D03*
X54660800Y-79883000D03*
D19*
X41312400Y-16470500D03*
X41312400Y-19470500D03*
X42812400Y-19470500D03*
X42812400Y-16470500D03*
X41312400Y-53618000D03*
X41312400Y-56618000D03*
X42812400Y-56618000D03*
X42812400Y-53618000D03*
X41312400Y-78383000D03*
X41312400Y-81383000D03*
X42812400Y-81383000D03*
X42812400Y-78383000D03*
D14*
X46101000Y-55118000D03*
X57073800Y-55118000D03*
X54660800Y-55118000D03*
X36499800Y-21729700D03*
X25527000Y-21729700D03*
X27940000Y-21729700D03*
D19*
X41312400Y-103148000D03*
X41312400Y-106148000D03*
X42812400Y-106148000D03*
X42812400Y-103148000D03*
D20*
X30805275Y-49444918D03*
X11490000Y-34120000D03*
X19400000Y-58060000D03*
X37970000Y-58140000D03*
X35820000Y-26750000D03*
X11110000Y-88430000D03*
X25190000Y-27010000D03*
X22340000Y-51840000D03*
X31370000Y-29610000D03*
X47400000Y-26730000D03*
X8670000Y-33420000D03*
X21190000Y-79020000D03*
X26590000Y-104640000D03*
X19120000Y-27070000D03*
X31380000Y-50870000D03*
X27140000Y-62780000D03*
X21950000Y-81330000D03*
X13099299Y-72560000D03*
X24390000Y-17600000D03*
X37010000Y-55970000D03*
X24370000Y-81170000D03*
X16800000Y-94600000D03*
X25830000Y-79710000D03*
X18420000Y-63990000D03*
X31790000Y-78160000D03*
X48020000Y-61020000D03*
X7399143Y-26680857D03*
X34430000Y-78140000D03*
X22570000Y-9100000D03*
X18070000Y-69080000D03*
X22160000Y-49530000D03*
X19380000Y-49940000D03*
X4750000Y-87940000D03*
X20460000Y-21190000D03*
X16570000Y-105320000D03*
X6160000Y-44070000D03*
X22100000Y-94670000D03*
X30420000Y-104670000D03*
X55840000Y-62100000D03*
X19680000Y-68780000D03*
X9120000Y-25650000D03*
X8600000Y-85360000D03*
X5257963Y-66912037D03*
X7220000Y-63700000D03*
X13580000Y-51130000D03*
X15630000Y-89600000D03*
X32070000Y-17820000D03*
X14110000Y-40930000D03*
X18418900Y-30000000D03*
X9140000Y-21700000D03*
X8840000Y-46870000D03*
X7380000Y-81160000D03*
X19480000Y-100370000D03*
X13870000Y-12520000D03*
X24410011Y-18859989D03*
X32521100Y-94560000D03*
X31170000Y-107510000D03*
X39620000Y-15510000D03*
X19830000Y-64090000D03*
X24920000Y-77610000D03*
X16295500Y-86028336D03*
X9170000Y-13610000D03*
X14600000Y-52400000D03*
X12240000Y-66380000D03*
X10040000Y-46180000D03*
X31950000Y-19980000D03*
X16960000Y-65540000D03*
X38340000Y-13670000D03*
X23340000Y-24020000D03*
X31370000Y-61840000D03*
X19180000Y-64950000D03*
X9560000Y-81340000D03*
X11270000Y-63990000D03*
X36430000Y-76150000D03*
X8960000Y-78650000D03*
X31920000Y-57210000D03*
X17740000Y-54960000D03*
X21160000Y-82900000D03*
X26340000Y-81710000D03*
X15910000Y-49080000D03*
X17520000Y-78750000D03*
X17740000Y-49000000D03*
X20802201Y-57050000D03*
X53420000Y-57050000D03*
X44350000Y-57090000D03*
X23420000Y-25320000D03*
X37790000Y-66340000D03*
X23420000Y-26930000D03*
X24420000Y-49850000D03*
X37960000Y-71000000D03*
X22330000Y-40970000D03*
X22940000Y-33170000D03*
X39080000Y-87130000D03*
X21760000Y-16050000D03*
X28890000Y-12420000D03*
X44430000Y-61530000D03*
X46620000Y-65390000D03*
X48715500Y-66990000D03*
X38700000Y-53540000D03*
X33945000Y-68415000D03*
X32190000Y-71570000D03*
X30220000Y-73590000D03*
X29560000Y-64750000D03*
X27320000Y-70440000D03*
X30080000Y-107910000D03*
X39090000Y-108670000D03*
X28406979Y-69467781D03*
X29460000Y-90910000D03*
X34147500Y-79362500D03*
X17284010Y-80200000D03*
X41270000Y-64180000D03*
X21997125Y-65107474D03*
X41260000Y-61360000D03*
X25480000Y-62730000D03*
X23050000Y-74640000D03*
X51560000Y-72310000D03*
X44520000Y-76470000D03*
X40810000Y-73140000D03*
X42510000Y-74270000D03*
X38960000Y-73120000D03*
X40020000Y-6990000D03*
X40000000Y-68930000D03*
X40121100Y-81290000D03*
X42740000Y-104720000D03*
X42870000Y-92330000D03*
X44320000Y-78350000D03*
X42437701Y-66967701D03*
X42880000Y-55000000D03*
X42790000Y-42620000D03*
X42810000Y-30380000D03*
X42810000Y-18080000D03*
X44230000Y-3920000D03*
X42840000Y-5760000D03*
X41230000Y-5600000D03*
X17159631Y-68667405D03*
X37960000Y-15920000D03*
X17150000Y-90910000D03*
X32540000Y-55640000D03*
X35200000Y-68490000D03*
D21*
X3403763Y-44333857D02*
X5896143Y-44333857D01*
D22*
X22640300Y-9029700D02*
X25527000Y-9029700D01*
X10337963Y-72629457D02*
X13029844Y-72629457D01*
X26590000Y-104640000D02*
X30390000Y-104640000D01*
D21*
X3403763Y-61986857D02*
X12192163Y-61986857D01*
X3403763Y-26680857D02*
X7399143Y-26680857D01*
X18420000Y-68730000D02*
X18070000Y-69080000D01*
D22*
X27140000Y-67500000D02*
X25527000Y-69113000D01*
D21*
X5240000Y-88430000D02*
X4750000Y-87940000D01*
D22*
X22570000Y-9100000D02*
X22640300Y-9029700D01*
X25527000Y-18737000D02*
X24390000Y-17600000D01*
D21*
X3403763Y-79639857D02*
X12192163Y-79639857D01*
D22*
X22160000Y-49530000D02*
X22160000Y-51660000D01*
X53450800Y-26730000D02*
X57073800Y-30353000D01*
D21*
X16800000Y-94600000D02*
X22030000Y-94600000D01*
X22030000Y-94600000D02*
X22100000Y-94670000D01*
D22*
X48020000Y-61020000D02*
X54760000Y-61020000D01*
X30390000Y-104640000D02*
X30420000Y-104670000D01*
X25910000Y-105320000D02*
X16570000Y-105320000D01*
D21*
X19400000Y-58060000D02*
X19380000Y-58040000D01*
X21950000Y-81330000D02*
X24210000Y-81330000D01*
D22*
X19770000Y-21190000D02*
X20460000Y-21190000D01*
X19280000Y-12390000D02*
X22570000Y-9100000D01*
D21*
X12192163Y-44333857D02*
X6423857Y-44333857D01*
D22*
X31370000Y-29610000D02*
X34230000Y-26750000D01*
X11490000Y-34120000D02*
X10790000Y-33420000D01*
X12192163Y-79639857D02*
X12192163Y-79243931D01*
X34230000Y-26750000D02*
X35820000Y-26750000D01*
D21*
X19380000Y-58040000D02*
X19380000Y-49940000D01*
X15554306Y-12390000D02*
X16740000Y-12390000D01*
X5896143Y-44333857D02*
X6160000Y-44070000D01*
D22*
X25190000Y-27010000D02*
X25527000Y-26673000D01*
D21*
X21190000Y-70290000D02*
X21190000Y-79020000D01*
D22*
X25527000Y-21729700D02*
X25527000Y-18737000D01*
X10790000Y-33420000D02*
X8670000Y-33420000D01*
X12192163Y-79243931D02*
X10337963Y-77389731D01*
X24260000Y-17470000D02*
X24390000Y-17600000D01*
D21*
X6423857Y-44333857D02*
X6160000Y-44070000D01*
X18420000Y-63990000D02*
X18420000Y-68730000D01*
D22*
X10337963Y-77389731D02*
X10337963Y-72629457D01*
D21*
X3403763Y-9027857D02*
X12192163Y-9027857D01*
X19680000Y-68780000D02*
X21190000Y-70290000D01*
D22*
X30805275Y-49444918D02*
X30805275Y-50295275D01*
D21*
X11110000Y-88430000D02*
X5240000Y-88430000D01*
D22*
X13029844Y-72629457D02*
X13099301Y-72560000D01*
D21*
X12192163Y-9027857D02*
X15554306Y-12390000D01*
D22*
X31790000Y-78160000D02*
X34410000Y-78160000D01*
D21*
X24370000Y-81170000D02*
X25830000Y-79710000D01*
D22*
X19280000Y-17470000D02*
X24260000Y-17470000D01*
X37010000Y-55970000D02*
X37970000Y-56930000D01*
D21*
X5257963Y-2017457D02*
X3403763Y-3871657D01*
X7399143Y-26680857D02*
X12192163Y-26680857D01*
X3403763Y-3871657D02*
X3403763Y-9027857D01*
D22*
X37970000Y-56930000D02*
X37970000Y-58140000D01*
X54760000Y-61020000D02*
X55840000Y-62100000D01*
X18030000Y-25980000D02*
X18030000Y-22930000D01*
X18030000Y-22930000D02*
X19770000Y-21190000D01*
D21*
X24210000Y-81330000D02*
X24370000Y-81170000D01*
D22*
X25527000Y-69113000D02*
X25527000Y-72529700D01*
X34410000Y-78160000D02*
X34430000Y-78140000D01*
X22160000Y-51660000D02*
X22340000Y-51840000D01*
X30805275Y-50295275D02*
X31380000Y-50870000D01*
X47400000Y-26730000D02*
X53450800Y-26730000D01*
D21*
X27940000Y-85229700D02*
X25527000Y-85229700D01*
D22*
X19120000Y-27070000D02*
X18030000Y-25980000D01*
X26590000Y-104640000D02*
X25910000Y-105320000D01*
X25527000Y-26673000D02*
X25527000Y-21729700D01*
X27140000Y-62780000D02*
X27140000Y-67500000D01*
D21*
X20734511Y-88055489D02*
X22100000Y-86690000D01*
X17774511Y-88055489D02*
X20734511Y-88055489D01*
D22*
X8600000Y-85280000D02*
X8600000Y-85360000D01*
X27940000Y-30370000D02*
X27940000Y-34429700D01*
D21*
X16230000Y-89600000D02*
X17774511Y-88055489D01*
D22*
X8840000Y-51394420D02*
X5257963Y-54976457D01*
X9140000Y-21700000D02*
X9140000Y-25630000D01*
D21*
X15630000Y-89600000D02*
X11280000Y-85250000D01*
D22*
X27940000Y-30370000D02*
X27880000Y-30430000D01*
X27940000Y-21729700D02*
X27940000Y-30370000D01*
D21*
X15630000Y-89600000D02*
X16230000Y-89600000D01*
D22*
X7380000Y-81160000D02*
X7380000Y-84060000D01*
X5257963Y-72629457D02*
X5257963Y-66912037D01*
D21*
X8710000Y-85250000D02*
X8600000Y-85360000D01*
D22*
X32070000Y-17820000D02*
X31849700Y-17820000D01*
X5257963Y-65662037D02*
X7220000Y-63700000D01*
X5257963Y-66912037D02*
X5257963Y-65662037D01*
X27880000Y-30430000D02*
X18848900Y-30430000D01*
X31849700Y-17820000D02*
X27940000Y-21729700D01*
X9140000Y-25630000D02*
X9120000Y-25650000D01*
X7380000Y-84060000D02*
X8600000Y-85280000D01*
X14110000Y-40930000D02*
X14110000Y-50600000D01*
X8840000Y-46870000D02*
X8840000Y-51394420D01*
D21*
X11280000Y-85250000D02*
X8710000Y-85250000D01*
D22*
X18848900Y-30430000D02*
X18418900Y-30000000D01*
X14110000Y-50600000D02*
X13580000Y-51130000D01*
D21*
X7797800Y-102450900D02*
X9878700Y-100370000D01*
X9878700Y-100370000D02*
X19480000Y-100370000D01*
X13870000Y-16226362D02*
X16503627Y-18859989D01*
X13870000Y-12520000D02*
X13870000Y-16226362D01*
X16503627Y-18859989D02*
X24410011Y-18859989D01*
D22*
X10337800Y-95592900D02*
X31488200Y-95592900D01*
X31488200Y-95592900D02*
X32521100Y-94560000D01*
D21*
X16270000Y-91840000D02*
X18270000Y-93840000D01*
X27889500Y-93840000D02*
X36499800Y-85229700D01*
X9010700Y-91840000D02*
X16270000Y-91840000D01*
X18270000Y-93840000D02*
X27889500Y-93840000D01*
X5257800Y-95592900D02*
X9010700Y-91840000D01*
X11448700Y-106420000D02*
X30080000Y-106420000D01*
X30080000Y-106420000D02*
X31170000Y-107510000D01*
X10337800Y-107530900D02*
X11448700Y-106420000D01*
X30892089Y-103537411D02*
X36499800Y-97929700D01*
X9251289Y-103537411D02*
X30892089Y-103537411D01*
X5257800Y-107530900D02*
X9251289Y-103537411D01*
D22*
X20101101Y-55050407D02*
X20101101Y-63818899D01*
X39620000Y-29518665D02*
X20081101Y-49057564D01*
X20081101Y-55030407D02*
X20101101Y-55050407D01*
X20081101Y-49057564D02*
X20081101Y-55030407D01*
X20101101Y-63818899D02*
X19830000Y-64090000D01*
X39620000Y-15510000D02*
X39620000Y-29518665D01*
X16295500Y-85862992D02*
X16295500Y-86028344D01*
X24548492Y-77610000D02*
X16295500Y-85862992D01*
X24920000Y-77610000D02*
X24548492Y-77610000D01*
X9170000Y-13610000D02*
X15024500Y-19464500D01*
X15024500Y-19464500D02*
X15024500Y-49395980D01*
X14600000Y-49820480D02*
X14600000Y-52400000D01*
X15024500Y-49395980D02*
X14600000Y-49820480D01*
D21*
X12843890Y-48983890D02*
X12843890Y-59513890D01*
X13950000Y-63220000D02*
X12240000Y-64930000D01*
X13950000Y-60620000D02*
X13950000Y-63220000D01*
X12240000Y-64930000D02*
X12240000Y-66380000D01*
X12843890Y-59513890D02*
X13950000Y-60620000D01*
X10040000Y-46180000D02*
X12843890Y-48983890D01*
X38260000Y-13670000D02*
X38340000Y-13670000D01*
X16960000Y-30400000D02*
X23340000Y-24020000D01*
X16960000Y-65540000D02*
X16960000Y-30400000D01*
X31950000Y-19980000D02*
X38260000Y-13670000D01*
X20154600Y-64950000D02*
X19180000Y-64950000D01*
X23264600Y-61840000D02*
X20154600Y-64950000D01*
X31370000Y-61840000D02*
X23264600Y-61840000D01*
X17635400Y-83870000D02*
X12090000Y-83870000D01*
X12090000Y-83870000D02*
X9560000Y-81340000D01*
X25409901Y-76095499D02*
X17635400Y-83870000D01*
D22*
X11270000Y-63990000D02*
X9000774Y-66259226D01*
X9000774Y-66259226D02*
X9000774Y-78609226D01*
X9000774Y-78609226D02*
X8960000Y-78650000D01*
D21*
X36430000Y-76150000D02*
X36375499Y-76095499D01*
X36375499Y-76095499D02*
X25409901Y-76095499D01*
D22*
X44410000Y-57150000D02*
X44350000Y-57090000D01*
X17740000Y-49000000D02*
X17740000Y-54960000D01*
X21160000Y-82900000D02*
X25150000Y-82900000D01*
X16512211Y-51870745D02*
X14430000Y-53952956D01*
X15594026Y-49395974D02*
X16512211Y-50314159D01*
X25150000Y-82900000D02*
X26340000Y-81710000D01*
X53320000Y-57150000D02*
X44410000Y-57150000D01*
X31760000Y-57050000D02*
X20802201Y-57050000D01*
X14430000Y-75660000D02*
X17520000Y-78750000D01*
X31920000Y-57210000D02*
X31760000Y-57050000D01*
X14430000Y-53952956D02*
X14430000Y-75660000D01*
X16512211Y-50314159D02*
X16512211Y-51870745D01*
X53420000Y-57050000D02*
X53320000Y-57150000D01*
X15910000Y-49080000D02*
X15594026Y-49395974D01*
X37790000Y-66340000D02*
X37790000Y-59329065D01*
X39420000Y-74660000D02*
X39661101Y-74418899D01*
X39661101Y-72701101D02*
X37960000Y-71000000D01*
X22330000Y-33780000D02*
X22940000Y-33170000D01*
X22330000Y-40970000D02*
X22330000Y-33780000D01*
X39420000Y-86790000D02*
X39420000Y-74660000D01*
X39080000Y-87130000D02*
X39420000Y-86790000D01*
D21*
X23420000Y-25320000D02*
X23420000Y-26930000D01*
D22*
X39661101Y-74418899D02*
X39661101Y-72701101D01*
X32616834Y-54155899D02*
X28725899Y-54155899D01*
X37790000Y-59329065D02*
X32616834Y-54155899D01*
X28725899Y-54155899D02*
X24420000Y-49850000D01*
X28890000Y-12420000D02*
X25260000Y-16050000D01*
X25260000Y-16050000D02*
X21760000Y-16050000D01*
D21*
X16740000Y-9850000D02*
X19280000Y-9850000D01*
X44430000Y-61530000D02*
X44430000Y-63200000D01*
X44430000Y-63200000D02*
X46620000Y-65390000D01*
X38700000Y-70070000D02*
X38694989Y-70075011D01*
X32080000Y-71570000D02*
X30220000Y-73430000D01*
X38694989Y-70075011D02*
X45734989Y-70075011D01*
X32190000Y-71570000D02*
X32080000Y-71570000D01*
X30280000Y-64750000D02*
X29560000Y-64750000D01*
X35605011Y-70075011D02*
X30280000Y-64750000D01*
X30220000Y-73430000D02*
X30220000Y-73590000D01*
X38694989Y-70075011D02*
X35605011Y-70075011D01*
X45734989Y-70075011D02*
X48715500Y-67094500D01*
X38700000Y-53540000D02*
X38700000Y-70070000D01*
X48715500Y-67094500D02*
X48715500Y-66990000D01*
X27434760Y-70440000D02*
X27320000Y-70440000D01*
X28406979Y-69467781D02*
X27434760Y-70440000D01*
X30080000Y-107910000D02*
X30840000Y-108670000D01*
X34147500Y-79362500D02*
X34147500Y-83862500D01*
X34147500Y-83862500D02*
X29460000Y-88550000D01*
X30840000Y-108670000D02*
X39090000Y-108670000D01*
X29460000Y-88550000D02*
X29460000Y-90910000D01*
X41270000Y-64180000D02*
X41270000Y-61370000D01*
X21997125Y-65107474D02*
X18955499Y-68149100D01*
X41270000Y-61370000D02*
X41260000Y-61360000D01*
X18955499Y-78528511D02*
X17284010Y-80200000D01*
X18955499Y-68149100D02*
X18955499Y-78528511D01*
X23880000Y-73810000D02*
X23050000Y-74640000D01*
X23050000Y-74640000D02*
X37440000Y-74640000D01*
X23880000Y-64330000D02*
X23880000Y-73810000D01*
X37440000Y-74640000D02*
X38960000Y-73120000D01*
X41380000Y-73140000D02*
X42510000Y-74270000D01*
X47400000Y-76470000D02*
X44520000Y-76470000D01*
X25480000Y-62730000D02*
X23880000Y-64330000D01*
X40810000Y-73140000D02*
X41380000Y-73140000D01*
X51560000Y-72310000D02*
X47400000Y-76470000D01*
D22*
X40461289Y-18619389D02*
X41312400Y-19470500D01*
X40020000Y-6990000D02*
X41214400Y-6990000D01*
X40461289Y-43384389D02*
X41312400Y-44235500D01*
X41312400Y-93765500D02*
X40461289Y-94616611D01*
X41312400Y-81383000D02*
X40461289Y-82234111D01*
X40461289Y-68149389D02*
X41312400Y-69000500D01*
X40461289Y-94616611D02*
X40461289Y-105296889D01*
X40214100Y-81383000D02*
X40121100Y-81290000D01*
X41312400Y-31853000D02*
X40461289Y-32704111D01*
X41312400Y-44235500D02*
X40461289Y-45086611D01*
X41312400Y-81383000D02*
X40214100Y-81383000D01*
X40461289Y-20321611D02*
X40461289Y-31001889D01*
X40461289Y-7939111D02*
X40461289Y-18619389D01*
X40461289Y-55766889D02*
X41312400Y-56618000D01*
X40461289Y-105296889D02*
X41312400Y-106148000D01*
X40461289Y-92914389D02*
X41312400Y-93765500D01*
X41312400Y-56618000D02*
X40461289Y-57469111D01*
X41312400Y-69000500D02*
X40070500Y-69000500D01*
X40461289Y-45086611D02*
X40461289Y-55766889D01*
X40461289Y-31001889D02*
X41312400Y-31853000D01*
X40461289Y-57469111D02*
X40461289Y-68149389D01*
X41312400Y-19470500D02*
X40461289Y-20321611D01*
X40070500Y-69000500D02*
X40000000Y-68930000D01*
X41214400Y-6990000D02*
X41312400Y-7088000D01*
X40461289Y-32704111D02*
X40461289Y-43384389D01*
X40461289Y-82234111D02*
X40461289Y-92914389D01*
X41312400Y-7088000D02*
X40461289Y-7939111D01*
X42880000Y-106215600D02*
X42812400Y-106148000D01*
D21*
X42740000Y-104720000D02*
X42740000Y-106075600D01*
X42740000Y-106075600D02*
X42812400Y-106148000D01*
D22*
X42812400Y-92272400D02*
X42870000Y-92330000D01*
X42890000Y-90687900D02*
X42812400Y-90765500D01*
X42812400Y-90765500D02*
X42812400Y-92272400D01*
X42920000Y-78275400D02*
X42812400Y-78383000D01*
X42812400Y-78383000D02*
X44287000Y-78383000D01*
X44287000Y-78383000D02*
X44320000Y-78350000D01*
X42812400Y-66593002D02*
X42437701Y-66967701D01*
X42812400Y-66000500D02*
X42812400Y-66593002D01*
X42950000Y-65862900D02*
X42812400Y-66000500D01*
X42812400Y-53618000D02*
X42812400Y-54932400D01*
X42850000Y-53580400D02*
X42812400Y-53618000D01*
X42812400Y-54932400D02*
X42880000Y-55000000D01*
X42812400Y-41235500D02*
X42812400Y-42597600D01*
X42812400Y-42597600D02*
X42790000Y-42620000D01*
X42812400Y-31853000D02*
X42812400Y-30382400D01*
X42812400Y-30382400D02*
X42810000Y-30380000D01*
X42812400Y-19470500D02*
X42812400Y-18082400D01*
X42812400Y-18082400D02*
X42810000Y-18080000D01*
X44230000Y-3920000D02*
X42980400Y-3920000D01*
X42980400Y-3920000D02*
X42812400Y-4088000D01*
X42812400Y-7088000D02*
X42812400Y-5787600D01*
X42812400Y-5787600D02*
X42840000Y-5760000D01*
X41230000Y-5600000D02*
X41230000Y-4170400D01*
X41230000Y-4170400D02*
X41312400Y-4088000D01*
D21*
X17690000Y-68137036D02*
X17159631Y-68667405D01*
X18655499Y-49444501D02*
X18655499Y-58969901D01*
X18655499Y-58969901D02*
X17690000Y-59935400D01*
X37960000Y-15920000D02*
X37960000Y-30140000D01*
X17690000Y-59935400D02*
X17690000Y-68137036D01*
X37960000Y-30140000D02*
X18655499Y-49444501D01*
X18010000Y-91770000D02*
X17150000Y-90910000D01*
X19560000Y-91770000D02*
X19560000Y-91980000D01*
X19560000Y-91770000D02*
X18010000Y-91770000D01*
X35200000Y-68490000D02*
X35200000Y-58300000D01*
X35200000Y-58300000D02*
X32540000Y-55640000D01*
M02*
