M48
; DRILL file {KiCad (5.99.0-11177-g6c67dfa032)} date Wednesday, August 04, 2021 at 05:18:41 PM
; FORMAT={-:-/ absolute / metric / decimal}
; #@! TF.CreationDate,2021-08-04T17:18:41-07:00
; #@! TF.GenerationSoftware,Kicad,Pcbnew,(5.99.0-11177-g6c67dfa032)
; #@! TF.FileFunction,MixedPlating,1,2
FMAT,2
METRIC
; #@! TA.AperFunction,Plated,PTH,ComponentDrill
T1C2.921
; #@! TA.AperFunction,Plated,PTH,ComponentDrill
T2C3.175
; #@! TA.AperFunction,Plated,PTH,ComponentDrill
T3C6.604
; #@! TA.AperFunction,Plated,PTH,ComponentDrill
T4C7.747
%
G90
G05
T1
X17.575Y114.097
X17.575Y101.715
X17.575Y89.332
X17.575Y76.95
X17.575Y64.567
X17.575Y52.185
X17.575Y39.802
X17.575Y27.42
X17.575Y15.037
T3
X8.244Y114.097
X8.244Y101.715
X8.244Y89.332
X8.244Y76.95
X8.244Y64.567
X8.244Y52.185
X8.244Y39.802
X8.244Y27.42
X8.244Y15.037
X28.344Y110.656
X28.344Y97.956
X28.344Y85.256
X28.344Y72.556
X28.344Y59.856
X28.344Y47.156
X28.344Y34.456
X28.344Y21.756
X51.839Y110.656
X51.839Y93.003
X51.839Y75.35
X51.839Y57.697
X51.839Y40.044
T4
X51.839Y26.633
X51.839Y14.695
T2
X5.905Y125.503G85X9.08Y125.503
G05
X5.905Y2.997G85X9.08Y2.997
G05
X51.52Y125.503G85X54.694Y125.503
G05
X51.52Y2.997G85X54.694Y2.997
G05
T0
M30
