G04 #@! TF.GenerationSoftware,KiCad,Pcbnew,(5.99.0-12261-ga2c28b18a8)*
G04 #@! TF.CreationDate,2021-10-12T13:44:05-07:00*
G04 #@! TF.ProjectId,SCMv3,53434d76-332e-46b6-9963-61645f706362,rev?*
G04 #@! TF.SameCoordinates,Original*
G04 #@! TF.FileFunction,Legend,Top*
G04 #@! TF.FilePolarity,Positive*
%FSLAX46Y46*%
G04 Gerber Fmt 4.6, Leading zero omitted, Abs format (unit mm)*
G04 Created by KiCad (PCBNEW (5.99.0-12261-ga2c28b18a8)) date 2021-10-12 13:44:05*
%MOMM*%
%LPD*%
G01*
G04 APERTURE LIST*
G04 Aperture macros list*
%AMRoundRect*
0 Rectangle with rounded corners*
0 $1 Rounding radius*
0 $2 $3 $4 $5 $6 $7 $8 $9 X,Y pos of 4 corners*
0 Add a 4 corners polygon primitive as box body*
4,1,4,$2,$3,$4,$5,$6,$7,$8,$9,$2,$3,0*
0 Add four circle primitives for the rounded corners*
1,1,$1+$1,$2,$3*
1,1,$1+$1,$4,$5*
1,1,$1+$1,$6,$7*
1,1,$1+$1,$8,$9*
0 Add four rect primitives between the rounded corners*
20,1,$1+$1,$2,$3,$4,$5,0*
20,1,$1+$1,$4,$5,$6,$7,0*
20,1,$1+$1,$6,$7,$8,$9,0*
20,1,$1+$1,$8,$9,$2,$3,0*%
%AMOutline4P*
0 Free polygon, 4 corners , with rotation*
0 The origin of the aperture is its center*
0 number of corners: always 4*
0 $1 to $8 corner X, Y*
0 $9 Rotation angle, in degrees counterclockwise*
0 create outline with 4 corners*
4,1,4,$1,$2,$3,$4,$5,$6,$7,$8,$1,$2,$9*%
G04 Aperture macros list end*
%ADD10C,0.350000*%
%ADD11C,0.150000*%
%ADD12C,0.250000*%
%ADD13C,0.300000*%
%ADD14C,0.152400*%
%ADD15C,0.101600*%
%ADD16C,0.010000*%
%ADD17C,0.120000*%
%ADD18C,0.127000*%
%ADD19C,0.508000*%
%ADD20C,0.635000*%
%ADD21C,0.100000*%
%ADD22R,1.200000X2.200000*%
%ADD23R,5.800000X6.400000*%
%ADD24R,1.000000X1.000000*%
%ADD25C,1.651000*%
%ADD26R,1.150000X1.400000*%
%ADD27R,0.800100X0.800100*%
%ADD28R,2.499360X1.800860*%
%ADD29R,1.450000X0.450000*%
%ADD30R,0.450000X1.450000*%
%ADD31R,3.000000X1.600000*%
%ADD32R,1.600000X3.000000*%
%ADD33C,1.397000*%
%ADD34R,1.700000X1.700000*%
%ADD35O,1.700000X1.700000*%
%ADD36R,1.000000X1.500000*%
%ADD37Outline4P,-1.100000X-0.500000X1.100000X-0.500000X0.400000X0.500000X-0.400000X0.500000X180.000000*%
%ADD38Outline4P,-1.100000X-0.425000X1.100000X-0.425000X0.500000X0.425000X-0.500000X0.425000X0.000000*%
%ADD39R,1.000000X1.800000*%
%ADD40R,2.200000X1.840000*%
%ADD41R,0.550000X1.600000*%
%ADD42R,1.600000X0.550000*%
%ADD43C,1.930400*%
%ADD44C,1.778000*%
%ADD45RoundRect,0.127000X0.635000X0.635000X-0.635000X0.635000X-0.635000X-0.635000X0.635000X-0.635000X0*%
%ADD46C,1.803400*%
%ADD47C,2.667000*%
G04 APERTURE END LIST*
D10*
X27670357Y-43991428D02*
X27860833Y-45324761D01*
X28384642Y-43991428D01*
X28896547Y-43324761D02*
X29825119Y-43324761D01*
X29229880Y-44086666D01*
X29444166Y-44086666D01*
X29575119Y-44181904D01*
X29634642Y-44277142D01*
X29682261Y-44467619D01*
X29622738Y-44943809D01*
X29527500Y-45134285D01*
X29444166Y-45229523D01*
X29289404Y-45324761D01*
X28860833Y-45324761D01*
X28729880Y-45229523D01*
X28670357Y-45134285D01*
X30241785Y-45134285D02*
X30301309Y-45229523D01*
X30217976Y-45324761D01*
X30158452Y-45229523D01*
X30241785Y-45134285D01*
X30217976Y-45324761D01*
X31467976Y-43324761D02*
X31610833Y-43324761D01*
X31741785Y-43420000D01*
X31801309Y-43515238D01*
X31848928Y-43705714D01*
X31872738Y-44086666D01*
X31813214Y-44562857D01*
X31694166Y-44943809D01*
X31598928Y-45134285D01*
X31515595Y-45229523D01*
X31360833Y-45324761D01*
X31217976Y-45324761D01*
X31087023Y-45229523D01*
X31027500Y-45134285D01*
X30979880Y-44943809D01*
X30956071Y-44562857D01*
X31015595Y-44086666D01*
X31134642Y-43705714D01*
X31229880Y-43515238D01*
X31313214Y-43420000D01*
X31467976Y-43324761D01*
X27558214Y-41361904D02*
X27829047Y-41480952D01*
X28305238Y-41480952D01*
X28510595Y-41361904D01*
X28620714Y-41242857D01*
X28745714Y-41004761D01*
X28775476Y-40766666D01*
X28710000Y-40528571D01*
X28629642Y-40409523D01*
X28454047Y-40290476D01*
X28087976Y-40171428D01*
X27912380Y-40052380D01*
X27832023Y-39933333D01*
X27766547Y-39695238D01*
X27796309Y-39457142D01*
X27921309Y-39219047D01*
X28031428Y-39100000D01*
X28236785Y-38980952D01*
X28712976Y-38980952D01*
X28983809Y-39100000D01*
X30715952Y-41242857D02*
X30605833Y-41361904D01*
X30305238Y-41480952D01*
X30114761Y-41480952D01*
X29843928Y-41361904D01*
X29683214Y-41123809D01*
X29617738Y-40885714D01*
X29582023Y-40409523D01*
X29626666Y-40052380D01*
X29781428Y-39576190D01*
X29906428Y-39338095D01*
X30126666Y-39100000D01*
X30427261Y-38980952D01*
X30617738Y-38980952D01*
X30888571Y-39100000D01*
X30968928Y-39219047D01*
X31543333Y-41480952D02*
X31855833Y-38980952D01*
X32299285Y-40766666D01*
X33189166Y-38980952D01*
X32876666Y-41480952D01*
X33948095Y-40528571D02*
X35471904Y-40528571D01*
X34590952Y-41480952D02*
X34829047Y-39576190D01*
D11*
X18090000Y-85250000D02*
X17330000Y-85390000D01*
X18090000Y-85250000D02*
X18110000Y-84390000D01*
X16810000Y-84220000D02*
X18090000Y-85250000D01*
D12*
X46339642Y-13691071D02*
X45768214Y-13691071D01*
X45768214Y-12191071D01*
X46739642Y-12905357D02*
X47139642Y-12905357D01*
X47311071Y-13691071D02*
X46739642Y-13691071D01*
X46739642Y-12191071D01*
X47311071Y-12191071D01*
X47825357Y-13691071D02*
X47825357Y-12191071D01*
X48111071Y-12191071D01*
X48282500Y-12262500D01*
X48396785Y-12405357D01*
X48453928Y-12548214D01*
X48511071Y-12833928D01*
X48511071Y-13048214D01*
X48453928Y-13333928D01*
X48396785Y-13476785D01*
X48282500Y-13619642D01*
X48111071Y-13691071D01*
X47825357Y-13691071D01*
X46168214Y-15320357D02*
X46339642Y-15391785D01*
X46396785Y-15463214D01*
X46453928Y-15606071D01*
X46453928Y-15820357D01*
X46396785Y-15963214D01*
X46339642Y-16034642D01*
X46225357Y-16106071D01*
X45768214Y-16106071D01*
X45768214Y-14606071D01*
X46168214Y-14606071D01*
X46282500Y-14677500D01*
X46339642Y-14748928D01*
X46396785Y-14891785D01*
X46396785Y-15034642D01*
X46339642Y-15177500D01*
X46282500Y-15248928D01*
X46168214Y-15320357D01*
X45768214Y-15320357D01*
X47653928Y-16106071D02*
X47253928Y-15391785D01*
X46968214Y-16106071D02*
X46968214Y-14606071D01*
X47425357Y-14606071D01*
X47539642Y-14677500D01*
X47596785Y-14748928D01*
X47653928Y-14891785D01*
X47653928Y-15106071D01*
X47596785Y-15248928D01*
X47539642Y-15320357D01*
X47425357Y-15391785D01*
X46968214Y-15391785D01*
X48168214Y-16106071D02*
X48168214Y-14606071D01*
X49368214Y-14677500D02*
X49253928Y-14606071D01*
X49082500Y-14606071D01*
X48911071Y-14677500D01*
X48796785Y-14820357D01*
X48739642Y-14963214D01*
X48682500Y-15248928D01*
X48682500Y-15463214D01*
X48739642Y-15748928D01*
X48796785Y-15891785D01*
X48911071Y-16034642D01*
X49082500Y-16106071D01*
X49196785Y-16106071D01*
X49368214Y-16034642D01*
X49425357Y-15963214D01*
X49425357Y-15463214D01*
X49196785Y-15463214D01*
X49939642Y-16106071D02*
X49939642Y-14606071D01*
X49939642Y-15320357D02*
X50625357Y-15320357D01*
X50625357Y-16106071D02*
X50625357Y-14606071D01*
X51025357Y-14606071D02*
X51711071Y-14606071D01*
X51368214Y-16106071D02*
X51368214Y-14606071D01*
X52111071Y-16106071D02*
X52111071Y-14606071D01*
X52796785Y-16106071D01*
X52796785Y-14606071D01*
X53368214Y-15320357D02*
X53768214Y-15320357D01*
X53939642Y-16106071D02*
X53368214Y-16106071D01*
X53368214Y-14606071D01*
X53939642Y-14606071D01*
X54396785Y-16034642D02*
X54568214Y-16106071D01*
X54853928Y-16106071D01*
X54968214Y-16034642D01*
X55025357Y-15963214D01*
X55082500Y-15820357D01*
X55082500Y-15677500D01*
X55025357Y-15534642D01*
X54968214Y-15463214D01*
X54853928Y-15391785D01*
X54625357Y-15320357D01*
X54511071Y-15248928D01*
X54453928Y-15177500D01*
X54396785Y-15034642D01*
X54396785Y-14891785D01*
X54453928Y-14748928D01*
X54511071Y-14677500D01*
X54625357Y-14606071D01*
X54911071Y-14606071D01*
X55082500Y-14677500D01*
X55539642Y-16034642D02*
X55711071Y-16106071D01*
X55996785Y-16106071D01*
X56111071Y-16034642D01*
X56168214Y-15963214D01*
X56225357Y-15820357D01*
X56225357Y-15677500D01*
X56168214Y-15534642D01*
X56111071Y-15463214D01*
X55996785Y-15391785D01*
X55768214Y-15320357D01*
X55653928Y-15248928D01*
X55596785Y-15177500D01*
X55539642Y-15034642D01*
X55539642Y-14891785D01*
X55596785Y-14748928D01*
X55653928Y-14677500D01*
X55768214Y-14606071D01*
X56053928Y-14606071D01*
X56225357Y-14677500D01*
D13*
X12730000Y-21810000D02*
X21281326Y-21812220D01*
D12*
X30437142Y-2985714D02*
X30365714Y-3057142D01*
X30151428Y-3128571D01*
X30008571Y-3128571D01*
X29794285Y-3057142D01*
X29651428Y-2914285D01*
X29580000Y-2771428D01*
X29508571Y-2485714D01*
X29508571Y-2271428D01*
X29580000Y-1985714D01*
X29651428Y-1842857D01*
X29794285Y-1700000D01*
X30008571Y-1628571D01*
X30151428Y-1628571D01*
X30365714Y-1700000D01*
X30437142Y-1771428D01*
X31794285Y-3128571D02*
X31080000Y-3128571D01*
X31080000Y-1628571D01*
X32294285Y-3128571D02*
X32294285Y-1628571D01*
X33151428Y-3128571D02*
X32508571Y-2271428D01*
X33151428Y-1628571D02*
X32294285Y-2485714D01*
X34294285Y-2342857D02*
X34508571Y-2414285D01*
X34580000Y-2485714D01*
X34651428Y-2628571D01*
X34651428Y-2842857D01*
X34580000Y-2985714D01*
X34508571Y-3057142D01*
X34365714Y-3128571D01*
X33794285Y-3128571D01*
X33794285Y-1628571D01*
X34294285Y-1628571D01*
X34437142Y-1700000D01*
X34508571Y-1771428D01*
X34580000Y-1914285D01*
X34580000Y-2057142D01*
X34508571Y-2200000D01*
X34437142Y-2271428D01*
X34294285Y-2342857D01*
X33794285Y-2342857D01*
X35294285Y-1628571D02*
X35294285Y-2842857D01*
X35365714Y-2985714D01*
X35437142Y-3057142D01*
X35580000Y-3128571D01*
X35865714Y-3128571D01*
X36008571Y-3057142D01*
X36080000Y-2985714D01*
X36151428Y-2842857D01*
X36151428Y-1628571D01*
X36794285Y-3057142D02*
X37008571Y-3128571D01*
X37365714Y-3128571D01*
X37508571Y-3057142D01*
X37580000Y-2985714D01*
X37651428Y-2842857D01*
X37651428Y-2700000D01*
X37580000Y-2557142D01*
X37508571Y-2485714D01*
X37365714Y-2414285D01*
X37080000Y-2342857D01*
X36937142Y-2271428D01*
X36865714Y-2200000D01*
X36794285Y-2057142D01*
X36794285Y-1914285D01*
X36865714Y-1771428D01*
X36937142Y-1700000D01*
X37080000Y-1628571D01*
X37437142Y-1628571D01*
X37651428Y-1700000D01*
D11*
X12427428Y-21184428D02*
X13008000Y-21184428D01*
X13770000Y-21474714D02*
X13334571Y-21474714D01*
X13552285Y-21474714D02*
X13552285Y-20712714D01*
X13479714Y-20821571D01*
X13407142Y-20894142D01*
X13334571Y-20930428D01*
X14060285Y-20785285D02*
X14096571Y-20749000D01*
X14169142Y-20712714D01*
X14350571Y-20712714D01*
X14423142Y-20749000D01*
X14459428Y-20785285D01*
X14495714Y-20857857D01*
X14495714Y-20930428D01*
X14459428Y-21039285D01*
X14024000Y-21474714D01*
X14495714Y-21474714D01*
X14713428Y-20712714D02*
X14967428Y-21474714D01*
X15221428Y-20712714D01*
X19873809Y-85122380D02*
X19873809Y-84122380D01*
X20302380Y-85074761D02*
X20445238Y-85122380D01*
X20683333Y-85122380D01*
X20778571Y-85074761D01*
X20826190Y-85027142D01*
X20873809Y-84931904D01*
X20873809Y-84836666D01*
X20826190Y-84741428D01*
X20778571Y-84693809D01*
X20683333Y-84646190D01*
X20492857Y-84598571D01*
X20397619Y-84550952D01*
X20350000Y-84503333D01*
X20302380Y-84408095D01*
X20302380Y-84312857D01*
X20350000Y-84217619D01*
X20397619Y-84170000D01*
X20492857Y-84122380D01*
X20730952Y-84122380D01*
X20873809Y-84170000D01*
X21302380Y-85122380D02*
X21302380Y-84122380D01*
X21683333Y-84122380D01*
X21778571Y-84170000D01*
X21826190Y-84217619D01*
X21873809Y-84312857D01*
X21873809Y-84455714D01*
X21826190Y-84550952D01*
X21778571Y-84598571D01*
X21683333Y-84646190D01*
X21302380Y-84646190D01*
X15152380Y-15669523D02*
X14152380Y-15669523D01*
X14152380Y-15288571D01*
X14200000Y-15193333D01*
X14247619Y-15145714D01*
X14342857Y-15098095D01*
X14485714Y-15098095D01*
X14580952Y-15145714D01*
X14628571Y-15193333D01*
X14676190Y-15288571D01*
X14676190Y-15669523D01*
X14152380Y-14479047D02*
X14152380Y-14288571D01*
X14200000Y-14193333D01*
X14295238Y-14098095D01*
X14485714Y-14050476D01*
X14819047Y-14050476D01*
X15009523Y-14098095D01*
X15104761Y-14193333D01*
X15152380Y-14288571D01*
X15152380Y-14479047D01*
X15104761Y-14574285D01*
X15009523Y-14669523D01*
X14819047Y-14717142D01*
X14485714Y-14717142D01*
X14295238Y-14669523D01*
X14200000Y-14574285D01*
X14152380Y-14479047D01*
X14152380Y-13717142D02*
X15152380Y-13479047D01*
X14438095Y-13288571D01*
X15152380Y-13098095D01*
X14152380Y-12860000D01*
X14628571Y-12479047D02*
X14628571Y-12145714D01*
X15152380Y-12002857D02*
X15152380Y-12479047D01*
X14152380Y-12479047D01*
X14152380Y-12002857D01*
X15152380Y-11002857D02*
X14676190Y-11336190D01*
X15152380Y-11574285D02*
X14152380Y-11574285D01*
X14152380Y-11193333D01*
X14200000Y-11098095D01*
X14247619Y-11050476D01*
X14342857Y-11002857D01*
X14485714Y-11002857D01*
X14580952Y-11050476D01*
X14628571Y-11098095D01*
X14676190Y-11193333D01*
X14676190Y-11574285D01*
X22280476Y-36532380D02*
X22613809Y-37532380D01*
X22947142Y-36532380D01*
X23851904Y-37532380D02*
X23518571Y-37056190D01*
X23280476Y-37532380D02*
X23280476Y-36532380D01*
X23661428Y-36532380D01*
X23756666Y-36580000D01*
X23804285Y-36627619D01*
X23851904Y-36722857D01*
X23851904Y-36865714D01*
X23804285Y-36960952D01*
X23756666Y-37008571D01*
X23661428Y-37056190D01*
X23280476Y-37056190D01*
X24804285Y-37532380D02*
X24232857Y-37532380D01*
X24518571Y-37532380D02*
X24518571Y-36532380D01*
X24423333Y-36675238D01*
X24328095Y-36770476D01*
X24232857Y-36818095D01*
X44352142Y-40904047D02*
X44135476Y-40594523D01*
X43980714Y-40904047D02*
X43980714Y-40254047D01*
X44228333Y-40254047D01*
X44290238Y-40285000D01*
X44321190Y-40315952D01*
X44352142Y-40377857D01*
X44352142Y-40470714D01*
X44321190Y-40532619D01*
X44290238Y-40563571D01*
X44228333Y-40594523D01*
X43980714Y-40594523D01*
X44971190Y-40904047D02*
X44599761Y-40904047D01*
X44785476Y-40904047D02*
X44785476Y-40254047D01*
X44723571Y-40346904D01*
X44661666Y-40408809D01*
X44599761Y-40439761D01*
X45187857Y-40254047D02*
X45621190Y-40254047D01*
X45342619Y-40904047D01*
X13791309Y-1012380D02*
X13791309Y-1726666D01*
X13743690Y-1869523D01*
X13648452Y-1964761D01*
X13505595Y-2012380D01*
X13410357Y-2012380D01*
X14172261Y-1012380D02*
X14791309Y-1012380D01*
X14457976Y-1393333D01*
X14600833Y-1393333D01*
X14696071Y-1440952D01*
X14743690Y-1488571D01*
X14791309Y-1583809D01*
X14791309Y-1821904D01*
X14743690Y-1917142D01*
X14696071Y-1964761D01*
X14600833Y-2012380D01*
X14315119Y-2012380D01*
X14219880Y-1964761D01*
X14172261Y-1917142D01*
X55392142Y-65892142D02*
X55361190Y-65923095D01*
X55268333Y-65954047D01*
X55206428Y-65954047D01*
X55113571Y-65923095D01*
X55051666Y-65861190D01*
X55020714Y-65799285D01*
X54989761Y-65675476D01*
X54989761Y-65582619D01*
X55020714Y-65458809D01*
X55051666Y-65396904D01*
X55113571Y-65335000D01*
X55206428Y-65304047D01*
X55268333Y-65304047D01*
X55361190Y-65335000D01*
X55392142Y-65365952D01*
X56011190Y-65954047D02*
X55639761Y-65954047D01*
X55825476Y-65954047D02*
X55825476Y-65304047D01*
X55763571Y-65396904D01*
X55701666Y-65458809D01*
X55639761Y-65489761D01*
X56227857Y-65304047D02*
X56661190Y-65304047D01*
X56382619Y-65954047D01*
X22756071Y-73466190D02*
X22756071Y-73942380D01*
X22422738Y-72942380D02*
X22756071Y-73466190D01*
X23089404Y-72942380D01*
X23946547Y-73942380D02*
X23375119Y-73942380D01*
X23660833Y-73942380D02*
X23660833Y-72942380D01*
X23565595Y-73085238D01*
X23470357Y-73180476D01*
X23375119Y-73228095D01*
X45682142Y-37524047D02*
X45465476Y-37214523D01*
X45310714Y-37524047D02*
X45310714Y-36874047D01*
X45558333Y-36874047D01*
X45620238Y-36905000D01*
X45651190Y-36935952D01*
X45682142Y-36997857D01*
X45682142Y-37090714D01*
X45651190Y-37152619D01*
X45620238Y-37183571D01*
X45558333Y-37214523D01*
X45310714Y-37214523D01*
X46301190Y-37524047D02*
X45929761Y-37524047D01*
X46115476Y-37524047D02*
X46115476Y-36874047D01*
X46053571Y-36966904D01*
X45991666Y-37028809D01*
X45929761Y-37059761D01*
X46548809Y-36935952D02*
X46579761Y-36905000D01*
X46641666Y-36874047D01*
X46796428Y-36874047D01*
X46858333Y-36905000D01*
X46889285Y-36935952D01*
X46920238Y-36997857D01*
X46920238Y-37059761D01*
X46889285Y-37152619D01*
X46517857Y-37524047D01*
X46920238Y-37524047D01*
X47472142Y-106934047D02*
X47255476Y-106624523D01*
X47100714Y-106934047D02*
X47100714Y-106284047D01*
X47348333Y-106284047D01*
X47410238Y-106315000D01*
X47441190Y-106345952D01*
X47472142Y-106407857D01*
X47472142Y-106500714D01*
X47441190Y-106562619D01*
X47410238Y-106593571D01*
X47348333Y-106624523D01*
X47100714Y-106624523D01*
X47688809Y-106284047D02*
X48091190Y-106284047D01*
X47874523Y-106531666D01*
X47967380Y-106531666D01*
X48029285Y-106562619D01*
X48060238Y-106593571D01*
X48091190Y-106655476D01*
X48091190Y-106810238D01*
X48060238Y-106872142D01*
X48029285Y-106903095D01*
X47967380Y-106934047D01*
X47781666Y-106934047D01*
X47719761Y-106903095D01*
X47688809Y-106872142D01*
X48648333Y-106500714D02*
X48648333Y-106934047D01*
X48493571Y-106253095D02*
X48338809Y-106717380D01*
X48741190Y-106717380D01*
X7432142Y-31394047D02*
X7215476Y-31084523D01*
X7060714Y-31394047D02*
X7060714Y-30744047D01*
X7308333Y-30744047D01*
X7370238Y-30775000D01*
X7401190Y-30805952D01*
X7432142Y-30867857D01*
X7432142Y-30960714D01*
X7401190Y-31022619D01*
X7370238Y-31053571D01*
X7308333Y-31084523D01*
X7060714Y-31084523D01*
X7679761Y-30805952D02*
X7710714Y-30775000D01*
X7772619Y-30744047D01*
X7927380Y-30744047D01*
X7989285Y-30775000D01*
X8020238Y-30805952D01*
X8051190Y-30867857D01*
X8051190Y-30929761D01*
X8020238Y-31022619D01*
X7648809Y-31394047D01*
X8051190Y-31394047D01*
X8670238Y-31394047D02*
X8298809Y-31394047D01*
X8484523Y-31394047D02*
X8484523Y-30744047D01*
X8422619Y-30836904D01*
X8360714Y-30898809D01*
X8298809Y-30929761D01*
X27632142Y-19194047D02*
X27415476Y-18884523D01*
X27260714Y-19194047D02*
X27260714Y-18544047D01*
X27508333Y-18544047D01*
X27570238Y-18575000D01*
X27601190Y-18605952D01*
X27632142Y-18667857D01*
X27632142Y-18760714D01*
X27601190Y-18822619D01*
X27570238Y-18853571D01*
X27508333Y-18884523D01*
X27260714Y-18884523D01*
X28189285Y-18760714D02*
X28189285Y-19194047D01*
X28034523Y-18513095D02*
X27879761Y-18977380D01*
X28282142Y-18977380D01*
X28498809Y-18605952D02*
X28529761Y-18575000D01*
X28591666Y-18544047D01*
X28746428Y-18544047D01*
X28808333Y-18575000D01*
X28839285Y-18605952D01*
X28870238Y-18667857D01*
X28870238Y-18729761D01*
X28839285Y-18822619D01*
X28467857Y-19194047D01*
X28870238Y-19194047D01*
X17321666Y-76952142D02*
X17290714Y-76983095D01*
X17197857Y-77014047D01*
X17135952Y-77014047D01*
X17043095Y-76983095D01*
X16981190Y-76921190D01*
X16950238Y-76859285D01*
X16919285Y-76735476D01*
X16919285Y-76642619D01*
X16950238Y-76518809D01*
X16981190Y-76456904D01*
X17043095Y-76395000D01*
X17135952Y-76364047D01*
X17197857Y-76364047D01*
X17290714Y-76395000D01*
X17321666Y-76425952D01*
X17909761Y-76364047D02*
X17600238Y-76364047D01*
X17569285Y-76673571D01*
X17600238Y-76642619D01*
X17662142Y-76611666D01*
X17816904Y-76611666D01*
X17878809Y-76642619D01*
X17909761Y-76673571D01*
X17940714Y-76735476D01*
X17940714Y-76890238D01*
X17909761Y-76952142D01*
X17878809Y-76983095D01*
X17816904Y-77014047D01*
X17662142Y-77014047D01*
X17600238Y-76983095D01*
X17569285Y-76952142D01*
X24162142Y-100734047D02*
X23945476Y-100424523D01*
X23790714Y-100734047D02*
X23790714Y-100084047D01*
X24038333Y-100084047D01*
X24100238Y-100115000D01*
X24131190Y-100145952D01*
X24162142Y-100207857D01*
X24162142Y-100300714D01*
X24131190Y-100362619D01*
X24100238Y-100393571D01*
X24038333Y-100424523D01*
X23790714Y-100424523D01*
X24409761Y-100145952D02*
X24440714Y-100115000D01*
X24502619Y-100084047D01*
X24657380Y-100084047D01*
X24719285Y-100115000D01*
X24750238Y-100145952D01*
X24781190Y-100207857D01*
X24781190Y-100269761D01*
X24750238Y-100362619D01*
X24378809Y-100734047D01*
X24781190Y-100734047D01*
X25028809Y-100145952D02*
X25059761Y-100115000D01*
X25121666Y-100084047D01*
X25276428Y-100084047D01*
X25338333Y-100115000D01*
X25369285Y-100145952D01*
X25400238Y-100207857D01*
X25400238Y-100269761D01*
X25369285Y-100362619D01*
X24997857Y-100734047D01*
X25400238Y-100734047D01*
X45862142Y-86714047D02*
X45645476Y-86404523D01*
X45490714Y-86714047D02*
X45490714Y-86064047D01*
X45738333Y-86064047D01*
X45800238Y-86095000D01*
X45831190Y-86125952D01*
X45862142Y-86187857D01*
X45862142Y-86280714D01*
X45831190Y-86342619D01*
X45800238Y-86373571D01*
X45738333Y-86404523D01*
X45490714Y-86404523D01*
X46109761Y-86125952D02*
X46140714Y-86095000D01*
X46202619Y-86064047D01*
X46357380Y-86064047D01*
X46419285Y-86095000D01*
X46450238Y-86125952D01*
X46481190Y-86187857D01*
X46481190Y-86249761D01*
X46450238Y-86342619D01*
X46078809Y-86714047D01*
X46481190Y-86714047D01*
X46852619Y-86342619D02*
X46790714Y-86311666D01*
X46759761Y-86280714D01*
X46728809Y-86218809D01*
X46728809Y-86187857D01*
X46759761Y-86125952D01*
X46790714Y-86095000D01*
X46852619Y-86064047D01*
X46976428Y-86064047D01*
X47038333Y-86095000D01*
X47069285Y-86125952D01*
X47100238Y-86187857D01*
X47100238Y-86218809D01*
X47069285Y-86280714D01*
X47038333Y-86311666D01*
X46976428Y-86342619D01*
X46852619Y-86342619D01*
X46790714Y-86373571D01*
X46759761Y-86404523D01*
X46728809Y-86466428D01*
X46728809Y-86590238D01*
X46759761Y-86652142D01*
X46790714Y-86683095D01*
X46852619Y-86714047D01*
X46976428Y-86714047D01*
X47038333Y-86683095D01*
X47069285Y-86652142D01*
X47100238Y-86590238D01*
X47100238Y-86466428D01*
X47069285Y-86404523D01*
X47038333Y-86373571D01*
X46976428Y-86342619D01*
X11402380Y-31698095D02*
X10402380Y-31698095D01*
X10402380Y-31460000D01*
X10450000Y-31317142D01*
X10545238Y-31221904D01*
X10640476Y-31174285D01*
X10830952Y-31126666D01*
X10973809Y-31126666D01*
X11164285Y-31174285D01*
X11259523Y-31221904D01*
X11354761Y-31317142D01*
X11402380Y-31460000D01*
X11402380Y-31698095D01*
X10735714Y-30269523D02*
X11402380Y-30269523D01*
X10354761Y-30507619D02*
X11069047Y-30745714D01*
X11069047Y-30126666D01*
X32392142Y-58654047D02*
X32175476Y-58344523D01*
X32020714Y-58654047D02*
X32020714Y-58004047D01*
X32268333Y-58004047D01*
X32330238Y-58035000D01*
X32361190Y-58065952D01*
X32392142Y-58127857D01*
X32392142Y-58220714D01*
X32361190Y-58282619D01*
X32330238Y-58313571D01*
X32268333Y-58344523D01*
X32020714Y-58344523D01*
X32608809Y-58004047D02*
X33011190Y-58004047D01*
X32794523Y-58251666D01*
X32887380Y-58251666D01*
X32949285Y-58282619D01*
X32980238Y-58313571D01*
X33011190Y-58375476D01*
X33011190Y-58530238D01*
X32980238Y-58592142D01*
X32949285Y-58623095D01*
X32887380Y-58654047D01*
X32701666Y-58654047D01*
X32639761Y-58623095D01*
X32608809Y-58592142D01*
X33227857Y-58004047D02*
X33661190Y-58004047D01*
X33382619Y-58654047D01*
X32674761Y-108317619D02*
X32579523Y-108270000D01*
X32484285Y-108174761D01*
X32341428Y-108031904D01*
X32246190Y-107984285D01*
X32150952Y-107984285D01*
X32198571Y-108222380D02*
X32103333Y-108174761D01*
X32008095Y-108079523D01*
X31960476Y-107889047D01*
X31960476Y-107555714D01*
X32008095Y-107365238D01*
X32103333Y-107270000D01*
X32198571Y-107222380D01*
X32389047Y-107222380D01*
X32484285Y-107270000D01*
X32579523Y-107365238D01*
X32627142Y-107555714D01*
X32627142Y-107889047D01*
X32579523Y-108079523D01*
X32484285Y-108174761D01*
X32389047Y-108222380D01*
X32198571Y-108222380D01*
X33484285Y-107555714D02*
X33484285Y-108222380D01*
X33246190Y-107174761D02*
X33008095Y-107889047D01*
X33627142Y-107889047D01*
X42881666Y-22724047D02*
X42665000Y-22414523D01*
X42510238Y-22724047D02*
X42510238Y-22074047D01*
X42757857Y-22074047D01*
X42819761Y-22105000D01*
X42850714Y-22135952D01*
X42881666Y-22197857D01*
X42881666Y-22290714D01*
X42850714Y-22352619D01*
X42819761Y-22383571D01*
X42757857Y-22414523D01*
X42510238Y-22414523D01*
X43253095Y-22352619D02*
X43191190Y-22321666D01*
X43160238Y-22290714D01*
X43129285Y-22228809D01*
X43129285Y-22197857D01*
X43160238Y-22135952D01*
X43191190Y-22105000D01*
X43253095Y-22074047D01*
X43376904Y-22074047D01*
X43438809Y-22105000D01*
X43469761Y-22135952D01*
X43500714Y-22197857D01*
X43500714Y-22228809D01*
X43469761Y-22290714D01*
X43438809Y-22321666D01*
X43376904Y-22352619D01*
X43253095Y-22352619D01*
X43191190Y-22383571D01*
X43160238Y-22414523D01*
X43129285Y-22476428D01*
X43129285Y-22600238D01*
X43160238Y-22662142D01*
X43191190Y-22693095D01*
X43253095Y-22724047D01*
X43376904Y-22724047D01*
X43438809Y-22693095D01*
X43469761Y-22662142D01*
X43500714Y-22600238D01*
X43500714Y-22476428D01*
X43469761Y-22414523D01*
X43438809Y-22383571D01*
X43376904Y-22352619D01*
X31074761Y-90097619D02*
X30979523Y-90050000D01*
X30884285Y-89954761D01*
X30741428Y-89811904D01*
X30646190Y-89764285D01*
X30550952Y-89764285D01*
X30598571Y-90002380D02*
X30503333Y-89954761D01*
X30408095Y-89859523D01*
X30360476Y-89669047D01*
X30360476Y-89335714D01*
X30408095Y-89145238D01*
X30503333Y-89050000D01*
X30598571Y-89002380D01*
X30789047Y-89002380D01*
X30884285Y-89050000D01*
X30979523Y-89145238D01*
X31027142Y-89335714D01*
X31027142Y-89669047D01*
X30979523Y-89859523D01*
X30884285Y-89954761D01*
X30789047Y-90002380D01*
X30598571Y-90002380D01*
X31408095Y-89097619D02*
X31455714Y-89050000D01*
X31550952Y-89002380D01*
X31789047Y-89002380D01*
X31884285Y-89050000D01*
X31931904Y-89097619D01*
X31979523Y-89192857D01*
X31979523Y-89288095D01*
X31931904Y-89430952D01*
X31360476Y-90002380D01*
X31979523Y-90002380D01*
X20051904Y-95652380D02*
X20051904Y-94652380D01*
X20290000Y-94652380D01*
X20432857Y-94700000D01*
X20528095Y-94795238D01*
X20575714Y-94890476D01*
X20623333Y-95080952D01*
X20623333Y-95223809D01*
X20575714Y-95414285D01*
X20528095Y-95509523D01*
X20432857Y-95604761D01*
X20290000Y-95652380D01*
X20051904Y-95652380D01*
X21528095Y-94652380D02*
X21051904Y-94652380D01*
X21004285Y-95128571D01*
X21051904Y-95080952D01*
X21147142Y-95033333D01*
X21385238Y-95033333D01*
X21480476Y-95080952D01*
X21528095Y-95128571D01*
X21575714Y-95223809D01*
X21575714Y-95461904D01*
X21528095Y-95557142D01*
X21480476Y-95604761D01*
X21385238Y-95652380D01*
X21147142Y-95652380D01*
X21051904Y-95604761D01*
X21004285Y-95557142D01*
X8582142Y-77772142D02*
X8551190Y-77803095D01*
X8458333Y-77834047D01*
X8396428Y-77834047D01*
X8303571Y-77803095D01*
X8241666Y-77741190D01*
X8210714Y-77679285D01*
X8179761Y-77555476D01*
X8179761Y-77462619D01*
X8210714Y-77338809D01*
X8241666Y-77276904D01*
X8303571Y-77215000D01*
X8396428Y-77184047D01*
X8458333Y-77184047D01*
X8551190Y-77215000D01*
X8582142Y-77245952D01*
X9201190Y-77834047D02*
X8829761Y-77834047D01*
X9015476Y-77834047D02*
X9015476Y-77184047D01*
X8953571Y-77276904D01*
X8891666Y-77338809D01*
X8829761Y-77369761D01*
X9820238Y-77834047D02*
X9448809Y-77834047D01*
X9634523Y-77834047D02*
X9634523Y-77184047D01*
X9572619Y-77276904D01*
X9510714Y-77338809D01*
X9448809Y-77369761D01*
X45652142Y-74364047D02*
X45435476Y-74054523D01*
X45280714Y-74364047D02*
X45280714Y-73714047D01*
X45528333Y-73714047D01*
X45590238Y-73745000D01*
X45621190Y-73775952D01*
X45652142Y-73837857D01*
X45652142Y-73930714D01*
X45621190Y-73992619D01*
X45590238Y-74023571D01*
X45528333Y-74054523D01*
X45280714Y-74054523D01*
X45899761Y-73775952D02*
X45930714Y-73745000D01*
X45992619Y-73714047D01*
X46147380Y-73714047D01*
X46209285Y-73745000D01*
X46240238Y-73775952D01*
X46271190Y-73837857D01*
X46271190Y-73899761D01*
X46240238Y-73992619D01*
X45868809Y-74364047D01*
X46271190Y-74364047D01*
X46487857Y-73714047D02*
X46890238Y-73714047D01*
X46673571Y-73961666D01*
X46766428Y-73961666D01*
X46828333Y-73992619D01*
X46859285Y-74023571D01*
X46890238Y-74085476D01*
X46890238Y-74240238D01*
X46859285Y-74302142D01*
X46828333Y-74333095D01*
X46766428Y-74364047D01*
X46580714Y-74364047D01*
X46518809Y-74333095D01*
X46487857Y-74302142D01*
D14*
X11886285Y-24749619D02*
X11886285Y-23733619D01*
X12128190Y-23733619D01*
X12273333Y-23782000D01*
X12370095Y-23878761D01*
X12418476Y-23975523D01*
X12466857Y-24169047D01*
X12466857Y-24314190D01*
X12418476Y-24507714D01*
X12370095Y-24604476D01*
X12273333Y-24701238D01*
X12128190Y-24749619D01*
X11886285Y-24749619D01*
X13434476Y-24749619D02*
X12853904Y-24749619D01*
X13144190Y-24749619D02*
X13144190Y-23733619D01*
X13047428Y-23878761D01*
X12950666Y-23975523D01*
X12853904Y-24023904D01*
X14402095Y-24749619D02*
X13821523Y-24749619D01*
X14111809Y-24749619D02*
X14111809Y-23733619D01*
X14015047Y-23878761D01*
X13918285Y-23975523D01*
X13821523Y-24023904D01*
D11*
X31973809Y-83492380D02*
X31973809Y-82492380D01*
X33021428Y-83397142D02*
X32973809Y-83444761D01*
X32830952Y-83492380D01*
X32735714Y-83492380D01*
X32592857Y-83444761D01*
X32497619Y-83349523D01*
X32450000Y-83254285D01*
X32402380Y-83063809D01*
X32402380Y-82920952D01*
X32450000Y-82730476D01*
X32497619Y-82635238D01*
X32592857Y-82540000D01*
X32735714Y-82492380D01*
X32830952Y-82492380D01*
X32973809Y-82540000D01*
X33021428Y-82587619D01*
X33402380Y-82587619D02*
X33450000Y-82540000D01*
X33545238Y-82492380D01*
X33783333Y-82492380D01*
X33878571Y-82540000D01*
X33926190Y-82587619D01*
X33973809Y-82682857D01*
X33973809Y-82778095D01*
X33926190Y-82920952D01*
X33354761Y-83492380D01*
X33973809Y-83492380D01*
X40732142Y-107854047D02*
X40515476Y-107544523D01*
X40360714Y-107854047D02*
X40360714Y-107204047D01*
X40608333Y-107204047D01*
X40670238Y-107235000D01*
X40701190Y-107265952D01*
X40732142Y-107327857D01*
X40732142Y-107420714D01*
X40701190Y-107482619D01*
X40670238Y-107513571D01*
X40608333Y-107544523D01*
X40360714Y-107544523D01*
X40948809Y-107204047D02*
X41351190Y-107204047D01*
X41134523Y-107451666D01*
X41227380Y-107451666D01*
X41289285Y-107482619D01*
X41320238Y-107513571D01*
X41351190Y-107575476D01*
X41351190Y-107730238D01*
X41320238Y-107792142D01*
X41289285Y-107823095D01*
X41227380Y-107854047D01*
X41041666Y-107854047D01*
X40979761Y-107823095D01*
X40948809Y-107792142D01*
X41939285Y-107204047D02*
X41629761Y-107204047D01*
X41598809Y-107513571D01*
X41629761Y-107482619D01*
X41691666Y-107451666D01*
X41846428Y-107451666D01*
X41908333Y-107482619D01*
X41939285Y-107513571D01*
X41970238Y-107575476D01*
X41970238Y-107730238D01*
X41939285Y-107792142D01*
X41908333Y-107823095D01*
X41846428Y-107854047D01*
X41691666Y-107854047D01*
X41629761Y-107823095D01*
X41598809Y-107792142D01*
X20692142Y-58772142D02*
X20661190Y-58803095D01*
X20568333Y-58834047D01*
X20506428Y-58834047D01*
X20413571Y-58803095D01*
X20351666Y-58741190D01*
X20320714Y-58679285D01*
X20289761Y-58555476D01*
X20289761Y-58462619D01*
X20320714Y-58338809D01*
X20351666Y-58276904D01*
X20413571Y-58215000D01*
X20506428Y-58184047D01*
X20568333Y-58184047D01*
X20661190Y-58215000D01*
X20692142Y-58245952D01*
X21311190Y-58834047D02*
X20939761Y-58834047D01*
X21125476Y-58834047D02*
X21125476Y-58184047D01*
X21063571Y-58276904D01*
X21001666Y-58338809D01*
X20939761Y-58369761D01*
X21899285Y-58184047D02*
X21589761Y-58184047D01*
X21558809Y-58493571D01*
X21589761Y-58462619D01*
X21651666Y-58431666D01*
X21806428Y-58431666D01*
X21868333Y-58462619D01*
X21899285Y-58493571D01*
X21930238Y-58555476D01*
X21930238Y-58710238D01*
X21899285Y-58772142D01*
X21868333Y-58803095D01*
X21806428Y-58834047D01*
X21651666Y-58834047D01*
X21589761Y-58803095D01*
X21558809Y-58772142D01*
X22272142Y-19232142D02*
X22241190Y-19263095D01*
X22148333Y-19294047D01*
X22086428Y-19294047D01*
X21993571Y-19263095D01*
X21931666Y-19201190D01*
X21900714Y-19139285D01*
X21869761Y-19015476D01*
X21869761Y-18922619D01*
X21900714Y-18798809D01*
X21931666Y-18736904D01*
X21993571Y-18675000D01*
X22086428Y-18644047D01*
X22148333Y-18644047D01*
X22241190Y-18675000D01*
X22272142Y-18705952D01*
X22891190Y-19294047D02*
X22519761Y-19294047D01*
X22705476Y-19294047D02*
X22705476Y-18644047D01*
X22643571Y-18736904D01*
X22581666Y-18798809D01*
X22519761Y-18829761D01*
X23448333Y-18644047D02*
X23324523Y-18644047D01*
X23262619Y-18675000D01*
X23231666Y-18705952D01*
X23169761Y-18798809D01*
X23138809Y-18922619D01*
X23138809Y-19170238D01*
X23169761Y-19232142D01*
X23200714Y-19263095D01*
X23262619Y-19294047D01*
X23386428Y-19294047D01*
X23448333Y-19263095D01*
X23479285Y-19232142D01*
X23510238Y-19170238D01*
X23510238Y-19015476D01*
X23479285Y-18953571D01*
X23448333Y-18922619D01*
X23386428Y-18891666D01*
X23262619Y-18891666D01*
X23200714Y-18922619D01*
X23169761Y-18953571D01*
X23138809Y-19015476D01*
X42482142Y-35174047D02*
X42265476Y-34864523D01*
X42110714Y-35174047D02*
X42110714Y-34524047D01*
X42358333Y-34524047D01*
X42420238Y-34555000D01*
X42451190Y-34585952D01*
X42482142Y-34647857D01*
X42482142Y-34740714D01*
X42451190Y-34802619D01*
X42420238Y-34833571D01*
X42358333Y-34864523D01*
X42110714Y-34864523D01*
X43101190Y-35174047D02*
X42729761Y-35174047D01*
X42915476Y-35174047D02*
X42915476Y-34524047D01*
X42853571Y-34616904D01*
X42791666Y-34678809D01*
X42729761Y-34709761D01*
X43658333Y-34740714D02*
X43658333Y-35174047D01*
X43503571Y-34493095D02*
X43348809Y-34957380D01*
X43751190Y-34957380D01*
X36672142Y-103074047D02*
X36455476Y-102764523D01*
X36300714Y-103074047D02*
X36300714Y-102424047D01*
X36548333Y-102424047D01*
X36610238Y-102455000D01*
X36641190Y-102485952D01*
X36672142Y-102547857D01*
X36672142Y-102640714D01*
X36641190Y-102702619D01*
X36610238Y-102733571D01*
X36548333Y-102764523D01*
X36300714Y-102764523D01*
X36919761Y-102485952D02*
X36950714Y-102455000D01*
X37012619Y-102424047D01*
X37167380Y-102424047D01*
X37229285Y-102455000D01*
X37260238Y-102485952D01*
X37291190Y-102547857D01*
X37291190Y-102609761D01*
X37260238Y-102702619D01*
X36888809Y-103074047D01*
X37291190Y-103074047D01*
X37848333Y-102424047D02*
X37724523Y-102424047D01*
X37662619Y-102455000D01*
X37631666Y-102485952D01*
X37569761Y-102578809D01*
X37538809Y-102702619D01*
X37538809Y-102950238D01*
X37569761Y-103012142D01*
X37600714Y-103043095D01*
X37662619Y-103074047D01*
X37786428Y-103074047D01*
X37848333Y-103043095D01*
X37879285Y-103012142D01*
X37910238Y-102950238D01*
X37910238Y-102795476D01*
X37879285Y-102733571D01*
X37848333Y-102702619D01*
X37786428Y-102671666D01*
X37662619Y-102671666D01*
X37600714Y-102702619D01*
X37569761Y-102733571D01*
X37538809Y-102795476D01*
X9341666Y-26592142D02*
X9310714Y-26623095D01*
X9217857Y-26654047D01*
X9155952Y-26654047D01*
X9063095Y-26623095D01*
X9001190Y-26561190D01*
X8970238Y-26499285D01*
X8939285Y-26375476D01*
X8939285Y-26282619D01*
X8970238Y-26158809D01*
X9001190Y-26096904D01*
X9063095Y-26035000D01*
X9155952Y-26004047D01*
X9217857Y-26004047D01*
X9310714Y-26035000D01*
X9341666Y-26065952D01*
X9898809Y-26004047D02*
X9775000Y-26004047D01*
X9713095Y-26035000D01*
X9682142Y-26065952D01*
X9620238Y-26158809D01*
X9589285Y-26282619D01*
X9589285Y-26530238D01*
X9620238Y-26592142D01*
X9651190Y-26623095D01*
X9713095Y-26654047D01*
X9836904Y-26654047D01*
X9898809Y-26623095D01*
X9929761Y-26592142D01*
X9960714Y-26530238D01*
X9960714Y-26375476D01*
X9929761Y-26313571D01*
X9898809Y-26282619D01*
X9836904Y-26251666D01*
X9713095Y-26251666D01*
X9651190Y-26282619D01*
X9620238Y-26313571D01*
X9589285Y-26375476D01*
X5632142Y-83374047D02*
X5415476Y-83064523D01*
X5260714Y-83374047D02*
X5260714Y-82724047D01*
X5508333Y-82724047D01*
X5570238Y-82755000D01*
X5601190Y-82785952D01*
X5632142Y-82847857D01*
X5632142Y-82940714D01*
X5601190Y-83002619D01*
X5570238Y-83033571D01*
X5508333Y-83064523D01*
X5260714Y-83064523D01*
X6189285Y-82940714D02*
X6189285Y-83374047D01*
X6034523Y-82693095D02*
X5879761Y-83157380D01*
X6282142Y-83157380D01*
X6870238Y-83374047D02*
X6498809Y-83374047D01*
X6684523Y-83374047D02*
X6684523Y-82724047D01*
X6622619Y-82816904D01*
X6560714Y-82878809D01*
X6498809Y-82909761D01*
X1904047Y-90368333D02*
X1594523Y-90585000D01*
X1904047Y-90739761D02*
X1254047Y-90739761D01*
X1254047Y-90492142D01*
X1285000Y-90430238D01*
X1315952Y-90399285D01*
X1377857Y-90368333D01*
X1470714Y-90368333D01*
X1532619Y-90399285D01*
X1563571Y-90430238D01*
X1594523Y-90492142D01*
X1594523Y-90739761D01*
X1254047Y-90151666D02*
X1254047Y-89718333D01*
X1904047Y-89996904D01*
X36871666Y-95244047D02*
X36655000Y-94934523D01*
X36500238Y-95244047D02*
X36500238Y-94594047D01*
X36747857Y-94594047D01*
X36809761Y-94625000D01*
X36840714Y-94655952D01*
X36871666Y-94717857D01*
X36871666Y-94810714D01*
X36840714Y-94872619D01*
X36809761Y-94903571D01*
X36747857Y-94934523D01*
X36500238Y-94934523D01*
X37181190Y-95244047D02*
X37305000Y-95244047D01*
X37366904Y-95213095D01*
X37397857Y-95182142D01*
X37459761Y-95089285D01*
X37490714Y-94965476D01*
X37490714Y-94717857D01*
X37459761Y-94655952D01*
X37428809Y-94625000D01*
X37366904Y-94594047D01*
X37243095Y-94594047D01*
X37181190Y-94625000D01*
X37150238Y-94655952D01*
X37119285Y-94717857D01*
X37119285Y-94872619D01*
X37150238Y-94934523D01*
X37181190Y-94965476D01*
X37243095Y-94996428D01*
X37366904Y-94996428D01*
X37428809Y-94965476D01*
X37459761Y-94934523D01*
X37490714Y-94872619D01*
X12341904Y-90312380D02*
X12341904Y-89312380D01*
X12580000Y-89312380D01*
X12722857Y-89360000D01*
X12818095Y-89455238D01*
X12865714Y-89550476D01*
X12913333Y-89740952D01*
X12913333Y-89883809D01*
X12865714Y-90074285D01*
X12818095Y-90169523D01*
X12722857Y-90264761D01*
X12580000Y-90312380D01*
X12341904Y-90312380D01*
X13294285Y-89407619D02*
X13341904Y-89360000D01*
X13437142Y-89312380D01*
X13675238Y-89312380D01*
X13770476Y-89360000D01*
X13818095Y-89407619D01*
X13865714Y-89502857D01*
X13865714Y-89598095D01*
X13818095Y-89740952D01*
X13246666Y-90312380D01*
X13865714Y-90312380D01*
X26992142Y-83142142D02*
X26961190Y-83173095D01*
X26868333Y-83204047D01*
X26806428Y-83204047D01*
X26713571Y-83173095D01*
X26651666Y-83111190D01*
X26620714Y-83049285D01*
X26589761Y-82925476D01*
X26589761Y-82832619D01*
X26620714Y-82708809D01*
X26651666Y-82646904D01*
X26713571Y-82585000D01*
X26806428Y-82554047D01*
X26868333Y-82554047D01*
X26961190Y-82585000D01*
X26992142Y-82615952D01*
X27239761Y-82615952D02*
X27270714Y-82585000D01*
X27332619Y-82554047D01*
X27487380Y-82554047D01*
X27549285Y-82585000D01*
X27580238Y-82615952D01*
X27611190Y-82677857D01*
X27611190Y-82739761D01*
X27580238Y-82832619D01*
X27208809Y-83204047D01*
X27611190Y-83204047D01*
X28013571Y-82554047D02*
X28075476Y-82554047D01*
X28137380Y-82585000D01*
X28168333Y-82615952D01*
X28199285Y-82677857D01*
X28230238Y-82801666D01*
X28230238Y-82956428D01*
X28199285Y-83080238D01*
X28168333Y-83142142D01*
X28137380Y-83173095D01*
X28075476Y-83204047D01*
X28013571Y-83204047D01*
X27951666Y-83173095D01*
X27920714Y-83142142D01*
X27889761Y-83080238D01*
X27858809Y-82956428D01*
X27858809Y-82801666D01*
X27889761Y-82677857D01*
X27920714Y-82615952D01*
X27951666Y-82585000D01*
X28013571Y-82554047D01*
X42492142Y-62524047D02*
X42275476Y-62214523D01*
X42120714Y-62524047D02*
X42120714Y-61874047D01*
X42368333Y-61874047D01*
X42430238Y-61905000D01*
X42461190Y-61935952D01*
X42492142Y-61997857D01*
X42492142Y-62090714D01*
X42461190Y-62152619D01*
X42430238Y-62183571D01*
X42368333Y-62214523D01*
X42120714Y-62214523D01*
X43111190Y-62524047D02*
X42739761Y-62524047D01*
X42925476Y-62524047D02*
X42925476Y-61874047D01*
X42863571Y-61966904D01*
X42801666Y-62028809D01*
X42739761Y-62059761D01*
X43420714Y-62524047D02*
X43544523Y-62524047D01*
X43606428Y-62493095D01*
X43637380Y-62462142D01*
X43699285Y-62369285D01*
X43730238Y-62245476D01*
X43730238Y-61997857D01*
X43699285Y-61935952D01*
X43668333Y-61905000D01*
X43606428Y-61874047D01*
X43482619Y-61874047D01*
X43420714Y-61905000D01*
X43389761Y-61935952D01*
X43358809Y-61997857D01*
X43358809Y-62152619D01*
X43389761Y-62214523D01*
X43420714Y-62245476D01*
X43482619Y-62276428D01*
X43606428Y-62276428D01*
X43668333Y-62245476D01*
X43699285Y-62214523D01*
X43730238Y-62152619D01*
X22171666Y-79162142D02*
X22140714Y-79193095D01*
X22047857Y-79224047D01*
X21985952Y-79224047D01*
X21893095Y-79193095D01*
X21831190Y-79131190D01*
X21800238Y-79069285D01*
X21769285Y-78945476D01*
X21769285Y-78852619D01*
X21800238Y-78728809D01*
X21831190Y-78666904D01*
X21893095Y-78605000D01*
X21985952Y-78574047D01*
X22047857Y-78574047D01*
X22140714Y-78605000D01*
X22171666Y-78635952D01*
X22728809Y-78790714D02*
X22728809Y-79224047D01*
X22574047Y-78543095D02*
X22419285Y-79007380D01*
X22821666Y-79007380D01*
X11564047Y-70137857D02*
X11254523Y-70354523D01*
X11564047Y-70509285D02*
X10914047Y-70509285D01*
X10914047Y-70261666D01*
X10945000Y-70199761D01*
X10975952Y-70168809D01*
X11037857Y-70137857D01*
X11130714Y-70137857D01*
X11192619Y-70168809D01*
X11223571Y-70199761D01*
X11254523Y-70261666D01*
X11254523Y-70509285D01*
X11564047Y-69518809D02*
X11564047Y-69890238D01*
X11564047Y-69704523D02*
X10914047Y-69704523D01*
X11006904Y-69766428D01*
X11068809Y-69828333D01*
X11099761Y-69890238D01*
X10914047Y-68961666D02*
X10914047Y-69085476D01*
X10945000Y-69147380D01*
X10975952Y-69178333D01*
X11068809Y-69240238D01*
X11192619Y-69271190D01*
X11440238Y-69271190D01*
X11502142Y-69240238D01*
X11533095Y-69209285D01*
X11564047Y-69147380D01*
X11564047Y-69023571D01*
X11533095Y-68961666D01*
X11502142Y-68930714D01*
X11440238Y-68899761D01*
X11285476Y-68899761D01*
X11223571Y-68930714D01*
X11192619Y-68961666D01*
X11161666Y-69023571D01*
X11161666Y-69147380D01*
X11192619Y-69209285D01*
X11223571Y-69240238D01*
X11285476Y-69271190D01*
X49753809Y-67742380D02*
X49753809Y-66742380D01*
X50801428Y-67647142D02*
X50753809Y-67694761D01*
X50610952Y-67742380D01*
X50515714Y-67742380D01*
X50372857Y-67694761D01*
X50277619Y-67599523D01*
X50230000Y-67504285D01*
X50182380Y-67313809D01*
X50182380Y-67170952D01*
X50230000Y-66980476D01*
X50277619Y-66885238D01*
X50372857Y-66790000D01*
X50515714Y-66742380D01*
X50610952Y-66742380D01*
X50753809Y-66790000D01*
X50801428Y-66837619D01*
X51753809Y-67742380D02*
X51182380Y-67742380D01*
X51468095Y-67742380D02*
X51468095Y-66742380D01*
X51372857Y-66885238D01*
X51277619Y-66980476D01*
X51182380Y-67028095D01*
X7112142Y-61552142D02*
X7081190Y-61583095D01*
X6988333Y-61614047D01*
X6926428Y-61614047D01*
X6833571Y-61583095D01*
X6771666Y-61521190D01*
X6740714Y-61459285D01*
X6709761Y-61335476D01*
X6709761Y-61242619D01*
X6740714Y-61118809D01*
X6771666Y-61056904D01*
X6833571Y-60995000D01*
X6926428Y-60964047D01*
X6988333Y-60964047D01*
X7081190Y-60995000D01*
X7112142Y-61025952D01*
X7731190Y-61614047D02*
X7359761Y-61614047D01*
X7545476Y-61614047D02*
X7545476Y-60964047D01*
X7483571Y-61056904D01*
X7421666Y-61118809D01*
X7359761Y-61149761D01*
X8133571Y-60964047D02*
X8195476Y-60964047D01*
X8257380Y-60995000D01*
X8288333Y-61025952D01*
X8319285Y-61087857D01*
X8350238Y-61211666D01*
X8350238Y-61366428D01*
X8319285Y-61490238D01*
X8288333Y-61552142D01*
X8257380Y-61583095D01*
X8195476Y-61614047D01*
X8133571Y-61614047D01*
X8071666Y-61583095D01*
X8040714Y-61552142D01*
X8009761Y-61490238D01*
X7978809Y-61366428D01*
X7978809Y-61211666D01*
X8009761Y-61087857D01*
X8040714Y-61025952D01*
X8071666Y-60995000D01*
X8133571Y-60964047D01*
X9161666Y-11582142D02*
X9130714Y-11613095D01*
X9037857Y-11644047D01*
X8975952Y-11644047D01*
X8883095Y-11613095D01*
X8821190Y-11551190D01*
X8790238Y-11489285D01*
X8759285Y-11365476D01*
X8759285Y-11272619D01*
X8790238Y-11148809D01*
X8821190Y-11086904D01*
X8883095Y-11025000D01*
X8975952Y-10994047D01*
X9037857Y-10994047D01*
X9130714Y-11025000D01*
X9161666Y-11055952D01*
X9378333Y-10994047D02*
X9780714Y-10994047D01*
X9564047Y-11241666D01*
X9656904Y-11241666D01*
X9718809Y-11272619D01*
X9749761Y-11303571D01*
X9780714Y-11365476D01*
X9780714Y-11520238D01*
X9749761Y-11582142D01*
X9718809Y-11613095D01*
X9656904Y-11644047D01*
X9471190Y-11644047D01*
X9409285Y-11613095D01*
X9378333Y-11582142D01*
D14*
X18146857Y-51472857D02*
X18098476Y-51521238D01*
X17953333Y-51569619D01*
X17856571Y-51569619D01*
X17711428Y-51521238D01*
X17614666Y-51424476D01*
X17566285Y-51327714D01*
X17517904Y-51134190D01*
X17517904Y-50989047D01*
X17566285Y-50795523D01*
X17614666Y-50698761D01*
X17711428Y-50602000D01*
X17856571Y-50553619D01*
X17953333Y-50553619D01*
X18098476Y-50602000D01*
X18146857Y-50650380D01*
X19114476Y-51569619D02*
X18533904Y-51569619D01*
X18824190Y-51569619D02*
X18824190Y-50553619D01*
X18727428Y-50698761D01*
X18630666Y-50795523D01*
X18533904Y-50843904D01*
X19501523Y-50650380D02*
X19549904Y-50602000D01*
X19646666Y-50553619D01*
X19888571Y-50553619D01*
X19985333Y-50602000D01*
X20033714Y-50650380D01*
X20082095Y-50747142D01*
X20082095Y-50843904D01*
X20033714Y-50989047D01*
X19453142Y-51569619D01*
X20082095Y-51569619D01*
D11*
X15169047Y-49741428D02*
X15930952Y-49741428D01*
X15550000Y-50122380D02*
X15550000Y-49360476D01*
D14*
X11892857Y-38743142D02*
X11941238Y-38791523D01*
X11989619Y-38936666D01*
X11989619Y-39033428D01*
X11941238Y-39178571D01*
X11844476Y-39275333D01*
X11747714Y-39323714D01*
X11554190Y-39372095D01*
X11409047Y-39372095D01*
X11215523Y-39323714D01*
X11118761Y-39275333D01*
X11022000Y-39178571D01*
X10973619Y-39033428D01*
X10973619Y-38936666D01*
X11022000Y-38791523D01*
X11070380Y-38743142D01*
X11989619Y-37775523D02*
X11989619Y-38356095D01*
X11989619Y-38065809D02*
X10973619Y-38065809D01*
X11118761Y-38162571D01*
X11215523Y-38259333D01*
X11263904Y-38356095D01*
X11312285Y-36904666D02*
X11989619Y-36904666D01*
X10925238Y-37146571D02*
X11650952Y-37388476D01*
X11650952Y-36759523D01*
D11*
X5571428Y-36400952D02*
X5571428Y-35639047D01*
X5952380Y-36020000D02*
X5190476Y-36020000D01*
X39201666Y-5584047D02*
X38985000Y-5274523D01*
X38830238Y-5584047D02*
X38830238Y-4934047D01*
X39077857Y-4934047D01*
X39139761Y-4965000D01*
X39170714Y-4995952D01*
X39201666Y-5057857D01*
X39201666Y-5150714D01*
X39170714Y-5212619D01*
X39139761Y-5243571D01*
X39077857Y-5274523D01*
X38830238Y-5274523D01*
X39820714Y-5584047D02*
X39449285Y-5584047D01*
X39635000Y-5584047D02*
X39635000Y-4934047D01*
X39573095Y-5026904D01*
X39511190Y-5088809D01*
X39449285Y-5119761D01*
X35312738Y-16882380D02*
X35884166Y-16882380D01*
X35598452Y-17882380D02*
X35598452Y-16882380D01*
X36788928Y-17882380D02*
X36455595Y-17406190D01*
X36217500Y-17882380D02*
X36217500Y-16882380D01*
X36598452Y-16882380D01*
X36693690Y-16930000D01*
X36741309Y-16977619D01*
X36788928Y-17072857D01*
X36788928Y-17215714D01*
X36741309Y-17310952D01*
X36693690Y-17358571D01*
X36598452Y-17406190D01*
X36217500Y-17406190D01*
X37217500Y-17882380D02*
X37217500Y-16882380D01*
X37693690Y-17882380D02*
X37693690Y-16882380D01*
X38027023Y-17596666D01*
X38360357Y-16882380D01*
X38360357Y-17882380D01*
X39360357Y-17882380D02*
X38788928Y-17882380D01*
X39074642Y-17882380D02*
X39074642Y-16882380D01*
X38979404Y-17025238D01*
X38884166Y-17120476D01*
X38788928Y-17168095D01*
X23856666Y-92642380D02*
X23856666Y-93356666D01*
X23809047Y-93499523D01*
X23713809Y-93594761D01*
X23570952Y-93642380D01*
X23475714Y-93642380D01*
X24856666Y-93642380D02*
X24285238Y-93642380D01*
X24570952Y-93642380D02*
X24570952Y-92642380D01*
X24475714Y-92785238D01*
X24380476Y-92880476D01*
X24285238Y-92928095D01*
X13152142Y-109244047D02*
X12935476Y-108934523D01*
X12780714Y-109244047D02*
X12780714Y-108594047D01*
X13028333Y-108594047D01*
X13090238Y-108625000D01*
X13121190Y-108655952D01*
X13152142Y-108717857D01*
X13152142Y-108810714D01*
X13121190Y-108872619D01*
X13090238Y-108903571D01*
X13028333Y-108934523D01*
X12780714Y-108934523D01*
X13771190Y-109244047D02*
X13399761Y-109244047D01*
X13585476Y-109244047D02*
X13585476Y-108594047D01*
X13523571Y-108686904D01*
X13461666Y-108748809D01*
X13399761Y-108779761D01*
X14142619Y-108872619D02*
X14080714Y-108841666D01*
X14049761Y-108810714D01*
X14018809Y-108748809D01*
X14018809Y-108717857D01*
X14049761Y-108655952D01*
X14080714Y-108625000D01*
X14142619Y-108594047D01*
X14266428Y-108594047D01*
X14328333Y-108625000D01*
X14359285Y-108655952D01*
X14390238Y-108717857D01*
X14390238Y-108748809D01*
X14359285Y-108810714D01*
X14328333Y-108841666D01*
X14266428Y-108872619D01*
X14142619Y-108872619D01*
X14080714Y-108903571D01*
X14049761Y-108934523D01*
X14018809Y-108996428D01*
X14018809Y-109120238D01*
X14049761Y-109182142D01*
X14080714Y-109213095D01*
X14142619Y-109244047D01*
X14266428Y-109244047D01*
X14328333Y-109213095D01*
X14359285Y-109182142D01*
X14390238Y-109120238D01*
X14390238Y-108996428D01*
X14359285Y-108934523D01*
X14328333Y-108903571D01*
X14266428Y-108872619D01*
X36172142Y-90214047D02*
X35955476Y-89904523D01*
X35800714Y-90214047D02*
X35800714Y-89564047D01*
X36048333Y-89564047D01*
X36110238Y-89595000D01*
X36141190Y-89625952D01*
X36172142Y-89687857D01*
X36172142Y-89780714D01*
X36141190Y-89842619D01*
X36110238Y-89873571D01*
X36048333Y-89904523D01*
X35800714Y-89904523D01*
X36791190Y-90214047D02*
X36419761Y-90214047D01*
X36605476Y-90214047D02*
X36605476Y-89564047D01*
X36543571Y-89656904D01*
X36481666Y-89718809D01*
X36419761Y-89749761D01*
X37410238Y-90214047D02*
X37038809Y-90214047D01*
X37224523Y-90214047D02*
X37224523Y-89564047D01*
X37162619Y-89656904D01*
X37100714Y-89718809D01*
X37038809Y-89749761D01*
X8334047Y-66857857D02*
X8024523Y-67074523D01*
X8334047Y-67229285D02*
X7684047Y-67229285D01*
X7684047Y-66981666D01*
X7715000Y-66919761D01*
X7745952Y-66888809D01*
X7807857Y-66857857D01*
X7900714Y-66857857D01*
X7962619Y-66888809D01*
X7993571Y-66919761D01*
X8024523Y-66981666D01*
X8024523Y-67229285D01*
X7684047Y-66641190D02*
X7684047Y-66238809D01*
X7931666Y-66455476D01*
X7931666Y-66362619D01*
X7962619Y-66300714D01*
X7993571Y-66269761D01*
X8055476Y-66238809D01*
X8210238Y-66238809D01*
X8272142Y-66269761D01*
X8303095Y-66300714D01*
X8334047Y-66362619D01*
X8334047Y-66548333D01*
X8303095Y-66610238D01*
X8272142Y-66641190D01*
X7962619Y-65867380D02*
X7931666Y-65929285D01*
X7900714Y-65960238D01*
X7838809Y-65991190D01*
X7807857Y-65991190D01*
X7745952Y-65960238D01*
X7715000Y-65929285D01*
X7684047Y-65867380D01*
X7684047Y-65743571D01*
X7715000Y-65681666D01*
X7745952Y-65650714D01*
X7807857Y-65619761D01*
X7838809Y-65619761D01*
X7900714Y-65650714D01*
X7931666Y-65681666D01*
X7962619Y-65743571D01*
X7962619Y-65867380D01*
X7993571Y-65929285D01*
X8024523Y-65960238D01*
X8086428Y-65991190D01*
X8210238Y-65991190D01*
X8272142Y-65960238D01*
X8303095Y-65929285D01*
X8334047Y-65867380D01*
X8334047Y-65743571D01*
X8303095Y-65681666D01*
X8272142Y-65650714D01*
X8210238Y-65619761D01*
X8086428Y-65619761D01*
X8024523Y-65650714D01*
X7993571Y-65681666D01*
X7962619Y-65743571D01*
X32934047Y-13147857D02*
X32624523Y-13364523D01*
X32934047Y-13519285D02*
X32284047Y-13519285D01*
X32284047Y-13271666D01*
X32315000Y-13209761D01*
X32345952Y-13178809D01*
X32407857Y-13147857D01*
X32500714Y-13147857D01*
X32562619Y-13178809D01*
X32593571Y-13209761D01*
X32624523Y-13271666D01*
X32624523Y-13519285D01*
X32284047Y-12931190D02*
X32284047Y-12528809D01*
X32531666Y-12745476D01*
X32531666Y-12652619D01*
X32562619Y-12590714D01*
X32593571Y-12559761D01*
X32655476Y-12528809D01*
X32810238Y-12528809D01*
X32872142Y-12559761D01*
X32903095Y-12590714D01*
X32934047Y-12652619D01*
X32934047Y-12838333D01*
X32903095Y-12900238D01*
X32872142Y-12931190D01*
X32284047Y-11971666D02*
X32284047Y-12095476D01*
X32315000Y-12157380D01*
X32345952Y-12188333D01*
X32438809Y-12250238D01*
X32562619Y-12281190D01*
X32810238Y-12281190D01*
X32872142Y-12250238D01*
X32903095Y-12219285D01*
X32934047Y-12157380D01*
X32934047Y-12033571D01*
X32903095Y-11971666D01*
X32872142Y-11940714D01*
X32810238Y-11909761D01*
X32655476Y-11909761D01*
X32593571Y-11940714D01*
X32562619Y-11971666D01*
X32531666Y-12033571D01*
X32531666Y-12157380D01*
X32562619Y-12219285D01*
X32593571Y-12250238D01*
X32655476Y-12281190D01*
X31583809Y-9372380D02*
X31583809Y-8372380D01*
X32631428Y-9277142D02*
X32583809Y-9324761D01*
X32440952Y-9372380D01*
X32345714Y-9372380D01*
X32202857Y-9324761D01*
X32107619Y-9229523D01*
X32060000Y-9134285D01*
X32012380Y-8943809D01*
X32012380Y-8800952D01*
X32060000Y-8610476D01*
X32107619Y-8515238D01*
X32202857Y-8420000D01*
X32345714Y-8372380D01*
X32440952Y-8372380D01*
X32583809Y-8420000D01*
X32631428Y-8467619D01*
X32964761Y-8372380D02*
X33583809Y-8372380D01*
X33250476Y-8753333D01*
X33393333Y-8753333D01*
X33488571Y-8800952D01*
X33536190Y-8848571D01*
X33583809Y-8943809D01*
X33583809Y-9181904D01*
X33536190Y-9277142D01*
X33488571Y-9324761D01*
X33393333Y-9372380D01*
X33107619Y-9372380D01*
X33012380Y-9324761D01*
X32964761Y-9277142D01*
X46071666Y-11194047D02*
X45855000Y-10884523D01*
X45700238Y-11194047D02*
X45700238Y-10544047D01*
X45947857Y-10544047D01*
X46009761Y-10575000D01*
X46040714Y-10605952D01*
X46071666Y-10667857D01*
X46071666Y-10760714D01*
X46040714Y-10822619D01*
X46009761Y-10853571D01*
X45947857Y-10884523D01*
X45700238Y-10884523D01*
X46628809Y-10760714D02*
X46628809Y-11194047D01*
X46474047Y-10513095D02*
X46319285Y-10977380D01*
X46721666Y-10977380D01*
X11292380Y-14368095D02*
X10292380Y-14368095D01*
X10292380Y-14130000D01*
X10340000Y-13987142D01*
X10435238Y-13891904D01*
X10530476Y-13844285D01*
X10720952Y-13796666D01*
X10863809Y-13796666D01*
X11054285Y-13844285D01*
X11149523Y-13891904D01*
X11244761Y-13987142D01*
X11292380Y-14130000D01*
X11292380Y-14368095D01*
X10292380Y-13463333D02*
X10292380Y-12844285D01*
X10673333Y-13177619D01*
X10673333Y-13034761D01*
X10720952Y-12939523D01*
X10768571Y-12891904D01*
X10863809Y-12844285D01*
X11101904Y-12844285D01*
X11197142Y-12891904D01*
X11244761Y-12939523D01*
X11292380Y-13034761D01*
X11292380Y-13320476D01*
X11244761Y-13415714D01*
X11197142Y-13463333D01*
X7822142Y-48974047D02*
X7605476Y-48664523D01*
X7450714Y-48974047D02*
X7450714Y-48324047D01*
X7698333Y-48324047D01*
X7760238Y-48355000D01*
X7791190Y-48385952D01*
X7822142Y-48447857D01*
X7822142Y-48540714D01*
X7791190Y-48602619D01*
X7760238Y-48633571D01*
X7698333Y-48664523D01*
X7450714Y-48664523D01*
X8038809Y-48324047D02*
X8441190Y-48324047D01*
X8224523Y-48571666D01*
X8317380Y-48571666D01*
X8379285Y-48602619D01*
X8410238Y-48633571D01*
X8441190Y-48695476D01*
X8441190Y-48850238D01*
X8410238Y-48912142D01*
X8379285Y-48943095D01*
X8317380Y-48974047D01*
X8131666Y-48974047D01*
X8069761Y-48943095D01*
X8038809Y-48912142D01*
X8657857Y-48324047D02*
X9060238Y-48324047D01*
X8843571Y-48571666D01*
X8936428Y-48571666D01*
X8998333Y-48602619D01*
X9029285Y-48633571D01*
X9060238Y-48695476D01*
X9060238Y-48850238D01*
X9029285Y-48912142D01*
X8998333Y-48943095D01*
X8936428Y-48974047D01*
X8750714Y-48974047D01*
X8688809Y-48943095D01*
X8657857Y-48912142D01*
X42022142Y-68264047D02*
X41805476Y-67954523D01*
X41650714Y-68264047D02*
X41650714Y-67614047D01*
X41898333Y-67614047D01*
X41960238Y-67645000D01*
X41991190Y-67675952D01*
X42022142Y-67737857D01*
X42022142Y-67830714D01*
X41991190Y-67892619D01*
X41960238Y-67923571D01*
X41898333Y-67954523D01*
X41650714Y-67954523D01*
X42269761Y-67675952D02*
X42300714Y-67645000D01*
X42362619Y-67614047D01*
X42517380Y-67614047D01*
X42579285Y-67645000D01*
X42610238Y-67675952D01*
X42641190Y-67737857D01*
X42641190Y-67799761D01*
X42610238Y-67892619D01*
X42238809Y-68264047D01*
X42641190Y-68264047D01*
X43229285Y-67614047D02*
X42919761Y-67614047D01*
X42888809Y-67923571D01*
X42919761Y-67892619D01*
X42981666Y-67861666D01*
X43136428Y-67861666D01*
X43198333Y-67892619D01*
X43229285Y-67923571D01*
X43260238Y-67985476D01*
X43260238Y-68140238D01*
X43229285Y-68202142D01*
X43198333Y-68233095D01*
X43136428Y-68264047D01*
X42981666Y-68264047D01*
X42919761Y-68233095D01*
X42888809Y-68202142D01*
X44302142Y-53234047D02*
X44085476Y-52924523D01*
X43930714Y-53234047D02*
X43930714Y-52584047D01*
X44178333Y-52584047D01*
X44240238Y-52615000D01*
X44271190Y-52645952D01*
X44302142Y-52707857D01*
X44302142Y-52800714D01*
X44271190Y-52862619D01*
X44240238Y-52893571D01*
X44178333Y-52924523D01*
X43930714Y-52924523D01*
X44549761Y-52645952D02*
X44580714Y-52615000D01*
X44642619Y-52584047D01*
X44797380Y-52584047D01*
X44859285Y-52615000D01*
X44890238Y-52645952D01*
X44921190Y-52707857D01*
X44921190Y-52769761D01*
X44890238Y-52862619D01*
X44518809Y-53234047D01*
X44921190Y-53234047D01*
X45323571Y-52584047D02*
X45385476Y-52584047D01*
X45447380Y-52615000D01*
X45478333Y-52645952D01*
X45509285Y-52707857D01*
X45540238Y-52831666D01*
X45540238Y-52986428D01*
X45509285Y-53110238D01*
X45478333Y-53172142D01*
X45447380Y-53203095D01*
X45385476Y-53234047D01*
X45323571Y-53234047D01*
X45261666Y-53203095D01*
X45230714Y-53172142D01*
X45199761Y-53110238D01*
X45168809Y-52986428D01*
X45168809Y-52831666D01*
X45199761Y-52707857D01*
X45230714Y-52645952D01*
X45261666Y-52615000D01*
X45323571Y-52584047D01*
X13904761Y-99697619D02*
X13809523Y-99650000D01*
X13714285Y-99554761D01*
X13571428Y-99411904D01*
X13476190Y-99364285D01*
X13380952Y-99364285D01*
X13428571Y-99602380D02*
X13333333Y-99554761D01*
X13238095Y-99459523D01*
X13190476Y-99269047D01*
X13190476Y-98935714D01*
X13238095Y-98745238D01*
X13333333Y-98650000D01*
X13428571Y-98602380D01*
X13619047Y-98602380D01*
X13714285Y-98650000D01*
X13809523Y-98745238D01*
X13857142Y-98935714D01*
X13857142Y-99269047D01*
X13809523Y-99459523D01*
X13714285Y-99554761D01*
X13619047Y-99602380D01*
X13428571Y-99602380D01*
X14809523Y-99602380D02*
X14238095Y-99602380D01*
X14523809Y-99602380D02*
X14523809Y-98602380D01*
X14428571Y-98745238D01*
X14333333Y-98840476D01*
X14238095Y-98888095D01*
X14494285Y-38421428D02*
X14694285Y-39021428D01*
X14894285Y-38421428D01*
X15437142Y-39021428D02*
X15237142Y-38735714D01*
X15094285Y-39021428D02*
X15094285Y-38421428D01*
X15322857Y-38421428D01*
X15380000Y-38450000D01*
X15408571Y-38478571D01*
X15437142Y-38535714D01*
X15437142Y-38621428D01*
X15408571Y-38678571D01*
X15380000Y-38707142D01*
X15322857Y-38735714D01*
X15094285Y-38735714D01*
X15665714Y-38478571D02*
X15694285Y-38450000D01*
X15751428Y-38421428D01*
X15894285Y-38421428D01*
X15951428Y-38450000D01*
X15980000Y-38478571D01*
X16008571Y-38535714D01*
X16008571Y-38592857D01*
X15980000Y-38678571D01*
X15637142Y-39021428D01*
X16008571Y-39021428D01*
X45782142Y-99074047D02*
X45565476Y-98764523D01*
X45410714Y-99074047D02*
X45410714Y-98424047D01*
X45658333Y-98424047D01*
X45720238Y-98455000D01*
X45751190Y-98485952D01*
X45782142Y-98547857D01*
X45782142Y-98640714D01*
X45751190Y-98702619D01*
X45720238Y-98733571D01*
X45658333Y-98764523D01*
X45410714Y-98764523D01*
X45998809Y-98424047D02*
X46401190Y-98424047D01*
X46184523Y-98671666D01*
X46277380Y-98671666D01*
X46339285Y-98702619D01*
X46370238Y-98733571D01*
X46401190Y-98795476D01*
X46401190Y-98950238D01*
X46370238Y-99012142D01*
X46339285Y-99043095D01*
X46277380Y-99074047D01*
X46091666Y-99074047D01*
X46029761Y-99043095D01*
X45998809Y-99012142D01*
X47020238Y-99074047D02*
X46648809Y-99074047D01*
X46834523Y-99074047D02*
X46834523Y-98424047D01*
X46772619Y-98516904D01*
X46710714Y-98578809D01*
X46648809Y-98609761D01*
X14722142Y-94714047D02*
X14505476Y-94404523D01*
X14350714Y-94714047D02*
X14350714Y-94064047D01*
X14598333Y-94064047D01*
X14660238Y-94095000D01*
X14691190Y-94125952D01*
X14722142Y-94187857D01*
X14722142Y-94280714D01*
X14691190Y-94342619D01*
X14660238Y-94373571D01*
X14598333Y-94404523D01*
X14350714Y-94404523D01*
X15341190Y-94714047D02*
X14969761Y-94714047D01*
X15155476Y-94714047D02*
X15155476Y-94064047D01*
X15093571Y-94156904D01*
X15031666Y-94218809D01*
X14969761Y-94249761D01*
X15557857Y-94064047D02*
X15960238Y-94064047D01*
X15743571Y-94311666D01*
X15836428Y-94311666D01*
X15898333Y-94342619D01*
X15929285Y-94373571D01*
X15960238Y-94435476D01*
X15960238Y-94590238D01*
X15929285Y-94652142D01*
X15898333Y-94683095D01*
X15836428Y-94714047D01*
X15650714Y-94714047D01*
X15588809Y-94683095D01*
X15557857Y-94652142D01*
X25252142Y-6584047D02*
X25035476Y-6274523D01*
X24880714Y-6584047D02*
X24880714Y-5934047D01*
X25128333Y-5934047D01*
X25190238Y-5965000D01*
X25221190Y-5995952D01*
X25252142Y-6057857D01*
X25252142Y-6150714D01*
X25221190Y-6212619D01*
X25190238Y-6243571D01*
X25128333Y-6274523D01*
X24880714Y-6274523D01*
X25809285Y-6150714D02*
X25809285Y-6584047D01*
X25654523Y-5903095D02*
X25499761Y-6367380D01*
X25902142Y-6367380D01*
X26273571Y-5934047D02*
X26335476Y-5934047D01*
X26397380Y-5965000D01*
X26428333Y-5995952D01*
X26459285Y-6057857D01*
X26490238Y-6181666D01*
X26490238Y-6336428D01*
X26459285Y-6460238D01*
X26428333Y-6522142D01*
X26397380Y-6553095D01*
X26335476Y-6584047D01*
X26273571Y-6584047D01*
X26211666Y-6553095D01*
X26180714Y-6522142D01*
X26149761Y-6460238D01*
X26118809Y-6336428D01*
X26118809Y-6181666D01*
X26149761Y-6057857D01*
X26180714Y-5995952D01*
X26211666Y-5965000D01*
X26273571Y-5934047D01*
X44142142Y-90144047D02*
X43925476Y-89834523D01*
X43770714Y-90144047D02*
X43770714Y-89494047D01*
X44018333Y-89494047D01*
X44080238Y-89525000D01*
X44111190Y-89555952D01*
X44142142Y-89617857D01*
X44142142Y-89710714D01*
X44111190Y-89772619D01*
X44080238Y-89803571D01*
X44018333Y-89834523D01*
X43770714Y-89834523D01*
X44358809Y-89494047D02*
X44761190Y-89494047D01*
X44544523Y-89741666D01*
X44637380Y-89741666D01*
X44699285Y-89772619D01*
X44730238Y-89803571D01*
X44761190Y-89865476D01*
X44761190Y-90020238D01*
X44730238Y-90082142D01*
X44699285Y-90113095D01*
X44637380Y-90144047D01*
X44451666Y-90144047D01*
X44389761Y-90113095D01*
X44358809Y-90082142D01*
X45008809Y-89555952D02*
X45039761Y-89525000D01*
X45101666Y-89494047D01*
X45256428Y-89494047D01*
X45318333Y-89525000D01*
X45349285Y-89555952D01*
X45380238Y-89617857D01*
X45380238Y-89679761D01*
X45349285Y-89772619D01*
X44977857Y-90144047D01*
X45380238Y-90144047D01*
D14*
X22776285Y-16089619D02*
X22776285Y-15073619D01*
X23018190Y-15073619D01*
X23163333Y-15122000D01*
X23260095Y-15218761D01*
X23308476Y-15315523D01*
X23356857Y-15509047D01*
X23356857Y-15654190D01*
X23308476Y-15847714D01*
X23260095Y-15944476D01*
X23163333Y-16041238D01*
X23018190Y-16089619D01*
X22776285Y-16089619D01*
X24324476Y-16089619D02*
X23743904Y-16089619D01*
X24034190Y-16089619D02*
X24034190Y-15073619D01*
X23937428Y-15218761D01*
X23840666Y-15315523D01*
X23743904Y-15363904D01*
X24953428Y-15073619D02*
X25050190Y-15073619D01*
X25146952Y-15122000D01*
X25195333Y-15170380D01*
X25243714Y-15267142D01*
X25292095Y-15460666D01*
X25292095Y-15702571D01*
X25243714Y-15896095D01*
X25195333Y-15992857D01*
X25146952Y-16041238D01*
X25050190Y-16089619D01*
X24953428Y-16089619D01*
X24856666Y-16041238D01*
X24808285Y-15992857D01*
X24759904Y-15896095D01*
X24711523Y-15702571D01*
X24711523Y-15460666D01*
X24759904Y-15267142D01*
X24808285Y-15170380D01*
X24856666Y-15122000D01*
X24953428Y-15073619D01*
X28876857Y-32572857D02*
X28828476Y-32621238D01*
X28683333Y-32669619D01*
X28586571Y-32669619D01*
X28441428Y-32621238D01*
X28344666Y-32524476D01*
X28296285Y-32427714D01*
X28247904Y-32234190D01*
X28247904Y-32089047D01*
X28296285Y-31895523D01*
X28344666Y-31798761D01*
X28441428Y-31702000D01*
X28586571Y-31653619D01*
X28683333Y-31653619D01*
X28828476Y-31702000D01*
X28876857Y-31750380D01*
X29844476Y-32669619D02*
X29263904Y-32669619D01*
X29554190Y-32669619D02*
X29554190Y-31653619D01*
X29457428Y-31798761D01*
X29360666Y-31895523D01*
X29263904Y-31943904D01*
X30183142Y-31653619D02*
X30812095Y-31653619D01*
X30473428Y-32040666D01*
X30618571Y-32040666D01*
X30715333Y-32089047D01*
X30763714Y-32137428D01*
X30812095Y-32234190D01*
X30812095Y-32476095D01*
X30763714Y-32572857D01*
X30715333Y-32621238D01*
X30618571Y-32669619D01*
X30328285Y-32669619D01*
X30231523Y-32621238D01*
X30183142Y-32572857D01*
D11*
X22719047Y-30951428D02*
X23480952Y-30951428D01*
X23100000Y-31332380D02*
X23100000Y-30570476D01*
X11982380Y-49778095D02*
X10982380Y-49778095D01*
X10982380Y-49540000D01*
X11030000Y-49397142D01*
X11125238Y-49301904D01*
X11220476Y-49254285D01*
X11410952Y-49206666D01*
X11553809Y-49206666D01*
X11744285Y-49254285D01*
X11839523Y-49301904D01*
X11934761Y-49397142D01*
X11982380Y-49540000D01*
X11982380Y-49778095D01*
X10982380Y-48349523D02*
X10982380Y-48540000D01*
X11030000Y-48635238D01*
X11077619Y-48682857D01*
X11220476Y-48778095D01*
X11410952Y-48825714D01*
X11791904Y-48825714D01*
X11887142Y-48778095D01*
X11934761Y-48730476D01*
X11982380Y-48635238D01*
X11982380Y-48444761D01*
X11934761Y-48349523D01*
X11887142Y-48301904D01*
X11791904Y-48254285D01*
X11553809Y-48254285D01*
X11458571Y-48301904D01*
X11410952Y-48349523D01*
X11363333Y-48444761D01*
X11363333Y-48635238D01*
X11410952Y-48730476D01*
X11458571Y-48778095D01*
X11553809Y-48825714D01*
X5442142Y-14964047D02*
X5225476Y-14654523D01*
X5070714Y-14964047D02*
X5070714Y-14314047D01*
X5318333Y-14314047D01*
X5380238Y-14345000D01*
X5411190Y-14375952D01*
X5442142Y-14437857D01*
X5442142Y-14530714D01*
X5411190Y-14592619D01*
X5380238Y-14623571D01*
X5318333Y-14654523D01*
X5070714Y-14654523D01*
X6061190Y-14964047D02*
X5689761Y-14964047D01*
X5875476Y-14964047D02*
X5875476Y-14314047D01*
X5813571Y-14406904D01*
X5751666Y-14468809D01*
X5689761Y-14499761D01*
X6463571Y-14314047D02*
X6525476Y-14314047D01*
X6587380Y-14345000D01*
X6618333Y-14375952D01*
X6649285Y-14437857D01*
X6680238Y-14561666D01*
X6680238Y-14716428D01*
X6649285Y-14840238D01*
X6618333Y-14902142D01*
X6587380Y-14933095D01*
X6525476Y-14964047D01*
X6463571Y-14964047D01*
X6401666Y-14933095D01*
X6370714Y-14902142D01*
X6339761Y-14840238D01*
X6308809Y-14716428D01*
X6308809Y-14561666D01*
X6339761Y-14437857D01*
X6370714Y-14375952D01*
X6401666Y-14345000D01*
X6463571Y-14314047D01*
X42492142Y-80024047D02*
X42275476Y-79714523D01*
X42120714Y-80024047D02*
X42120714Y-79374047D01*
X42368333Y-79374047D01*
X42430238Y-79405000D01*
X42461190Y-79435952D01*
X42492142Y-79497857D01*
X42492142Y-79590714D01*
X42461190Y-79652619D01*
X42430238Y-79683571D01*
X42368333Y-79714523D01*
X42120714Y-79714523D01*
X42739761Y-79435952D02*
X42770714Y-79405000D01*
X42832619Y-79374047D01*
X42987380Y-79374047D01*
X43049285Y-79405000D01*
X43080238Y-79435952D01*
X43111190Y-79497857D01*
X43111190Y-79559761D01*
X43080238Y-79652619D01*
X42708809Y-80024047D01*
X43111190Y-80024047D01*
X43420714Y-80024047D02*
X43544523Y-80024047D01*
X43606428Y-79993095D01*
X43637380Y-79962142D01*
X43699285Y-79869285D01*
X43730238Y-79745476D01*
X43730238Y-79497857D01*
X43699285Y-79435952D01*
X43668333Y-79405000D01*
X43606428Y-79374047D01*
X43482619Y-79374047D01*
X43420714Y-79405000D01*
X43389761Y-79435952D01*
X43358809Y-79497857D01*
X43358809Y-79652619D01*
X43389761Y-79714523D01*
X43420714Y-79745476D01*
X43482619Y-79776428D01*
X43606428Y-79776428D01*
X43668333Y-79745476D01*
X43699285Y-79714523D01*
X43730238Y-79652619D01*
X12792142Y-107384047D02*
X12575476Y-107074523D01*
X12420714Y-107384047D02*
X12420714Y-106734047D01*
X12668333Y-106734047D01*
X12730238Y-106765000D01*
X12761190Y-106795952D01*
X12792142Y-106857857D01*
X12792142Y-106950714D01*
X12761190Y-107012619D01*
X12730238Y-107043571D01*
X12668333Y-107074523D01*
X12420714Y-107074523D01*
X13039761Y-106795952D02*
X13070714Y-106765000D01*
X13132619Y-106734047D01*
X13287380Y-106734047D01*
X13349285Y-106765000D01*
X13380238Y-106795952D01*
X13411190Y-106857857D01*
X13411190Y-106919761D01*
X13380238Y-107012619D01*
X13008809Y-107384047D01*
X13411190Y-107384047D01*
X13627857Y-106734047D02*
X14061190Y-106734047D01*
X13782619Y-107384047D01*
X13021666Y-82632142D02*
X12990714Y-82663095D01*
X12897857Y-82694047D01*
X12835952Y-82694047D01*
X12743095Y-82663095D01*
X12681190Y-82601190D01*
X12650238Y-82539285D01*
X12619285Y-82415476D01*
X12619285Y-82322619D01*
X12650238Y-82198809D01*
X12681190Y-82136904D01*
X12743095Y-82075000D01*
X12835952Y-82044047D01*
X12897857Y-82044047D01*
X12990714Y-82075000D01*
X13021666Y-82105952D01*
X13269285Y-82105952D02*
X13300238Y-82075000D01*
X13362142Y-82044047D01*
X13516904Y-82044047D01*
X13578809Y-82075000D01*
X13609761Y-82105952D01*
X13640714Y-82167857D01*
X13640714Y-82229761D01*
X13609761Y-82322619D01*
X13238333Y-82694047D01*
X13640714Y-82694047D01*
X9301666Y-43852142D02*
X9270714Y-43883095D01*
X9177857Y-43914047D01*
X9115952Y-43914047D01*
X9023095Y-43883095D01*
X8961190Y-43821190D01*
X8930238Y-43759285D01*
X8899285Y-43635476D01*
X8899285Y-43542619D01*
X8930238Y-43418809D01*
X8961190Y-43356904D01*
X9023095Y-43295000D01*
X9115952Y-43264047D01*
X9177857Y-43264047D01*
X9270714Y-43295000D01*
X9301666Y-43325952D01*
X9673095Y-43542619D02*
X9611190Y-43511666D01*
X9580238Y-43480714D01*
X9549285Y-43418809D01*
X9549285Y-43387857D01*
X9580238Y-43325952D01*
X9611190Y-43295000D01*
X9673095Y-43264047D01*
X9796904Y-43264047D01*
X9858809Y-43295000D01*
X9889761Y-43325952D01*
X9920714Y-43387857D01*
X9920714Y-43418809D01*
X9889761Y-43480714D01*
X9858809Y-43511666D01*
X9796904Y-43542619D01*
X9673095Y-43542619D01*
X9611190Y-43573571D01*
X9580238Y-43604523D01*
X9549285Y-43666428D01*
X9549285Y-43790238D01*
X9580238Y-43852142D01*
X9611190Y-43883095D01*
X9673095Y-43914047D01*
X9796904Y-43914047D01*
X9858809Y-43883095D01*
X9889761Y-43852142D01*
X9920714Y-43790238D01*
X9920714Y-43666428D01*
X9889761Y-43604523D01*
X9858809Y-43573571D01*
X9796904Y-43542619D01*
X10631904Y-76092380D02*
X10631904Y-75092380D01*
X10870000Y-75092380D01*
X11012857Y-75140000D01*
X11108095Y-75235238D01*
X11155714Y-75330476D01*
X11203333Y-75520952D01*
X11203333Y-75663809D01*
X11155714Y-75854285D01*
X11108095Y-75949523D01*
X11012857Y-76044761D01*
X10870000Y-76092380D01*
X10631904Y-76092380D01*
X12155714Y-76092380D02*
X11584285Y-76092380D01*
X11870000Y-76092380D02*
X11870000Y-75092380D01*
X11774761Y-75235238D01*
X11679523Y-75330476D01*
X11584285Y-75378095D01*
X36622142Y-108184047D02*
X36405476Y-107874523D01*
X36250714Y-108184047D02*
X36250714Y-107534047D01*
X36498333Y-107534047D01*
X36560238Y-107565000D01*
X36591190Y-107595952D01*
X36622142Y-107657857D01*
X36622142Y-107750714D01*
X36591190Y-107812619D01*
X36560238Y-107843571D01*
X36498333Y-107874523D01*
X36250714Y-107874523D01*
X36869761Y-107595952D02*
X36900714Y-107565000D01*
X36962619Y-107534047D01*
X37117380Y-107534047D01*
X37179285Y-107565000D01*
X37210238Y-107595952D01*
X37241190Y-107657857D01*
X37241190Y-107719761D01*
X37210238Y-107812619D01*
X36838809Y-108184047D01*
X37241190Y-108184047D01*
X37798333Y-107750714D02*
X37798333Y-108184047D01*
X37643571Y-107503095D02*
X37488809Y-107967380D01*
X37891190Y-107967380D01*
X45712142Y-49494047D02*
X45495476Y-49184523D01*
X45340714Y-49494047D02*
X45340714Y-48844047D01*
X45588333Y-48844047D01*
X45650238Y-48875000D01*
X45681190Y-48905952D01*
X45712142Y-48967857D01*
X45712142Y-49060714D01*
X45681190Y-49122619D01*
X45650238Y-49153571D01*
X45588333Y-49184523D01*
X45340714Y-49184523D01*
X46331190Y-49494047D02*
X45959761Y-49494047D01*
X46145476Y-49494047D02*
X46145476Y-48844047D01*
X46083571Y-48936904D01*
X46021666Y-48998809D01*
X45959761Y-49029761D01*
X46919285Y-48844047D02*
X46609761Y-48844047D01*
X46578809Y-49153571D01*
X46609761Y-49122619D01*
X46671666Y-49091666D01*
X46826428Y-49091666D01*
X46888333Y-49122619D01*
X46919285Y-49153571D01*
X46950238Y-49215476D01*
X46950238Y-49370238D01*
X46919285Y-49432142D01*
X46888333Y-49463095D01*
X46826428Y-49494047D01*
X46671666Y-49494047D01*
X46609761Y-49463095D01*
X46578809Y-49432142D01*
D15*
X23033483Y-4062380D02*
X23033483Y-4776666D01*
X22985864Y-4919523D01*
X22890626Y-5014761D01*
X22747769Y-5062380D01*
X22652531Y-5062380D01*
X23462055Y-4157619D02*
X23509674Y-4110000D01*
X23604912Y-4062380D01*
X23843007Y-4062380D01*
X23938245Y-4110000D01*
X23985864Y-4157619D01*
X24033483Y-4252857D01*
X24033483Y-4348095D01*
X23985864Y-4490952D01*
X23414436Y-5062380D01*
X24033483Y-5062380D01*
D11*
X10712380Y-56538095D02*
X9712380Y-56538095D01*
X9712380Y-56300000D01*
X9760000Y-56157142D01*
X9855238Y-56061904D01*
X9950476Y-56014285D01*
X10140952Y-55966666D01*
X10283809Y-55966666D01*
X10474285Y-56014285D01*
X10569523Y-56061904D01*
X10664761Y-56157142D01*
X10712380Y-56300000D01*
X10712380Y-56538095D01*
X9712380Y-55633333D02*
X9712380Y-54966666D01*
X10712380Y-55395238D01*
X39722142Y-74984047D02*
X39505476Y-74674523D01*
X39350714Y-74984047D02*
X39350714Y-74334047D01*
X39598333Y-74334047D01*
X39660238Y-74365000D01*
X39691190Y-74395952D01*
X39722142Y-74457857D01*
X39722142Y-74550714D01*
X39691190Y-74612619D01*
X39660238Y-74643571D01*
X39598333Y-74674523D01*
X39350714Y-74674523D01*
X39938809Y-74334047D02*
X40341190Y-74334047D01*
X40124523Y-74581666D01*
X40217380Y-74581666D01*
X40279285Y-74612619D01*
X40310238Y-74643571D01*
X40341190Y-74705476D01*
X40341190Y-74860238D01*
X40310238Y-74922142D01*
X40279285Y-74953095D01*
X40217380Y-74984047D01*
X40031666Y-74984047D01*
X39969761Y-74953095D01*
X39938809Y-74922142D01*
X40650714Y-74984047D02*
X40774523Y-74984047D01*
X40836428Y-74953095D01*
X40867380Y-74922142D01*
X40929285Y-74829285D01*
X40960238Y-74705476D01*
X40960238Y-74457857D01*
X40929285Y-74395952D01*
X40898333Y-74365000D01*
X40836428Y-74334047D01*
X40712619Y-74334047D01*
X40650714Y-74365000D01*
X40619761Y-74395952D01*
X40588809Y-74457857D01*
X40588809Y-74612619D01*
X40619761Y-74674523D01*
X40650714Y-74705476D01*
X40712619Y-74736428D01*
X40836428Y-74736428D01*
X40898333Y-74705476D01*
X40929285Y-74674523D01*
X40960238Y-74612619D01*
X10032380Y-85738095D02*
X9032380Y-85738095D01*
X9032380Y-85500000D01*
X9080000Y-85357142D01*
X9175238Y-85261904D01*
X9270476Y-85214285D01*
X9460952Y-85166666D01*
X9603809Y-85166666D01*
X9794285Y-85214285D01*
X9889523Y-85261904D01*
X9984761Y-85357142D01*
X10032380Y-85500000D01*
X10032380Y-85738095D01*
X10032380Y-84690476D02*
X10032380Y-84500000D01*
X9984761Y-84404761D01*
X9937142Y-84357142D01*
X9794285Y-84261904D01*
X9603809Y-84214285D01*
X9222857Y-84214285D01*
X9127619Y-84261904D01*
X9080000Y-84309523D01*
X9032380Y-84404761D01*
X9032380Y-84595238D01*
X9080000Y-84690476D01*
X9127619Y-84738095D01*
X9222857Y-84785714D01*
X9460952Y-84785714D01*
X9556190Y-84738095D01*
X9603809Y-84690476D01*
X9651428Y-84595238D01*
X9651428Y-84404761D01*
X9603809Y-84309523D01*
X9556190Y-84261904D01*
X9460952Y-84214285D01*
X48441666Y-12174047D02*
X48225000Y-11864523D01*
X48070238Y-12174047D02*
X48070238Y-11524047D01*
X48317857Y-11524047D01*
X48379761Y-11555000D01*
X48410714Y-11585952D01*
X48441666Y-11647857D01*
X48441666Y-11740714D01*
X48410714Y-11802619D01*
X48379761Y-11833571D01*
X48317857Y-11864523D01*
X48070238Y-11864523D01*
X48658333Y-11524047D02*
X49060714Y-11524047D01*
X48844047Y-11771666D01*
X48936904Y-11771666D01*
X48998809Y-11802619D01*
X49029761Y-11833571D01*
X49060714Y-11895476D01*
X49060714Y-12050238D01*
X49029761Y-12112142D01*
X48998809Y-12143095D01*
X48936904Y-12174047D01*
X48751190Y-12174047D01*
X48689285Y-12143095D01*
X48658333Y-12112142D01*
X46111666Y-24834047D02*
X45895000Y-24524523D01*
X45740238Y-24834047D02*
X45740238Y-24184047D01*
X45987857Y-24184047D01*
X46049761Y-24215000D01*
X46080714Y-24245952D01*
X46111666Y-24307857D01*
X46111666Y-24400714D01*
X46080714Y-24462619D01*
X46049761Y-24493571D01*
X45987857Y-24524523D01*
X45740238Y-24524523D01*
X46668809Y-24184047D02*
X46545000Y-24184047D01*
X46483095Y-24215000D01*
X46452142Y-24245952D01*
X46390238Y-24338809D01*
X46359285Y-24462619D01*
X46359285Y-24710238D01*
X46390238Y-24772142D01*
X46421190Y-24803095D01*
X46483095Y-24834047D01*
X46606904Y-24834047D01*
X46668809Y-24803095D01*
X46699761Y-24772142D01*
X46730714Y-24710238D01*
X46730714Y-24555476D01*
X46699761Y-24493571D01*
X46668809Y-24462619D01*
X46606904Y-24431666D01*
X46483095Y-24431666D01*
X46421190Y-24462619D01*
X46390238Y-24493571D01*
X46359285Y-24555476D01*
X14352142Y-57708333D02*
X14383095Y-57739285D01*
X14414047Y-57832142D01*
X14414047Y-57894047D01*
X14383095Y-57986904D01*
X14321190Y-58048809D01*
X14259285Y-58079761D01*
X14135476Y-58110714D01*
X14042619Y-58110714D01*
X13918809Y-58079761D01*
X13856904Y-58048809D01*
X13795000Y-57986904D01*
X13764047Y-57894047D01*
X13764047Y-57832142D01*
X13795000Y-57739285D01*
X13825952Y-57708333D01*
X14414047Y-57398809D02*
X14414047Y-57275000D01*
X14383095Y-57213095D01*
X14352142Y-57182142D01*
X14259285Y-57120238D01*
X14135476Y-57089285D01*
X13887857Y-57089285D01*
X13825952Y-57120238D01*
X13795000Y-57151190D01*
X13764047Y-57213095D01*
X13764047Y-57336904D01*
X13795000Y-57398809D01*
X13825952Y-57429761D01*
X13887857Y-57460714D01*
X14042619Y-57460714D01*
X14104523Y-57429761D01*
X14135476Y-57398809D01*
X14166428Y-57336904D01*
X14166428Y-57213095D01*
X14135476Y-57151190D01*
X14104523Y-57120238D01*
X14042619Y-57089285D01*
X25071666Y-103762142D02*
X25040714Y-103793095D01*
X24947857Y-103824047D01*
X24885952Y-103824047D01*
X24793095Y-103793095D01*
X24731190Y-103731190D01*
X24700238Y-103669285D01*
X24669285Y-103545476D01*
X24669285Y-103452619D01*
X24700238Y-103328809D01*
X24731190Y-103266904D01*
X24793095Y-103205000D01*
X24885952Y-103174047D01*
X24947857Y-103174047D01*
X25040714Y-103205000D01*
X25071666Y-103235952D01*
X25288333Y-103174047D02*
X25721666Y-103174047D01*
X25443095Y-103824047D01*
X15368095Y-59862380D02*
X15368095Y-60671904D01*
X15415714Y-60767142D01*
X15463333Y-60814761D01*
X15558571Y-60862380D01*
X15749047Y-60862380D01*
X15844285Y-60814761D01*
X15891904Y-60767142D01*
X15939523Y-60671904D01*
X15939523Y-59862380D01*
X16939523Y-60862380D02*
X16368095Y-60862380D01*
X16653809Y-60862380D02*
X16653809Y-59862380D01*
X16558571Y-60005238D01*
X16463333Y-60100476D01*
X16368095Y-60148095D01*
X16421666Y-98714047D02*
X16205000Y-98404523D01*
X16050238Y-98714047D02*
X16050238Y-98064047D01*
X16297857Y-98064047D01*
X16359761Y-98095000D01*
X16390714Y-98125952D01*
X16421666Y-98187857D01*
X16421666Y-98280714D01*
X16390714Y-98342619D01*
X16359761Y-98373571D01*
X16297857Y-98404523D01*
X16050238Y-98404523D01*
X17009761Y-98064047D02*
X16700238Y-98064047D01*
X16669285Y-98373571D01*
X16700238Y-98342619D01*
X16762142Y-98311666D01*
X16916904Y-98311666D01*
X16978809Y-98342619D01*
X17009761Y-98373571D01*
X17040714Y-98435476D01*
X17040714Y-98590238D01*
X17009761Y-98652142D01*
X16978809Y-98683095D01*
X16916904Y-98714047D01*
X16762142Y-98714047D01*
X16700238Y-98683095D01*
X16669285Y-98652142D01*
X14941666Y-80432142D02*
X14910714Y-80463095D01*
X14817857Y-80494047D01*
X14755952Y-80494047D01*
X14663095Y-80463095D01*
X14601190Y-80401190D01*
X14570238Y-80339285D01*
X14539285Y-80215476D01*
X14539285Y-80122619D01*
X14570238Y-79998809D01*
X14601190Y-79936904D01*
X14663095Y-79875000D01*
X14755952Y-79844047D01*
X14817857Y-79844047D01*
X14910714Y-79875000D01*
X14941666Y-79905952D01*
X15560714Y-80494047D02*
X15189285Y-80494047D01*
X15375000Y-80494047D02*
X15375000Y-79844047D01*
X15313095Y-79936904D01*
X15251190Y-79998809D01*
X15189285Y-80029761D01*
X33942142Y-48954047D02*
X33725476Y-48644523D01*
X33570714Y-48954047D02*
X33570714Y-48304047D01*
X33818333Y-48304047D01*
X33880238Y-48335000D01*
X33911190Y-48365952D01*
X33942142Y-48427857D01*
X33942142Y-48520714D01*
X33911190Y-48582619D01*
X33880238Y-48613571D01*
X33818333Y-48644523D01*
X33570714Y-48644523D01*
X34158809Y-48304047D02*
X34561190Y-48304047D01*
X34344523Y-48551666D01*
X34437380Y-48551666D01*
X34499285Y-48582619D01*
X34530238Y-48613571D01*
X34561190Y-48675476D01*
X34561190Y-48830238D01*
X34530238Y-48892142D01*
X34499285Y-48923095D01*
X34437380Y-48954047D01*
X34251666Y-48954047D01*
X34189761Y-48923095D01*
X34158809Y-48892142D01*
X34963571Y-48304047D02*
X35025476Y-48304047D01*
X35087380Y-48335000D01*
X35118333Y-48365952D01*
X35149285Y-48427857D01*
X35180238Y-48551666D01*
X35180238Y-48706428D01*
X35149285Y-48830238D01*
X35118333Y-48892142D01*
X35087380Y-48923095D01*
X35025476Y-48954047D01*
X34963571Y-48954047D01*
X34901666Y-48923095D01*
X34870714Y-48892142D01*
X34839761Y-48830238D01*
X34808809Y-48706428D01*
X34808809Y-48551666D01*
X34839761Y-48427857D01*
X34870714Y-48365952D01*
X34901666Y-48335000D01*
X34963571Y-48304047D01*
X23382142Y-40972142D02*
X23351190Y-41003095D01*
X23258333Y-41034047D01*
X23196428Y-41034047D01*
X23103571Y-41003095D01*
X23041666Y-40941190D01*
X23010714Y-40879285D01*
X22979761Y-40755476D01*
X22979761Y-40662619D01*
X23010714Y-40538809D01*
X23041666Y-40476904D01*
X23103571Y-40415000D01*
X23196428Y-40384047D01*
X23258333Y-40384047D01*
X23351190Y-40415000D01*
X23382142Y-40445952D01*
X24001190Y-41034047D02*
X23629761Y-41034047D01*
X23815476Y-41034047D02*
X23815476Y-40384047D01*
X23753571Y-40476904D01*
X23691666Y-40538809D01*
X23629761Y-40569761D01*
X24310714Y-41034047D02*
X24434523Y-41034047D01*
X24496428Y-41003095D01*
X24527380Y-40972142D01*
X24589285Y-40879285D01*
X24620238Y-40755476D01*
X24620238Y-40507857D01*
X24589285Y-40445952D01*
X24558333Y-40415000D01*
X24496428Y-40384047D01*
X24372619Y-40384047D01*
X24310714Y-40415000D01*
X24279761Y-40445952D01*
X24248809Y-40507857D01*
X24248809Y-40662619D01*
X24279761Y-40724523D01*
X24310714Y-40755476D01*
X24372619Y-40786428D01*
X24496428Y-40786428D01*
X24558333Y-40755476D01*
X24589285Y-40724523D01*
X24620238Y-40662619D01*
X8002380Y-68048095D02*
X7002380Y-68048095D01*
X7002380Y-67810000D01*
X7050000Y-67667142D01*
X7145238Y-67571904D01*
X7240476Y-67524285D01*
X7430952Y-67476666D01*
X7573809Y-67476666D01*
X7764285Y-67524285D01*
X7859523Y-67571904D01*
X7954761Y-67667142D01*
X8002380Y-67810000D01*
X8002380Y-68048095D01*
X7430952Y-66905238D02*
X7383333Y-67000476D01*
X7335714Y-67048095D01*
X7240476Y-67095714D01*
X7192857Y-67095714D01*
X7097619Y-67048095D01*
X7050000Y-67000476D01*
X7002380Y-66905238D01*
X7002380Y-66714761D01*
X7050000Y-66619523D01*
X7097619Y-66571904D01*
X7192857Y-66524285D01*
X7240476Y-66524285D01*
X7335714Y-66571904D01*
X7383333Y-66619523D01*
X7430952Y-66714761D01*
X7430952Y-66905238D01*
X7478571Y-67000476D01*
X7526190Y-67048095D01*
X7621428Y-67095714D01*
X7811904Y-67095714D01*
X7907142Y-67048095D01*
X7954761Y-67000476D01*
X8002380Y-66905238D01*
X8002380Y-66714761D01*
X7954761Y-66619523D01*
X7907142Y-66571904D01*
X7811904Y-66524285D01*
X7621428Y-66524285D01*
X7526190Y-66571904D01*
X7478571Y-66619523D01*
X7430952Y-66714761D01*
X44431666Y-2984047D02*
X44215000Y-2674523D01*
X44060238Y-2984047D02*
X44060238Y-2334047D01*
X44307857Y-2334047D01*
X44369761Y-2365000D01*
X44400714Y-2395952D01*
X44431666Y-2457857D01*
X44431666Y-2550714D01*
X44400714Y-2612619D01*
X44369761Y-2643571D01*
X44307857Y-2674523D01*
X44060238Y-2674523D01*
X44679285Y-2395952D02*
X44710238Y-2365000D01*
X44772142Y-2334047D01*
X44926904Y-2334047D01*
X44988809Y-2365000D01*
X45019761Y-2395952D01*
X45050714Y-2457857D01*
X45050714Y-2519761D01*
X45019761Y-2612619D01*
X44648333Y-2984047D01*
X45050714Y-2984047D01*
X21914761Y-106507619D02*
X21819523Y-106460000D01*
X21724285Y-106364761D01*
X21581428Y-106221904D01*
X21486190Y-106174285D01*
X21390952Y-106174285D01*
X21438571Y-106412380D02*
X21343333Y-106364761D01*
X21248095Y-106269523D01*
X21200476Y-106079047D01*
X21200476Y-105745714D01*
X21248095Y-105555238D01*
X21343333Y-105460000D01*
X21438571Y-105412380D01*
X21629047Y-105412380D01*
X21724285Y-105460000D01*
X21819523Y-105555238D01*
X21867142Y-105745714D01*
X21867142Y-106079047D01*
X21819523Y-106269523D01*
X21724285Y-106364761D01*
X21629047Y-106412380D01*
X21438571Y-106412380D01*
X22200476Y-105412380D02*
X22819523Y-105412380D01*
X22486190Y-105793333D01*
X22629047Y-105793333D01*
X22724285Y-105840952D01*
X22771904Y-105888571D01*
X22819523Y-105983809D01*
X22819523Y-106221904D01*
X22771904Y-106317142D01*
X22724285Y-106364761D01*
X22629047Y-106412380D01*
X22343333Y-106412380D01*
X22248095Y-106364761D01*
X22200476Y-106317142D01*
D16*
X34862923Y-50726790D02*
X34997896Y-50761576D01*
X34997896Y-50761576D02*
X35125911Y-50825726D01*
X35125911Y-50825726D02*
X35240764Y-50914749D01*
X35240764Y-50914749D02*
X35336250Y-51024151D01*
X35336250Y-51024151D02*
X35385657Y-51105355D01*
X35385657Y-51105355D02*
X35411087Y-51158710D01*
X35411087Y-51158710D02*
X35427501Y-51206409D01*
X35427501Y-51206409D02*
X35437345Y-51259633D01*
X35437345Y-51259633D02*
X35443071Y-51329563D01*
X35443071Y-51329563D02*
X35445290Y-51377667D01*
X35445290Y-51377667D02*
X35445901Y-51493428D01*
X35445901Y-51493428D02*
X35436828Y-51601041D01*
X35436828Y-51601041D02*
X35416251Y-51704581D01*
X35416251Y-51704581D02*
X35382345Y-51808120D01*
X35382345Y-51808120D02*
X35333290Y-51915732D01*
X35333290Y-51915732D02*
X35267262Y-52031491D01*
X35267262Y-52031491D02*
X35182440Y-52159470D01*
X35182440Y-52159470D02*
X35077000Y-52303742D01*
X35077000Y-52303742D02*
X34968038Y-52444467D01*
X34968038Y-52444467D02*
X34893610Y-52539200D01*
X34893610Y-52539200D02*
X34826583Y-52625294D01*
X34826583Y-52625294D02*
X34769691Y-52699170D01*
X34769691Y-52699170D02*
X34725672Y-52757249D01*
X34725672Y-52757249D02*
X34697262Y-52795954D01*
X34697262Y-52795954D02*
X34687196Y-52811694D01*
X34687196Y-52811694D02*
X34703296Y-52815090D01*
X34703296Y-52815090D02*
X34748711Y-52818522D01*
X34748711Y-52818522D02*
X34818890Y-52821806D01*
X34818890Y-52821806D02*
X34909284Y-52824759D01*
X34909284Y-52824759D02*
X35015341Y-52827196D01*
X35015341Y-52827196D02*
X35106469Y-52828627D01*
X35106469Y-52828627D02*
X35526005Y-52833934D01*
X35526005Y-52833934D02*
X35636918Y-52888575D01*
X35636918Y-52888575D02*
X35763763Y-52969219D01*
X35763763Y-52969219D02*
X35871735Y-53074269D01*
X35871735Y-53074269D02*
X35959538Y-53199183D01*
X35959538Y-53199183D02*
X36025878Y-53339421D01*
X36025878Y-53339421D02*
X36069460Y-53490442D01*
X36069460Y-53490442D02*
X36088990Y-53647705D01*
X36088990Y-53647705D02*
X36083173Y-53806668D01*
X36083173Y-53806668D02*
X36050715Y-53962792D01*
X36050715Y-53962792D02*
X35990322Y-54111534D01*
X35990322Y-54111534D02*
X35987232Y-54117405D01*
X35987232Y-54117405D02*
X35967708Y-54147730D01*
X35967708Y-54147730D02*
X35929050Y-54201902D01*
X35929050Y-54201902D02*
X35872941Y-54277784D01*
X35872941Y-54277784D02*
X35801062Y-54373239D01*
X35801062Y-54373239D02*
X35715094Y-54486130D01*
X35715094Y-54486130D02*
X35616721Y-54614321D01*
X35616721Y-54614321D02*
X35507622Y-54755673D01*
X35507622Y-54755673D02*
X35389481Y-54908051D01*
X35389481Y-54908051D02*
X35263979Y-55069316D01*
X35263979Y-55069316D02*
X35132797Y-55237333D01*
X35132797Y-55237333D02*
X34997618Y-55409965D01*
X34997618Y-55409965D02*
X34860122Y-55585074D01*
X34860122Y-55585074D02*
X34721992Y-55760523D01*
X34721992Y-55760523D02*
X34584910Y-55934176D01*
X34584910Y-55934176D02*
X34450557Y-56103895D01*
X34450557Y-56103895D02*
X34320615Y-56267544D01*
X34320615Y-56267544D02*
X34196765Y-56422986D01*
X34196765Y-56422986D02*
X34080690Y-56568083D01*
X34080690Y-56568083D02*
X33974071Y-56700699D01*
X33974071Y-56700699D02*
X33878590Y-56818697D01*
X33878590Y-56818697D02*
X33795928Y-56919939D01*
X33795928Y-56919939D02*
X33727767Y-57002289D01*
X33727767Y-57002289D02*
X33675790Y-57063611D01*
X33675790Y-57063611D02*
X33641677Y-57101766D01*
X33641677Y-57101766D02*
X33629369Y-57113517D01*
X33629369Y-57113517D02*
X33473029Y-57211921D01*
X33473029Y-57211921D02*
X33312954Y-57283261D01*
X33312954Y-57283261D02*
X33153337Y-57326319D01*
X33153337Y-57326319D02*
X32998376Y-57339875D01*
X32998376Y-57339875D02*
X32886081Y-57329656D01*
X32886081Y-57329656D02*
X32754989Y-57290189D01*
X32754989Y-57290189D02*
X32630111Y-57221845D01*
X32630111Y-57221845D02*
X32517894Y-57129616D01*
X32517894Y-57129616D02*
X32424783Y-57018489D01*
X32424783Y-57018489D02*
X32375573Y-56934476D01*
X32375573Y-56934476D02*
X32322664Y-56791934D01*
X32322664Y-56791934D02*
X32302203Y-56644911D01*
X32302203Y-56644911D02*
X32314248Y-56492194D01*
X32314248Y-56492194D02*
X32358854Y-56332574D01*
X32358854Y-56332574D02*
X32409450Y-56216154D01*
X32409450Y-56216154D02*
X32429061Y-56176628D01*
X32429061Y-56176628D02*
X32447229Y-56141125D01*
X32447229Y-56141125D02*
X32465760Y-56107180D01*
X32465760Y-56107180D02*
X32486459Y-56072327D01*
X32486459Y-56072327D02*
X32511131Y-56034102D01*
X32511131Y-56034102D02*
X32541582Y-55990039D01*
X32541582Y-55990039D02*
X32579617Y-55937673D01*
X32579617Y-55937673D02*
X32627042Y-55874539D01*
X32627042Y-55874539D02*
X32685661Y-55798172D01*
X32685661Y-55798172D02*
X32757280Y-55706107D01*
X32757280Y-55706107D02*
X32843704Y-55595878D01*
X32843704Y-55595878D02*
X32946739Y-55465021D01*
X32946739Y-55465021D02*
X33068190Y-55311070D01*
X33068190Y-55311070D02*
X33124833Y-55239301D01*
X33124833Y-55239301D02*
X33228141Y-55108105D01*
X33228141Y-55108105D02*
X33324785Y-54984787D01*
X33324785Y-54984787D02*
X33412776Y-54871923D01*
X33412776Y-54871923D02*
X33490129Y-54772091D01*
X33490129Y-54772091D02*
X33554855Y-54687868D01*
X33554855Y-54687868D02*
X33604968Y-54621829D01*
X33604968Y-54621829D02*
X33638480Y-54576553D01*
X33638480Y-54576553D02*
X33653405Y-54554615D01*
X33653405Y-54554615D02*
X33654000Y-54553113D01*
X33654000Y-54553113D02*
X33637693Y-54548287D01*
X33637693Y-54548287D02*
X33591276Y-54543720D01*
X33591276Y-54543720D02*
X33518507Y-54539599D01*
X33518507Y-54539599D02*
X33423142Y-54536111D01*
X33423142Y-54536111D02*
X33308938Y-54533441D01*
X33308938Y-54533441D02*
X33234466Y-54532328D01*
X33234466Y-54532328D02*
X32814931Y-54527267D01*
X32814931Y-54527267D02*
X32704017Y-54472625D01*
X32704017Y-54472625D02*
X32577708Y-54392109D01*
X32577708Y-54392109D02*
X32468544Y-54285794D01*
X32468544Y-54285794D02*
X32379005Y-54158411D01*
X32379005Y-54158411D02*
X32311571Y-54014688D01*
X32311571Y-54014688D02*
X32268721Y-53859355D01*
X32268721Y-53859355D02*
X32252936Y-53697139D01*
X32252936Y-53697139D02*
X32255735Y-53617786D01*
X32255735Y-53617786D02*
X32277831Y-53467497D01*
X32277831Y-53467497D02*
X32317857Y-53328449D01*
X32317857Y-53328449D02*
X32372960Y-53210182D01*
X32372960Y-53210182D02*
X32382321Y-53194867D01*
X32382321Y-53194867D02*
X32402337Y-53166481D01*
X32402337Y-53166481D02*
X32440973Y-53114679D01*
X32440973Y-53114679D02*
X32496304Y-53041910D01*
X32496304Y-53041910D02*
X32566407Y-52950624D01*
X32566407Y-52950624D02*
X32649357Y-52843269D01*
X32649357Y-52843269D02*
X32743231Y-52722295D01*
X32743231Y-52722295D02*
X32846104Y-52590150D01*
X32846104Y-52590150D02*
X32956052Y-52449284D01*
X32956052Y-52449284D02*
X33071150Y-52302146D01*
X33071150Y-52302146D02*
X33189476Y-52151185D01*
X33189476Y-52151185D02*
X33309104Y-51998850D01*
X33309104Y-51998850D02*
X33428111Y-51847590D01*
X33428111Y-51847590D02*
X33544572Y-51699855D01*
X33544572Y-51699855D02*
X33656564Y-51558092D01*
X33656564Y-51558092D02*
X33762161Y-51424753D01*
X33762161Y-51424753D02*
X33859441Y-51302285D01*
X33859441Y-51302285D02*
X33946478Y-51193137D01*
X33946478Y-51193137D02*
X34021350Y-51099760D01*
X34021350Y-51099760D02*
X34082130Y-51024601D01*
X34082130Y-51024601D02*
X34126897Y-50970110D01*
X34126897Y-50970110D02*
X34153724Y-50938737D01*
X34153724Y-50938737D02*
X34159656Y-50932615D01*
X34159656Y-50932615D02*
X34277987Y-50850069D01*
X34277987Y-50850069D02*
X34417212Y-50785542D01*
X34417212Y-50785542D02*
X34568006Y-50741762D01*
X34568006Y-50741762D02*
X34721045Y-50721458D01*
X34721045Y-50721458D02*
X34862923Y-50726790D01*
X34862923Y-50726790D02*
X34862923Y-50726790D01*
G36*
X34862923Y-50726790D02*
G01*
X34997896Y-50761576D01*
X35125911Y-50825726D01*
X35240764Y-50914749D01*
X35336250Y-51024151D01*
X35385657Y-51105355D01*
X35411087Y-51158710D01*
X35427501Y-51206409D01*
X35437345Y-51259633D01*
X35443071Y-51329563D01*
X35445290Y-51377667D01*
X35445901Y-51493428D01*
X35436828Y-51601041D01*
X35416251Y-51704581D01*
X35382345Y-51808120D01*
X35333290Y-51915732D01*
X35267262Y-52031491D01*
X35182440Y-52159470D01*
X35077000Y-52303742D01*
X34968038Y-52444467D01*
X34893610Y-52539200D01*
X34826583Y-52625294D01*
X34769691Y-52699170D01*
X34725672Y-52757249D01*
X34697262Y-52795954D01*
X34687196Y-52811694D01*
X34703296Y-52815090D01*
X34748711Y-52818522D01*
X34818890Y-52821806D01*
X34909284Y-52824759D01*
X35015341Y-52827196D01*
X35106469Y-52828627D01*
X35526005Y-52833934D01*
X35636918Y-52888575D01*
X35763763Y-52969219D01*
X35871735Y-53074269D01*
X35959538Y-53199183D01*
X36025878Y-53339421D01*
X36069460Y-53490442D01*
X36088990Y-53647705D01*
X36083173Y-53806668D01*
X36050715Y-53962792D01*
X35990322Y-54111534D01*
X35987232Y-54117405D01*
X35967708Y-54147730D01*
X35929050Y-54201902D01*
X35872941Y-54277784D01*
X35801062Y-54373239D01*
X35715094Y-54486130D01*
X35616721Y-54614321D01*
X35507622Y-54755673D01*
X35389481Y-54908051D01*
X35263979Y-55069316D01*
X35132797Y-55237333D01*
X34997618Y-55409965D01*
X34860122Y-55585074D01*
X34721992Y-55760523D01*
X34584910Y-55934176D01*
X34450557Y-56103895D01*
X34320615Y-56267544D01*
X34196765Y-56422986D01*
X34080690Y-56568083D01*
X33974071Y-56700699D01*
X33878590Y-56818697D01*
X33795928Y-56919939D01*
X33727767Y-57002289D01*
X33675790Y-57063611D01*
X33641677Y-57101766D01*
X33629369Y-57113517D01*
X33473029Y-57211921D01*
X33312954Y-57283261D01*
X33153337Y-57326319D01*
X32998376Y-57339875D01*
X32886081Y-57329656D01*
X32754989Y-57290189D01*
X32630111Y-57221845D01*
X32517894Y-57129616D01*
X32424783Y-57018489D01*
X32375573Y-56934476D01*
X32322664Y-56791934D01*
X32302203Y-56644911D01*
X32314248Y-56492194D01*
X32358854Y-56332574D01*
X32409450Y-56216154D01*
X32429061Y-56176628D01*
X32447229Y-56141125D01*
X32465760Y-56107180D01*
X32486459Y-56072327D01*
X32511131Y-56034102D01*
X32541582Y-55990039D01*
X32579617Y-55937673D01*
X32627042Y-55874539D01*
X32685661Y-55798172D01*
X32757280Y-55706107D01*
X32843704Y-55595878D01*
X32946739Y-55465021D01*
X33068190Y-55311070D01*
X33124833Y-55239301D01*
X33228141Y-55108105D01*
X33324785Y-54984787D01*
X33412776Y-54871923D01*
X33490129Y-54772091D01*
X33554855Y-54687868D01*
X33604968Y-54621829D01*
X33638480Y-54576553D01*
X33653405Y-54554615D01*
X33654000Y-54553113D01*
X33637693Y-54548287D01*
X33591276Y-54543720D01*
X33518507Y-54539599D01*
X33423142Y-54536111D01*
X33308938Y-54533441D01*
X33234466Y-54532328D01*
X32814931Y-54527267D01*
X32704017Y-54472625D01*
X32577708Y-54392109D01*
X32468544Y-54285794D01*
X32379005Y-54158411D01*
X32311571Y-54014688D01*
X32268721Y-53859355D01*
X32252936Y-53697139D01*
X32255735Y-53617786D01*
X32277831Y-53467497D01*
X32317857Y-53328449D01*
X32372960Y-53210182D01*
X32382321Y-53194867D01*
X32402337Y-53166481D01*
X32440973Y-53114679D01*
X32496304Y-53041910D01*
X32566407Y-52950624D01*
X32649357Y-52843269D01*
X32743231Y-52722295D01*
X32846104Y-52590150D01*
X32956052Y-52449284D01*
X33071150Y-52302146D01*
X33189476Y-52151185D01*
X33309104Y-51998850D01*
X33428111Y-51847590D01*
X33544572Y-51699855D01*
X33656564Y-51558092D01*
X33762161Y-51424753D01*
X33859441Y-51302285D01*
X33946478Y-51193137D01*
X34021350Y-51099760D01*
X34082130Y-51024601D01*
X34126897Y-50970110D01*
X34153724Y-50938737D01*
X34159656Y-50932615D01*
X34277987Y-50850069D01*
X34417212Y-50785542D01*
X34568006Y-50741762D01*
X34721045Y-50721458D01*
X34862923Y-50726790D01*
G37*
X34862923Y-50726790D02*
X34997896Y-50761576D01*
X35125911Y-50825726D01*
X35240764Y-50914749D01*
X35336250Y-51024151D01*
X35385657Y-51105355D01*
X35411087Y-51158710D01*
X35427501Y-51206409D01*
X35437345Y-51259633D01*
X35443071Y-51329563D01*
X35445290Y-51377667D01*
X35445901Y-51493428D01*
X35436828Y-51601041D01*
X35416251Y-51704581D01*
X35382345Y-51808120D01*
X35333290Y-51915732D01*
X35267262Y-52031491D01*
X35182440Y-52159470D01*
X35077000Y-52303742D01*
X34968038Y-52444467D01*
X34893610Y-52539200D01*
X34826583Y-52625294D01*
X34769691Y-52699170D01*
X34725672Y-52757249D01*
X34697262Y-52795954D01*
X34687196Y-52811694D01*
X34703296Y-52815090D01*
X34748711Y-52818522D01*
X34818890Y-52821806D01*
X34909284Y-52824759D01*
X35015341Y-52827196D01*
X35106469Y-52828627D01*
X35526005Y-52833934D01*
X35636918Y-52888575D01*
X35763763Y-52969219D01*
X35871735Y-53074269D01*
X35959538Y-53199183D01*
X36025878Y-53339421D01*
X36069460Y-53490442D01*
X36088990Y-53647705D01*
X36083173Y-53806668D01*
X36050715Y-53962792D01*
X35990322Y-54111534D01*
X35987232Y-54117405D01*
X35967708Y-54147730D01*
X35929050Y-54201902D01*
X35872941Y-54277784D01*
X35801062Y-54373239D01*
X35715094Y-54486130D01*
X35616721Y-54614321D01*
X35507622Y-54755673D01*
X35389481Y-54908051D01*
X35263979Y-55069316D01*
X35132797Y-55237333D01*
X34997618Y-55409965D01*
X34860122Y-55585074D01*
X34721992Y-55760523D01*
X34584910Y-55934176D01*
X34450557Y-56103895D01*
X34320615Y-56267544D01*
X34196765Y-56422986D01*
X34080690Y-56568083D01*
X33974071Y-56700699D01*
X33878590Y-56818697D01*
X33795928Y-56919939D01*
X33727767Y-57002289D01*
X33675790Y-57063611D01*
X33641677Y-57101766D01*
X33629369Y-57113517D01*
X33473029Y-57211921D01*
X33312954Y-57283261D01*
X33153337Y-57326319D01*
X32998376Y-57339875D01*
X32886081Y-57329656D01*
X32754989Y-57290189D01*
X32630111Y-57221845D01*
X32517894Y-57129616D01*
X32424783Y-57018489D01*
X32375573Y-56934476D01*
X32322664Y-56791934D01*
X32302203Y-56644911D01*
X32314248Y-56492194D01*
X32358854Y-56332574D01*
X32409450Y-56216154D01*
X32429061Y-56176628D01*
X32447229Y-56141125D01*
X32465760Y-56107180D01*
X32486459Y-56072327D01*
X32511131Y-56034102D01*
X32541582Y-55990039D01*
X32579617Y-55937673D01*
X32627042Y-55874539D01*
X32685661Y-55798172D01*
X32757280Y-55706107D01*
X32843704Y-55595878D01*
X32946739Y-55465021D01*
X33068190Y-55311070D01*
X33124833Y-55239301D01*
X33228141Y-55108105D01*
X33324785Y-54984787D01*
X33412776Y-54871923D01*
X33490129Y-54772091D01*
X33554855Y-54687868D01*
X33604968Y-54621829D01*
X33638480Y-54576553D01*
X33653405Y-54554615D01*
X33654000Y-54553113D01*
X33637693Y-54548287D01*
X33591276Y-54543720D01*
X33518507Y-54539599D01*
X33423142Y-54536111D01*
X33308938Y-54533441D01*
X33234466Y-54532328D01*
X32814931Y-54527267D01*
X32704017Y-54472625D01*
X32577708Y-54392109D01*
X32468544Y-54285794D01*
X32379005Y-54158411D01*
X32311571Y-54014688D01*
X32268721Y-53859355D01*
X32252936Y-53697139D01*
X32255735Y-53617786D01*
X32277831Y-53467497D01*
X32317857Y-53328449D01*
X32372960Y-53210182D01*
X32382321Y-53194867D01*
X32402337Y-53166481D01*
X32440973Y-53114679D01*
X32496304Y-53041910D01*
X32566407Y-52950624D01*
X32649357Y-52843269D01*
X32743231Y-52722295D01*
X32846104Y-52590150D01*
X32956052Y-52449284D01*
X33071150Y-52302146D01*
X33189476Y-52151185D01*
X33309104Y-51998850D01*
X33428111Y-51847590D01*
X33544572Y-51699855D01*
X33656564Y-51558092D01*
X33762161Y-51424753D01*
X33859441Y-51302285D01*
X33946478Y-51193137D01*
X34021350Y-51099760D01*
X34082130Y-51024601D01*
X34126897Y-50970110D01*
X34153724Y-50938737D01*
X34159656Y-50932615D01*
X34277987Y-50850069D01*
X34417212Y-50785542D01*
X34568006Y-50741762D01*
X34721045Y-50721458D01*
X34862923Y-50726790D01*
X23976557Y-50699593D02*
X24119672Y-50758225D01*
X24119672Y-50758225D02*
X24245091Y-50845486D01*
X24245091Y-50845486D02*
X24352237Y-50960785D01*
X24352237Y-50960785D02*
X24440538Y-51103530D01*
X24440538Y-51103530D02*
X24496027Y-51233734D01*
X24496027Y-51233734D02*
X24535400Y-51343800D01*
X24535400Y-51343800D02*
X24543866Y-52783740D01*
X24543866Y-52783740D02*
X24552333Y-54223680D01*
X24552333Y-54223680D02*
X25822333Y-52608238D01*
X25822333Y-52608238D02*
X25984811Y-52401791D01*
X25984811Y-52401791D02*
X26142351Y-52202055D01*
X26142351Y-52202055D02*
X26293596Y-52010728D01*
X26293596Y-52010728D02*
X26437187Y-51829511D01*
X26437187Y-51829511D02*
X26571766Y-51660104D01*
X26571766Y-51660104D02*
X26695976Y-51504206D01*
X26695976Y-51504206D02*
X26808456Y-51363517D01*
X26808456Y-51363517D02*
X26907851Y-51239737D01*
X26907851Y-51239737D02*
X26992801Y-51134564D01*
X26992801Y-51134564D02*
X27061947Y-51049700D01*
X27061947Y-51049700D02*
X27113933Y-50986843D01*
X27113933Y-50986843D02*
X27147399Y-50947693D01*
X27147399Y-50947693D02*
X27159435Y-50934991D01*
X27159435Y-50934991D02*
X27214268Y-50893936D01*
X27214268Y-50893936D02*
X27281349Y-50851968D01*
X27281349Y-50851968D02*
X27320302Y-50831092D01*
X27320302Y-50831092D02*
X27367069Y-50809817D01*
X27367069Y-50809817D02*
X27409456Y-50796271D01*
X27409456Y-50796271D02*
X27457474Y-50788756D01*
X27457474Y-50788756D02*
X27521132Y-50785571D01*
X27521132Y-50785571D02*
X27591866Y-50785000D01*
X27591866Y-50785000D02*
X27676456Y-50785967D01*
X27676456Y-50785967D02*
X27737481Y-50790009D01*
X27737481Y-50790009D02*
X27785219Y-50798835D01*
X27785219Y-50798835D02*
X27829945Y-50814154D01*
X27829945Y-50814154D02*
X27867562Y-50830872D01*
X27867562Y-50830872D02*
X27991815Y-50907102D01*
X27991815Y-50907102D02*
X28103192Y-51011515D01*
X28103192Y-51011515D02*
X28198075Y-51139716D01*
X28198075Y-51139716D02*
X28272848Y-51287311D01*
X28272848Y-51287311D02*
X28296804Y-51352267D01*
X28296804Y-51352267D02*
X28302427Y-51371114D01*
X28302427Y-51371114D02*
X28307363Y-51393032D01*
X28307363Y-51393032D02*
X28311677Y-51420344D01*
X28311677Y-51420344D02*
X28315430Y-51455369D01*
X28315430Y-51455369D02*
X28318686Y-51500429D01*
X28318686Y-51500429D02*
X28321508Y-51557845D01*
X28321508Y-51557845D02*
X28323960Y-51629936D01*
X28323960Y-51629936D02*
X28326105Y-51719025D01*
X28326105Y-51719025D02*
X28328006Y-51827432D01*
X28328006Y-51827432D02*
X28329726Y-51957478D01*
X28329726Y-51957478D02*
X28331328Y-52111484D01*
X28331328Y-52111484D02*
X28332876Y-52291771D01*
X28332876Y-52291771D02*
X28334433Y-52500659D01*
X28334433Y-52500659D02*
X28336061Y-52740470D01*
X28336061Y-52740470D02*
X28336519Y-52810406D01*
X28336519Y-52810406D02*
X28345400Y-54175412D01*
X28345400Y-54175412D02*
X29623867Y-52550232D01*
X29623867Y-52550232D02*
X29786933Y-52343191D01*
X29786933Y-52343191D02*
X29945087Y-52142874D01*
X29945087Y-52142874D02*
X30096970Y-51950973D01*
X30096970Y-51950973D02*
X30241229Y-51769180D01*
X30241229Y-51769180D02*
X30376506Y-51599189D01*
X30376506Y-51599189D02*
X30501447Y-51442691D01*
X30501447Y-51442691D02*
X30614694Y-51301380D01*
X30614694Y-51301380D02*
X30714893Y-51176949D01*
X30714893Y-51176949D02*
X30800687Y-51071089D01*
X30800687Y-51071089D02*
X30870722Y-50985493D01*
X30870722Y-50985493D02*
X30923639Y-50921854D01*
X30923639Y-50921854D02*
X30958085Y-50881865D01*
X30958085Y-50881865D02*
X30971250Y-50868186D01*
X30971250Y-50868186D02*
X31025991Y-50828993D01*
X31025991Y-50828993D02*
X31094169Y-50788133D01*
X31094169Y-50788133D02*
X31140583Y-50764293D01*
X31140583Y-50764293D02*
X31192054Y-50741987D01*
X31192054Y-50741987D02*
X31237852Y-50728088D01*
X31237852Y-50728088D02*
X31288901Y-50720714D01*
X31288901Y-50720714D02*
X31356125Y-50717983D01*
X31356125Y-50717983D02*
X31410333Y-50717793D01*
X31410333Y-50717793D02*
X31492555Y-50719080D01*
X31492555Y-50719080D02*
X31551857Y-50723669D01*
X31551857Y-50723669D02*
X31599159Y-50733557D01*
X31599159Y-50733557D02*
X31645382Y-50750744D01*
X31645382Y-50750744D02*
X31681267Y-50767377D01*
X31681267Y-50767377D02*
X31787822Y-50833617D01*
X31787822Y-50833617D02*
X31890094Y-50924103D01*
X31890094Y-50924103D02*
X31979000Y-51029560D01*
X31979000Y-51029560D02*
X32044333Y-51138328D01*
X32044333Y-51138328D02*
X32057902Y-51166580D01*
X32057902Y-51166580D02*
X32070234Y-51192819D01*
X32070234Y-51192819D02*
X32081385Y-51218707D01*
X32081385Y-51218707D02*
X32091410Y-51245908D01*
X32091410Y-51245908D02*
X32100367Y-51276085D01*
X32100367Y-51276085D02*
X32108310Y-51310901D01*
X32108310Y-51310901D02*
X32115297Y-51352019D01*
X32115297Y-51352019D02*
X32121384Y-51401103D01*
X32121384Y-51401103D02*
X32126627Y-51459816D01*
X32126627Y-51459816D02*
X32131081Y-51529820D01*
X32131081Y-51529820D02*
X32134804Y-51612778D01*
X32134804Y-51612778D02*
X32137850Y-51710355D01*
X32137850Y-51710355D02*
X32140278Y-51824213D01*
X32140278Y-51824213D02*
X32142141Y-51956015D01*
X32142141Y-51956015D02*
X32143498Y-52107425D01*
X32143498Y-52107425D02*
X32144404Y-52280105D01*
X32144404Y-52280105D02*
X32144915Y-52475718D01*
X32144915Y-52475718D02*
X32145087Y-52695929D01*
X32145087Y-52695929D02*
X32144977Y-52942399D01*
X32144977Y-52942399D02*
X32144640Y-53216792D01*
X32144640Y-53216792D02*
X32144134Y-53520772D01*
X32144134Y-53520772D02*
X32143513Y-53856001D01*
X32143513Y-53856001D02*
X32143127Y-54063089D01*
X32143127Y-54063089D02*
X32138467Y-56593134D01*
X32138467Y-56593134D02*
X32093516Y-56716133D01*
X32093516Y-56716133D02*
X32018463Y-56879256D01*
X32018463Y-56879256D02*
X31922166Y-57016216D01*
X31922166Y-57016216D02*
X31804813Y-57126794D01*
X31804813Y-57126794D02*
X31676055Y-57206197D01*
X31676055Y-57206197D02*
X31627010Y-57228507D01*
X31627010Y-57228507D02*
X31583155Y-57242507D01*
X31583155Y-57242507D02*
X31533893Y-57250080D01*
X31533893Y-57250080D02*
X31468623Y-57253108D01*
X31468623Y-57253108D02*
X31409455Y-57253530D01*
X31409455Y-57253530D02*
X31329643Y-57252807D01*
X31329643Y-57252807D02*
X31272265Y-57249009D01*
X31272265Y-57249009D02*
X31225895Y-57239703D01*
X31225895Y-57239703D02*
X31179107Y-57222453D01*
X31179107Y-57222453D02*
X31120475Y-57194824D01*
X31120475Y-57194824D02*
X31110216Y-57189765D01*
X31110216Y-57189765D02*
X30977587Y-57106452D01*
X30977587Y-57106452D02*
X30867979Y-56998633D01*
X30867979Y-56998633D02*
X30780342Y-56865256D01*
X30780342Y-56865256D02*
X30773596Y-56852159D01*
X30773596Y-56852159D02*
X30756256Y-56817845D01*
X30756256Y-56817845D02*
X30741049Y-56786441D01*
X30741049Y-56786441D02*
X30727833Y-56755594D01*
X30727833Y-56755594D02*
X30716468Y-56722948D01*
X30716468Y-56722948D02*
X30706813Y-56686147D01*
X30706813Y-56686147D02*
X30698728Y-56642835D01*
X30698728Y-56642835D02*
X30692073Y-56590658D01*
X30692073Y-56590658D02*
X30686705Y-56527259D01*
X30686705Y-56527259D02*
X30682485Y-56450284D01*
X30682485Y-56450284D02*
X30679271Y-56357377D01*
X30679271Y-56357377D02*
X30676924Y-56246182D01*
X30676924Y-56246182D02*
X30675303Y-56114345D01*
X30675303Y-56114345D02*
X30674266Y-55959509D01*
X30674266Y-55959509D02*
X30673673Y-55779319D01*
X30673673Y-55779319D02*
X30673383Y-55571420D01*
X30673383Y-55571420D02*
X30673256Y-55333456D01*
X30673256Y-55333456D02*
X30673198Y-55171409D01*
X30673198Y-55171409D02*
X30672663Y-53782200D01*
X30672663Y-53782200D02*
X30632551Y-53827751D01*
X30632551Y-53827751D02*
X30617016Y-53846807D01*
X30617016Y-53846807D02*
X30581925Y-53890780D01*
X30581925Y-53890780D02*
X30528635Y-53957951D01*
X30528635Y-53957951D02*
X30458501Y-54046598D01*
X30458501Y-54046598D02*
X30372881Y-54155001D01*
X30372881Y-54155001D02*
X30273130Y-54281439D01*
X30273130Y-54281439D02*
X30160607Y-54424191D01*
X30160607Y-54424191D02*
X30036666Y-54581538D01*
X30036666Y-54581538D02*
X29902665Y-54751757D01*
X29902665Y-54751757D02*
X29759961Y-54933129D01*
X29759961Y-54933129D02*
X29609909Y-55123933D01*
X29609909Y-55123933D02*
X29453867Y-55322448D01*
X29453867Y-55322448D02*
X29377618Y-55419484D01*
X29377618Y-55419484D02*
X29218231Y-55622173D01*
X29218231Y-55622173D02*
X29063470Y-55818640D01*
X29063470Y-55818640D02*
X28914759Y-56007097D01*
X28914759Y-56007097D02*
X28773518Y-56185757D01*
X28773518Y-56185757D02*
X28641171Y-56352832D01*
X28641171Y-56352832D02*
X28519138Y-56506534D01*
X28519138Y-56506534D02*
X28408843Y-56645075D01*
X28408843Y-56645075D02*
X28311707Y-56766668D01*
X28311707Y-56766668D02*
X28229153Y-56869525D01*
X28229153Y-56869525D02*
X28162602Y-56951858D01*
X28162602Y-56951858D02*
X28113476Y-57011879D01*
X28113476Y-57011879D02*
X28083198Y-57047801D01*
X28083198Y-57047801D02*
X28076298Y-57055424D01*
X28076298Y-57055424D02*
X27999102Y-57123405D01*
X27999102Y-57123405D02*
X27910799Y-57182868D01*
X27910799Y-57182868D02*
X27880089Y-57199357D01*
X27880089Y-57199357D02*
X27826206Y-57224617D01*
X27826206Y-57224617D02*
X27781334Y-57240533D01*
X27781334Y-57240533D02*
X27734481Y-57249236D01*
X27734481Y-57249236D02*
X27674656Y-57252857D01*
X27674656Y-57252857D02*
X27600689Y-57253533D01*
X27600689Y-57253533D02*
X27519371Y-57252615D01*
X27519371Y-57252615D02*
X27460580Y-57248413D01*
X27460580Y-57248413D02*
X27412999Y-57238756D01*
X27412999Y-57238756D02*
X27365306Y-57221475D01*
X27365306Y-57221475D02*
X27315598Y-57198874D01*
X27315598Y-57198874D02*
X27188766Y-57120625D01*
X27188766Y-57120625D02*
X27077567Y-57015407D01*
X27077567Y-57015407D02*
X26985724Y-56887957D01*
X26985724Y-56887957D02*
X26916964Y-56743011D01*
X26916964Y-56743011D02*
X26890559Y-56658423D01*
X26890559Y-56658423D02*
X26885600Y-56635872D01*
X26885600Y-56635872D02*
X26881279Y-56607736D01*
X26881279Y-56607736D02*
X26877555Y-56571707D01*
X26877555Y-56571707D02*
X26874383Y-56525477D01*
X26874383Y-56525477D02*
X26871723Y-56466740D01*
X26871723Y-56466740D02*
X26869532Y-56393188D01*
X26869532Y-56393188D02*
X26867766Y-56302512D01*
X26867766Y-56302512D02*
X26866384Y-56192405D01*
X26866384Y-56192405D02*
X26865343Y-56060560D01*
X26865343Y-56060560D02*
X26864600Y-55904669D01*
X26864600Y-55904669D02*
X26864113Y-55722424D01*
X26864113Y-55722424D02*
X26863840Y-55511519D01*
X26863840Y-55511519D02*
X26863737Y-55269644D01*
X26863737Y-55269644D02*
X26863733Y-55202541D01*
X26863733Y-55202541D02*
X26863733Y-53850703D01*
X26863733Y-53850703D02*
X26823914Y-53892652D01*
X26823914Y-53892652D02*
X26808477Y-53911178D01*
X26808477Y-53911178D02*
X26773475Y-53954653D01*
X26773475Y-53954653D02*
X26720248Y-54021380D01*
X26720248Y-54021380D02*
X26650136Y-54109663D01*
X26650136Y-54109663D02*
X26564479Y-54217805D01*
X26564479Y-54217805D02*
X26464616Y-54344111D01*
X26464616Y-54344111D02*
X26351887Y-54486882D01*
X26351887Y-54486882D02*
X26227632Y-54644424D01*
X26227632Y-54644424D02*
X26093190Y-54815040D01*
X26093190Y-54815040D02*
X25949902Y-54997033D01*
X25949902Y-54997033D02*
X25799107Y-55188707D01*
X25799107Y-55188707D02*
X25642145Y-55388366D01*
X25642145Y-55388366D02*
X25543104Y-55514420D01*
X25543104Y-55514420D02*
X25382475Y-55718637D01*
X25382475Y-55718637D02*
X25226717Y-55916142D01*
X25226717Y-55916142D02*
X25077206Y-56105213D01*
X25077206Y-56105213D02*
X24935325Y-56284127D01*
X24935325Y-56284127D02*
X24802450Y-56451163D01*
X24802450Y-56451163D02*
X24679964Y-56604597D01*
X24679964Y-56604597D02*
X24569243Y-56742708D01*
X24569243Y-56742708D02*
X24471669Y-56863772D01*
X24471669Y-56863772D02*
X24388621Y-56966069D01*
X24388621Y-56966069D02*
X24321478Y-57047875D01*
X24321478Y-57047875D02*
X24271619Y-57107467D01*
X24271619Y-57107467D02*
X24240425Y-57143125D01*
X24240425Y-57143125D02*
X24231307Y-57152260D01*
X24231307Y-57152260D02*
X24117652Y-57226554D01*
X24117652Y-57226554D02*
X23989257Y-57278537D01*
X23989257Y-57278537D02*
X23854481Y-57306289D01*
X23854481Y-57306289D02*
X23721682Y-57307892D01*
X23721682Y-57307892D02*
X23628270Y-57290739D01*
X23628270Y-57290739D02*
X23491396Y-57234615D01*
X23491396Y-57234615D02*
X23368020Y-57148894D01*
X23368020Y-57148894D02*
X23260523Y-57035968D01*
X23260523Y-57035968D02*
X23171288Y-56898230D01*
X23171288Y-56898230D02*
X23116442Y-56776563D01*
X23116442Y-56776563D02*
X23109912Y-56758860D01*
X23109912Y-56758860D02*
X23104179Y-56741051D01*
X23104179Y-56741051D02*
X23099176Y-56720890D01*
X23099176Y-56720890D02*
X23094839Y-56696131D01*
X23094839Y-56696131D02*
X23091100Y-56664530D01*
X23091100Y-56664530D02*
X23087896Y-56623841D01*
X23087896Y-56623841D02*
X23085158Y-56571819D01*
X23085158Y-56571819D02*
X23082823Y-56506219D01*
X23082823Y-56506219D02*
X23080824Y-56424795D01*
X23080824Y-56424795D02*
X23079096Y-56325303D01*
X23079096Y-56325303D02*
X23077572Y-56205496D01*
X23077572Y-56205496D02*
X23076187Y-56063129D01*
X23076187Y-56063129D02*
X23074876Y-55895959D01*
X23074876Y-55895959D02*
X23073572Y-55701738D01*
X23073572Y-55701738D02*
X23072209Y-55478221D01*
X23072209Y-55478221D02*
X23070723Y-55223165D01*
X23070723Y-55223165D02*
X23070667Y-55213423D01*
X23070667Y-55213423D02*
X23062200Y-53749047D01*
X23062200Y-53749047D02*
X22416440Y-54569957D01*
X22416440Y-54569957D02*
X22259384Y-54768957D01*
X22259384Y-54768957D02*
X22122186Y-54941382D01*
X22122186Y-54941382D02*
X22004408Y-55087766D01*
X22004408Y-55087766D02*
X21905609Y-55208642D01*
X21905609Y-55208642D02*
X21825348Y-55304545D01*
X21825348Y-55304545D02*
X21763184Y-55376007D01*
X21763184Y-55376007D02*
X21718679Y-55423562D01*
X21718679Y-55423562D02*
X21692903Y-55446692D01*
X21692903Y-55446692D02*
X21600753Y-55507180D01*
X21600753Y-55507180D02*
X21518168Y-55546188D01*
X21518168Y-55546188D02*
X21432522Y-55567820D01*
X21432522Y-55567820D02*
X21331186Y-55576177D01*
X21331186Y-55576177D02*
X21292667Y-55576720D01*
X21292667Y-55576720D02*
X21213092Y-55575853D01*
X21213092Y-55575853D02*
X21155261Y-55571179D01*
X21155261Y-55571179D02*
X21107081Y-55560317D01*
X21107081Y-55560317D02*
X21056459Y-55540886D01*
X21056459Y-55540886D02*
X21015855Y-55522220D01*
X21015855Y-55522220D02*
X20886839Y-55443139D01*
X20886839Y-55443139D02*
X20777070Y-55339726D01*
X20777070Y-55339726D02*
X20687770Y-55216322D01*
X20687770Y-55216322D02*
X20620164Y-55077268D01*
X20620164Y-55077268D02*
X20575474Y-54926906D01*
X20575474Y-54926906D02*
X20554925Y-54769577D01*
X20554925Y-54769577D02*
X20559741Y-54609622D01*
X20559741Y-54609622D02*
X20591144Y-54451382D01*
X20591144Y-54451382D02*
X20650360Y-54299198D01*
X20650360Y-54299198D02*
X20663805Y-54273267D01*
X20663805Y-54273267D02*
X20680312Y-54248744D01*
X20680312Y-54248744D02*
X20716281Y-54199684D01*
X20716281Y-54199684D02*
X20770140Y-54128089D01*
X20770140Y-54128089D02*
X20840316Y-54035965D01*
X20840316Y-54035965D02*
X20925238Y-53925315D01*
X20925238Y-53925315D02*
X21023333Y-53798145D01*
X21023333Y-53798145D02*
X21133029Y-53656457D01*
X21133029Y-53656457D02*
X21252754Y-53502258D01*
X21252754Y-53502258D02*
X21380936Y-53337550D01*
X21380936Y-53337550D02*
X21516003Y-53164339D01*
X21516003Y-53164339D02*
X21656381Y-52984628D01*
X21656381Y-52984628D02*
X21800500Y-52800423D01*
X21800500Y-52800423D02*
X21946787Y-52613726D01*
X21946787Y-52613726D02*
X22093670Y-52426544D01*
X22093670Y-52426544D02*
X22239576Y-52240879D01*
X22239576Y-52240879D02*
X22382934Y-52058736D01*
X22382934Y-52058736D02*
X22522171Y-51882120D01*
X22522171Y-51882120D02*
X22655714Y-51713035D01*
X22655714Y-51713035D02*
X22781993Y-51553486D01*
X22781993Y-51553486D02*
X22899434Y-51405475D01*
X22899434Y-51405475D02*
X23006466Y-51271009D01*
X23006466Y-51271009D02*
X23101516Y-51152091D01*
X23101516Y-51152091D02*
X23183011Y-51050725D01*
X23183011Y-51050725D02*
X23249381Y-50968917D01*
X23249381Y-50968917D02*
X23299052Y-50908669D01*
X23299052Y-50908669D02*
X23330453Y-50871987D01*
X23330453Y-50871987D02*
X23338488Y-50863423D01*
X23338488Y-50863423D02*
X23448749Y-50777930D01*
X23448749Y-50777930D02*
X23575814Y-50717283D01*
X23575814Y-50717283D02*
X23712575Y-50683306D01*
X23712575Y-50683306D02*
X23851923Y-50677824D01*
X23851923Y-50677824D02*
X23976557Y-50699593D01*
X23976557Y-50699593D02*
X23976557Y-50699593D01*
G36*
X23976557Y-50699593D02*
G01*
X24119672Y-50758225D01*
X24245091Y-50845486D01*
X24352237Y-50960785D01*
X24440538Y-51103530D01*
X24496027Y-51233734D01*
X24535400Y-51343800D01*
X24543866Y-52783740D01*
X24552333Y-54223680D01*
X25822333Y-52608238D01*
X25984811Y-52401791D01*
X26142351Y-52202055D01*
X26293596Y-52010728D01*
X26437187Y-51829511D01*
X26571766Y-51660104D01*
X26695976Y-51504206D01*
X26808456Y-51363517D01*
X26907851Y-51239737D01*
X26992801Y-51134564D01*
X27061947Y-51049700D01*
X27113933Y-50986843D01*
X27147399Y-50947693D01*
X27159435Y-50934991D01*
X27214268Y-50893936D01*
X27281349Y-50851968D01*
X27320302Y-50831092D01*
X27367069Y-50809817D01*
X27409456Y-50796271D01*
X27457474Y-50788756D01*
X27521132Y-50785571D01*
X27591866Y-50785000D01*
X27676456Y-50785967D01*
X27737481Y-50790009D01*
X27785219Y-50798835D01*
X27829945Y-50814154D01*
X27867562Y-50830872D01*
X27991815Y-50907102D01*
X28103192Y-51011515D01*
X28198075Y-51139716D01*
X28272848Y-51287311D01*
X28296804Y-51352267D01*
X28302427Y-51371114D01*
X28307363Y-51393032D01*
X28311677Y-51420344D01*
X28315430Y-51455369D01*
X28318686Y-51500429D01*
X28321508Y-51557845D01*
X28323960Y-51629936D01*
X28326105Y-51719025D01*
X28328006Y-51827432D01*
X28329726Y-51957478D01*
X28331328Y-52111484D01*
X28332876Y-52291771D01*
X28334433Y-52500659D01*
X28336061Y-52740470D01*
X28336519Y-52810406D01*
X28345400Y-54175412D01*
X29623867Y-52550232D01*
X29786933Y-52343191D01*
X29945087Y-52142874D01*
X30096970Y-51950973D01*
X30241229Y-51769180D01*
X30376506Y-51599189D01*
X30501447Y-51442691D01*
X30614694Y-51301380D01*
X30714893Y-51176949D01*
X30800687Y-51071089D01*
X30870722Y-50985493D01*
X30923639Y-50921854D01*
X30958085Y-50881865D01*
X30971250Y-50868186D01*
X31025991Y-50828993D01*
X31094169Y-50788133D01*
X31140583Y-50764293D01*
X31192054Y-50741987D01*
X31237852Y-50728088D01*
X31288901Y-50720714D01*
X31356125Y-50717983D01*
X31410333Y-50717793D01*
X31492555Y-50719080D01*
X31551857Y-50723669D01*
X31599159Y-50733557D01*
X31645382Y-50750744D01*
X31681267Y-50767377D01*
X31787822Y-50833617D01*
X31890094Y-50924103D01*
X31979000Y-51029560D01*
X32044333Y-51138328D01*
X32057902Y-51166580D01*
X32070234Y-51192819D01*
X32081385Y-51218707D01*
X32091410Y-51245908D01*
X32100367Y-51276085D01*
X32108310Y-51310901D01*
X32115297Y-51352019D01*
X32121384Y-51401103D01*
X32126627Y-51459816D01*
X32131081Y-51529820D01*
X32134804Y-51612778D01*
X32137850Y-51710355D01*
X32140278Y-51824213D01*
X32142141Y-51956015D01*
X32143498Y-52107425D01*
X32144404Y-52280105D01*
X32144915Y-52475718D01*
X32145087Y-52695929D01*
X32144977Y-52942399D01*
X32144640Y-53216792D01*
X32144134Y-53520772D01*
X32143513Y-53856001D01*
X32143127Y-54063089D01*
X32138467Y-56593134D01*
X32093516Y-56716133D01*
X32018463Y-56879256D01*
X31922166Y-57016216D01*
X31804813Y-57126794D01*
X31676055Y-57206197D01*
X31627010Y-57228507D01*
X31583155Y-57242507D01*
X31533893Y-57250080D01*
X31468623Y-57253108D01*
X31409455Y-57253530D01*
X31329643Y-57252807D01*
X31272265Y-57249009D01*
X31225895Y-57239703D01*
X31179107Y-57222453D01*
X31120475Y-57194824D01*
X31110216Y-57189765D01*
X30977587Y-57106452D01*
X30867979Y-56998633D01*
X30780342Y-56865256D01*
X30773596Y-56852159D01*
X30756256Y-56817845D01*
X30741049Y-56786441D01*
X30727833Y-56755594D01*
X30716468Y-56722948D01*
X30706813Y-56686147D01*
X30698728Y-56642835D01*
X30692073Y-56590658D01*
X30686705Y-56527259D01*
X30682485Y-56450284D01*
X30679271Y-56357377D01*
X30676924Y-56246182D01*
X30675303Y-56114345D01*
X30674266Y-55959509D01*
X30673673Y-55779319D01*
X30673383Y-55571420D01*
X30673256Y-55333456D01*
X30673198Y-55171409D01*
X30672663Y-53782200D01*
X30632551Y-53827751D01*
X30617016Y-53846807D01*
X30581925Y-53890780D01*
X30528635Y-53957951D01*
X30458501Y-54046598D01*
X30372881Y-54155001D01*
X30273130Y-54281439D01*
X30160607Y-54424191D01*
X30036666Y-54581538D01*
X29902665Y-54751757D01*
X29759961Y-54933129D01*
X29609909Y-55123933D01*
X29453867Y-55322448D01*
X29377618Y-55419484D01*
X29218231Y-55622173D01*
X29063470Y-55818640D01*
X28914759Y-56007097D01*
X28773518Y-56185757D01*
X28641171Y-56352832D01*
X28519138Y-56506534D01*
X28408843Y-56645075D01*
X28311707Y-56766668D01*
X28229153Y-56869525D01*
X28162602Y-56951858D01*
X28113476Y-57011879D01*
X28083198Y-57047801D01*
X28076298Y-57055424D01*
X27999102Y-57123405D01*
X27910799Y-57182868D01*
X27880089Y-57199357D01*
X27826206Y-57224617D01*
X27781334Y-57240533D01*
X27734481Y-57249236D01*
X27674656Y-57252857D01*
X27600689Y-57253533D01*
X27519371Y-57252615D01*
X27460580Y-57248413D01*
X27412999Y-57238756D01*
X27365306Y-57221475D01*
X27315598Y-57198874D01*
X27188766Y-57120625D01*
X27077567Y-57015407D01*
X26985724Y-56887957D01*
X26916964Y-56743011D01*
X26890559Y-56658423D01*
X26885600Y-56635872D01*
X26881279Y-56607736D01*
X26877555Y-56571707D01*
X26874383Y-56525477D01*
X26871723Y-56466740D01*
X26869532Y-56393188D01*
X26867766Y-56302512D01*
X26866384Y-56192405D01*
X26865343Y-56060560D01*
X26864600Y-55904669D01*
X26864113Y-55722424D01*
X26863840Y-55511519D01*
X26863737Y-55269644D01*
X26863733Y-55202541D01*
X26863733Y-53850703D01*
X26823914Y-53892652D01*
X26808477Y-53911178D01*
X26773475Y-53954653D01*
X26720248Y-54021380D01*
X26650136Y-54109663D01*
X26564479Y-54217805D01*
X26464616Y-54344111D01*
X26351887Y-54486882D01*
X26227632Y-54644424D01*
X26093190Y-54815040D01*
X25949902Y-54997033D01*
X25799107Y-55188707D01*
X25642145Y-55388366D01*
X25543104Y-55514420D01*
X25382475Y-55718637D01*
X25226717Y-55916142D01*
X25077206Y-56105213D01*
X24935325Y-56284127D01*
X24802450Y-56451163D01*
X24679964Y-56604597D01*
X24569243Y-56742708D01*
X24471669Y-56863772D01*
X24388621Y-56966069D01*
X24321478Y-57047875D01*
X24271619Y-57107467D01*
X24240425Y-57143125D01*
X24231307Y-57152260D01*
X24117652Y-57226554D01*
X23989257Y-57278537D01*
X23854481Y-57306289D01*
X23721682Y-57307892D01*
X23628270Y-57290739D01*
X23491396Y-57234615D01*
X23368020Y-57148894D01*
X23260523Y-57035968D01*
X23171288Y-56898230D01*
X23116442Y-56776563D01*
X23109912Y-56758860D01*
X23104179Y-56741051D01*
X23099176Y-56720890D01*
X23094839Y-56696131D01*
X23091100Y-56664530D01*
X23087896Y-56623841D01*
X23085158Y-56571819D01*
X23082823Y-56506219D01*
X23080824Y-56424795D01*
X23079096Y-56325303D01*
X23077572Y-56205496D01*
X23076187Y-56063129D01*
X23074876Y-55895959D01*
X23073572Y-55701738D01*
X23072209Y-55478221D01*
X23070723Y-55223165D01*
X23070667Y-55213423D01*
X23062200Y-53749047D01*
X22416440Y-54569957D01*
X22259384Y-54768957D01*
X22122186Y-54941382D01*
X22004408Y-55087766D01*
X21905609Y-55208642D01*
X21825348Y-55304545D01*
X21763184Y-55376007D01*
X21718679Y-55423562D01*
X21692903Y-55446692D01*
X21600753Y-55507180D01*
X21518168Y-55546188D01*
X21432522Y-55567820D01*
X21331186Y-55576177D01*
X21292667Y-55576720D01*
X21213092Y-55575853D01*
X21155261Y-55571179D01*
X21107081Y-55560317D01*
X21056459Y-55540886D01*
X21015855Y-55522220D01*
X20886839Y-55443139D01*
X20777070Y-55339726D01*
X20687770Y-55216322D01*
X20620164Y-55077268D01*
X20575474Y-54926906D01*
X20554925Y-54769577D01*
X20559741Y-54609622D01*
X20591144Y-54451382D01*
X20650360Y-54299198D01*
X20663805Y-54273267D01*
X20680312Y-54248744D01*
X20716281Y-54199684D01*
X20770140Y-54128089D01*
X20840316Y-54035965D01*
X20925238Y-53925315D01*
X21023333Y-53798145D01*
X21133029Y-53656457D01*
X21252754Y-53502258D01*
X21380936Y-53337550D01*
X21516003Y-53164339D01*
X21656381Y-52984628D01*
X21800500Y-52800423D01*
X21946787Y-52613726D01*
X22093670Y-52426544D01*
X22239576Y-52240879D01*
X22382934Y-52058736D01*
X22522171Y-51882120D01*
X22655714Y-51713035D01*
X22781993Y-51553486D01*
X22899434Y-51405475D01*
X23006466Y-51271009D01*
X23101516Y-51152091D01*
X23183011Y-51050725D01*
X23249381Y-50968917D01*
X23299052Y-50908669D01*
X23330453Y-50871987D01*
X23338488Y-50863423D01*
X23448749Y-50777930D01*
X23575814Y-50717283D01*
X23712575Y-50683306D01*
X23851923Y-50677824D01*
X23976557Y-50699593D01*
G37*
X23976557Y-50699593D02*
X24119672Y-50758225D01*
X24245091Y-50845486D01*
X24352237Y-50960785D01*
X24440538Y-51103530D01*
X24496027Y-51233734D01*
X24535400Y-51343800D01*
X24543866Y-52783740D01*
X24552333Y-54223680D01*
X25822333Y-52608238D01*
X25984811Y-52401791D01*
X26142351Y-52202055D01*
X26293596Y-52010728D01*
X26437187Y-51829511D01*
X26571766Y-51660104D01*
X26695976Y-51504206D01*
X26808456Y-51363517D01*
X26907851Y-51239737D01*
X26992801Y-51134564D01*
X27061947Y-51049700D01*
X27113933Y-50986843D01*
X27147399Y-50947693D01*
X27159435Y-50934991D01*
X27214268Y-50893936D01*
X27281349Y-50851968D01*
X27320302Y-50831092D01*
X27367069Y-50809817D01*
X27409456Y-50796271D01*
X27457474Y-50788756D01*
X27521132Y-50785571D01*
X27591866Y-50785000D01*
X27676456Y-50785967D01*
X27737481Y-50790009D01*
X27785219Y-50798835D01*
X27829945Y-50814154D01*
X27867562Y-50830872D01*
X27991815Y-50907102D01*
X28103192Y-51011515D01*
X28198075Y-51139716D01*
X28272848Y-51287311D01*
X28296804Y-51352267D01*
X28302427Y-51371114D01*
X28307363Y-51393032D01*
X28311677Y-51420344D01*
X28315430Y-51455369D01*
X28318686Y-51500429D01*
X28321508Y-51557845D01*
X28323960Y-51629936D01*
X28326105Y-51719025D01*
X28328006Y-51827432D01*
X28329726Y-51957478D01*
X28331328Y-52111484D01*
X28332876Y-52291771D01*
X28334433Y-52500659D01*
X28336061Y-52740470D01*
X28336519Y-52810406D01*
X28345400Y-54175412D01*
X29623867Y-52550232D01*
X29786933Y-52343191D01*
X29945087Y-52142874D01*
X30096970Y-51950973D01*
X30241229Y-51769180D01*
X30376506Y-51599189D01*
X30501447Y-51442691D01*
X30614694Y-51301380D01*
X30714893Y-51176949D01*
X30800687Y-51071089D01*
X30870722Y-50985493D01*
X30923639Y-50921854D01*
X30958085Y-50881865D01*
X30971250Y-50868186D01*
X31025991Y-50828993D01*
X31094169Y-50788133D01*
X31140583Y-50764293D01*
X31192054Y-50741987D01*
X31237852Y-50728088D01*
X31288901Y-50720714D01*
X31356125Y-50717983D01*
X31410333Y-50717793D01*
X31492555Y-50719080D01*
X31551857Y-50723669D01*
X31599159Y-50733557D01*
X31645382Y-50750744D01*
X31681267Y-50767377D01*
X31787822Y-50833617D01*
X31890094Y-50924103D01*
X31979000Y-51029560D01*
X32044333Y-51138328D01*
X32057902Y-51166580D01*
X32070234Y-51192819D01*
X32081385Y-51218707D01*
X32091410Y-51245908D01*
X32100367Y-51276085D01*
X32108310Y-51310901D01*
X32115297Y-51352019D01*
X32121384Y-51401103D01*
X32126627Y-51459816D01*
X32131081Y-51529820D01*
X32134804Y-51612778D01*
X32137850Y-51710355D01*
X32140278Y-51824213D01*
X32142141Y-51956015D01*
X32143498Y-52107425D01*
X32144404Y-52280105D01*
X32144915Y-52475718D01*
X32145087Y-52695929D01*
X32144977Y-52942399D01*
X32144640Y-53216792D01*
X32144134Y-53520772D01*
X32143513Y-53856001D01*
X32143127Y-54063089D01*
X32138467Y-56593134D01*
X32093516Y-56716133D01*
X32018463Y-56879256D01*
X31922166Y-57016216D01*
X31804813Y-57126794D01*
X31676055Y-57206197D01*
X31627010Y-57228507D01*
X31583155Y-57242507D01*
X31533893Y-57250080D01*
X31468623Y-57253108D01*
X31409455Y-57253530D01*
X31329643Y-57252807D01*
X31272265Y-57249009D01*
X31225895Y-57239703D01*
X31179107Y-57222453D01*
X31120475Y-57194824D01*
X31110216Y-57189765D01*
X30977587Y-57106452D01*
X30867979Y-56998633D01*
X30780342Y-56865256D01*
X30773596Y-56852159D01*
X30756256Y-56817845D01*
X30741049Y-56786441D01*
X30727833Y-56755594D01*
X30716468Y-56722948D01*
X30706813Y-56686147D01*
X30698728Y-56642835D01*
X30692073Y-56590658D01*
X30686705Y-56527259D01*
X30682485Y-56450284D01*
X30679271Y-56357377D01*
X30676924Y-56246182D01*
X30675303Y-56114345D01*
X30674266Y-55959509D01*
X30673673Y-55779319D01*
X30673383Y-55571420D01*
X30673256Y-55333456D01*
X30673198Y-55171409D01*
X30672663Y-53782200D01*
X30632551Y-53827751D01*
X30617016Y-53846807D01*
X30581925Y-53890780D01*
X30528635Y-53957951D01*
X30458501Y-54046598D01*
X30372881Y-54155001D01*
X30273130Y-54281439D01*
X30160607Y-54424191D01*
X30036666Y-54581538D01*
X29902665Y-54751757D01*
X29759961Y-54933129D01*
X29609909Y-55123933D01*
X29453867Y-55322448D01*
X29377618Y-55419484D01*
X29218231Y-55622173D01*
X29063470Y-55818640D01*
X28914759Y-56007097D01*
X28773518Y-56185757D01*
X28641171Y-56352832D01*
X28519138Y-56506534D01*
X28408843Y-56645075D01*
X28311707Y-56766668D01*
X28229153Y-56869525D01*
X28162602Y-56951858D01*
X28113476Y-57011879D01*
X28083198Y-57047801D01*
X28076298Y-57055424D01*
X27999102Y-57123405D01*
X27910799Y-57182868D01*
X27880089Y-57199357D01*
X27826206Y-57224617D01*
X27781334Y-57240533D01*
X27734481Y-57249236D01*
X27674656Y-57252857D01*
X27600689Y-57253533D01*
X27519371Y-57252615D01*
X27460580Y-57248413D01*
X27412999Y-57238756D01*
X27365306Y-57221475D01*
X27315598Y-57198874D01*
X27188766Y-57120625D01*
X27077567Y-57015407D01*
X26985724Y-56887957D01*
X26916964Y-56743011D01*
X26890559Y-56658423D01*
X26885600Y-56635872D01*
X26881279Y-56607736D01*
X26877555Y-56571707D01*
X26874383Y-56525477D01*
X26871723Y-56466740D01*
X26869532Y-56393188D01*
X26867766Y-56302512D01*
X26866384Y-56192405D01*
X26865343Y-56060560D01*
X26864600Y-55904669D01*
X26864113Y-55722424D01*
X26863840Y-55511519D01*
X26863737Y-55269644D01*
X26863733Y-55202541D01*
X26863733Y-53850703D01*
X26823914Y-53892652D01*
X26808477Y-53911178D01*
X26773475Y-53954653D01*
X26720248Y-54021380D01*
X26650136Y-54109663D01*
X26564479Y-54217805D01*
X26464616Y-54344111D01*
X26351887Y-54486882D01*
X26227632Y-54644424D01*
X26093190Y-54815040D01*
X25949902Y-54997033D01*
X25799107Y-55188707D01*
X25642145Y-55388366D01*
X25543104Y-55514420D01*
X25382475Y-55718637D01*
X25226717Y-55916142D01*
X25077206Y-56105213D01*
X24935325Y-56284127D01*
X24802450Y-56451163D01*
X24679964Y-56604597D01*
X24569243Y-56742708D01*
X24471669Y-56863772D01*
X24388621Y-56966069D01*
X24321478Y-57047875D01*
X24271619Y-57107467D01*
X24240425Y-57143125D01*
X24231307Y-57152260D01*
X24117652Y-57226554D01*
X23989257Y-57278537D01*
X23854481Y-57306289D01*
X23721682Y-57307892D01*
X23628270Y-57290739D01*
X23491396Y-57234615D01*
X23368020Y-57148894D01*
X23260523Y-57035968D01*
X23171288Y-56898230D01*
X23116442Y-56776563D01*
X23109912Y-56758860D01*
X23104179Y-56741051D01*
X23099176Y-56720890D01*
X23094839Y-56696131D01*
X23091100Y-56664530D01*
X23087896Y-56623841D01*
X23085158Y-56571819D01*
X23082823Y-56506219D01*
X23080824Y-56424795D01*
X23079096Y-56325303D01*
X23077572Y-56205496D01*
X23076187Y-56063129D01*
X23074876Y-55895959D01*
X23073572Y-55701738D01*
X23072209Y-55478221D01*
X23070723Y-55223165D01*
X23070667Y-55213423D01*
X23062200Y-53749047D01*
X22416440Y-54569957D01*
X22259384Y-54768957D01*
X22122186Y-54941382D01*
X22004408Y-55087766D01*
X21905609Y-55208642D01*
X21825348Y-55304545D01*
X21763184Y-55376007D01*
X21718679Y-55423562D01*
X21692903Y-55446692D01*
X21600753Y-55507180D01*
X21518168Y-55546188D01*
X21432522Y-55567820D01*
X21331186Y-55576177D01*
X21292667Y-55576720D01*
X21213092Y-55575853D01*
X21155261Y-55571179D01*
X21107081Y-55560317D01*
X21056459Y-55540886D01*
X21015855Y-55522220D01*
X20886839Y-55443139D01*
X20777070Y-55339726D01*
X20687770Y-55216322D01*
X20620164Y-55077268D01*
X20575474Y-54926906D01*
X20554925Y-54769577D01*
X20559741Y-54609622D01*
X20591144Y-54451382D01*
X20650360Y-54299198D01*
X20663805Y-54273267D01*
X20680312Y-54248744D01*
X20716281Y-54199684D01*
X20770140Y-54128089D01*
X20840316Y-54035965D01*
X20925238Y-53925315D01*
X21023333Y-53798145D01*
X21133029Y-53656457D01*
X21252754Y-53502258D01*
X21380936Y-53337550D01*
X21516003Y-53164339D01*
X21656381Y-52984628D01*
X21800500Y-52800423D01*
X21946787Y-52613726D01*
X22093670Y-52426544D01*
X22239576Y-52240879D01*
X22382934Y-52058736D01*
X22522171Y-51882120D01*
X22655714Y-51713035D01*
X22781993Y-51553486D01*
X22899434Y-51405475D01*
X23006466Y-51271009D01*
X23101516Y-51152091D01*
X23183011Y-51050725D01*
X23249381Y-50968917D01*
X23299052Y-50908669D01*
X23330453Y-50871987D01*
X23338488Y-50863423D01*
X23448749Y-50777930D01*
X23575814Y-50717283D01*
X23712575Y-50683306D01*
X23851923Y-50677824D01*
X23976557Y-50699593D01*
D17*
X22090000Y-29550000D02*
X21820000Y-29550000D01*
X15190000Y-31050000D02*
X15190000Y-29550000D01*
X15190000Y-29550000D02*
X15460000Y-29550000D01*
X21820000Y-29550000D02*
X21820000Y-26720000D01*
X22090000Y-31050000D02*
X22090000Y-29550000D01*
X15460000Y-29550000D02*
X15460000Y-28450000D01*
D11*
X43560000Y-39610000D02*
X43560000Y-41310000D01*
X42160000Y-41310000D02*
X42160000Y-39610000D01*
D18*
X15470000Y-6040000D02*
X15470000Y-8580000D01*
X20550000Y-21280000D02*
X20550000Y-18740000D01*
X15470000Y-13660000D02*
X15470000Y-16200000D01*
X15470000Y-11120000D02*
X15470000Y-13660000D01*
X20550000Y-18740000D02*
X20550000Y-16200000D01*
X15470000Y-16200000D02*
X15470000Y-18740000D01*
X15470000Y-3500000D02*
X15470000Y-6040000D01*
X18010000Y-960000D02*
X15470000Y-960000D01*
X20550000Y-960000D02*
X18010000Y-960000D01*
X15470000Y-960000D02*
X15470000Y-3500000D01*
X20550000Y-3500000D02*
X20550000Y-960000D01*
X20550000Y-13660000D02*
X20550000Y-11120000D01*
X15470000Y-8580000D02*
X15470000Y-11120000D01*
X18010000Y-21280000D02*
X15470000Y-21280000D01*
X20550000Y-21280000D02*
X18010000Y-21280000D01*
X20550000Y-8580000D02*
X20550000Y-6040000D01*
X20550000Y-16200000D02*
X20550000Y-13660000D01*
X15470000Y-18740000D02*
X15470000Y-21280000D01*
X20550000Y-11120000D02*
X20550000Y-8580000D01*
X20550000Y-6040000D02*
X20550000Y-3500000D01*
D11*
X54650000Y-63570000D02*
X54650000Y-65070000D01*
X54950000Y-65070000D02*
X54950000Y-63570000D01*
D18*
X19042200Y-72645800D02*
X21937800Y-72645800D01*
X21937800Y-72645800D02*
X21937800Y-76354200D01*
X20617000Y-74754000D02*
X20363000Y-74246000D01*
X20312200Y-74500000D02*
X20566200Y-74347600D01*
X20388400Y-74652400D02*
X20642400Y-74500000D01*
X19042200Y-76354200D02*
X19042200Y-72645800D01*
X21937800Y-76354200D02*
X19042200Y-76354200D01*
D11*
X45410000Y-35850000D02*
X45410000Y-34150000D01*
X46810000Y-34150000D02*
X46810000Y-35850000D01*
X46770000Y-106920000D02*
X46770000Y-108620000D01*
X45370000Y-108620000D02*
X45370000Y-106920000D01*
X6800000Y-29470000D02*
X6800000Y-31170000D01*
X5400000Y-31170000D02*
X5400000Y-29470000D01*
X27600000Y-17500000D02*
X27600000Y-15800000D01*
X29000000Y-15800000D02*
X29000000Y-17500000D01*
X18460000Y-74390000D02*
X16960000Y-74390000D01*
X16960000Y-74690000D02*
X18460000Y-74690000D01*
X20940000Y-99610000D02*
X22640000Y-99610000D01*
X22640000Y-101010000D02*
X20940000Y-101010000D01*
X45480000Y-85060000D02*
X45480000Y-83360000D01*
X46880000Y-83360000D02*
X46880000Y-85060000D01*
X7939760Y-28690180D02*
X8640800Y-28690180D01*
X7939760Y-31689820D02*
X7939760Y-31440900D01*
X7939760Y-28890840D02*
X7939760Y-28939100D01*
X8640800Y-31689820D02*
X7939760Y-31689820D01*
X7939760Y-28890840D02*
X7939760Y-28690180D01*
X31710000Y-58960000D02*
X33410000Y-58960000D01*
X33410000Y-60360000D02*
X31710000Y-60360000D01*
X31270180Y-105920240D02*
X31270180Y-105219200D01*
X34269820Y-105920240D02*
X34020900Y-105920240D01*
X31470840Y-105920240D02*
X31519100Y-105920240D01*
X34269820Y-105219200D02*
X34269820Y-105920240D01*
X31470840Y-105920240D02*
X31270180Y-105920240D01*
X43630000Y-19420000D02*
X43630000Y-21120000D01*
X42230000Y-21120000D02*
X42230000Y-19420000D01*
X33589820Y-92049200D02*
X33589820Y-92750240D01*
X30790840Y-92750240D02*
X30590180Y-92750240D01*
X30790840Y-92750240D02*
X30839100Y-92750240D01*
X33589820Y-92750240D02*
X33340900Y-92750240D01*
X30590180Y-92750240D02*
X30590180Y-92049200D01*
X20400840Y-98110240D02*
X20449100Y-98110240D01*
X23199820Y-97409200D02*
X23199820Y-98110240D01*
X20400840Y-98110240D02*
X20200180Y-98110240D01*
X23199820Y-98110240D02*
X22950900Y-98110240D01*
X20200180Y-98110240D02*
X20200180Y-97409200D01*
X7380000Y-79230000D02*
X7380000Y-77730000D01*
X7080000Y-77730000D02*
X7080000Y-79230000D01*
X46840000Y-71030000D02*
X46840000Y-72730000D01*
X45440000Y-72730000D02*
X45440000Y-71030000D01*
X20199000Y-25718000D02*
X20199000Y-25210000D01*
X16820800Y-22670000D02*
X16008000Y-22670000D01*
X16008000Y-25718000D02*
X16008000Y-25210000D01*
D19*
X16262000Y-22416000D02*
X16617600Y-22416000D01*
D11*
X16008000Y-22162000D02*
X20199000Y-22162000D01*
X16008000Y-22162000D02*
X16008000Y-22670000D01*
X16820800Y-22162000D02*
X16820800Y-22670000D01*
X16008000Y-25718000D02*
X20199000Y-25718000D01*
D20*
X16262000Y-25464000D02*
X16592200Y-25464000D01*
D11*
X16820800Y-25718000D02*
X16820800Y-25210000D01*
X20199000Y-22162000D02*
X20199000Y-22670000D01*
X16820800Y-25210000D02*
X16008000Y-25210000D01*
D18*
X18120322Y-23940000D02*
G75*
G03*
X18120322Y-23940000I-80322J0D01*
G01*
D11*
X30625000Y-76865000D02*
X30625000Y-77090000D01*
X35275000Y-76865000D02*
X30625000Y-76865000D01*
X35275000Y-81990000D02*
X36625000Y-81990000D01*
X30625000Y-82115000D02*
X30625000Y-81890000D01*
X35275000Y-82115000D02*
X30625000Y-82115000D01*
X35275000Y-76865000D02*
X35275000Y-77090000D01*
X35275000Y-82115000D02*
X35275000Y-81990000D01*
X40980000Y-105440000D02*
X42680000Y-105440000D01*
X42680000Y-106840000D02*
X40980000Y-106840000D01*
X20400000Y-60560000D02*
X20400000Y-59060000D01*
X20100000Y-59060000D02*
X20100000Y-60560000D01*
X22430000Y-19580000D02*
X22430000Y-21080000D01*
X22730000Y-21080000D02*
X22730000Y-19580000D01*
X43610000Y-31780000D02*
X43610000Y-33480000D01*
X42210000Y-33480000D02*
X42210000Y-31780000D01*
X36530000Y-102080000D02*
X34830000Y-102080000D01*
X34830000Y-100680000D02*
X36530000Y-100680000D01*
X8130000Y-26790000D02*
X8130000Y-28290000D01*
X8430000Y-28290000D02*
X8430000Y-26790000D01*
X5690000Y-81850000D02*
X5690000Y-80150000D01*
X7090000Y-80150000D02*
X7090000Y-81850000D01*
X2120000Y-90030000D02*
X2120000Y-88330000D01*
X3520000Y-88330000D02*
X3520000Y-90030000D01*
X36560000Y-94230000D02*
X34860000Y-94230000D01*
X34860000Y-92830000D02*
X36560000Y-92830000D01*
X15919160Y-86779760D02*
X16119820Y-86779760D01*
X16119820Y-86779760D02*
X16119820Y-87480800D01*
X13120180Y-86779760D02*
X13369100Y-86779760D01*
X13120180Y-87480800D02*
X13120180Y-86779760D01*
X15919160Y-86779760D02*
X15870900Y-86779760D01*
X28670000Y-80580000D02*
X27170000Y-80580000D01*
X27170000Y-80880000D02*
X28670000Y-80880000D01*
X45100000Y-59030000D02*
X45100000Y-60730000D01*
X43700000Y-60730000D02*
X43700000Y-59030000D01*
X20550000Y-78420000D02*
X20550000Y-76920000D01*
X20250000Y-76920000D02*
X20250000Y-78420000D01*
X13410000Y-68810000D02*
X13410000Y-70510000D01*
X12010000Y-70510000D02*
X12010000Y-68810000D01*
X52715000Y-60095000D02*
X52715000Y-64745000D01*
X52715000Y-64745000D02*
X52490000Y-64745000D01*
X52590000Y-60095000D02*
X52590000Y-58745000D01*
X47465000Y-64745000D02*
X47690000Y-64745000D01*
X47465000Y-60095000D02*
X47690000Y-60095000D01*
X52715000Y-60095000D02*
X52590000Y-60095000D01*
X47465000Y-60095000D02*
X47465000Y-64745000D01*
X7510000Y-61920000D02*
X7510000Y-63420000D01*
X7810000Y-63420000D02*
X7810000Y-61920000D01*
X8130000Y-9260000D02*
X8130000Y-10760000D01*
X8430000Y-10760000D02*
X8430000Y-9260000D01*
D17*
X16260000Y-49210000D02*
X17020000Y-49980000D01*
X17020000Y-44680000D02*
X16260000Y-45450000D01*
X21600000Y-49980000D02*
X21600000Y-48430000D01*
X17020000Y-49980000D02*
X21600000Y-49980000D01*
X16260000Y-49210000D02*
X16260000Y-48430000D01*
X16260000Y-45450000D02*
X16260000Y-46230000D01*
X21600000Y-44680000D02*
X17020000Y-44680000D01*
X21600000Y-44680000D02*
X21600000Y-46230000D01*
X16795743Y-48460243D02*
G75*
G03*
X21080000Y-48430000I2134257J1130243D01*
G01*
X21064257Y-46199757D02*
G75*
G03*
X16780000Y-46230000I-2134257J-1130243D01*
G01*
X10490000Y-37490000D02*
X9720000Y-36730000D01*
X9720000Y-36730000D02*
X8940000Y-36730000D01*
X10490000Y-42070000D02*
X10490000Y-37490000D01*
X5190000Y-42070000D02*
X6740000Y-42070000D01*
X5960000Y-36730000D02*
X6740000Y-36730000D01*
X10490000Y-42070000D02*
X8940000Y-42070000D01*
X5190000Y-37490000D02*
X5190000Y-42070000D01*
X5960000Y-36730000D02*
X5190000Y-37490000D01*
X6709757Y-37265743D02*
G75*
G03*
X6740000Y-41550000I1130243J-2134257D01*
G01*
X8970243Y-41534257D02*
G75*
G03*
X8940000Y-37250000I-1130243J2134257D01*
G01*
D11*
X39540000Y-3190000D02*
X41240000Y-3190000D01*
X41240000Y-4590000D02*
X39540000Y-4590000D01*
D18*
X39670000Y-16470000D02*
X39670000Y-16070000D01*
X40470000Y-12670000D02*
X40170000Y-12670000D01*
X41470000Y-11570000D02*
X41470000Y-11370000D01*
X43270000Y-16070000D02*
X43270000Y-16470000D01*
X38170000Y-9470000D02*
X38170000Y-16470000D01*
X41470000Y-13570000D02*
X41470000Y-11770000D01*
X44770000Y-16470000D02*
X44770000Y-9470000D01*
X39670000Y-16070000D02*
X43270000Y-16070000D01*
X43270000Y-16470000D02*
X44770000Y-16470000D01*
X44770000Y-9470000D02*
X38170000Y-9470000D01*
X41470000Y-11770000D02*
X41270000Y-11970000D01*
X42570000Y-12670000D02*
X42770000Y-12670000D01*
X41470000Y-11770000D02*
X41670000Y-11970000D01*
X38170000Y-16470000D02*
X39670000Y-16470000D01*
X42470000Y-12670000D02*
G75*
G03*
X42470000Y-12670000I-1000000J0D01*
G01*
D17*
X23330000Y-85480000D02*
X18330000Y-85480000D01*
X18330000Y-92980000D02*
X18330000Y-85480000D01*
X23330000Y-92980000D02*
X23330000Y-85480000D01*
X23330000Y-92980000D02*
X18330000Y-92980000D01*
D11*
X15390000Y-107770000D02*
X17090000Y-107770000D01*
X17090000Y-109170000D02*
X15390000Y-109170000D01*
X36440000Y-89190000D02*
X34740000Y-89190000D01*
X34740000Y-87790000D02*
X36440000Y-87790000D01*
X7540000Y-64940000D02*
X7540000Y-66640000D01*
X6140000Y-66640000D02*
X6140000Y-64940000D01*
X35520000Y-12070000D02*
X33820000Y-12070000D01*
X33820000Y-10670000D02*
X35520000Y-10670000D01*
X34885000Y-7395000D02*
X36235000Y-7395000D01*
X34885000Y-4345000D02*
X30235000Y-4345000D01*
X34885000Y-4345000D02*
X34885000Y-4545000D01*
X30235000Y-4345000D02*
X30235000Y-4545000D01*
X30235000Y-7595000D02*
X30235000Y-7395000D01*
X34885000Y-7595000D02*
X34885000Y-7395000D01*
X34885000Y-7595000D02*
X30235000Y-7595000D01*
X34390605Y-7113000D02*
G75*
G03*
X34390605Y-7113000I-179605J0D01*
G01*
X45330000Y-9570000D02*
X45330000Y-7870000D01*
X46730000Y-7870000D02*
X46730000Y-9570000D01*
X7729760Y-11300840D02*
X7729760Y-11349100D01*
X7729760Y-11100180D02*
X8430800Y-11100180D01*
X7729760Y-11300840D02*
X7729760Y-11100180D01*
X8430800Y-14099820D02*
X7729760Y-14099820D01*
X7729760Y-14099820D02*
X7729760Y-13850900D01*
X5770000Y-48350000D02*
X5770000Y-46650000D01*
X7170000Y-46650000D02*
X7170000Y-48350000D01*
X43590000Y-64340000D02*
X43590000Y-66040000D01*
X42190000Y-66040000D02*
X42190000Y-64340000D01*
X43600000Y-52000000D02*
X43600000Y-53700000D01*
X42200000Y-53700000D02*
X42200000Y-52000000D01*
X16899820Y-102190240D02*
X16650900Y-102190240D01*
X14100840Y-102190240D02*
X14149100Y-102190240D01*
X16899820Y-101489200D02*
X16899820Y-102190240D01*
X13900180Y-102190240D02*
X13900180Y-101489200D01*
X14100840Y-102190240D02*
X13900180Y-102190240D01*
D17*
X21270000Y-39320000D02*
X21270000Y-42020000D01*
X16470000Y-43320000D02*
X16470000Y-39320000D01*
X20070000Y-39320000D02*
X21270000Y-39320000D01*
X16470000Y-39320000D02*
X17670000Y-39320000D01*
D11*
X45410000Y-97370000D02*
X45410000Y-95670000D01*
X46810000Y-95670000D02*
X46810000Y-97370000D01*
X15090000Y-92440000D02*
X16790000Y-92440000D01*
X16790000Y-93840000D02*
X15090000Y-93840000D01*
X27240000Y-5600000D02*
X25540000Y-5600000D01*
X25540000Y-4200000D02*
X27240000Y-4200000D01*
X42140000Y-90720000D02*
X42140000Y-89020000D01*
X43540000Y-89020000D02*
X43540000Y-90720000D01*
X22701000Y-11052000D02*
X22701000Y-11560000D01*
X26079200Y-14608000D02*
X26079200Y-14100000D01*
X26079200Y-11560000D02*
X26892000Y-11560000D01*
X26892000Y-14608000D02*
X22701000Y-14608000D01*
X26079200Y-11052000D02*
X26079200Y-11560000D01*
X26892000Y-11052000D02*
X22701000Y-11052000D01*
X26892000Y-11052000D02*
X26892000Y-11560000D01*
D20*
X26638000Y-11306000D02*
X26307800Y-11306000D01*
D11*
X26892000Y-14608000D02*
X26892000Y-14100000D01*
D19*
X26638000Y-14354000D02*
X26282400Y-14354000D01*
D11*
X26079200Y-14100000D02*
X26892000Y-14100000D01*
X22701000Y-14608000D02*
X22701000Y-14100000D01*
D18*
X24940322Y-12830000D02*
G75*
G03*
X24940322Y-12830000I-80322J0D01*
G01*
D17*
X23810000Y-30420000D02*
X23810000Y-29640000D01*
X24570000Y-31190000D02*
X29150000Y-31190000D01*
X29150000Y-31190000D02*
X29150000Y-29640000D01*
X23810000Y-30420000D02*
X24570000Y-31190000D01*
X24570000Y-25890000D02*
X23810000Y-26660000D01*
X29150000Y-25890000D02*
X29150000Y-27440000D01*
X29150000Y-25890000D02*
X24570000Y-25890000D01*
X23810000Y-26660000D02*
X23810000Y-27440000D01*
X24345743Y-29670243D02*
G75*
G03*
X28630000Y-29640000I2134257J1130243D01*
G01*
X28614257Y-27409757D02*
G75*
G03*
X24330000Y-27440000I-2134257J-1130243D01*
G01*
D11*
X8509760Y-46160840D02*
X8509760Y-46209100D01*
X8509760Y-45960180D02*
X9210800Y-45960180D01*
X8509760Y-46160840D02*
X8509760Y-45960180D01*
X8509760Y-48959820D02*
X8509760Y-48710900D01*
X9210800Y-48959820D02*
X8509760Y-48959820D01*
X6420000Y-11720000D02*
X6420000Y-13420000D01*
X5020000Y-13420000D02*
X5020000Y-11720000D01*
X42180000Y-78380000D02*
X42180000Y-76680000D01*
X43580000Y-76680000D02*
X43580000Y-78380000D01*
X14320000Y-106650000D02*
X14320000Y-104950000D01*
X15720000Y-104950000D02*
X15720000Y-106650000D01*
X15330000Y-83760000D02*
X13830000Y-83760000D01*
X13830000Y-84060000D02*
X15330000Y-84060000D01*
X8410000Y-45640000D02*
X8410000Y-44140000D01*
X8110000Y-44140000D02*
X8110000Y-45640000D01*
X14750240Y-75869160D02*
X14750240Y-75820900D01*
X14750240Y-73070180D02*
X14750240Y-73319100D01*
X14750240Y-75869160D02*
X14750240Y-76069820D01*
X14750240Y-76069820D02*
X14049200Y-76069820D01*
X14049200Y-73070180D02*
X14750240Y-73070180D01*
X35370000Y-105700000D02*
X37070000Y-105700000D01*
X37070000Y-107100000D02*
X35370000Y-107100000D01*
X46840000Y-46140000D02*
X46840000Y-47840000D01*
X45440000Y-47840000D02*
X45440000Y-46140000D01*
D21*
X23890000Y-1170000D02*
X28690000Y-1170000D01*
X28690000Y-3670000D02*
X23890000Y-3670000D01*
X23890000Y-3670000D02*
X23890000Y-1170000D01*
X28690000Y-1170000D02*
X28690000Y-3670000D01*
D11*
X11739820Y-58579200D02*
X11739820Y-59280240D01*
X11739820Y-59280240D02*
X11490900Y-59280240D01*
X8740180Y-59280240D02*
X8740180Y-58579200D01*
X8940840Y-59280240D02*
X8989100Y-59280240D01*
X8940840Y-59280240D02*
X8740180Y-59280240D01*
X36620000Y-74230000D02*
X38320000Y-74230000D01*
X38320000Y-75630000D02*
X36620000Y-75630000D01*
X8309760Y-80770180D02*
X9010800Y-80770180D01*
X8309760Y-80970840D02*
X8309760Y-81019100D01*
X9010800Y-83769820D02*
X8309760Y-83769820D01*
X8309760Y-83769820D02*
X8309760Y-83520900D01*
X8309760Y-80970840D02*
X8309760Y-80770180D01*
X49170000Y-8810000D02*
X49170000Y-10510000D01*
X47770000Y-10510000D02*
X47770000Y-8810000D01*
X46770000Y-21500000D02*
X46770000Y-23200000D01*
X45370000Y-23200000D02*
X45370000Y-21500000D01*
X12190000Y-58760000D02*
X13690000Y-58760000D01*
X13690000Y-58460000D02*
X12190000Y-58460000D01*
X23690000Y-101330000D02*
X23690000Y-102830000D01*
X23990000Y-102830000D02*
X23990000Y-101330000D01*
X22815000Y-70355000D02*
X22490000Y-70355000D01*
X15565000Y-70355000D02*
X15565000Y-70030000D01*
X15565000Y-70355000D02*
X15790000Y-70355000D01*
X22815000Y-63105000D02*
X22815000Y-63430000D01*
X15565000Y-63105000D02*
X15890000Y-63105000D01*
X15565000Y-63105000D02*
X15565000Y-63430000D01*
X15790000Y-70355000D02*
X15790000Y-71780000D01*
X22815000Y-63105000D02*
X22490000Y-63105000D01*
X22815000Y-70355000D02*
X22815000Y-70030000D01*
X18760000Y-96290000D02*
X18760000Y-97990000D01*
X17360000Y-97990000D02*
X17360000Y-96290000D01*
X15820000Y-77900000D02*
X14320000Y-77900000D01*
X14320000Y-78200000D02*
X15820000Y-78200000D01*
X34660000Y-49300000D02*
X36360000Y-49300000D01*
X36360000Y-50700000D02*
X34660000Y-50700000D01*
X23330000Y-43090000D02*
X23330000Y-41590000D01*
X23030000Y-41590000D02*
X23030000Y-43090000D01*
X9440800Y-66889820D02*
X8739760Y-66889820D01*
X8739760Y-64090840D02*
X8739760Y-63890180D01*
X8739760Y-63890180D02*
X9440800Y-63890180D01*
X8739760Y-64090840D02*
X8739760Y-64139100D01*
X8739760Y-66889820D02*
X8739760Y-66640900D01*
X43690000Y-2220000D02*
X43690000Y-3920000D01*
X42290000Y-3920000D02*
X42290000Y-2220000D01*
X20289160Y-103579760D02*
X20489820Y-103579760D01*
X20289160Y-103579760D02*
X20240900Y-103579760D01*
X17490180Y-104280800D02*
X17490180Y-103579760D01*
X20489820Y-103579760D02*
X20489820Y-104280800D01*
X17490180Y-103579760D02*
X17739100Y-103579760D01*
%LPC*%
D22*
X20920000Y-27820000D03*
D23*
X18640000Y-34120000D03*
D22*
X16360000Y-27820000D03*
D24*
X42860000Y-39610000D03*
X42860000Y-41310000D03*
D25*
X16740000Y-2230000D03*
X19280000Y-2230000D03*
X16740000Y-4770000D03*
X19280000Y-4770000D03*
X16740000Y-7310000D03*
X19280000Y-7310000D03*
X16740000Y-9850000D03*
X19280000Y-9850000D03*
X16740000Y-12390000D03*
X19280000Y-12390000D03*
X16740000Y-14930000D03*
X19280000Y-14930000D03*
X16740000Y-17470000D03*
X19280000Y-17470000D03*
X16740000Y-20010000D03*
X19280000Y-20010000D03*
D24*
X53950000Y-64320000D03*
X55650000Y-64320000D03*
D26*
X21240000Y-75550000D03*
X19740000Y-73450000D03*
X21240000Y-73450000D03*
X19740000Y-75550000D03*
D24*
X46110000Y-35850000D03*
X46110000Y-34150000D03*
X46070000Y-108620000D03*
X46070000Y-106920000D03*
X6100000Y-31170000D03*
X6100000Y-29470000D03*
X28300000Y-15800000D03*
X28300000Y-17500000D03*
X17710000Y-73690000D03*
X17710000Y-75390000D03*
X22640000Y-100310000D03*
X20940000Y-100310000D03*
X46180000Y-85060000D03*
X46180000Y-83360000D03*
D27*
X9590760Y-31140000D03*
X9590760Y-29240000D03*
X7591780Y-30190000D03*
D24*
X33410000Y-59660000D03*
X31710000Y-59660000D03*
D27*
X33720000Y-104269240D03*
X31820000Y-104269240D03*
X32770000Y-106268220D03*
D24*
X42930000Y-21120000D03*
X42930000Y-19420000D03*
D27*
X33040000Y-91099240D03*
X31140000Y-91099240D03*
X32090000Y-93098220D03*
X22650000Y-96459240D03*
X20750000Y-96459240D03*
X21700000Y-98458220D03*
D24*
X6380000Y-78480000D03*
X8080000Y-78480000D03*
X46140000Y-72730000D03*
X46140000Y-71030000D03*
D28*
X16041020Y-23940000D03*
X20038980Y-23940000D03*
D29*
X35900000Y-81440000D03*
X35900000Y-80790000D03*
X35900000Y-80140000D03*
X35900000Y-79490000D03*
X35900000Y-78840000D03*
X35900000Y-78190000D03*
X35900000Y-77540000D03*
X30000000Y-77540000D03*
X30000000Y-78190000D03*
X30000000Y-78840000D03*
X30000000Y-79490000D03*
X30000000Y-80140000D03*
X30000000Y-80790000D03*
X30000000Y-81440000D03*
D24*
X40980000Y-106140000D03*
X42680000Y-106140000D03*
X21100000Y-59810000D03*
X19400000Y-59810000D03*
X21730000Y-20330000D03*
X23430000Y-20330000D03*
X42910000Y-33480000D03*
X42910000Y-31780000D03*
X34830000Y-101380000D03*
X36530000Y-101380000D03*
X7430000Y-27540000D03*
X9130000Y-27540000D03*
X6390000Y-81850000D03*
X6390000Y-80150000D03*
X2820000Y-88330000D03*
X2820000Y-90030000D03*
X34860000Y-93530000D03*
X36560000Y-93530000D03*
D27*
X13670000Y-88430760D03*
X15570000Y-88430760D03*
X14620000Y-86431780D03*
D24*
X27920000Y-81580000D03*
X27920000Y-79880000D03*
X44400000Y-60730000D03*
X44400000Y-59030000D03*
X21250000Y-77670000D03*
X19550000Y-77670000D03*
X12710000Y-68810000D03*
X12710000Y-70510000D03*
D30*
X52040000Y-59470000D03*
X51390000Y-59470000D03*
X50740000Y-59470000D03*
X50090000Y-59470000D03*
X49440000Y-59470000D03*
X48790000Y-59470000D03*
X48140000Y-59470000D03*
X48140000Y-65370000D03*
X48790000Y-65370000D03*
X49440000Y-65370000D03*
X50090000Y-65370000D03*
X50740000Y-65370000D03*
X51390000Y-65370000D03*
X52040000Y-65370000D03*
D24*
X6810000Y-62670000D03*
X8510000Y-62670000D03*
X7430000Y-10010000D03*
X9130000Y-10010000D03*
D31*
X16730000Y-47330000D03*
X21130000Y-47330000D03*
D32*
X7840000Y-37200000D03*
X7840000Y-41600000D03*
D24*
X39540000Y-3890000D03*
X41240000Y-3890000D03*
D33*
X38930000Y-12670000D03*
X41470000Y-10130000D03*
X44010000Y-12670000D03*
D34*
X19560000Y-86690000D03*
D35*
X22100000Y-86690000D03*
X19560000Y-89230000D03*
X22100000Y-89230000D03*
X19560000Y-91770000D03*
X22100000Y-91770000D03*
D24*
X17090000Y-108470000D03*
X15390000Y-108470000D03*
X34740000Y-88490000D03*
X36440000Y-88490000D03*
X6840000Y-66640000D03*
X6840000Y-64940000D03*
X35520000Y-11370000D03*
X33820000Y-11370000D03*
D29*
X35510000Y-6945000D03*
X35510000Y-6295000D03*
X35510000Y-5645000D03*
X35510000Y-4995000D03*
X29610000Y-4995000D03*
X29610000Y-5645000D03*
X29610000Y-6295000D03*
X29610000Y-6945000D03*
D24*
X46030000Y-9570000D03*
X46030000Y-7870000D03*
D27*
X9380760Y-13550000D03*
X9380760Y-11650000D03*
X7381780Y-12600000D03*
D24*
X6470000Y-48350000D03*
X6470000Y-46650000D03*
X42890000Y-64340000D03*
X42890000Y-66040000D03*
X42900000Y-52000000D03*
X42900000Y-53700000D03*
D27*
X16350000Y-100539240D03*
X14450000Y-100539240D03*
X15400000Y-102538220D03*
D36*
X17370000Y-42580000D03*
D37*
X18870000Y-41176200D03*
D38*
X18870000Y-38433000D03*
D39*
X18870000Y-42433500D03*
D40*
X18870000Y-39766500D03*
D36*
X20370000Y-42580000D03*
D24*
X46110000Y-97370000D03*
X46110000Y-95670000D03*
X16790000Y-93140000D03*
X15090000Y-93140000D03*
X27240000Y-4900000D03*
X25540000Y-4900000D03*
X42840000Y-89020000D03*
X42840000Y-90720000D03*
D28*
X26858980Y-12830000D03*
X22861020Y-12830000D03*
D31*
X24280000Y-28540000D03*
X28680000Y-28540000D03*
D27*
X10160760Y-48410000D03*
X10160760Y-46510000D03*
X8161780Y-47460000D03*
D24*
X5720000Y-13420000D03*
X5720000Y-11720000D03*
X42880000Y-76680000D03*
X42880000Y-78380000D03*
X15020000Y-106650000D03*
X15020000Y-104950000D03*
X14580000Y-84760000D03*
X14580000Y-83060000D03*
X7410000Y-44890000D03*
X9110000Y-44890000D03*
D27*
X13099240Y-73620000D03*
X13099240Y-75520000D03*
X15098220Y-74570000D03*
D24*
X35370000Y-106400000D03*
X37070000Y-106400000D03*
X46140000Y-47840000D03*
X46140000Y-46140000D03*
D25*
X27560000Y-2420000D03*
X25020000Y-2420000D03*
D27*
X11190000Y-57629240D03*
X9290000Y-57629240D03*
X10240000Y-59628220D03*
D24*
X38320000Y-74930000D03*
X36620000Y-74930000D03*
D27*
X9960760Y-83220000D03*
X9960760Y-81320000D03*
X7961780Y-82270000D03*
D24*
X48470000Y-8810000D03*
X48470000Y-10510000D03*
X46070000Y-23200000D03*
X46070000Y-21500000D03*
X12940000Y-59460000D03*
X12940000Y-57760000D03*
X22990000Y-102080000D03*
X24690000Y-102080000D03*
D41*
X16390000Y-70980000D03*
X17190000Y-70980000D03*
X17990000Y-70980000D03*
X18790000Y-70980000D03*
X19590000Y-70980000D03*
X20390000Y-70980000D03*
X21190000Y-70980000D03*
X21990000Y-70980000D03*
D42*
X23440000Y-69530000D03*
X23440000Y-68730000D03*
X23440000Y-67930000D03*
X23440000Y-67130000D03*
X23440000Y-66330000D03*
X23440000Y-65530000D03*
X23440000Y-64730000D03*
X23440000Y-63930000D03*
D41*
X21990000Y-62480000D03*
X21190000Y-62480000D03*
X20390000Y-62480000D03*
X19590000Y-62480000D03*
X18790000Y-62480000D03*
X17990000Y-62480000D03*
X17190000Y-62480000D03*
X16390000Y-62480000D03*
D42*
X14940000Y-63930000D03*
X14940000Y-64730000D03*
X14940000Y-65530000D03*
X14940000Y-66330000D03*
X14940000Y-67130000D03*
X14940000Y-67930000D03*
X14940000Y-68730000D03*
X14940000Y-69530000D03*
D24*
X18060000Y-97990000D03*
X18060000Y-96290000D03*
X15070000Y-77200000D03*
X15070000Y-78900000D03*
X36360000Y-50000000D03*
X34660000Y-50000000D03*
X22330000Y-42340000D03*
X24030000Y-42340000D03*
D27*
X10390760Y-66340000D03*
X10390760Y-64440000D03*
X8391780Y-65390000D03*
D24*
X42990000Y-2220000D03*
X42990000Y-3920000D03*
D27*
X18040000Y-105230760D03*
X19940000Y-105230760D03*
X18990000Y-103231780D03*
D43*
X46101000Y-17970500D03*
X57073800Y-17970500D03*
X54660800Y-17970500D03*
D44*
X5257800Y-90512900D03*
X7797800Y-90512900D03*
X10337800Y-90512900D03*
X5257800Y-95592900D03*
X7797800Y-95592900D03*
X10337800Y-95592900D03*
D45*
X2717800Y-93052900D03*
D44*
X12877800Y-93052900D03*
D43*
X36499800Y-9029700D03*
X25527000Y-9029700D03*
X27940000Y-9029700D03*
X36499800Y-34429700D03*
X25527000Y-34429700D03*
X27940000Y-34429700D03*
D46*
X10337637Y-51347943D03*
X7797637Y-51347943D03*
X5257637Y-51347943D03*
D47*
X12191837Y-44337543D03*
X3403437Y-44337543D03*
D43*
X46101000Y-30353000D03*
X57073800Y-30353000D03*
X54660800Y-30353000D03*
X46101000Y-42735500D03*
X57073800Y-42735500D03*
X54660800Y-42735500D03*
D46*
X10337637Y-33694943D03*
X7797637Y-33694943D03*
X5257637Y-33694943D03*
D47*
X12191837Y-26684543D03*
X3403437Y-26684543D03*
D46*
X10337637Y-86653943D03*
X7797637Y-86653943D03*
X5257637Y-86653943D03*
D47*
X12191837Y-79643543D03*
X3403437Y-79643543D03*
D43*
X46101000Y-104648000D03*
X57073800Y-104648000D03*
X54660800Y-104648000D03*
X36499800Y-72529700D03*
X25527000Y-72529700D03*
X27940000Y-72529700D03*
X36499800Y-97929700D03*
X25527000Y-97929700D03*
X27940000Y-97929700D03*
D44*
X5257800Y-102450900D03*
X7797800Y-102450900D03*
X10337800Y-102450900D03*
X5257800Y-107530900D03*
X7797800Y-107530900D03*
X10337800Y-107530900D03*
D45*
X2717800Y-104990900D03*
D44*
X12877800Y-104990900D03*
D43*
X46101000Y-5588000D03*
X57073800Y-5588000D03*
X54660800Y-5588000D03*
X36499800Y-59829700D03*
X25527000Y-59829700D03*
X27940000Y-59829700D03*
X46101000Y-92265500D03*
X57073800Y-92265500D03*
X54660800Y-92265500D03*
X46101000Y-67500500D03*
X57073800Y-67500500D03*
X54660800Y-67500500D03*
X36499800Y-47129700D03*
X25527000Y-47129700D03*
X27940000Y-47129700D03*
X36499800Y-85229700D03*
X25527000Y-85229700D03*
X27940000Y-85229700D03*
D46*
X10337637Y-69000943D03*
X7797637Y-69000943D03*
X5257637Y-69000943D03*
D47*
X12191837Y-61990543D03*
X3403437Y-61990543D03*
D46*
X10337637Y-16041943D03*
X7797637Y-16041943D03*
X5257637Y-16041943D03*
D47*
X12191837Y-9031543D03*
X3403437Y-9031543D03*
D43*
X46101000Y-79883000D03*
X57073800Y-79883000D03*
X54660800Y-79883000D03*
X46101000Y-55118000D03*
X57073800Y-55118000D03*
X54660800Y-55118000D03*
X36499800Y-21729700D03*
X25527000Y-21729700D03*
X27940000Y-21729700D03*
M02*
