G04 #@! TF.GenerationSoftware,KiCad,Pcbnew,(5.99.0-12261-ga2c28b18a8)*
G04 #@! TF.CreationDate,2021-10-12T13:44:05-07:00*
G04 #@! TF.ProjectId,SCMv3,53434d76-332e-46b6-9963-61645f706362,rev?*
G04 #@! TF.SameCoordinates,Original*
G04 #@! TF.FileFunction,Legend,Bot*
G04 #@! TF.FilePolarity,Positive*
%FSLAX46Y46*%
G04 Gerber Fmt 4.6, Leading zero omitted, Abs format (unit mm)*
G04 Created by KiCad (PCBNEW (5.99.0-12261-ga2c28b18a8)) date 2021-10-12 13:44:05*
%MOMM*%
%LPD*%
G01*
G04 APERTURE LIST*
G04 Aperture macros list*
%AMRoundRect*
0 Rectangle with rounded corners*
0 $1 Rounding radius*
0 $2 $3 $4 $5 $6 $7 $8 $9 X,Y pos of 4 corners*
0 Add a 4 corners polygon primitive as box body*
4,1,4,$2,$3,$4,$5,$6,$7,$8,$9,$2,$3,0*
0 Add four circle primitives for the rounded corners*
1,1,$1+$1,$2,$3*
1,1,$1+$1,$4,$5*
1,1,$1+$1,$6,$7*
1,1,$1+$1,$8,$9*
0 Add four rect primitives between the rounded corners*
20,1,$1+$1,$2,$3,$4,$5,0*
20,1,$1+$1,$4,$5,$6,$7,0*
20,1,$1+$1,$6,$7,$8,$9,0*
20,1,$1+$1,$8,$9,$2,$3,0*%
G04 Aperture macros list end*
%ADD10C,0.152400*%
%ADD11C,0.150000*%
%ADD12C,0.127000*%
%ADD13C,0.120000*%
%ADD14C,0.254000*%
%ADD15C,0.250000*%
%ADD16C,0.200000*%
%ADD17C,1.651000*%
%ADD18C,1.397000*%
%ADD19R,1.700000X1.700000*%
%ADD20O,1.700000X1.700000*%
%ADD21C,1.930400*%
%ADD22C,1.778000*%
%ADD23RoundRect,0.127000X0.635000X0.635000X-0.635000X0.635000X-0.635000X-0.635000X0.635000X-0.635000X0*%
%ADD24C,1.803400*%
%ADD25C,2.667000*%
%ADD26R,1.100000X1.500000*%
G04 APERTURE END LIST*
D10*
X56845321Y-23106047D02*
X56845321Y-23967833D01*
X56902774Y-24140190D01*
X57017679Y-24255095D01*
X57190036Y-24312547D01*
X57304940Y-24312547D01*
X56098440Y-23623119D02*
X56213345Y-23565666D01*
X56270798Y-23508214D01*
X56328250Y-23393309D01*
X56328250Y-23335857D01*
X56270798Y-23220952D01*
X56213345Y-23163500D01*
X56098440Y-23106047D01*
X55868631Y-23106047D01*
X55753726Y-23163500D01*
X55696274Y-23220952D01*
X55638821Y-23335857D01*
X55638821Y-23393309D01*
X55696274Y-23508214D01*
X55753726Y-23565666D01*
X55868631Y-23623119D01*
X56098440Y-23623119D01*
X56213345Y-23680571D01*
X56270798Y-23738023D01*
X56328250Y-23852928D01*
X56328250Y-24082738D01*
X56270798Y-24197642D01*
X56213345Y-24255095D01*
X56098440Y-24312547D01*
X55868631Y-24312547D01*
X55753726Y-24255095D01*
X55696274Y-24197642D01*
X55638821Y-24082738D01*
X55638821Y-23852928D01*
X55696274Y-23738023D01*
X55753726Y-23680571D01*
X55868631Y-23623119D01*
X55121750Y-23852928D02*
X54202512Y-23852928D01*
X53398179Y-23106047D02*
X53168369Y-23106047D01*
X53053464Y-23163500D01*
X52938560Y-23278404D01*
X52881107Y-23508214D01*
X52881107Y-23910380D01*
X52938560Y-24140190D01*
X53053464Y-24255095D01*
X53168369Y-24312547D01*
X53398179Y-24312547D01*
X53513083Y-24255095D01*
X53627988Y-24140190D01*
X53685440Y-23910380D01*
X53685440Y-23508214D01*
X53627988Y-23278404D01*
X53513083Y-23163500D01*
X53398179Y-23106047D01*
X52364036Y-23106047D02*
X52364036Y-24082738D01*
X52306583Y-24197642D01*
X52249131Y-24255095D01*
X52134226Y-24312547D01*
X51904417Y-24312547D01*
X51789512Y-24255095D01*
X51732060Y-24197642D01*
X51674607Y-24082738D01*
X51674607Y-23106047D01*
X51272440Y-23106047D02*
X50583012Y-23106047D01*
X50927726Y-24312547D02*
X50927726Y-23106047D01*
X49548869Y-24312547D02*
X50238298Y-24312547D01*
X49893583Y-24312547D02*
X49893583Y-23106047D01*
X50008488Y-23278404D01*
X50123393Y-23393309D01*
X50238298Y-23450761D01*
D11*
X11961071Y-97878571D02*
X11818214Y-97926190D01*
X11770595Y-97973809D01*
X11722976Y-98069047D01*
X11722976Y-98211904D01*
X11770595Y-98307142D01*
X11818214Y-98354761D01*
X11913452Y-98402380D01*
X12294404Y-98402380D01*
X12294404Y-97402380D01*
X11961071Y-97402380D01*
X11865833Y-97450000D01*
X11818214Y-97497619D01*
X11770595Y-97592857D01*
X11770595Y-97688095D01*
X11818214Y-97783333D01*
X11865833Y-97830952D01*
X11961071Y-97878571D01*
X12294404Y-97878571D01*
X10961071Y-97878571D02*
X11294404Y-97878571D01*
X11294404Y-98402380D02*
X11294404Y-97402380D01*
X10818214Y-97402380D01*
X10484880Y-98116666D02*
X10008690Y-98116666D01*
X10580119Y-98402380D02*
X10246785Y-97402380D01*
X9913452Y-98402380D01*
X9627738Y-98354761D02*
X9484880Y-98402380D01*
X9246785Y-98402380D01*
X9151547Y-98354761D01*
X9103928Y-98307142D01*
X9056309Y-98211904D01*
X9056309Y-98116666D01*
X9103928Y-98021428D01*
X9151547Y-97973809D01*
X9246785Y-97926190D01*
X9437261Y-97878571D01*
X9532500Y-97830952D01*
X9580119Y-97783333D01*
X9627738Y-97688095D01*
X9627738Y-97592857D01*
X9580119Y-97497619D01*
X9532500Y-97450000D01*
X9437261Y-97402380D01*
X9199166Y-97402380D01*
X9056309Y-97450000D01*
X8770595Y-97402380D02*
X8199166Y-97402380D01*
X8484880Y-98402380D02*
X8484880Y-97402380D01*
X7342023Y-98402380D02*
X7913452Y-98402380D01*
X7627738Y-98402380D02*
X7627738Y-97402380D01*
X7722976Y-97545238D01*
X7818214Y-97640476D01*
X7913452Y-97688095D01*
D10*
X35578963Y-2899747D02*
X35578963Y-3761533D01*
X35636416Y-3933890D01*
X35751320Y-4048795D01*
X35923678Y-4106247D01*
X36038582Y-4106247D01*
X34315011Y-4106247D02*
X34717178Y-3531723D01*
X35004440Y-4106247D02*
X35004440Y-2899747D01*
X34544820Y-2899747D01*
X34429916Y-2957200D01*
X34372463Y-3014652D01*
X34315011Y-3129557D01*
X34315011Y-3301914D01*
X34372463Y-3416819D01*
X34429916Y-3474271D01*
X34544820Y-3531723D01*
X35004440Y-3531723D01*
X33797940Y-3474271D02*
X33395773Y-3474271D01*
X33223416Y-4106247D02*
X33797940Y-4106247D01*
X33797940Y-2899747D01*
X33223416Y-2899747D01*
X32763797Y-4048795D02*
X32591440Y-4106247D01*
X32304178Y-4106247D01*
X32189273Y-4048795D01*
X32131820Y-3991342D01*
X32074368Y-3876438D01*
X32074368Y-3761533D01*
X32131820Y-3646628D01*
X32189273Y-3589176D01*
X32304178Y-3531723D01*
X32533987Y-3474271D01*
X32648892Y-3416819D01*
X32706344Y-3359366D01*
X32763797Y-3244461D01*
X32763797Y-3129557D01*
X32706344Y-3014652D01*
X32648892Y-2957200D01*
X32533987Y-2899747D01*
X32246725Y-2899747D01*
X32074368Y-2957200D01*
X31327487Y-3531723D02*
X31327487Y-4106247D01*
X31729654Y-2899747D02*
X31327487Y-3531723D01*
X30925320Y-2899747D01*
X30523154Y-4106247D02*
X30523154Y-2899747D01*
X29833725Y-4106247D01*
X29833725Y-2899747D01*
X28569773Y-3991342D02*
X28627225Y-4048795D01*
X28799582Y-4106247D01*
X28914487Y-4106247D01*
X29086844Y-4048795D01*
X29201749Y-3933890D01*
X29259201Y-3818985D01*
X29316654Y-3589176D01*
X29316654Y-3416819D01*
X29259201Y-3187009D01*
X29201749Y-3072104D01*
X29086844Y-2957200D01*
X28914487Y-2899747D01*
X28799582Y-2899747D01*
X28627225Y-2957200D01*
X28569773Y-3014652D01*
X27420725Y-4106247D02*
X28110154Y-4106247D01*
X27765440Y-4106247D02*
X27765440Y-2899747D01*
X27880344Y-3072104D01*
X27995249Y-3187009D01*
X28110154Y-3244461D01*
X35578963Y-28299747D02*
X35578963Y-29161533D01*
X35636416Y-29333890D01*
X35751320Y-29448795D01*
X35923678Y-29506247D01*
X36038582Y-29506247D01*
X35061892Y-29448795D02*
X34889535Y-29506247D01*
X34602273Y-29506247D01*
X34487368Y-29448795D01*
X34429916Y-29391342D01*
X34372463Y-29276438D01*
X34372463Y-29161533D01*
X34429916Y-29046628D01*
X34487368Y-28989176D01*
X34602273Y-28931723D01*
X34832082Y-28874271D01*
X34946987Y-28816819D01*
X35004440Y-28759366D01*
X35061892Y-28644461D01*
X35061892Y-28529557D01*
X35004440Y-28414652D01*
X34946987Y-28357200D01*
X34832082Y-28299747D01*
X34544820Y-28299747D01*
X34372463Y-28357200D01*
X33280868Y-29506247D02*
X33855392Y-29506247D01*
X33855392Y-28299747D01*
X32878701Y-29506247D02*
X32878701Y-28299747D01*
X32304178Y-29506247D02*
X32304178Y-28299747D01*
X31844559Y-28299747D01*
X31729654Y-28357200D01*
X31672201Y-28414652D01*
X31614749Y-28529557D01*
X31614749Y-28701914D01*
X31672201Y-28816819D01*
X31729654Y-28874271D01*
X31844559Y-28931723D01*
X32304178Y-28931723D01*
X30465701Y-29506247D02*
X31155130Y-29506247D01*
X30810416Y-29506247D02*
X30810416Y-28299747D01*
X30925320Y-28472104D01*
X31040225Y-28587009D01*
X31155130Y-28644461D01*
D11*
X10393576Y-37153780D02*
X10393576Y-36153780D01*
X10012623Y-36153780D01*
X9917385Y-36201400D01*
X9869766Y-36249019D01*
X9822147Y-36344257D01*
X9822147Y-36487114D01*
X9869766Y-36582352D01*
X9917385Y-36629971D01*
X10012623Y-36677590D01*
X10393576Y-36677590D01*
X9441195Y-37106161D02*
X9298338Y-37153780D01*
X9060242Y-37153780D01*
X8965004Y-37106161D01*
X8917385Y-37058542D01*
X8869766Y-36963304D01*
X8869766Y-36868066D01*
X8917385Y-36772828D01*
X8965004Y-36725209D01*
X9060242Y-36677590D01*
X9250719Y-36629971D01*
X9345957Y-36582352D01*
X9393576Y-36534733D01*
X9441195Y-36439495D01*
X9441195Y-36344257D01*
X9393576Y-36249019D01*
X9345957Y-36201400D01*
X9250719Y-36153780D01*
X9012623Y-36153780D01*
X8869766Y-36201400D01*
X8441195Y-37153780D02*
X8441195Y-36153780D01*
X8441195Y-36629971D02*
X7869766Y-36629971D01*
X7869766Y-37153780D02*
X7869766Y-36153780D01*
X7393576Y-36153780D02*
X7393576Y-36963304D01*
X7345957Y-37058542D01*
X7298338Y-37106161D01*
X7203099Y-37153780D01*
X7012623Y-37153780D01*
X6917385Y-37106161D01*
X6869766Y-37058542D01*
X6822147Y-36963304D01*
X6822147Y-36153780D01*
X6012623Y-36629971D02*
X6345957Y-36629971D01*
X6345957Y-37153780D02*
X6345957Y-36153780D01*
X5869766Y-36153780D01*
X5155480Y-36629971D02*
X5488814Y-36629971D01*
X5488814Y-37153780D02*
X5488814Y-36153780D01*
X5012623Y-36153780D01*
X4155480Y-37153780D02*
X4631671Y-37153780D01*
X4631671Y-36153780D01*
X3822147Y-36629971D02*
X3488814Y-36629971D01*
X3345957Y-37153780D02*
X3822147Y-37153780D01*
X3822147Y-36153780D01*
X3345957Y-36153780D01*
X2393576Y-37153780D02*
X2965004Y-37153780D01*
X2679290Y-37153780D02*
X2679290Y-36153780D01*
X2774528Y-36296638D01*
X2869766Y-36391876D01*
X2965004Y-36439495D01*
X10047800Y-44661080D02*
X10047800Y-43661080D01*
X9833514Y-43661080D01*
X9704942Y-43708700D01*
X9619228Y-43803938D01*
X9576371Y-43899176D01*
X9533514Y-44089652D01*
X9533514Y-44232509D01*
X9576371Y-44422985D01*
X9619228Y-44518223D01*
X9704942Y-44613461D01*
X9833514Y-44661080D01*
X10047800Y-44661080D01*
X9190657Y-44613461D02*
X9062085Y-44661080D01*
X8847800Y-44661080D01*
X8762085Y-44613461D01*
X8719228Y-44565842D01*
X8676371Y-44470604D01*
X8676371Y-44375366D01*
X8719228Y-44280128D01*
X8762085Y-44232509D01*
X8847800Y-44184890D01*
X9019228Y-44137271D01*
X9104942Y-44089652D01*
X9147800Y-44042033D01*
X9190657Y-43946795D01*
X9190657Y-43851557D01*
X9147800Y-43756319D01*
X9104942Y-43708700D01*
X9019228Y-43661080D01*
X8804942Y-43661080D01*
X8676371Y-43708700D01*
X8290657Y-44661080D02*
X8290657Y-43661080D01*
X8290657Y-44137271D02*
X7776371Y-44137271D01*
X7776371Y-44661080D02*
X7776371Y-43661080D01*
X7390657Y-44375366D02*
X6962085Y-44375366D01*
X7476371Y-44661080D02*
X7176371Y-43661080D01*
X6876371Y-44661080D01*
X6276371Y-44137271D02*
X6576371Y-44137271D01*
X6576371Y-44661080D02*
X6576371Y-43661080D01*
X6147800Y-43661080D01*
X5933514Y-43661080D02*
X5419228Y-43661080D01*
X5676371Y-44661080D02*
X5676371Y-43661080D01*
X10250180Y-40238080D02*
X10250180Y-39238080D01*
X10012085Y-39238080D01*
X9869228Y-39285700D01*
X9773990Y-39380938D01*
X9726371Y-39476176D01*
X9678752Y-39666652D01*
X9678752Y-39809509D01*
X9726371Y-39999985D01*
X9773990Y-40095223D01*
X9869228Y-40190461D01*
X10012085Y-40238080D01*
X10250180Y-40238080D01*
X9250180Y-39714271D02*
X8916847Y-39714271D01*
X8773990Y-40238080D02*
X9250180Y-40238080D01*
X9250180Y-39238080D01*
X8773990Y-39238080D01*
X8488276Y-39238080D02*
X7916847Y-39238080D01*
X8202561Y-40238080D02*
X8202561Y-39238080D01*
X7583514Y-39714271D02*
X7250180Y-39714271D01*
X7107323Y-40238080D02*
X7583514Y-40238080D01*
X7583514Y-39238080D01*
X7107323Y-39238080D01*
X6678752Y-40238080D02*
X6678752Y-39238080D01*
X6107323Y-40238080D01*
X6107323Y-39238080D01*
X5773990Y-39238080D02*
X5202561Y-39238080D01*
X5488276Y-40238080D02*
X5488276Y-39238080D01*
D12*
X41296755Y-96361619D02*
X41780565Y-96361619D01*
X41780565Y-95345619D01*
X40958089Y-95829428D02*
X40619422Y-95829428D01*
X40474279Y-96361619D02*
X40958089Y-96361619D01*
X40958089Y-95345619D01*
X40474279Y-95345619D01*
X40038850Y-96361619D02*
X40038850Y-95345619D01*
X39796946Y-95345619D01*
X39651803Y-95394000D01*
X39555041Y-95490761D01*
X39506660Y-95587523D01*
X39458279Y-95781047D01*
X39458279Y-95926190D01*
X39506660Y-96119714D01*
X39555041Y-96216476D01*
X39651803Y-96313238D01*
X39796946Y-96361619D01*
X40038850Y-96361619D01*
X39071231Y-95442380D02*
X39022850Y-95394000D01*
X38926089Y-95345619D01*
X38684184Y-95345619D01*
X38587422Y-95394000D01*
X38539041Y-95442380D01*
X38490660Y-95539142D01*
X38490660Y-95635904D01*
X38539041Y-95781047D01*
X39119612Y-96361619D01*
X38490660Y-96361619D01*
D13*
X42092420Y-90885738D02*
X42061467Y-90823833D01*
X42061467Y-90730976D01*
X42092420Y-90638119D01*
X42154324Y-90576214D01*
X42216229Y-90545261D01*
X42340039Y-90514309D01*
X42432896Y-90514309D01*
X42556705Y-90545261D01*
X42618610Y-90576214D01*
X42680515Y-90638119D01*
X42711467Y-90730976D01*
X42711467Y-90792880D01*
X42680515Y-90885738D01*
X42649562Y-90916690D01*
X42432896Y-90916690D01*
X42432896Y-90792880D01*
X42420991Y-93861928D02*
X42451943Y-93954785D01*
X42482896Y-93985738D01*
X42544800Y-94016690D01*
X42637658Y-94016690D01*
X42699562Y-93985738D01*
X42730515Y-93954785D01*
X42761467Y-93892880D01*
X42761467Y-93645261D01*
X42111467Y-93645261D01*
X42111467Y-93861928D01*
X42142420Y-93923833D01*
X42173372Y-93954785D01*
X42235277Y-93985738D01*
X42297181Y-93985738D01*
X42359086Y-93954785D01*
X42390039Y-93923833D01*
X42420991Y-93861928D01*
X42420991Y-93645261D01*
X38461467Y-90866690D02*
X38151943Y-90650023D01*
X38461467Y-90495261D02*
X37811467Y-90495261D01*
X37811467Y-90742880D01*
X37842420Y-90804785D01*
X37873372Y-90835738D01*
X37935277Y-90866690D01*
X38028134Y-90866690D01*
X38090039Y-90835738D01*
X38120991Y-90804785D01*
X38151943Y-90742880D01*
X38151943Y-90495261D01*
X38088848Y-93417880D02*
X38088848Y-93913119D01*
X38336467Y-93665500D02*
X37841229Y-93665500D01*
D10*
X57065321Y-35466047D02*
X57065321Y-36327833D01*
X57122774Y-36500190D01*
X57237679Y-36615095D01*
X57410036Y-36672547D01*
X57524940Y-36672547D01*
X56605702Y-35466047D02*
X55801369Y-35466047D01*
X56318440Y-36672547D01*
X55341750Y-36212928D02*
X54422512Y-36212928D01*
X53618179Y-35466047D02*
X53388369Y-35466047D01*
X53273464Y-35523500D01*
X53158560Y-35638404D01*
X53101107Y-35868214D01*
X53101107Y-36270380D01*
X53158560Y-36500190D01*
X53273464Y-36615095D01*
X53388369Y-36672547D01*
X53618179Y-36672547D01*
X53733083Y-36615095D01*
X53847988Y-36500190D01*
X53905440Y-36270380D01*
X53905440Y-35868214D01*
X53847988Y-35638404D01*
X53733083Y-35523500D01*
X53618179Y-35466047D01*
X52584036Y-35466047D02*
X52584036Y-36442738D01*
X52526583Y-36557642D01*
X52469131Y-36615095D01*
X52354226Y-36672547D01*
X52124417Y-36672547D01*
X52009512Y-36615095D01*
X51952060Y-36557642D01*
X51894607Y-36442738D01*
X51894607Y-35466047D01*
X51492440Y-35466047D02*
X50803012Y-35466047D01*
X51147726Y-36672547D02*
X51147726Y-35466047D01*
X50458298Y-35580952D02*
X50400845Y-35523500D01*
X50285940Y-35466047D01*
X49998679Y-35466047D01*
X49883774Y-35523500D01*
X49826321Y-35580952D01*
X49768869Y-35695857D01*
X49768869Y-35810761D01*
X49826321Y-35983119D01*
X50515750Y-36672547D01*
X49768869Y-36672547D01*
X57065321Y-47836047D02*
X57065321Y-48697833D01*
X57122774Y-48870190D01*
X57237679Y-48985095D01*
X57410036Y-49042547D01*
X57524940Y-49042547D01*
X55973726Y-47836047D02*
X56203536Y-47836047D01*
X56318440Y-47893500D01*
X56375893Y-47950952D01*
X56490798Y-48123309D01*
X56548250Y-48353119D01*
X56548250Y-48812738D01*
X56490798Y-48927642D01*
X56433345Y-48985095D01*
X56318440Y-49042547D01*
X56088631Y-49042547D01*
X55973726Y-48985095D01*
X55916274Y-48927642D01*
X55858821Y-48812738D01*
X55858821Y-48525476D01*
X55916274Y-48410571D01*
X55973726Y-48353119D01*
X56088631Y-48295666D01*
X56318440Y-48295666D01*
X56433345Y-48353119D01*
X56490798Y-48410571D01*
X56548250Y-48525476D01*
X55341750Y-48582928D02*
X54422512Y-48582928D01*
X53618179Y-47836047D02*
X53388369Y-47836047D01*
X53273464Y-47893500D01*
X53158560Y-48008404D01*
X53101107Y-48238214D01*
X53101107Y-48640380D01*
X53158560Y-48870190D01*
X53273464Y-48985095D01*
X53388369Y-49042547D01*
X53618179Y-49042547D01*
X53733083Y-48985095D01*
X53847988Y-48870190D01*
X53905440Y-48640380D01*
X53905440Y-48238214D01*
X53847988Y-48008404D01*
X53733083Y-47893500D01*
X53618179Y-47836047D01*
X52584036Y-47836047D02*
X52584036Y-48812738D01*
X52526583Y-48927642D01*
X52469131Y-48985095D01*
X52354226Y-49042547D01*
X52124417Y-49042547D01*
X52009512Y-48985095D01*
X51952060Y-48927642D01*
X51894607Y-48812738D01*
X51894607Y-47836047D01*
X51492440Y-47836047D02*
X50803012Y-47836047D01*
X51147726Y-49042547D02*
X51147726Y-47836047D01*
X50515750Y-47836047D02*
X49768869Y-47836047D01*
X50171036Y-48295666D01*
X49998679Y-48295666D01*
X49883774Y-48353119D01*
X49826321Y-48410571D01*
X49768869Y-48525476D01*
X49768869Y-48812738D01*
X49826321Y-48927642D01*
X49883774Y-48985095D01*
X49998679Y-49042547D01*
X50343393Y-49042547D01*
X50458298Y-48985095D01*
X50515750Y-48927642D01*
D11*
X8055480Y-19567780D02*
X8055480Y-18567780D01*
X7674528Y-18567780D01*
X7579290Y-18615400D01*
X7531671Y-18663019D01*
X7484052Y-18758257D01*
X7484052Y-18901114D01*
X7531671Y-18996352D01*
X7579290Y-19043971D01*
X7674528Y-19091590D01*
X8055480Y-19091590D01*
X7103100Y-19520161D02*
X6960242Y-19567780D01*
X6722147Y-19567780D01*
X6626909Y-19520161D01*
X6579290Y-19472542D01*
X6531671Y-19377304D01*
X6531671Y-19282066D01*
X6579290Y-19186828D01*
X6626909Y-19139209D01*
X6722147Y-19091590D01*
X6912623Y-19043971D01*
X7007861Y-18996352D01*
X7055480Y-18948733D01*
X7103100Y-18853495D01*
X7103100Y-18758257D01*
X7055480Y-18663019D01*
X7007861Y-18615400D01*
X6912623Y-18567780D01*
X6674528Y-18567780D01*
X6531671Y-18615400D01*
X5626909Y-19567780D02*
X6103100Y-19567780D01*
X6103100Y-18567780D01*
X5293576Y-19567780D02*
X5293576Y-18567780D01*
X4817385Y-19567780D02*
X4817385Y-18567780D01*
X4436433Y-18567780D01*
X4341195Y-18615400D01*
X4293576Y-18663019D01*
X4245957Y-18758257D01*
X4245957Y-18901114D01*
X4293576Y-18996352D01*
X4341195Y-19043971D01*
X4436433Y-19091590D01*
X4817385Y-19091590D01*
X3293576Y-19567780D02*
X3865004Y-19567780D01*
X3579290Y-19567780D02*
X3579290Y-18567780D01*
X3674528Y-18710638D01*
X3769766Y-18805876D01*
X3865004Y-18853495D01*
X10250180Y-22585080D02*
X10250180Y-21585080D01*
X10012085Y-21585080D01*
X9869228Y-21632700D01*
X9773990Y-21727938D01*
X9726371Y-21823176D01*
X9678752Y-22013652D01*
X9678752Y-22156509D01*
X9726371Y-22346985D01*
X9773990Y-22442223D01*
X9869228Y-22537461D01*
X10012085Y-22585080D01*
X10250180Y-22585080D01*
X9250180Y-22061271D02*
X8916847Y-22061271D01*
X8773990Y-22585080D02*
X9250180Y-22585080D01*
X9250180Y-21585080D01*
X8773990Y-21585080D01*
X8488276Y-21585080D02*
X7916847Y-21585080D01*
X8202561Y-22585080D02*
X8202561Y-21585080D01*
X7583514Y-22061271D02*
X7250180Y-22061271D01*
X7107323Y-22585080D02*
X7583514Y-22585080D01*
X7583514Y-21585080D01*
X7107323Y-21585080D01*
X6678752Y-22585080D02*
X6678752Y-21585080D01*
X6107323Y-22585080D01*
X6107323Y-21585080D01*
X5773990Y-21585080D02*
X5202561Y-21585080D01*
X5488276Y-22585080D02*
X5488276Y-21585080D01*
X10047800Y-27008080D02*
X10047800Y-26008080D01*
X9833514Y-26008080D01*
X9704942Y-26055700D01*
X9619228Y-26150938D01*
X9576371Y-26246176D01*
X9533514Y-26436652D01*
X9533514Y-26579509D01*
X9576371Y-26769985D01*
X9619228Y-26865223D01*
X9704942Y-26960461D01*
X9833514Y-27008080D01*
X10047800Y-27008080D01*
X9190657Y-26960461D02*
X9062085Y-27008080D01*
X8847800Y-27008080D01*
X8762085Y-26960461D01*
X8719228Y-26912842D01*
X8676371Y-26817604D01*
X8676371Y-26722366D01*
X8719228Y-26627128D01*
X8762085Y-26579509D01*
X8847800Y-26531890D01*
X9019228Y-26484271D01*
X9104942Y-26436652D01*
X9147800Y-26389033D01*
X9190657Y-26293795D01*
X9190657Y-26198557D01*
X9147800Y-26103319D01*
X9104942Y-26055700D01*
X9019228Y-26008080D01*
X8804942Y-26008080D01*
X8676371Y-26055700D01*
X8290657Y-27008080D02*
X8290657Y-26008080D01*
X8290657Y-26484271D02*
X7776371Y-26484271D01*
X7776371Y-27008080D02*
X7776371Y-26008080D01*
X7390657Y-26722366D02*
X6962085Y-26722366D01*
X7476371Y-27008080D02*
X7176371Y-26008080D01*
X6876371Y-27008080D01*
X6276371Y-26484271D02*
X6576371Y-26484271D01*
X6576371Y-27008080D02*
X6576371Y-26008080D01*
X6147800Y-26008080D01*
X5933514Y-26008080D02*
X5419228Y-26008080D01*
X5676371Y-27008080D02*
X5676371Y-26008080D01*
X6610242Y-72445780D02*
X6610242Y-71445780D01*
X6229290Y-71445780D01*
X6134052Y-71493400D01*
X6086433Y-71541019D01*
X6038814Y-71636257D01*
X6038814Y-71779114D01*
X6086433Y-71874352D01*
X6134052Y-71921971D01*
X6229290Y-71969590D01*
X6610242Y-71969590D01*
X5610242Y-72445780D02*
X5610242Y-71445780D01*
X5229290Y-71445780D01*
X5134052Y-71493400D01*
X5086433Y-71541019D01*
X5038814Y-71636257D01*
X5038814Y-71779114D01*
X5086433Y-71874352D01*
X5134052Y-71921971D01*
X5229290Y-71969590D01*
X5610242Y-71969590D01*
X4705480Y-71445780D02*
X4467385Y-72445780D01*
X4276909Y-71731495D01*
X4086433Y-72445780D01*
X3848338Y-71445780D01*
X2943576Y-72445780D02*
X3515004Y-72445780D01*
X3229290Y-72445780D02*
X3229290Y-71445780D01*
X3324528Y-71588638D01*
X3419766Y-71683876D01*
X3515004Y-71731495D01*
X10047800Y-79967080D02*
X10047800Y-78967080D01*
X9833514Y-78967080D01*
X9704942Y-79014700D01*
X9619228Y-79109938D01*
X9576371Y-79205176D01*
X9533514Y-79395652D01*
X9533514Y-79538509D01*
X9576371Y-79728985D01*
X9619228Y-79824223D01*
X9704942Y-79919461D01*
X9833514Y-79967080D01*
X10047800Y-79967080D01*
X9190657Y-79919461D02*
X9062085Y-79967080D01*
X8847800Y-79967080D01*
X8762085Y-79919461D01*
X8719228Y-79871842D01*
X8676371Y-79776604D01*
X8676371Y-79681366D01*
X8719228Y-79586128D01*
X8762085Y-79538509D01*
X8847800Y-79490890D01*
X9019228Y-79443271D01*
X9104942Y-79395652D01*
X9147800Y-79348033D01*
X9190657Y-79252795D01*
X9190657Y-79157557D01*
X9147800Y-79062319D01*
X9104942Y-79014700D01*
X9019228Y-78967080D01*
X8804942Y-78967080D01*
X8676371Y-79014700D01*
X8290657Y-79967080D02*
X8290657Y-78967080D01*
X8290657Y-79443271D02*
X7776371Y-79443271D01*
X7776371Y-79967080D02*
X7776371Y-78967080D01*
X7390657Y-79681366D02*
X6962085Y-79681366D01*
X7476371Y-79967080D02*
X7176371Y-78967080D01*
X6876371Y-79967080D01*
X6276371Y-79443271D02*
X6576371Y-79443271D01*
X6576371Y-79967080D02*
X6576371Y-78967080D01*
X6147800Y-78967080D01*
X5933514Y-78967080D02*
X5419228Y-78967080D01*
X5676371Y-79967080D02*
X5676371Y-78967080D01*
X10250180Y-75544080D02*
X10250180Y-74544080D01*
X10012085Y-74544080D01*
X9869228Y-74591700D01*
X9773990Y-74686938D01*
X9726371Y-74782176D01*
X9678752Y-74972652D01*
X9678752Y-75115509D01*
X9726371Y-75305985D01*
X9773990Y-75401223D01*
X9869228Y-75496461D01*
X10012085Y-75544080D01*
X10250180Y-75544080D01*
X9250180Y-75020271D02*
X8916847Y-75020271D01*
X8773990Y-75544080D02*
X9250180Y-75544080D01*
X9250180Y-74544080D01*
X8773990Y-74544080D01*
X8488276Y-74544080D02*
X7916847Y-74544080D01*
X8202561Y-75544080D02*
X8202561Y-74544080D01*
X7583514Y-75020271D02*
X7250180Y-75020271D01*
X7107323Y-75544080D02*
X7583514Y-75544080D01*
X7583514Y-74544080D01*
X7107323Y-74544080D01*
X6678752Y-75544080D02*
X6678752Y-74544080D01*
X6107323Y-75544080D01*
X6107323Y-74544080D01*
X5773990Y-74544080D02*
X5202561Y-74544080D01*
X5488276Y-75544080D02*
X5488276Y-74544080D01*
D10*
X57405321Y-107636047D02*
X57405321Y-108497833D01*
X57462774Y-108670190D01*
X57577679Y-108785095D01*
X57750036Y-108842547D01*
X57864940Y-108842547D01*
X56198821Y-108842547D02*
X56888250Y-108842547D01*
X56543536Y-108842547D02*
X56543536Y-107636047D01*
X56658440Y-107808404D01*
X56773345Y-107923309D01*
X56888250Y-107980761D01*
X55681750Y-108382928D02*
X54762512Y-108382928D01*
X53958179Y-107636047D02*
X53728369Y-107636047D01*
X53613464Y-107693500D01*
X53498560Y-107808404D01*
X53441107Y-108038214D01*
X53441107Y-108440380D01*
X53498560Y-108670190D01*
X53613464Y-108785095D01*
X53728369Y-108842547D01*
X53958179Y-108842547D01*
X54073083Y-108785095D01*
X54187988Y-108670190D01*
X54245440Y-108440380D01*
X54245440Y-108038214D01*
X54187988Y-107808404D01*
X54073083Y-107693500D01*
X53958179Y-107636047D01*
X52924036Y-107636047D02*
X52924036Y-108612738D01*
X52866583Y-108727642D01*
X52809131Y-108785095D01*
X52694226Y-108842547D01*
X52464417Y-108842547D01*
X52349512Y-108785095D01*
X52292060Y-108727642D01*
X52234607Y-108612738D01*
X52234607Y-107636047D01*
X51832440Y-107636047D02*
X51143012Y-107636047D01*
X51487726Y-108842547D02*
X51487726Y-107636047D01*
X50568488Y-108153119D02*
X50683393Y-108095666D01*
X50740845Y-108038214D01*
X50798298Y-107923309D01*
X50798298Y-107865857D01*
X50740845Y-107750952D01*
X50683393Y-107693500D01*
X50568488Y-107636047D01*
X50338679Y-107636047D01*
X50223774Y-107693500D01*
X50166321Y-107750952D01*
X50108869Y-107865857D01*
X50108869Y-107923309D01*
X50166321Y-108038214D01*
X50223774Y-108095666D01*
X50338679Y-108153119D01*
X50568488Y-108153119D01*
X50683393Y-108210571D01*
X50740845Y-108268023D01*
X50798298Y-108382928D01*
X50798298Y-108612738D01*
X50740845Y-108727642D01*
X50683393Y-108785095D01*
X50568488Y-108842547D01*
X50338679Y-108842547D01*
X50223774Y-108785095D01*
X50166321Y-108727642D01*
X50108869Y-108612738D01*
X50108869Y-108382928D01*
X50166321Y-108268023D01*
X50223774Y-108210571D01*
X50338679Y-108153119D01*
X35578963Y-66399747D02*
X35578963Y-67261533D01*
X35636416Y-67433890D01*
X35751320Y-67548795D01*
X35923678Y-67606247D01*
X36038582Y-67606247D01*
X35004440Y-67606247D02*
X35004440Y-66399747D01*
X34544820Y-66399747D01*
X34429916Y-66457200D01*
X34372463Y-66514652D01*
X34315011Y-66629557D01*
X34315011Y-66801914D01*
X34372463Y-66916819D01*
X34429916Y-66974271D01*
X34544820Y-67031723D01*
X35004440Y-67031723D01*
X33912844Y-66399747D02*
X33625582Y-67606247D01*
X33395773Y-66744461D01*
X33165963Y-67606247D01*
X32878701Y-66399747D01*
X31787106Y-67606247D02*
X32476535Y-67606247D01*
X32131820Y-67606247D02*
X32131820Y-66399747D01*
X32246725Y-66572104D01*
X32361630Y-66687009D01*
X32476535Y-66744461D01*
X35578963Y-91799747D02*
X35578963Y-92661533D01*
X35636416Y-92833890D01*
X35751320Y-92948795D01*
X35923678Y-93006247D01*
X36038582Y-93006247D01*
X35004440Y-93006247D02*
X35004440Y-91799747D01*
X34602273Y-92661533D01*
X34200106Y-91799747D01*
X34200106Y-93006247D01*
X33625582Y-91799747D02*
X33625582Y-92776438D01*
X33568130Y-92891342D01*
X33510678Y-92948795D01*
X33395773Y-93006247D01*
X33165963Y-93006247D01*
X33051059Y-92948795D01*
X32993606Y-92891342D01*
X32936154Y-92776438D01*
X32936154Y-91799747D01*
X32533987Y-91799747D02*
X31844559Y-91799747D01*
X32189273Y-93006247D02*
X32189273Y-91799747D01*
X31442392Y-92374271D02*
X31040225Y-92374271D01*
X30867868Y-93006247D02*
X31442392Y-93006247D01*
X31442392Y-91799747D01*
X30867868Y-91799747D01*
X29718820Y-93006247D02*
X30408249Y-93006247D01*
X30063535Y-93006247D02*
X30063535Y-91799747D01*
X30178440Y-91972104D01*
X30293344Y-92087009D01*
X30408249Y-92144461D01*
D11*
X17251071Y-107508571D02*
X17108214Y-107556190D01*
X17060595Y-107603809D01*
X17012976Y-107699047D01*
X17012976Y-107841904D01*
X17060595Y-107937142D01*
X17108214Y-107984761D01*
X17203452Y-108032380D01*
X17584404Y-108032380D01*
X17584404Y-107032380D01*
X17251071Y-107032380D01*
X17155833Y-107080000D01*
X17108214Y-107127619D01*
X17060595Y-107222857D01*
X17060595Y-107318095D01*
X17108214Y-107413333D01*
X17155833Y-107460952D01*
X17251071Y-107508571D01*
X17584404Y-107508571D01*
X16584404Y-108032380D02*
X16584404Y-107032380D01*
X16251071Y-107746666D01*
X15917738Y-107032380D01*
X15917738Y-108032380D01*
X15441547Y-107032380D02*
X15441547Y-107841904D01*
X15393928Y-107937142D01*
X15346309Y-107984761D01*
X15251071Y-108032380D01*
X15060595Y-108032380D01*
X14965357Y-107984761D01*
X14917738Y-107937142D01*
X14870119Y-107841904D01*
X14870119Y-107032380D01*
X14536785Y-107032380D02*
X13965357Y-107032380D01*
X14251071Y-108032380D02*
X14251071Y-107032380D01*
X13632023Y-107508571D02*
X13298690Y-107508571D01*
X13155833Y-108032380D02*
X13632023Y-108032380D01*
X13632023Y-107032380D01*
X13155833Y-107032380D01*
X12203452Y-108032380D02*
X12774880Y-108032380D01*
X12489166Y-108032380D02*
X12489166Y-107032380D01*
X12584404Y-107175238D01*
X12679642Y-107270476D01*
X12774880Y-107318095D01*
D10*
X56345583Y-10656047D02*
X56345583Y-11517833D01*
X56403036Y-11690190D01*
X56517940Y-11805095D01*
X56690298Y-11862547D01*
X56805202Y-11862547D01*
X55713607Y-11862547D02*
X55483798Y-11862547D01*
X55368893Y-11805095D01*
X55311440Y-11747642D01*
X55196536Y-11575285D01*
X55139083Y-11345476D01*
X55139083Y-10885857D01*
X55196536Y-10770952D01*
X55253988Y-10713500D01*
X55368893Y-10656047D01*
X55598702Y-10656047D01*
X55713607Y-10713500D01*
X55771060Y-10770952D01*
X55828512Y-10885857D01*
X55828512Y-11173119D01*
X55771060Y-11288023D01*
X55713607Y-11345476D01*
X55598702Y-11402928D01*
X55368893Y-11402928D01*
X55253988Y-11345476D01*
X55196536Y-11288023D01*
X55139083Y-11173119D01*
X54622012Y-11402928D02*
X53702774Y-11402928D01*
X52438821Y-11747642D02*
X52496274Y-11805095D01*
X52668631Y-11862547D01*
X52783536Y-11862547D01*
X52955893Y-11805095D01*
X53070798Y-11690190D01*
X53128250Y-11575285D01*
X53185702Y-11345476D01*
X53185702Y-11173119D01*
X53128250Y-10943309D01*
X53070798Y-10828404D01*
X52955893Y-10713500D01*
X52783536Y-10656047D01*
X52668631Y-10656047D01*
X52496274Y-10713500D01*
X52438821Y-10770952D01*
X51347226Y-11862547D02*
X51921750Y-11862547D01*
X51921750Y-10656047D01*
X50945060Y-11862547D02*
X50945060Y-10656047D01*
X50255631Y-11862547D02*
X50772702Y-11173119D01*
X50255631Y-10656047D02*
X50945060Y-11345476D01*
X50025821Y-11977452D02*
X49106583Y-11977452D01*
X48819321Y-11862547D02*
X48819321Y-10656047D01*
X48244798Y-11862547D02*
X48244798Y-10656047D01*
X47555369Y-11862547D01*
X47555369Y-10656047D01*
X46348869Y-11862547D02*
X47038298Y-11862547D01*
X46693583Y-11862547D02*
X46693583Y-10656047D01*
X46808488Y-10828404D01*
X46923393Y-10943309D01*
X47038298Y-11000761D01*
X35578963Y-53699747D02*
X35578963Y-54561533D01*
X35636416Y-54733890D01*
X35751320Y-54848795D01*
X35923678Y-54906247D01*
X36038582Y-54906247D01*
X35061892Y-54848795D02*
X34889535Y-54906247D01*
X34602273Y-54906247D01*
X34487368Y-54848795D01*
X34429916Y-54791342D01*
X34372463Y-54676438D01*
X34372463Y-54561533D01*
X34429916Y-54446628D01*
X34487368Y-54389176D01*
X34602273Y-54331723D01*
X34832082Y-54274271D01*
X34946987Y-54216819D01*
X35004440Y-54159366D01*
X35061892Y-54044461D01*
X35061892Y-53929557D01*
X35004440Y-53814652D01*
X34946987Y-53757200D01*
X34832082Y-53699747D01*
X34544820Y-53699747D01*
X34372463Y-53757200D01*
X33855392Y-54906247D02*
X33855392Y-53699747D01*
X33165963Y-54906247D02*
X33683035Y-54216819D01*
X33165963Y-53699747D02*
X33855392Y-54389176D01*
X32648892Y-54906247D02*
X32648892Y-53699747D01*
X32074368Y-54906247D02*
X32074368Y-53699747D01*
X31614749Y-53699747D01*
X31499844Y-53757200D01*
X31442392Y-53814652D01*
X31384940Y-53929557D01*
X31384940Y-54101914D01*
X31442392Y-54216819D01*
X31499844Y-54274271D01*
X31614749Y-54331723D01*
X32074368Y-54331723D01*
X30235892Y-54906247D02*
X30925320Y-54906247D01*
X30580606Y-54906247D02*
X30580606Y-53699747D01*
X30695511Y-53872104D01*
X30810416Y-53987009D01*
X30925320Y-54044461D01*
X57735321Y-97346047D02*
X57735321Y-98207833D01*
X57792774Y-98380190D01*
X57907679Y-98495095D01*
X58080036Y-98552547D01*
X58194940Y-98552547D01*
X57218250Y-97460952D02*
X57160798Y-97403500D01*
X57045893Y-97346047D01*
X56758631Y-97346047D01*
X56643726Y-97403500D01*
X56586274Y-97460952D01*
X56528821Y-97575857D01*
X56528821Y-97690761D01*
X56586274Y-97863119D01*
X57275702Y-98552547D01*
X56528821Y-98552547D01*
X56011750Y-98092928D02*
X55092512Y-98092928D01*
X54288179Y-97346047D02*
X54058369Y-97346047D01*
X53943464Y-97403500D01*
X53828560Y-97518404D01*
X53771107Y-97748214D01*
X53771107Y-98150380D01*
X53828560Y-98380190D01*
X53943464Y-98495095D01*
X54058369Y-98552547D01*
X54288179Y-98552547D01*
X54403083Y-98495095D01*
X54517988Y-98380190D01*
X54575440Y-98150380D01*
X54575440Y-97748214D01*
X54517988Y-97518404D01*
X54403083Y-97403500D01*
X54288179Y-97346047D01*
X53254036Y-97346047D02*
X53254036Y-98322738D01*
X53196583Y-98437642D01*
X53139131Y-98495095D01*
X53024226Y-98552547D01*
X52794417Y-98552547D01*
X52679512Y-98495095D01*
X52622060Y-98437642D01*
X52564607Y-98322738D01*
X52564607Y-97346047D01*
X52162440Y-97346047D02*
X51473012Y-97346047D01*
X51817726Y-98552547D02*
X51817726Y-97346047D01*
X51185750Y-97346047D02*
X50381417Y-97346047D01*
X50898488Y-98552547D01*
X57405321Y-72506047D02*
X57405321Y-73367833D01*
X57462774Y-73540190D01*
X57577679Y-73655095D01*
X57750036Y-73712547D01*
X57864940Y-73712547D01*
X56313726Y-72908214D02*
X56313726Y-73712547D01*
X56600988Y-72448595D02*
X56888250Y-73310380D01*
X56141369Y-73310380D01*
X55681750Y-73252928D02*
X54762512Y-73252928D01*
X53958179Y-72506047D02*
X53728369Y-72506047D01*
X53613464Y-72563500D01*
X53498560Y-72678404D01*
X53441107Y-72908214D01*
X53441107Y-73310380D01*
X53498560Y-73540190D01*
X53613464Y-73655095D01*
X53728369Y-73712547D01*
X53958179Y-73712547D01*
X54073083Y-73655095D01*
X54187988Y-73540190D01*
X54245440Y-73310380D01*
X54245440Y-72908214D01*
X54187988Y-72678404D01*
X54073083Y-72563500D01*
X53958179Y-72506047D01*
X52924036Y-72506047D02*
X52924036Y-73482738D01*
X52866583Y-73597642D01*
X52809131Y-73655095D01*
X52694226Y-73712547D01*
X52464417Y-73712547D01*
X52349512Y-73655095D01*
X52292060Y-73597642D01*
X52234607Y-73482738D01*
X52234607Y-72506047D01*
X51832440Y-72506047D02*
X51143012Y-72506047D01*
X51487726Y-73712547D02*
X51487726Y-72506047D01*
X50166321Y-72506047D02*
X50740845Y-72506047D01*
X50798298Y-73080571D01*
X50740845Y-73023119D01*
X50625940Y-72965666D01*
X50338679Y-72965666D01*
X50223774Y-73023119D01*
X50166321Y-73080571D01*
X50108869Y-73195476D01*
X50108869Y-73482738D01*
X50166321Y-73597642D01*
X50223774Y-73655095D01*
X50338679Y-73712547D01*
X50625940Y-73712547D01*
X50740845Y-73655095D01*
X50798298Y-73597642D01*
X35578963Y-40999747D02*
X35578963Y-41861533D01*
X35636416Y-42033890D01*
X35751320Y-42148795D01*
X35923678Y-42206247D01*
X36038582Y-42206247D01*
X35061892Y-42148795D02*
X34889535Y-42206247D01*
X34602273Y-42206247D01*
X34487368Y-42148795D01*
X34429916Y-42091342D01*
X34372463Y-41976438D01*
X34372463Y-41861533D01*
X34429916Y-41746628D01*
X34487368Y-41689176D01*
X34602273Y-41631723D01*
X34832082Y-41574271D01*
X34946987Y-41516819D01*
X35004440Y-41459366D01*
X35061892Y-41344461D01*
X35061892Y-41229557D01*
X35004440Y-41114652D01*
X34946987Y-41057200D01*
X34832082Y-40999747D01*
X34544820Y-40999747D01*
X34372463Y-41057200D01*
X33855392Y-42206247D02*
X33855392Y-40999747D01*
X33855392Y-41574271D02*
X33165963Y-41574271D01*
X33165963Y-42206247D02*
X33165963Y-40999747D01*
X32591440Y-40999747D02*
X32591440Y-41976438D01*
X32533987Y-42091342D01*
X32476535Y-42148795D01*
X32361630Y-42206247D01*
X32131820Y-42206247D01*
X32016916Y-42148795D01*
X31959463Y-42091342D01*
X31902011Y-41976438D01*
X31902011Y-40999747D01*
X30925320Y-41574271D02*
X31327487Y-41574271D01*
X31327487Y-42206247D02*
X31327487Y-40999747D01*
X30752963Y-40999747D01*
X29891178Y-41574271D02*
X30293344Y-41574271D01*
X30293344Y-42206247D02*
X30293344Y-40999747D01*
X29718820Y-40999747D01*
X28684678Y-42206247D02*
X29259201Y-42206247D01*
X29259201Y-40999747D01*
X28282511Y-41574271D02*
X27880344Y-41574271D01*
X27707987Y-42206247D02*
X28282511Y-42206247D01*
X28282511Y-40999747D01*
X27707987Y-40999747D01*
X26558940Y-42206247D02*
X27248368Y-42206247D01*
X26903654Y-42206247D02*
X26903654Y-40999747D01*
X27018559Y-41172104D01*
X27133463Y-41287009D01*
X27248368Y-41344461D01*
X35578963Y-79099747D02*
X35578963Y-79961533D01*
X35636416Y-80133890D01*
X35751320Y-80248795D01*
X35923678Y-80306247D01*
X36038582Y-80306247D01*
X34602273Y-79674271D02*
X35004440Y-79674271D01*
X35004440Y-80306247D02*
X35004440Y-79099747D01*
X34429916Y-79099747D01*
X34027749Y-79961533D02*
X33453225Y-79961533D01*
X34142654Y-80306247D02*
X33740487Y-79099747D01*
X33338320Y-80306247D01*
X32993606Y-80248795D02*
X32821249Y-80306247D01*
X32533987Y-80306247D01*
X32419082Y-80248795D01*
X32361630Y-80191342D01*
X32304178Y-80076438D01*
X32304178Y-79961533D01*
X32361630Y-79846628D01*
X32419082Y-79789176D01*
X32533987Y-79731723D01*
X32763797Y-79674271D01*
X32878701Y-79616819D01*
X32936154Y-79559366D01*
X32993606Y-79444461D01*
X32993606Y-79329557D01*
X32936154Y-79214652D01*
X32878701Y-79157200D01*
X32763797Y-79099747D01*
X32476535Y-79099747D01*
X32304178Y-79157200D01*
X31959463Y-79099747D02*
X31270035Y-79099747D01*
X31614749Y-80306247D02*
X31614749Y-79099747D01*
X30235892Y-80306247D02*
X30925320Y-80306247D01*
X30580606Y-80306247D02*
X30580606Y-79099747D01*
X30695511Y-79272104D01*
X30810416Y-79387009D01*
X30925320Y-79444461D01*
D12*
X41146755Y-46741619D02*
X41630565Y-46741619D01*
X41630565Y-45725619D01*
X40808089Y-46209428D02*
X40469422Y-46209428D01*
X40324279Y-46741619D02*
X40808089Y-46741619D01*
X40808089Y-45725619D01*
X40324279Y-45725619D01*
X39888850Y-46741619D02*
X39888850Y-45725619D01*
X39646946Y-45725619D01*
X39501803Y-45774000D01*
X39405041Y-45870761D01*
X39356660Y-45967523D01*
X39308279Y-46161047D01*
X39308279Y-46306190D01*
X39356660Y-46499714D01*
X39405041Y-46596476D01*
X39501803Y-46693238D01*
X39646946Y-46741619D01*
X39888850Y-46741619D01*
X38437422Y-45725619D02*
X38630946Y-45725619D01*
X38727708Y-45774000D01*
X38776089Y-45822380D01*
X38872850Y-45967523D01*
X38921231Y-46161047D01*
X38921231Y-46548095D01*
X38872850Y-46644857D01*
X38824470Y-46693238D01*
X38727708Y-46741619D01*
X38534184Y-46741619D01*
X38437422Y-46693238D01*
X38389041Y-46644857D01*
X38340660Y-46548095D01*
X38340660Y-46306190D01*
X38389041Y-46209428D01*
X38437422Y-46161047D01*
X38534184Y-46112666D01*
X38727708Y-46112666D01*
X38824470Y-46161047D01*
X38872850Y-46209428D01*
X38921231Y-46306190D01*
D13*
X38461467Y-41336690D02*
X38151943Y-41120023D01*
X38461467Y-40965261D02*
X37811467Y-40965261D01*
X37811467Y-41212880D01*
X37842420Y-41274785D01*
X37873372Y-41305738D01*
X37935277Y-41336690D01*
X38028134Y-41336690D01*
X38090039Y-41305738D01*
X38120991Y-41274785D01*
X38151943Y-41212880D01*
X38151943Y-40965261D01*
X42420991Y-44331928D02*
X42451943Y-44424785D01*
X42482896Y-44455738D01*
X42544800Y-44486690D01*
X42637658Y-44486690D01*
X42699562Y-44455738D01*
X42730515Y-44424785D01*
X42761467Y-44362880D01*
X42761467Y-44115261D01*
X42111467Y-44115261D01*
X42111467Y-44331928D01*
X42142420Y-44393833D01*
X42173372Y-44424785D01*
X42235277Y-44455738D01*
X42297181Y-44455738D01*
X42359086Y-44424785D01*
X42390039Y-44393833D01*
X42420991Y-44331928D01*
X42420991Y-44115261D01*
X42092420Y-41355738D02*
X42061467Y-41293833D01*
X42061467Y-41200976D01*
X42092420Y-41108119D01*
X42154324Y-41046214D01*
X42216229Y-41015261D01*
X42340039Y-40984309D01*
X42432896Y-40984309D01*
X42556705Y-41015261D01*
X42618610Y-41046214D01*
X42680515Y-41108119D01*
X42711467Y-41200976D01*
X42711467Y-41262880D01*
X42680515Y-41355738D01*
X42649562Y-41386690D01*
X42432896Y-41386690D01*
X42432896Y-41262880D01*
X38088848Y-43887880D02*
X38088848Y-44383119D01*
X38336467Y-44135500D02*
X37841229Y-44135500D01*
D11*
X7825957Y-54749780D02*
X7825957Y-53749780D01*
X7445004Y-53749780D01*
X7349766Y-53797400D01*
X7302147Y-53845019D01*
X7254528Y-53940257D01*
X7254528Y-54083114D01*
X7302147Y-54178352D01*
X7349766Y-54225971D01*
X7445004Y-54273590D01*
X7825957Y-54273590D01*
X6873576Y-54702161D02*
X6730719Y-54749780D01*
X6492623Y-54749780D01*
X6397385Y-54702161D01*
X6349766Y-54654542D01*
X6302147Y-54559304D01*
X6302147Y-54464066D01*
X6349766Y-54368828D01*
X6397385Y-54321209D01*
X6492623Y-54273590D01*
X6683100Y-54225971D01*
X6778338Y-54178352D01*
X6825957Y-54130733D01*
X6873576Y-54035495D01*
X6873576Y-53940257D01*
X6825957Y-53845019D01*
X6778338Y-53797400D01*
X6683100Y-53749780D01*
X6445004Y-53749780D01*
X6302147Y-53797400D01*
X5873576Y-54749780D02*
X5873576Y-53749780D01*
X5302147Y-54749780D02*
X5730719Y-54178352D01*
X5302147Y-53749780D02*
X5873576Y-54321209D01*
X4873576Y-54749780D02*
X4873576Y-53749780D01*
X4397385Y-54749780D02*
X4397385Y-53749780D01*
X4016433Y-53749780D01*
X3921195Y-53797400D01*
X3873576Y-53845019D01*
X3825957Y-53940257D01*
X3825957Y-54083114D01*
X3873576Y-54178352D01*
X3921195Y-54225971D01*
X4016433Y-54273590D01*
X4397385Y-54273590D01*
X2873576Y-54749780D02*
X3445004Y-54749780D01*
X3159290Y-54749780D02*
X3159290Y-53749780D01*
X3254528Y-53892638D01*
X3349766Y-53987876D01*
X3445004Y-54035495D01*
X10250180Y-57891080D02*
X10250180Y-56891080D01*
X10012085Y-56891080D01*
X9869228Y-56938700D01*
X9773990Y-57033938D01*
X9726371Y-57129176D01*
X9678752Y-57319652D01*
X9678752Y-57462509D01*
X9726371Y-57652985D01*
X9773990Y-57748223D01*
X9869228Y-57843461D01*
X10012085Y-57891080D01*
X10250180Y-57891080D01*
X9250180Y-57367271D02*
X8916847Y-57367271D01*
X8773990Y-57891080D02*
X9250180Y-57891080D01*
X9250180Y-56891080D01*
X8773990Y-56891080D01*
X8488276Y-56891080D02*
X7916847Y-56891080D01*
X8202561Y-57891080D02*
X8202561Y-56891080D01*
X7583514Y-57367271D02*
X7250180Y-57367271D01*
X7107323Y-57891080D02*
X7583514Y-57891080D01*
X7583514Y-56891080D01*
X7107323Y-56891080D01*
X6678752Y-57891080D02*
X6678752Y-56891080D01*
X6107323Y-57891080D01*
X6107323Y-56891080D01*
X5773990Y-56891080D02*
X5202561Y-56891080D01*
X5488276Y-57891080D02*
X5488276Y-56891080D01*
X10047800Y-62314080D02*
X10047800Y-61314080D01*
X9833514Y-61314080D01*
X9704942Y-61361700D01*
X9619228Y-61456938D01*
X9576371Y-61552176D01*
X9533514Y-61742652D01*
X9533514Y-61885509D01*
X9576371Y-62075985D01*
X9619228Y-62171223D01*
X9704942Y-62266461D01*
X9833514Y-62314080D01*
X10047800Y-62314080D01*
X9190657Y-62266461D02*
X9062085Y-62314080D01*
X8847800Y-62314080D01*
X8762085Y-62266461D01*
X8719228Y-62218842D01*
X8676371Y-62123604D01*
X8676371Y-62028366D01*
X8719228Y-61933128D01*
X8762085Y-61885509D01*
X8847800Y-61837890D01*
X9019228Y-61790271D01*
X9104942Y-61742652D01*
X9147800Y-61695033D01*
X9190657Y-61599795D01*
X9190657Y-61504557D01*
X9147800Y-61409319D01*
X9104942Y-61361700D01*
X9019228Y-61314080D01*
X8804942Y-61314080D01*
X8676371Y-61361700D01*
X8290657Y-62314080D02*
X8290657Y-61314080D01*
X8290657Y-61790271D02*
X7776371Y-61790271D01*
X7776371Y-62314080D02*
X7776371Y-61314080D01*
X7390657Y-62028366D02*
X6962085Y-62028366D01*
X7476371Y-62314080D02*
X7176371Y-61314080D01*
X6876371Y-62314080D01*
X6276371Y-61790271D02*
X6576371Y-61790271D01*
X6576371Y-62314080D02*
X6576371Y-61314080D01*
X6147800Y-61314080D01*
X5933514Y-61314080D02*
X5419228Y-61314080D01*
X5676371Y-62314080D02*
X5676371Y-61314080D01*
D12*
X41046755Y-9751619D02*
X41530565Y-9751619D01*
X41530565Y-8735619D01*
X40708089Y-9219428D02*
X40369422Y-9219428D01*
X40224279Y-9751619D02*
X40708089Y-9751619D01*
X40708089Y-8735619D01*
X40224279Y-8735619D01*
X39788850Y-9751619D02*
X39788850Y-8735619D01*
X39546946Y-8735619D01*
X39401803Y-8784000D01*
X39305041Y-8880761D01*
X39256660Y-8977523D01*
X39208279Y-9171047D01*
X39208279Y-9316190D01*
X39256660Y-9509714D01*
X39305041Y-9606476D01*
X39401803Y-9703238D01*
X39546946Y-9751619D01*
X39788850Y-9751619D01*
X38724470Y-9751619D02*
X38530946Y-9751619D01*
X38434184Y-9703238D01*
X38385803Y-9654857D01*
X38289041Y-9509714D01*
X38240660Y-9316190D01*
X38240660Y-8929142D01*
X38289041Y-8832380D01*
X38337422Y-8784000D01*
X38434184Y-8735619D01*
X38627708Y-8735619D01*
X38724470Y-8784000D01*
X38772850Y-8832380D01*
X38821231Y-8929142D01*
X38821231Y-9171047D01*
X38772850Y-9267809D01*
X38724470Y-9316190D01*
X38627708Y-9364571D01*
X38434184Y-9364571D01*
X38337422Y-9316190D01*
X38289041Y-9267809D01*
X38240660Y-9171047D01*
D13*
X42420991Y-7184428D02*
X42451943Y-7277285D01*
X42482896Y-7308238D01*
X42544800Y-7339190D01*
X42637658Y-7339190D01*
X42699562Y-7308238D01*
X42730515Y-7277285D01*
X42761467Y-7215380D01*
X42761467Y-6967761D01*
X42111467Y-6967761D01*
X42111467Y-7184428D01*
X42142420Y-7246333D01*
X42173372Y-7277285D01*
X42235277Y-7308238D01*
X42297181Y-7308238D01*
X42359086Y-7277285D01*
X42390039Y-7246333D01*
X42420991Y-7184428D01*
X42420991Y-6967761D01*
X42092420Y-4208238D02*
X42061467Y-4146333D01*
X42061467Y-4053476D01*
X42092420Y-3960619D01*
X42154324Y-3898714D01*
X42216229Y-3867761D01*
X42340039Y-3836809D01*
X42432896Y-3836809D01*
X42556705Y-3867761D01*
X42618610Y-3898714D01*
X42680515Y-3960619D01*
X42711467Y-4053476D01*
X42711467Y-4115380D01*
X42680515Y-4208238D01*
X42649562Y-4239190D01*
X42432896Y-4239190D01*
X42432896Y-4115380D01*
X38461467Y-4189190D02*
X38151943Y-3972523D01*
X38461467Y-3817761D02*
X37811467Y-3817761D01*
X37811467Y-4065380D01*
X37842420Y-4127285D01*
X37873372Y-4158238D01*
X37935277Y-4189190D01*
X38028134Y-4189190D01*
X38090039Y-4158238D01*
X38120991Y-4127285D01*
X38151943Y-4065380D01*
X38151943Y-3817761D01*
X38088848Y-6740380D02*
X38088848Y-7235619D01*
X38336467Y-6988000D02*
X37841229Y-6988000D01*
D11*
X10220719Y-1971780D02*
X10220719Y-971780D01*
X9839766Y-971780D01*
X9744528Y-1019400D01*
X9696909Y-1067019D01*
X9649290Y-1162257D01*
X9649290Y-1305114D01*
X9696909Y-1400352D01*
X9744528Y-1447971D01*
X9839766Y-1495590D01*
X10220719Y-1495590D01*
X8649290Y-1971780D02*
X8982623Y-1495590D01*
X9220719Y-1971780D02*
X9220719Y-971780D01*
X8839766Y-971780D01*
X8744528Y-1019400D01*
X8696909Y-1067019D01*
X8649290Y-1162257D01*
X8649290Y-1305114D01*
X8696909Y-1400352D01*
X8744528Y-1447971D01*
X8839766Y-1495590D01*
X9220719Y-1495590D01*
X8030242Y-971780D02*
X7839766Y-971780D01*
X7744528Y-1019400D01*
X7649290Y-1114638D01*
X7601671Y-1305114D01*
X7601671Y-1638447D01*
X7649290Y-1828923D01*
X7744528Y-1924161D01*
X7839766Y-1971780D01*
X8030242Y-1971780D01*
X8125480Y-1924161D01*
X8220719Y-1828923D01*
X8268338Y-1638447D01*
X8268338Y-1305114D01*
X8220719Y-1114638D01*
X8125480Y-1019400D01*
X8030242Y-971780D01*
X7315957Y-971780D02*
X6744528Y-971780D01*
X7030242Y-1971780D02*
X7030242Y-971780D01*
X6458814Y-1686066D02*
X5982623Y-1686066D01*
X6554052Y-1971780D02*
X6220719Y-971780D01*
X5887385Y-1971780D01*
X5696909Y-971780D02*
X5125480Y-971780D01*
X5411195Y-1971780D02*
X5411195Y-971780D01*
X4792147Y-1447971D02*
X4458814Y-1447971D01*
X4315957Y-1971780D02*
X4792147Y-1971780D01*
X4792147Y-971780D01*
X4315957Y-971780D01*
X3363576Y-1971780D02*
X3935004Y-1971780D01*
X3649290Y-1971780D02*
X3649290Y-971780D01*
X3744528Y-1114638D01*
X3839766Y-1209876D01*
X3935004Y-1257495D01*
X10267980Y-5291780D02*
X10267980Y-4291780D01*
X10029885Y-4291780D01*
X9887028Y-4339400D01*
X9791790Y-4434638D01*
X9744171Y-4529876D01*
X9696552Y-4720352D01*
X9696552Y-4863209D01*
X9744171Y-5053685D01*
X9791790Y-5148923D01*
X9887028Y-5244161D01*
X10029885Y-5291780D01*
X10267980Y-5291780D01*
X9267980Y-4767971D02*
X8934647Y-4767971D01*
X8791790Y-5291780D02*
X9267980Y-5291780D01*
X9267980Y-4291780D01*
X8791790Y-4291780D01*
X8506076Y-4291780D02*
X7934647Y-4291780D01*
X8220361Y-5291780D02*
X8220361Y-4291780D01*
X7601314Y-4767971D02*
X7267980Y-4767971D01*
X7125123Y-5291780D02*
X7601314Y-5291780D01*
X7601314Y-4291780D01*
X7125123Y-4291780D01*
X6696552Y-5291780D02*
X6696552Y-4291780D01*
X6125123Y-5291780D01*
X6125123Y-4291780D01*
X5791790Y-4291780D02*
X5220361Y-4291780D01*
X5506076Y-5291780D02*
X5506076Y-4291780D01*
X10047800Y-9355080D02*
X10047800Y-8355080D01*
X9833514Y-8355080D01*
X9704942Y-8402700D01*
X9619228Y-8497938D01*
X9576371Y-8593176D01*
X9533514Y-8783652D01*
X9533514Y-8926509D01*
X9576371Y-9116985D01*
X9619228Y-9212223D01*
X9704942Y-9307461D01*
X9833514Y-9355080D01*
X10047800Y-9355080D01*
X9190657Y-9307461D02*
X9062085Y-9355080D01*
X8847800Y-9355080D01*
X8762085Y-9307461D01*
X8719228Y-9259842D01*
X8676371Y-9164604D01*
X8676371Y-9069366D01*
X8719228Y-8974128D01*
X8762085Y-8926509D01*
X8847800Y-8878890D01*
X9019228Y-8831271D01*
X9104942Y-8783652D01*
X9147800Y-8736033D01*
X9190657Y-8640795D01*
X9190657Y-8545557D01*
X9147800Y-8450319D01*
X9104942Y-8402700D01*
X9019228Y-8355080D01*
X8804942Y-8355080D01*
X8676371Y-8402700D01*
X8290657Y-9355080D02*
X8290657Y-8355080D01*
X8290657Y-8831271D02*
X7776371Y-8831271D01*
X7776371Y-9355080D02*
X7776371Y-8355080D01*
X7390657Y-9069366D02*
X6962085Y-9069366D01*
X7476371Y-9355080D02*
X7176371Y-8355080D01*
X6876371Y-9355080D01*
X6276371Y-8831271D02*
X6576371Y-8831271D01*
X6576371Y-9355080D02*
X6576371Y-8355080D01*
X6147800Y-8355080D01*
X5933514Y-8355080D02*
X5419228Y-8355080D01*
X5676371Y-9355080D02*
X5676371Y-8355080D01*
D12*
X41186755Y-34391619D02*
X41670565Y-34391619D01*
X41670565Y-33375619D01*
X40848089Y-33859428D02*
X40509422Y-33859428D01*
X40364279Y-34391619D02*
X40848089Y-34391619D01*
X40848089Y-33375619D01*
X40364279Y-33375619D01*
X39928850Y-34391619D02*
X39928850Y-33375619D01*
X39686946Y-33375619D01*
X39541803Y-33424000D01*
X39445041Y-33520761D01*
X39396660Y-33617523D01*
X39348279Y-33811047D01*
X39348279Y-33956190D01*
X39396660Y-34149714D01*
X39445041Y-34246476D01*
X39541803Y-34343238D01*
X39686946Y-34391619D01*
X39928850Y-34391619D01*
X39009612Y-33375619D02*
X38332279Y-33375619D01*
X38767708Y-34391619D01*
D13*
X42420991Y-31949428D02*
X42451943Y-32042285D01*
X42482896Y-32073238D01*
X42544800Y-32104190D01*
X42637658Y-32104190D01*
X42699562Y-32073238D01*
X42730515Y-32042285D01*
X42761467Y-31980380D01*
X42761467Y-31732761D01*
X42111467Y-31732761D01*
X42111467Y-31949428D01*
X42142420Y-32011333D01*
X42173372Y-32042285D01*
X42235277Y-32073238D01*
X42297181Y-32073238D01*
X42359086Y-32042285D01*
X42390039Y-32011333D01*
X42420991Y-31949428D01*
X42420991Y-31732761D01*
X42092420Y-28973238D02*
X42061467Y-28911333D01*
X42061467Y-28818476D01*
X42092420Y-28725619D01*
X42154324Y-28663714D01*
X42216229Y-28632761D01*
X42340039Y-28601809D01*
X42432896Y-28601809D01*
X42556705Y-28632761D01*
X42618610Y-28663714D01*
X42680515Y-28725619D01*
X42711467Y-28818476D01*
X42711467Y-28880380D01*
X42680515Y-28973238D01*
X42649562Y-29004190D01*
X42432896Y-29004190D01*
X42432896Y-28880380D01*
X38461467Y-28954190D02*
X38151943Y-28737523D01*
X38461467Y-28582761D02*
X37811467Y-28582761D01*
X37811467Y-28830380D01*
X37842420Y-28892285D01*
X37873372Y-28923238D01*
X37935277Y-28954190D01*
X38028134Y-28954190D01*
X38090039Y-28923238D01*
X38120991Y-28892285D01*
X38151943Y-28830380D01*
X38151943Y-28582761D01*
X38088848Y-31505380D02*
X38088848Y-32000619D01*
X38336467Y-31753000D02*
X37841229Y-31753000D01*
D12*
X41046755Y-71641619D02*
X41530565Y-71641619D01*
X41530565Y-70625619D01*
X40708089Y-71109428D02*
X40369422Y-71109428D01*
X40224279Y-71641619D02*
X40708089Y-71641619D01*
X40708089Y-70625619D01*
X40224279Y-70625619D01*
X39788850Y-71641619D02*
X39788850Y-70625619D01*
X39546946Y-70625619D01*
X39401803Y-70674000D01*
X39305041Y-70770761D01*
X39256660Y-70867523D01*
X39208279Y-71061047D01*
X39208279Y-71206190D01*
X39256660Y-71399714D01*
X39305041Y-71496476D01*
X39401803Y-71593238D01*
X39546946Y-71641619D01*
X39788850Y-71641619D01*
X38337422Y-70964285D02*
X38337422Y-71641619D01*
X38579327Y-70577238D02*
X38821231Y-71302952D01*
X38192279Y-71302952D01*
D13*
X38088848Y-68652880D02*
X38088848Y-69148119D01*
X38336467Y-68900500D02*
X37841229Y-68900500D01*
X42420991Y-69096928D02*
X42451943Y-69189785D01*
X42482896Y-69220738D01*
X42544800Y-69251690D01*
X42637658Y-69251690D01*
X42699562Y-69220738D01*
X42730515Y-69189785D01*
X42761467Y-69127880D01*
X42761467Y-68880261D01*
X42111467Y-68880261D01*
X42111467Y-69096928D01*
X42142420Y-69158833D01*
X42173372Y-69189785D01*
X42235277Y-69220738D01*
X42297181Y-69220738D01*
X42359086Y-69189785D01*
X42390039Y-69158833D01*
X42420991Y-69096928D01*
X42420991Y-68880261D01*
X42092420Y-66120738D02*
X42061467Y-66058833D01*
X42061467Y-65965976D01*
X42092420Y-65873119D01*
X42154324Y-65811214D01*
X42216229Y-65780261D01*
X42340039Y-65749309D01*
X42432896Y-65749309D01*
X42556705Y-65780261D01*
X42618610Y-65811214D01*
X42680515Y-65873119D01*
X42711467Y-65965976D01*
X42711467Y-66027880D01*
X42680515Y-66120738D01*
X42649562Y-66151690D01*
X42432896Y-66151690D01*
X42432896Y-66027880D01*
X38461467Y-66101690D02*
X38151943Y-65885023D01*
X38461467Y-65730261D02*
X37811467Y-65730261D01*
X37811467Y-65977880D01*
X37842420Y-66039785D01*
X37873372Y-66070738D01*
X37935277Y-66101690D01*
X38028134Y-66101690D01*
X38090039Y-66070738D01*
X38120991Y-66039785D01*
X38151943Y-65977880D01*
X38151943Y-65730261D01*
D10*
X57795321Y-85146047D02*
X57795321Y-86007833D01*
X57852774Y-86180190D01*
X57967679Y-86295095D01*
X58140036Y-86352547D01*
X58254940Y-86352547D01*
X57335702Y-85146047D02*
X56588821Y-85146047D01*
X56990988Y-85605666D01*
X56818631Y-85605666D01*
X56703726Y-85663119D01*
X56646274Y-85720571D01*
X56588821Y-85835476D01*
X56588821Y-86122738D01*
X56646274Y-86237642D01*
X56703726Y-86295095D01*
X56818631Y-86352547D01*
X57163345Y-86352547D01*
X57278250Y-86295095D01*
X57335702Y-86237642D01*
X56071750Y-85892928D02*
X55152512Y-85892928D01*
X54348179Y-85146047D02*
X54118369Y-85146047D01*
X54003464Y-85203500D01*
X53888560Y-85318404D01*
X53831107Y-85548214D01*
X53831107Y-85950380D01*
X53888560Y-86180190D01*
X54003464Y-86295095D01*
X54118369Y-86352547D01*
X54348179Y-86352547D01*
X54463083Y-86295095D01*
X54577988Y-86180190D01*
X54635440Y-85950380D01*
X54635440Y-85548214D01*
X54577988Y-85318404D01*
X54463083Y-85203500D01*
X54348179Y-85146047D01*
X53314036Y-85146047D02*
X53314036Y-86122738D01*
X53256583Y-86237642D01*
X53199131Y-86295095D01*
X53084226Y-86352547D01*
X52854417Y-86352547D01*
X52739512Y-86295095D01*
X52682060Y-86237642D01*
X52624607Y-86122738D01*
X52624607Y-85146047D01*
X52222440Y-85146047D02*
X51533012Y-85146047D01*
X51877726Y-86352547D02*
X51877726Y-85146047D01*
X50613774Y-85146047D02*
X50843583Y-85146047D01*
X50958488Y-85203500D01*
X51015940Y-85260952D01*
X51130845Y-85433309D01*
X51188298Y-85663119D01*
X51188298Y-86122738D01*
X51130845Y-86237642D01*
X51073393Y-86295095D01*
X50958488Y-86352547D01*
X50728679Y-86352547D01*
X50613774Y-86295095D01*
X50556321Y-86237642D01*
X50498869Y-86122738D01*
X50498869Y-85835476D01*
X50556321Y-85720571D01*
X50613774Y-85663119D01*
X50728679Y-85605666D01*
X50958488Y-85605666D01*
X51073393Y-85663119D01*
X51130845Y-85720571D01*
X51188298Y-85835476D01*
D12*
X40826755Y-22001619D02*
X41310565Y-22001619D01*
X41310565Y-20985619D01*
X40488089Y-21469428D02*
X40149422Y-21469428D01*
X40004279Y-22001619D02*
X40488089Y-22001619D01*
X40488089Y-20985619D01*
X40004279Y-20985619D01*
X39568850Y-22001619D02*
X39568850Y-20985619D01*
X39326946Y-20985619D01*
X39181803Y-21034000D01*
X39085041Y-21130761D01*
X39036660Y-21227523D01*
X38988279Y-21421047D01*
X38988279Y-21566190D01*
X39036660Y-21759714D01*
X39085041Y-21856476D01*
X39181803Y-21953238D01*
X39326946Y-22001619D01*
X39568850Y-22001619D01*
X38407708Y-21421047D02*
X38504470Y-21372666D01*
X38552850Y-21324285D01*
X38601231Y-21227523D01*
X38601231Y-21179142D01*
X38552850Y-21082380D01*
X38504470Y-21034000D01*
X38407708Y-20985619D01*
X38214184Y-20985619D01*
X38117422Y-21034000D01*
X38069041Y-21082380D01*
X38020660Y-21179142D01*
X38020660Y-21227523D01*
X38069041Y-21324285D01*
X38117422Y-21372666D01*
X38214184Y-21421047D01*
X38407708Y-21421047D01*
X38504470Y-21469428D01*
X38552850Y-21517809D01*
X38601231Y-21614571D01*
X38601231Y-21808095D01*
X38552850Y-21904857D01*
X38504470Y-21953238D01*
X38407708Y-22001619D01*
X38214184Y-22001619D01*
X38117422Y-21953238D01*
X38069041Y-21904857D01*
X38020660Y-21808095D01*
X38020660Y-21614571D01*
X38069041Y-21517809D01*
X38117422Y-21469428D01*
X38214184Y-21421047D01*
D13*
X42420991Y-19566928D02*
X42451943Y-19659785D01*
X42482896Y-19690738D01*
X42544800Y-19721690D01*
X42637658Y-19721690D01*
X42699562Y-19690738D01*
X42730515Y-19659785D01*
X42761467Y-19597880D01*
X42761467Y-19350261D01*
X42111467Y-19350261D01*
X42111467Y-19566928D01*
X42142420Y-19628833D01*
X42173372Y-19659785D01*
X42235277Y-19690738D01*
X42297181Y-19690738D01*
X42359086Y-19659785D01*
X42390039Y-19628833D01*
X42420991Y-19566928D01*
X42420991Y-19350261D01*
X42092420Y-16590738D02*
X42061467Y-16528833D01*
X42061467Y-16435976D01*
X42092420Y-16343119D01*
X42154324Y-16281214D01*
X42216229Y-16250261D01*
X42340039Y-16219309D01*
X42432896Y-16219309D01*
X42556705Y-16250261D01*
X42618610Y-16281214D01*
X42680515Y-16343119D01*
X42711467Y-16435976D01*
X42711467Y-16497880D01*
X42680515Y-16590738D01*
X42649562Y-16621690D01*
X42432896Y-16621690D01*
X42432896Y-16497880D01*
X38088848Y-19122880D02*
X38088848Y-19618119D01*
X38336467Y-19370500D02*
X37841229Y-19370500D01*
X38461467Y-16571690D02*
X38151943Y-16355023D01*
X38461467Y-16200261D02*
X37811467Y-16200261D01*
X37811467Y-16447880D01*
X37842420Y-16509785D01*
X37873372Y-16540738D01*
X37935277Y-16571690D01*
X38028134Y-16571690D01*
X38090039Y-16540738D01*
X38120991Y-16509785D01*
X38151943Y-16447880D01*
X38151943Y-16200261D01*
D12*
X40996755Y-59111619D02*
X41480565Y-59111619D01*
X41480565Y-58095619D01*
X40658089Y-58579428D02*
X40319422Y-58579428D01*
X40174279Y-59111619D02*
X40658089Y-59111619D01*
X40658089Y-58095619D01*
X40174279Y-58095619D01*
X39738850Y-59111619D02*
X39738850Y-58095619D01*
X39496946Y-58095619D01*
X39351803Y-58144000D01*
X39255041Y-58240761D01*
X39206660Y-58337523D01*
X39158279Y-58531047D01*
X39158279Y-58676190D01*
X39206660Y-58869714D01*
X39255041Y-58966476D01*
X39351803Y-59063238D01*
X39496946Y-59111619D01*
X39738850Y-59111619D01*
X38239041Y-58095619D02*
X38722850Y-58095619D01*
X38771231Y-58579428D01*
X38722850Y-58531047D01*
X38626089Y-58482666D01*
X38384184Y-58482666D01*
X38287422Y-58531047D01*
X38239041Y-58579428D01*
X38190660Y-58676190D01*
X38190660Y-58918095D01*
X38239041Y-59014857D01*
X38287422Y-59063238D01*
X38384184Y-59111619D01*
X38626089Y-59111619D01*
X38722850Y-59063238D01*
X38771231Y-59014857D01*
D13*
X38088848Y-56270380D02*
X38088848Y-56765619D01*
X38336467Y-56518000D02*
X37841229Y-56518000D01*
X42420991Y-56714428D02*
X42451943Y-56807285D01*
X42482896Y-56838238D01*
X42544800Y-56869190D01*
X42637658Y-56869190D01*
X42699562Y-56838238D01*
X42730515Y-56807285D01*
X42761467Y-56745380D01*
X42761467Y-56497761D01*
X42111467Y-56497761D01*
X42111467Y-56714428D01*
X42142420Y-56776333D01*
X42173372Y-56807285D01*
X42235277Y-56838238D01*
X42297181Y-56838238D01*
X42359086Y-56807285D01*
X42390039Y-56776333D01*
X42420991Y-56714428D01*
X42420991Y-56497761D01*
X38461467Y-53719190D02*
X38151943Y-53502523D01*
X38461467Y-53347761D02*
X37811467Y-53347761D01*
X37811467Y-53595380D01*
X37842420Y-53657285D01*
X37873372Y-53688238D01*
X37935277Y-53719190D01*
X38028134Y-53719190D01*
X38090039Y-53688238D01*
X38120991Y-53657285D01*
X38151943Y-53595380D01*
X38151943Y-53347761D01*
X42092420Y-53738238D02*
X42061467Y-53676333D01*
X42061467Y-53583476D01*
X42092420Y-53490619D01*
X42154324Y-53428714D01*
X42216229Y-53397761D01*
X42340039Y-53366809D01*
X42432896Y-53366809D01*
X42556705Y-53397761D01*
X42618610Y-53428714D01*
X42680515Y-53490619D01*
X42711467Y-53583476D01*
X42711467Y-53645380D01*
X42680515Y-53738238D01*
X42649562Y-53769190D01*
X42432896Y-53769190D01*
X42432896Y-53645380D01*
D12*
X41126755Y-83721619D02*
X41610565Y-83721619D01*
X41610565Y-82705619D01*
X40788089Y-83189428D02*
X40449422Y-83189428D01*
X40304279Y-83721619D02*
X40788089Y-83721619D01*
X40788089Y-82705619D01*
X40304279Y-82705619D01*
X39868850Y-83721619D02*
X39868850Y-82705619D01*
X39626946Y-82705619D01*
X39481803Y-82754000D01*
X39385041Y-82850761D01*
X39336660Y-82947523D01*
X39288279Y-83141047D01*
X39288279Y-83286190D01*
X39336660Y-83479714D01*
X39385041Y-83576476D01*
X39481803Y-83673238D01*
X39626946Y-83721619D01*
X39868850Y-83721619D01*
X38949612Y-82705619D02*
X38320660Y-82705619D01*
X38659327Y-83092666D01*
X38514184Y-83092666D01*
X38417422Y-83141047D01*
X38369041Y-83189428D01*
X38320660Y-83286190D01*
X38320660Y-83528095D01*
X38369041Y-83624857D01*
X38417422Y-83673238D01*
X38514184Y-83721619D01*
X38804470Y-83721619D01*
X38901231Y-83673238D01*
X38949612Y-83624857D01*
D13*
X42420991Y-81479428D02*
X42451943Y-81572285D01*
X42482896Y-81603238D01*
X42544800Y-81634190D01*
X42637658Y-81634190D01*
X42699562Y-81603238D01*
X42730515Y-81572285D01*
X42761467Y-81510380D01*
X42761467Y-81262761D01*
X42111467Y-81262761D01*
X42111467Y-81479428D01*
X42142420Y-81541333D01*
X42173372Y-81572285D01*
X42235277Y-81603238D01*
X42297181Y-81603238D01*
X42359086Y-81572285D01*
X42390039Y-81541333D01*
X42420991Y-81479428D01*
X42420991Y-81262761D01*
X42092420Y-78503238D02*
X42061467Y-78441333D01*
X42061467Y-78348476D01*
X42092420Y-78255619D01*
X42154324Y-78193714D01*
X42216229Y-78162761D01*
X42340039Y-78131809D01*
X42432896Y-78131809D01*
X42556705Y-78162761D01*
X42618610Y-78193714D01*
X42680515Y-78255619D01*
X42711467Y-78348476D01*
X42711467Y-78410380D01*
X42680515Y-78503238D01*
X42649562Y-78534190D01*
X42432896Y-78534190D01*
X42432896Y-78410380D01*
X38461467Y-78484190D02*
X38151943Y-78267523D01*
X38461467Y-78112761D02*
X37811467Y-78112761D01*
X37811467Y-78360380D01*
X37842420Y-78422285D01*
X37873372Y-78453238D01*
X37935277Y-78484190D01*
X38028134Y-78484190D01*
X38090039Y-78453238D01*
X38120991Y-78422285D01*
X38151943Y-78360380D01*
X38151943Y-78112761D01*
X38088848Y-81035380D02*
X38088848Y-81530619D01*
X38336467Y-81283000D02*
X37841229Y-81283000D01*
D10*
X56565321Y-60306047D02*
X56565321Y-61167833D01*
X56622774Y-61340190D01*
X56737679Y-61455095D01*
X56910036Y-61512547D01*
X57024940Y-61512547D01*
X55416274Y-60306047D02*
X55990798Y-60306047D01*
X56048250Y-60880571D01*
X55990798Y-60823119D01*
X55875893Y-60765666D01*
X55588631Y-60765666D01*
X55473726Y-60823119D01*
X55416274Y-60880571D01*
X55358821Y-60995476D01*
X55358821Y-61282738D01*
X55416274Y-61397642D01*
X55473726Y-61455095D01*
X55588631Y-61512547D01*
X55875893Y-61512547D01*
X55990798Y-61455095D01*
X56048250Y-61397642D01*
X54841750Y-61052928D02*
X53922512Y-61052928D01*
X53118179Y-60306047D02*
X52888369Y-60306047D01*
X52773464Y-60363500D01*
X52658560Y-60478404D01*
X52601107Y-60708214D01*
X52601107Y-61110380D01*
X52658560Y-61340190D01*
X52773464Y-61455095D01*
X52888369Y-61512547D01*
X53118179Y-61512547D01*
X53233083Y-61455095D01*
X53347988Y-61340190D01*
X53405440Y-61110380D01*
X53405440Y-60708214D01*
X53347988Y-60478404D01*
X53233083Y-60363500D01*
X53118179Y-60306047D01*
X52084036Y-60306047D02*
X52084036Y-61282738D01*
X52026583Y-61397642D01*
X51969131Y-61455095D01*
X51854226Y-61512547D01*
X51624417Y-61512547D01*
X51509512Y-61455095D01*
X51452060Y-61397642D01*
X51394607Y-61282738D01*
X51394607Y-60306047D01*
X50992440Y-60306047D02*
X50303012Y-60306047D01*
X50647726Y-61512547D02*
X50647726Y-60306047D01*
X49383774Y-60708214D02*
X49383774Y-61512547D01*
X49671036Y-60248595D02*
X49958298Y-61110380D01*
X49211417Y-61110380D01*
X35578963Y-15599747D02*
X35578963Y-16461533D01*
X35636416Y-16633890D01*
X35751320Y-16748795D01*
X35923678Y-16806247D01*
X36038582Y-16806247D01*
X34315011Y-16806247D02*
X34717178Y-16231723D01*
X35004440Y-16806247D02*
X35004440Y-15599747D01*
X34544820Y-15599747D01*
X34429916Y-15657200D01*
X34372463Y-15714652D01*
X34315011Y-15829557D01*
X34315011Y-16001914D01*
X34372463Y-16116819D01*
X34429916Y-16174271D01*
X34544820Y-16231723D01*
X35004440Y-16231723D01*
X33568130Y-15599747D02*
X33338320Y-15599747D01*
X33223416Y-15657200D01*
X33108511Y-15772104D01*
X33051059Y-16001914D01*
X33051059Y-16404080D01*
X33108511Y-16633890D01*
X33223416Y-16748795D01*
X33338320Y-16806247D01*
X33568130Y-16806247D01*
X33683035Y-16748795D01*
X33797940Y-16633890D01*
X33855392Y-16404080D01*
X33855392Y-16001914D01*
X33797940Y-15772104D01*
X33683035Y-15657200D01*
X33568130Y-15599747D01*
X32706344Y-15599747D02*
X32016916Y-15599747D01*
X32361630Y-16806247D02*
X32361630Y-15599747D01*
X31672201Y-16461533D02*
X31097678Y-16461533D01*
X31787106Y-16806247D02*
X31384940Y-15599747D01*
X30982773Y-16806247D01*
X30752963Y-15599747D02*
X30063535Y-15599747D01*
X30408249Y-16806247D02*
X30408249Y-15599747D01*
X29661368Y-16174271D02*
X29259201Y-16174271D01*
X29086844Y-16806247D02*
X29661368Y-16806247D01*
X29661368Y-15599747D01*
X29086844Y-15599747D01*
X27937797Y-16806247D02*
X28627225Y-16806247D01*
X28282511Y-16806247D02*
X28282511Y-15599747D01*
X28397416Y-15772104D01*
X28512320Y-15887009D01*
X28627225Y-15944461D01*
D12*
X41036755Y-108871619D02*
X41520565Y-108871619D01*
X41520565Y-107855619D01*
X40698089Y-108339428D02*
X40359422Y-108339428D01*
X40214279Y-108871619D02*
X40698089Y-108871619D01*
X40698089Y-107855619D01*
X40214279Y-107855619D01*
X39778850Y-108871619D02*
X39778850Y-107855619D01*
X39536946Y-107855619D01*
X39391803Y-107904000D01*
X39295041Y-108000761D01*
X39246660Y-108097523D01*
X39198279Y-108291047D01*
X39198279Y-108436190D01*
X39246660Y-108629714D01*
X39295041Y-108726476D01*
X39391803Y-108823238D01*
X39536946Y-108871619D01*
X39778850Y-108871619D01*
X38230660Y-108871619D02*
X38811231Y-108871619D01*
X38520946Y-108871619D02*
X38520946Y-107855619D01*
X38617708Y-108000761D01*
X38714470Y-108097523D01*
X38811231Y-108145904D01*
D13*
X42420991Y-106244428D02*
X42451943Y-106337285D01*
X42482896Y-106368238D01*
X42544800Y-106399190D01*
X42637658Y-106399190D01*
X42699562Y-106368238D01*
X42730515Y-106337285D01*
X42761467Y-106275380D01*
X42761467Y-106027761D01*
X42111467Y-106027761D01*
X42111467Y-106244428D01*
X42142420Y-106306333D01*
X42173372Y-106337285D01*
X42235277Y-106368238D01*
X42297181Y-106368238D01*
X42359086Y-106337285D01*
X42390039Y-106306333D01*
X42420991Y-106244428D01*
X42420991Y-106027761D01*
X38461467Y-103249190D02*
X38151943Y-103032523D01*
X38461467Y-102877761D02*
X37811467Y-102877761D01*
X37811467Y-103125380D01*
X37842420Y-103187285D01*
X37873372Y-103218238D01*
X37935277Y-103249190D01*
X38028134Y-103249190D01*
X38090039Y-103218238D01*
X38120991Y-103187285D01*
X38151943Y-103125380D01*
X38151943Y-102877761D01*
X42092420Y-103268238D02*
X42061467Y-103206333D01*
X42061467Y-103113476D01*
X42092420Y-103020619D01*
X42154324Y-102958714D01*
X42216229Y-102927761D01*
X42340039Y-102896809D01*
X42432896Y-102896809D01*
X42556705Y-102927761D01*
X42618610Y-102958714D01*
X42680515Y-103020619D01*
X42711467Y-103113476D01*
X42711467Y-103175380D01*
X42680515Y-103268238D01*
X42649562Y-103299190D01*
X42432896Y-103299190D01*
X42432896Y-103175380D01*
X38088848Y-105800380D02*
X38088848Y-106295619D01*
X38336467Y-106048000D02*
X37841229Y-106048000D01*
D14*
X45135800Y-13525500D02*
X55803800Y-13525500D01*
X55803800Y-22415500D02*
X45135800Y-22415500D01*
X55803800Y-13525500D02*
X55803800Y-22415500D01*
X45135800Y-22415500D02*
X45135800Y-13525500D01*
D12*
X53581300Y-17970500D02*
G75*
G03*
X53581300Y-17970500I-2286000J0D01*
G01*
X52870100Y-17970500D02*
G75*
G03*
X52870100Y-17970500I-1574800J0D01*
G01*
X7797800Y-93052900D02*
X7797800Y-92417900D01*
X8432800Y-93052900D02*
X8432800Y-93687900D01*
D15*
X13512800Y-91147900D02*
X12242800Y-91147900D01*
D12*
X8432800Y-93052900D02*
X10337800Y-93052900D01*
X7797800Y-92417900D02*
X8432800Y-93052900D01*
D15*
X11607800Y-89242900D02*
X11607800Y-96862900D01*
X3987800Y-96862900D02*
X3987800Y-89242900D01*
X3352800Y-91147900D02*
X2082800Y-91147900D01*
X3987800Y-89242900D02*
X11607800Y-89242900D01*
D12*
X8432800Y-93052900D02*
X7797800Y-93687900D01*
D15*
X2717800Y-91782900D02*
X2717800Y-90512900D01*
D12*
X5257800Y-93052900D02*
X7797800Y-93052900D01*
D15*
X11607800Y-96862900D02*
X3987800Y-96862900D01*
D12*
X7797800Y-93687900D02*
X7797800Y-93052900D01*
X8432800Y-92417900D02*
X8432800Y-93052900D01*
D14*
X37465000Y-13474700D02*
X26797000Y-13474700D01*
X26797000Y-4584700D02*
X37465000Y-4584700D01*
X26797000Y-13474700D02*
X26797000Y-4584700D01*
X37465000Y-4584700D02*
X37465000Y-13474700D01*
D12*
X33591500Y-9029700D02*
G75*
G03*
X33591500Y-9029700I-2286000J0D01*
G01*
X32880300Y-9029700D02*
G75*
G03*
X32880300Y-9029700I-1574800J0D01*
G01*
D14*
X26797000Y-38874700D02*
X26797000Y-29984700D01*
X26797000Y-29984700D02*
X37465000Y-29984700D01*
X37465000Y-29984700D02*
X37465000Y-38874700D01*
X37465000Y-38874700D02*
X26797000Y-38874700D01*
D12*
X32880300Y-34429700D02*
G75*
G03*
X32880300Y-34429700I-1574800J0D01*
G01*
X33591500Y-34429700D02*
G75*
G03*
X33591500Y-34429700I-2286000J0D01*
G01*
X3387800Y-38835700D02*
X12207800Y-38835700D01*
X12207800Y-49835700D02*
X3387800Y-49835700D01*
X12647800Y-39275700D02*
X12647800Y-49395700D01*
X2947800Y-49395700D02*
X2947800Y-39275700D01*
D16*
X7797800Y-41668700D02*
X7797800Y-42684700D01*
D12*
X12647687Y-39285682D02*
G75*
G03*
X12207800Y-38835700I-439887J9982D01*
G01*
X2947913Y-49385718D02*
G75*
G03*
X3387800Y-49835700I439887J-9982D01*
G01*
D11*
X10515719Y-44335700D02*
G75*
G03*
X10515719Y-44335700I-2717919J0D01*
G01*
D12*
X3397782Y-38835813D02*
G75*
G03*
X2947800Y-39275700I-9982J-439887D01*
G01*
X12197818Y-49835587D02*
G75*
G03*
X12647800Y-49395700I9982J439887D01*
G01*
X11297637Y-44337543D02*
G75*
G03*
X11297637Y-44337543I-3500000J0D01*
G01*
X39809420Y-92773500D02*
X40698420Y-92773500D01*
D10*
X41841420Y-94678500D02*
X41841420Y-89725500D01*
X38666420Y-89725500D02*
X38666420Y-89344500D01*
X38666420Y-89725500D02*
X38285420Y-89725500D01*
X38666420Y-94678500D02*
X41841420Y-94678500D01*
D12*
X39809420Y-92138500D02*
X39809420Y-92773500D01*
X40698420Y-91757500D02*
X40190420Y-91757500D01*
X40698420Y-92773500D02*
X40698420Y-91757500D01*
D10*
X38666420Y-90106500D02*
X38666420Y-94678500D01*
X37904420Y-88963500D02*
X38666420Y-89725500D01*
X41841420Y-89725500D02*
X39047420Y-89725500D01*
X39047420Y-89725500D02*
X38666420Y-90106500D01*
D12*
X39809420Y-92138500D02*
X40190420Y-91757500D01*
X40429223Y-92265500D02*
G75*
G03*
X40429223Y-92265500I-111803J0D01*
G01*
D14*
X45135800Y-34798000D02*
X45135800Y-25908000D01*
X55803800Y-34798000D02*
X45135800Y-34798000D01*
X45135800Y-25908000D02*
X55803800Y-25908000D01*
X55803800Y-25908000D02*
X55803800Y-34798000D01*
D12*
X52870100Y-30353000D02*
G75*
G03*
X52870100Y-30353000I-1574800J0D01*
G01*
X53581300Y-30353000D02*
G75*
G03*
X53581300Y-30353000I-2286000J0D01*
G01*
D14*
X55803800Y-38290500D02*
X55803800Y-47180500D01*
X55803800Y-47180500D02*
X45135800Y-47180500D01*
X45135800Y-38290500D02*
X55803800Y-38290500D01*
X45135800Y-47180500D02*
X45135800Y-38290500D01*
D12*
X53581300Y-42735500D02*
G75*
G03*
X53581300Y-42735500I-2286000J0D01*
G01*
X52870100Y-42735500D02*
G75*
G03*
X52870100Y-42735500I-1574800J0D01*
G01*
D16*
X7797800Y-24015700D02*
X7797800Y-25031700D01*
D12*
X12647800Y-21622700D02*
X12647800Y-31742700D01*
X3387800Y-21182700D02*
X12207800Y-21182700D01*
X2947800Y-31742700D02*
X2947800Y-21622700D01*
X12207800Y-32182700D02*
X3387800Y-32182700D01*
D11*
X10515719Y-26682700D02*
G75*
G03*
X10515719Y-26682700I-2717919J0D01*
G01*
D12*
X12647687Y-21632682D02*
G75*
G03*
X12207800Y-21182700I-439887J9982D01*
G01*
X3397782Y-21182813D02*
G75*
G03*
X2947800Y-21622700I-9982J-439887D01*
G01*
X2947913Y-31732718D02*
G75*
G03*
X3387800Y-32182700I439887J-9982D01*
G01*
X12197818Y-32182587D02*
G75*
G03*
X12647800Y-31742700I9982J439887D01*
G01*
X11297637Y-26684543D02*
G75*
G03*
X11297637Y-26684543I-3500000J0D01*
G01*
X3387800Y-74141700D02*
X12207800Y-74141700D01*
X12647800Y-74581700D02*
X12647800Y-84701700D01*
D16*
X7797800Y-76974700D02*
X7797800Y-77990700D01*
D12*
X2947800Y-84701700D02*
X2947800Y-74581700D01*
X12207800Y-85141700D02*
X3387800Y-85141700D01*
X2947913Y-84691718D02*
G75*
G03*
X3387800Y-85141700I439887J-9982D01*
G01*
X3397782Y-74141813D02*
G75*
G03*
X2947800Y-74581700I-9982J-439887D01*
G01*
D11*
X10515719Y-79641700D02*
G75*
G03*
X10515719Y-79641700I-2717919J0D01*
G01*
D12*
X12647687Y-74591682D02*
G75*
G03*
X12207800Y-74141700I-439887J9982D01*
G01*
X12197818Y-85141587D02*
G75*
G03*
X12647800Y-84701700I9982J439887D01*
G01*
X11297637Y-79643543D02*
G75*
G03*
X11297637Y-79643543I-3500000J0D01*
G01*
D14*
X45135800Y-109093000D02*
X45135800Y-100203000D01*
X45135800Y-100203000D02*
X55803800Y-100203000D01*
X55803800Y-109093000D02*
X45135800Y-109093000D01*
X55803800Y-100203000D02*
X55803800Y-109093000D01*
D12*
X52870100Y-104648000D02*
G75*
G03*
X52870100Y-104648000I-1574800J0D01*
G01*
X53581300Y-104648000D02*
G75*
G03*
X53581300Y-104648000I-2286000J0D01*
G01*
D14*
X37465000Y-76974700D02*
X26797000Y-76974700D01*
X26797000Y-76974700D02*
X26797000Y-68084700D01*
X37465000Y-68084700D02*
X37465000Y-76974700D01*
X26797000Y-68084700D02*
X37465000Y-68084700D01*
D12*
X33591500Y-72529700D02*
G75*
G03*
X33591500Y-72529700I-2286000J0D01*
G01*
X32880300Y-72529700D02*
G75*
G03*
X32880300Y-72529700I-1574800J0D01*
G01*
D14*
X37465000Y-93484700D02*
X37465000Y-102374700D01*
X26797000Y-102374700D02*
X26797000Y-93484700D01*
X37465000Y-102374700D02*
X26797000Y-102374700D01*
X26797000Y-93484700D02*
X37465000Y-93484700D01*
D12*
X32880300Y-97929700D02*
G75*
G03*
X32880300Y-97929700I-1574800J0D01*
G01*
X33591500Y-97929700D02*
G75*
G03*
X33591500Y-97929700I-2286000J0D01*
G01*
X8432800Y-104355900D02*
X8432800Y-104990900D01*
X5257800Y-104990900D02*
X7797800Y-104990900D01*
D15*
X11607800Y-101180900D02*
X11607800Y-108800900D01*
X2717800Y-103720900D02*
X2717800Y-102450900D01*
X3987800Y-101180900D02*
X11607800Y-101180900D01*
X11607800Y-108800900D02*
X3987800Y-108800900D01*
D12*
X7797800Y-104990900D02*
X7797800Y-104355900D01*
X7797800Y-105625900D02*
X7797800Y-104990900D01*
X7797800Y-104355900D02*
X8432800Y-104990900D01*
X8432800Y-104990900D02*
X8432800Y-105625900D01*
D15*
X3987800Y-108800900D02*
X3987800Y-101180900D01*
D12*
X8432800Y-104990900D02*
X7797800Y-105625900D01*
X8432800Y-104990900D02*
X10337800Y-104990900D01*
D15*
X13512800Y-103085900D02*
X12242800Y-103085900D01*
X3352800Y-103085900D02*
X2082800Y-103085900D01*
D14*
X45135800Y-1143000D02*
X55803800Y-1143000D01*
X55803800Y-10033000D02*
X45135800Y-10033000D01*
X55803800Y-1143000D02*
X55803800Y-10033000D01*
X45135800Y-10033000D02*
X45135800Y-1143000D01*
D12*
X52870100Y-5588000D02*
G75*
G03*
X52870100Y-5588000I-1574800J0D01*
G01*
X53581300Y-5588000D02*
G75*
G03*
X53581300Y-5588000I-2286000J0D01*
G01*
D14*
X37465000Y-64274700D02*
X26797000Y-64274700D01*
X26797000Y-64274700D02*
X26797000Y-55384700D01*
X37465000Y-55384700D02*
X37465000Y-64274700D01*
X26797000Y-55384700D02*
X37465000Y-55384700D01*
D12*
X32880300Y-59829700D02*
G75*
G03*
X32880300Y-59829700I-1574800J0D01*
G01*
X33591500Y-59829700D02*
G75*
G03*
X33591500Y-59829700I-2286000J0D01*
G01*
D14*
X45135800Y-87820500D02*
X55803800Y-87820500D01*
X55803800Y-87820500D02*
X55803800Y-96710500D01*
X45135800Y-96710500D02*
X45135800Y-87820500D01*
X55803800Y-96710500D02*
X45135800Y-96710500D01*
D12*
X53581300Y-92265500D02*
G75*
G03*
X53581300Y-92265500I-2286000J0D01*
G01*
X52870100Y-92265500D02*
G75*
G03*
X52870100Y-92265500I-1574800J0D01*
G01*
D14*
X45135800Y-71945500D02*
X45135800Y-63055500D01*
X55803800Y-71945500D02*
X45135800Y-71945500D01*
X45135800Y-63055500D02*
X55803800Y-63055500D01*
X55803800Y-63055500D02*
X55803800Y-71945500D01*
D12*
X53581300Y-67500500D02*
G75*
G03*
X53581300Y-67500500I-2286000J0D01*
G01*
X52870100Y-67500500D02*
G75*
G03*
X52870100Y-67500500I-1574800J0D01*
G01*
D14*
X26797000Y-51574700D02*
X26797000Y-42684700D01*
X37465000Y-51574700D02*
X26797000Y-51574700D01*
X37465000Y-42684700D02*
X37465000Y-51574700D01*
X26797000Y-42684700D02*
X37465000Y-42684700D01*
D12*
X33591500Y-47129700D02*
G75*
G03*
X33591500Y-47129700I-2286000J0D01*
G01*
X32880300Y-47129700D02*
G75*
G03*
X32880300Y-47129700I-1574800J0D01*
G01*
D14*
X26797000Y-89674700D02*
X26797000Y-80784700D01*
X26797000Y-80784700D02*
X37465000Y-80784700D01*
X37465000Y-89674700D02*
X26797000Y-89674700D01*
X37465000Y-80784700D02*
X37465000Y-89674700D01*
D12*
X32880300Y-85229700D02*
G75*
G03*
X32880300Y-85229700I-1574800J0D01*
G01*
X33591500Y-85229700D02*
G75*
G03*
X33591500Y-85229700I-2286000J0D01*
G01*
X39809420Y-42608500D02*
X40190420Y-42227500D01*
D10*
X38666420Y-45148500D02*
X41841420Y-45148500D01*
X41841420Y-45148500D02*
X41841420Y-40195500D01*
D12*
X40698420Y-42227500D02*
X40190420Y-42227500D01*
D10*
X38666420Y-40576500D02*
X38666420Y-45148500D01*
D12*
X40698420Y-43243500D02*
X40698420Y-42227500D01*
D10*
X37904420Y-39433500D02*
X38666420Y-40195500D01*
X38666420Y-40195500D02*
X38285420Y-40195500D01*
D12*
X39809420Y-42608500D02*
X39809420Y-43243500D01*
D10*
X38666420Y-40195500D02*
X38666420Y-39814500D01*
X41841420Y-40195500D02*
X39047420Y-40195500D01*
X39047420Y-40195500D02*
X38666420Y-40576500D01*
D12*
X39809420Y-43243500D02*
X40698420Y-43243500D01*
X40429223Y-42735500D02*
G75*
G03*
X40429223Y-42735500I-111803J0D01*
G01*
X2947800Y-67048700D02*
X2947800Y-56928700D01*
X12647800Y-56928700D02*
X12647800Y-67048700D01*
D16*
X7797800Y-59321700D02*
X7797800Y-60337700D01*
D12*
X12207800Y-67488700D02*
X3387800Y-67488700D01*
X3387800Y-56488700D02*
X12207800Y-56488700D01*
D11*
X10515719Y-61988700D02*
G75*
G03*
X10515719Y-61988700I-2717919J0D01*
G01*
D12*
X2947913Y-67038718D02*
G75*
G03*
X3387800Y-67488700I439887J-9982D01*
G01*
X12647687Y-56938682D02*
G75*
G03*
X12207800Y-56488700I-439887J9982D01*
G01*
X3397782Y-56488813D02*
G75*
G03*
X2947800Y-56928700I-9982J-439887D01*
G01*
X12197818Y-67488587D02*
G75*
G03*
X12647800Y-67048700I9982J439887D01*
G01*
X11297637Y-61990543D02*
G75*
G03*
X11297637Y-61990543I-3500000J0D01*
G01*
D10*
X41841420Y-8001000D02*
X41841420Y-3048000D01*
D12*
X39809420Y-5461000D02*
X39809420Y-6096000D01*
X39809420Y-5461000D02*
X40190420Y-5080000D01*
D10*
X39047420Y-3048000D02*
X38666420Y-3429000D01*
X38666420Y-3048000D02*
X38285420Y-3048000D01*
X38666420Y-3048000D02*
X38666420Y-2667000D01*
X41841420Y-3048000D02*
X39047420Y-3048000D01*
X37904420Y-2286000D02*
X38666420Y-3048000D01*
D12*
X40698420Y-6096000D02*
X40698420Y-5080000D01*
D10*
X38666420Y-8001000D02*
X41841420Y-8001000D01*
D12*
X40698420Y-5080000D02*
X40190420Y-5080000D01*
D10*
X38666420Y-3429000D02*
X38666420Y-8001000D01*
D12*
X39809420Y-6096000D02*
X40698420Y-6096000D01*
X40429223Y-5588000D02*
G75*
G03*
X40429223Y-5588000I-111803J0D01*
G01*
D16*
X7797800Y-6362700D02*
X7797800Y-7378700D01*
D12*
X3387800Y-3529700D02*
X12207800Y-3529700D01*
X2947800Y-14089700D02*
X2947800Y-3969700D01*
X12647800Y-3969700D02*
X12647800Y-14089700D01*
X12207800Y-14529700D02*
X3387800Y-14529700D01*
X2947913Y-14079718D02*
G75*
G03*
X3387800Y-14529700I439887J-9982D01*
G01*
D11*
X10515719Y-9029700D02*
G75*
G03*
X10515719Y-9029700I-2717919J0D01*
G01*
D12*
X12647687Y-3979682D02*
G75*
G03*
X12207800Y-3529700I-439887J9982D01*
G01*
X12197818Y-14529587D02*
G75*
G03*
X12647800Y-14089700I9982J439887D01*
G01*
X3397782Y-3529813D02*
G75*
G03*
X2947800Y-3969700I-9982J-439887D01*
G01*
X11297637Y-9031543D02*
G75*
G03*
X11297637Y-9031543I-3500000J0D01*
G01*
X40698420Y-30861000D02*
X40698420Y-29845000D01*
D10*
X39047420Y-27813000D02*
X38666420Y-28194000D01*
D12*
X40698420Y-29845000D02*
X40190420Y-29845000D01*
D10*
X38666420Y-27813000D02*
X38285420Y-27813000D01*
D12*
X39809420Y-30226000D02*
X40190420Y-29845000D01*
D10*
X38666420Y-32766000D02*
X41841420Y-32766000D01*
X38666420Y-28194000D02*
X38666420Y-32766000D01*
X38666420Y-27813000D02*
X38666420Y-27432000D01*
X37904420Y-27051000D02*
X38666420Y-27813000D01*
X41841420Y-27813000D02*
X39047420Y-27813000D01*
X41841420Y-32766000D02*
X41841420Y-27813000D01*
D12*
X39809420Y-30861000D02*
X40698420Y-30861000D01*
X39809420Y-30226000D02*
X39809420Y-30861000D01*
X40429223Y-30353000D02*
G75*
G03*
X40429223Y-30353000I-111803J0D01*
G01*
D10*
X38666420Y-69913500D02*
X41841420Y-69913500D01*
X38666420Y-64960500D02*
X38666420Y-64579500D01*
D12*
X40698420Y-66992500D02*
X40190420Y-66992500D01*
X39809420Y-68008500D02*
X40698420Y-68008500D01*
D10*
X38666420Y-64960500D02*
X38285420Y-64960500D01*
X39047420Y-64960500D02*
X38666420Y-65341500D01*
X41841420Y-69913500D02*
X41841420Y-64960500D01*
X41841420Y-64960500D02*
X39047420Y-64960500D01*
D12*
X39809420Y-67373500D02*
X40190420Y-66992500D01*
D10*
X37904420Y-64198500D02*
X38666420Y-64960500D01*
X38666420Y-65341500D02*
X38666420Y-69913500D01*
D12*
X40698420Y-68008500D02*
X40698420Y-66992500D01*
X39809420Y-67373500D02*
X39809420Y-68008500D01*
X40429223Y-67500500D02*
G75*
G03*
X40429223Y-67500500I-111803J0D01*
G01*
D14*
X55803800Y-75438000D02*
X55803800Y-84328000D01*
X45135800Y-84328000D02*
X45135800Y-75438000D01*
X55803800Y-84328000D02*
X45135800Y-84328000D01*
X45135800Y-75438000D02*
X55803800Y-75438000D01*
D12*
X53581300Y-79883000D02*
G75*
G03*
X53581300Y-79883000I-2286000J0D01*
G01*
X52870100Y-79883000D02*
G75*
G03*
X52870100Y-79883000I-1574800J0D01*
G01*
D10*
X38666420Y-20383500D02*
X41841420Y-20383500D01*
X37904420Y-14668500D02*
X38666420Y-15430500D01*
X41841420Y-20383500D02*
X41841420Y-15430500D01*
X41841420Y-15430500D02*
X39047420Y-15430500D01*
X38666420Y-15811500D02*
X38666420Y-20383500D01*
X38666420Y-15430500D02*
X38666420Y-15049500D01*
D12*
X39809420Y-17843500D02*
X40190420Y-17462500D01*
X40698420Y-18478500D02*
X40698420Y-17462500D01*
X39809420Y-17843500D02*
X39809420Y-18478500D01*
D10*
X39047420Y-15430500D02*
X38666420Y-15811500D01*
D12*
X39809420Y-18478500D02*
X40698420Y-18478500D01*
D10*
X38666420Y-15430500D02*
X38285420Y-15430500D01*
D12*
X40698420Y-17462500D02*
X40190420Y-17462500D01*
X40429223Y-17970500D02*
G75*
G03*
X40429223Y-17970500I-111803J0D01*
G01*
D10*
X41841420Y-52578000D02*
X39047420Y-52578000D01*
D12*
X40698420Y-54610000D02*
X40190420Y-54610000D01*
X40698420Y-55626000D02*
X40698420Y-54610000D01*
X39809420Y-54991000D02*
X40190420Y-54610000D01*
X39809420Y-54991000D02*
X39809420Y-55626000D01*
D10*
X37904420Y-51816000D02*
X38666420Y-52578000D01*
X38666420Y-52578000D02*
X38666420Y-52197000D01*
X39047420Y-52578000D02*
X38666420Y-52959000D01*
X38666420Y-57531000D02*
X41841420Y-57531000D01*
X38666420Y-52959000D02*
X38666420Y-57531000D01*
X41841420Y-57531000D02*
X41841420Y-52578000D01*
D12*
X39809420Y-55626000D02*
X40698420Y-55626000D01*
D10*
X38666420Y-52578000D02*
X38285420Y-52578000D01*
D12*
X40429223Y-55118000D02*
G75*
G03*
X40429223Y-55118000I-111803J0D01*
G01*
D10*
X38666420Y-77724000D02*
X38666420Y-82296000D01*
D12*
X39809420Y-80391000D02*
X40698420Y-80391000D01*
D10*
X37904420Y-76581000D02*
X38666420Y-77343000D01*
D12*
X40698420Y-80391000D02*
X40698420Y-79375000D01*
D10*
X41841420Y-82296000D02*
X41841420Y-77343000D01*
X38666420Y-82296000D02*
X41841420Y-82296000D01*
D12*
X39809420Y-79756000D02*
X39809420Y-80391000D01*
D10*
X41841420Y-77343000D02*
X39047420Y-77343000D01*
D12*
X39809420Y-79756000D02*
X40190420Y-79375000D01*
D10*
X38666420Y-77343000D02*
X38285420Y-77343000D01*
X38666420Y-77343000D02*
X38666420Y-76962000D01*
D12*
X40698420Y-79375000D02*
X40190420Y-79375000D01*
D10*
X39047420Y-77343000D02*
X38666420Y-77724000D01*
D12*
X40429223Y-79883000D02*
G75*
G03*
X40429223Y-79883000I-111803J0D01*
G01*
D14*
X55803800Y-59563000D02*
X45135800Y-59563000D01*
X45135800Y-59563000D02*
X45135800Y-50673000D01*
X45135800Y-50673000D02*
X55803800Y-50673000D01*
X55803800Y-50673000D02*
X55803800Y-59563000D01*
D12*
X52870100Y-55118000D02*
G75*
G03*
X52870100Y-55118000I-1574800J0D01*
G01*
X53581300Y-55118000D02*
G75*
G03*
X53581300Y-55118000I-2286000J0D01*
G01*
D14*
X26797000Y-26174700D02*
X26797000Y-17284700D01*
X37465000Y-17284700D02*
X37465000Y-26174700D01*
X26797000Y-17284700D02*
X37465000Y-17284700D01*
X37465000Y-26174700D02*
X26797000Y-26174700D01*
D12*
X32880300Y-21729700D02*
G75*
G03*
X32880300Y-21729700I-1574800J0D01*
G01*
X33591500Y-21729700D02*
G75*
G03*
X33591500Y-21729700I-2286000J0D01*
G01*
X39809420Y-104521000D02*
X40190420Y-104140000D01*
X39809420Y-105156000D02*
X40698420Y-105156000D01*
D10*
X38666420Y-107061000D02*
X41841420Y-107061000D01*
D12*
X39809420Y-104521000D02*
X39809420Y-105156000D01*
X40698420Y-104140000D02*
X40190420Y-104140000D01*
D10*
X39047420Y-102108000D02*
X38666420Y-102489000D01*
X37904420Y-101346000D02*
X38666420Y-102108000D01*
X38666420Y-102108000D02*
X38285420Y-102108000D01*
X38666420Y-102489000D02*
X38666420Y-107061000D01*
D12*
X40698420Y-105156000D02*
X40698420Y-104140000D01*
D10*
X38666420Y-102108000D02*
X38666420Y-101727000D01*
X41841420Y-102108000D02*
X39047420Y-102108000D01*
X41841420Y-107061000D02*
X41841420Y-102108000D01*
D12*
X40429223Y-104648000D02*
G75*
G03*
X40429223Y-104648000I-111803J0D01*
G01*
%LPC*%
D17*
X16740000Y-2230000D03*
X19280000Y-2230000D03*
X16740000Y-4770000D03*
X19280000Y-4770000D03*
X16740000Y-7310000D03*
X19280000Y-7310000D03*
X16740000Y-9850000D03*
X19280000Y-9850000D03*
X16740000Y-12390000D03*
X19280000Y-12390000D03*
X16740000Y-14930000D03*
X19280000Y-14930000D03*
X16740000Y-17470000D03*
X19280000Y-17470000D03*
X16740000Y-20010000D03*
X19280000Y-20010000D03*
D18*
X38930000Y-12670000D03*
X41470000Y-10130000D03*
X44010000Y-12670000D03*
D19*
X19560000Y-86690000D03*
D20*
X22100000Y-86690000D03*
X19560000Y-89230000D03*
X22100000Y-89230000D03*
X19560000Y-91770000D03*
X22100000Y-91770000D03*
D17*
X27560000Y-2420000D03*
X25020000Y-2420000D03*
D21*
X46101000Y-17970500D03*
X57073800Y-17970500D03*
X54660800Y-17970500D03*
D22*
X5257800Y-90512900D03*
X7797800Y-90512900D03*
X10337800Y-90512900D03*
X5257800Y-95592900D03*
X7797800Y-95592900D03*
X10337800Y-95592900D03*
D23*
X2717800Y-93052900D03*
D22*
X12877800Y-93052900D03*
D21*
X36499800Y-9029700D03*
X25527000Y-9029700D03*
X27940000Y-9029700D03*
X36499800Y-34429700D03*
X25527000Y-34429700D03*
X27940000Y-34429700D03*
D24*
X10337637Y-51347943D03*
X7797637Y-51347943D03*
X5257637Y-51347943D03*
D25*
X12191837Y-44337543D03*
X3403437Y-44337543D03*
D26*
X39567420Y-90765500D03*
X39567420Y-93765500D03*
X41067420Y-93765500D03*
X41067420Y-90765500D03*
D21*
X46101000Y-30353000D03*
X57073800Y-30353000D03*
X54660800Y-30353000D03*
X46101000Y-42735500D03*
X57073800Y-42735500D03*
X54660800Y-42735500D03*
D24*
X10337637Y-33694943D03*
X7797637Y-33694943D03*
X5257637Y-33694943D03*
D25*
X12191837Y-26684543D03*
X3403437Y-26684543D03*
D24*
X10337637Y-86653943D03*
X7797637Y-86653943D03*
X5257637Y-86653943D03*
D25*
X12191837Y-79643543D03*
X3403437Y-79643543D03*
D21*
X46101000Y-104648000D03*
X57073800Y-104648000D03*
X54660800Y-104648000D03*
X36499800Y-72529700D03*
X25527000Y-72529700D03*
X27940000Y-72529700D03*
X36499800Y-97929700D03*
X25527000Y-97929700D03*
X27940000Y-97929700D03*
D22*
X5257800Y-102450900D03*
X7797800Y-102450900D03*
X10337800Y-102450900D03*
X5257800Y-107530900D03*
X7797800Y-107530900D03*
X10337800Y-107530900D03*
D23*
X2717800Y-104990900D03*
D22*
X12877800Y-104990900D03*
D21*
X46101000Y-5588000D03*
X57073800Y-5588000D03*
X54660800Y-5588000D03*
X36499800Y-59829700D03*
X25527000Y-59829700D03*
X27940000Y-59829700D03*
X46101000Y-92265500D03*
X57073800Y-92265500D03*
X54660800Y-92265500D03*
X46101000Y-67500500D03*
X57073800Y-67500500D03*
X54660800Y-67500500D03*
X36499800Y-47129700D03*
X25527000Y-47129700D03*
X27940000Y-47129700D03*
X36499800Y-85229700D03*
X25527000Y-85229700D03*
X27940000Y-85229700D03*
D26*
X39567420Y-41235500D03*
X39567420Y-44235500D03*
X41067420Y-44235500D03*
X41067420Y-41235500D03*
D24*
X10337637Y-69000943D03*
X7797637Y-69000943D03*
X5257637Y-69000943D03*
D25*
X12191837Y-61990543D03*
X3403437Y-61990543D03*
D26*
X39567420Y-4088000D03*
X39567420Y-7088000D03*
X41067420Y-7088000D03*
X41067420Y-4088000D03*
D24*
X10337637Y-16041943D03*
X7797637Y-16041943D03*
X5257637Y-16041943D03*
D25*
X12191837Y-9031543D03*
X3403437Y-9031543D03*
D26*
X39567420Y-28853000D03*
X39567420Y-31853000D03*
X41067420Y-31853000D03*
X41067420Y-28853000D03*
X39567420Y-66000500D03*
X39567420Y-69000500D03*
X41067420Y-69000500D03*
X41067420Y-66000500D03*
D21*
X46101000Y-79883000D03*
X57073800Y-79883000D03*
X54660800Y-79883000D03*
D26*
X39567420Y-16470500D03*
X39567420Y-19470500D03*
X41067420Y-19470500D03*
X41067420Y-16470500D03*
X39567420Y-53618000D03*
X39567420Y-56618000D03*
X41067420Y-56618000D03*
X41067420Y-53618000D03*
X39567420Y-78383000D03*
X39567420Y-81383000D03*
X41067420Y-81383000D03*
X41067420Y-78383000D03*
D21*
X46101000Y-55118000D03*
X57073800Y-55118000D03*
X54660800Y-55118000D03*
X36499800Y-21729700D03*
X25527000Y-21729700D03*
X27940000Y-21729700D03*
D26*
X39567420Y-103148000D03*
X39567420Y-106148000D03*
X41067420Y-106148000D03*
X41067420Y-103148000D03*
M02*
