M48
; DRILL file {KiCad (5.99.0-12261-ga2c28b18a8)} date Tuesday, October 12, 2021 at 01:44:08 PM
; FORMAT={-:-/ absolute / metric / decimal}
; #@! TF.CreationDate,2021-10-12T13:44:08-07:00
; #@! TF.GenerationSoftware,Kicad,Pcbnew,(5.99.0-12261-ga2c28b18a8)
; #@! TF.FileFunction,MixedPlating,1,2
FMAT,2
METRIC
; #@! TA.AperFunction,Plated,PTH,ViaDrill
T1C0.400
; #@! TA.AperFunction,Plated,PTH,ComponentDrill
T2C0.508
; #@! TA.AperFunction,Plated,PTH,ComponentDrill
T3C0.800
; #@! TA.AperFunction,Plated,PTH,ComponentDrill
T4C0.889
; #@! TA.AperFunction,Plated,PTH,ComponentDrill
T5C0.900
; #@! TA.AperFunction,Plated,PTH,ComponentDrill
T6C1.000
; #@! TA.AperFunction,Plated,PTH,ComponentDrill
T7C1.143
; #@! TA.AperFunction,Plated,PTH,ComponentDrill
T8C2.057
%
G90
G05
T1
X1.039Y-31.39
X3.07Y-12.13
X6.32Y-76.57
X8.016Y-79.644
X8.32Y-58.04
X8.549Y-61.991
X8.74Y-83.77
X9.17Y-65.639
X9.4Y-38.89
X9.41Y-60.65
X9.48Y-47.73
X10.38Y-45.64
X10.78Y-74.06
X11.84Y-12.33
X11.88Y-47.14
X12.25Y-64.14
X12.54Y-16.11
X12.73Y-72.77
X12.747Y-55.937
X13.634Y-55.051
X13.7Y-20.0
X13.79Y-77.85
X14.23Y-59.46
X14.55Y-62.95
X15.49Y-80.39
X15.63Y-89.6
X15.65Y-82.42
X15.91Y-49.08
X16.296Y-86.028
X16.33Y-66.32
X16.57Y-105.32
X16.8Y-94.6
X16.89Y-50.69
X17.02Y-91.13
X17.066Y-79.982
X17.16Y-68.667
X17.397Y-78.627
X17.74Y-49.0
X17.741Y-54.959
X18.07Y-69.08
X18.419Y-30.0
X18.42Y-63.99
X19.12Y-27.07
X19.18Y-64.95
X19.38Y-49.94
X19.4Y-58.06
X19.48Y-100.37
X19.64Y-78.98
X19.68Y-68.78
X19.83Y-64.09
X20.46Y-21.19
X20.802Y-57.05
X21.05Y-38.05
X21.16Y-82.9
X21.76Y-16.05
X21.95Y-81.33
X21.997Y-65.107
X22.1Y-94.67
X22.16Y-49.53
X22.33Y-40.97
X22.34Y-51.84
X22.57Y-9.1
X22.94Y-33.17
X23.05Y-74.64
X23.42Y-25.32
X23.42Y-26.93
X24.37Y-81.17
X24.39Y-17.6
X24.41Y-18.86
X24.42Y-49.85
X24.92Y-77.61
X25.19Y-27.01
X25.48Y-62.73
X25.83Y-79.71
X26.34Y-81.71
X26.59Y-104.64
X27.14Y-62.78
X27.32Y-70.44
X28.407Y-69.468
X28.89Y-12.42
X29.46Y-90.91
X29.56Y-64.75
X30.08Y-107.91
X30.22Y-73.59
X30.33Y-21.62
X30.42Y-104.67
X30.805Y-49.445
X31.17Y-107.51
X31.37Y-29.61
X31.37Y-61.84
X31.38Y-50.87
X31.79Y-78.16
X31.92Y-57.21
X32.19Y-71.57
X32.521Y-94.56
X32.77Y-14.72
X33.945Y-68.415
X34.148Y-79.362
X34.43Y-78.14
X35.82Y-26.75
X36.39Y-76.14
X36.46Y-19.73
X37.01Y-55.97
X37.108Y-53.189
X37.224Y-58.095
X37.224Y-66.34
X37.386Y-15.903
X37.87Y-5.62
X37.96Y-71.0
X37.968Y-86.107
X38.18Y-8.2
X38.677Y-73.126
X38.906Y-5.709
X39.09Y-108.67
X39.698Y-64.307
X39.949Y-15.088
X40.079Y-72.946
X40.238Y-67.72
X40.781Y-5.531
X40.95Y-74.632
X41.26Y-61.36
X41.27Y-64.18
X41.891Y-30.457
X42.116Y-18.12
X42.452Y-79.571
X42.51Y-74.27
X42.646Y-67.369
X42.74Y-104.72
X42.79Y-42.62
X42.82Y-7.046
X42.87Y-92.33
X42.88Y-55.0
X44.23Y-3.92
X44.35Y-57.09
X44.43Y-61.53
X44.52Y-76.47
X46.62Y-65.39
X47.4Y-26.73
X48.02Y-61.02
X48.715Y-66.99
X51.56Y-72.31
X53.42Y-57.05
X55.84Y-62.1
T2
X38.93Y-12.67
X41.47Y-10.13
X44.01Y-12.67
T3
X2.718Y-93.053
X2.718Y-104.991
X5.258Y-90.513
X5.258Y-95.593
X5.258Y-102.451
X5.258Y-107.531
X7.798Y-90.513
X7.798Y-95.593
X7.798Y-102.451
X7.798Y-107.531
X10.338Y-90.513
X10.338Y-95.593
X10.338Y-102.451
X10.338Y-107.531
X12.878Y-93.053
X12.878Y-104.991
T4
X5.258Y-16.042
X5.258Y-33.695
X5.258Y-51.348
X5.258Y-69.001
X5.258Y-86.654
X7.798Y-16.042
X7.798Y-33.695
X7.798Y-51.348
X7.798Y-69.001
X7.798Y-86.654
X10.338Y-16.042
X10.338Y-33.695
X10.338Y-51.348
X10.338Y-69.001
X10.338Y-86.654
X25.527Y-9.03
X25.527Y-21.73
X25.527Y-34.43
X25.527Y-47.13
X25.527Y-59.83
X25.527Y-72.53
X25.527Y-85.23
X25.527Y-97.93
X57.074Y-5.588
X57.074Y-17.97
X57.074Y-30.353
X57.074Y-42.735
X57.074Y-55.118
X57.074Y-67.501
X57.074Y-79.883
X57.074Y-92.265
X57.074Y-104.648
T5
X16.74Y-2.23
X16.74Y-4.77
X16.74Y-7.31
X16.74Y-9.85
X16.74Y-12.39
X16.74Y-14.93
X16.74Y-17.47
X16.74Y-20.01
X19.28Y-2.23
X19.28Y-4.77
X19.28Y-7.31
X19.28Y-9.85
X19.28Y-12.39
X19.28Y-14.93
X19.28Y-17.47
X19.28Y-20.01
X25.02Y-2.42
X27.56Y-2.42
T6
X19.56Y-86.69
X19.56Y-89.23
X19.56Y-91.77
X22.1Y-86.69
X22.1Y-89.23
X22.1Y-91.77
T7
X27.94Y-9.03
X27.94Y-21.73
X27.94Y-34.43
X27.94Y-47.13
X27.94Y-59.83
X27.94Y-72.53
X27.94Y-85.23
X27.94Y-97.93
X36.5Y-9.03
X36.5Y-21.73
X36.5Y-34.43
X36.5Y-47.13
X36.5Y-59.83
X36.5Y-72.53
X36.5Y-85.23
X36.5Y-97.93
X46.101Y-5.588
X46.101Y-17.97
X46.101Y-30.353
X46.101Y-42.735
X46.101Y-55.118
X46.101Y-67.501
X46.101Y-79.883
X46.101Y-92.265
X46.101Y-104.648
X54.661Y-5.588
X54.661Y-17.97
X54.661Y-30.353
X54.661Y-42.735
X54.661Y-55.118
X54.661Y-67.501
X54.661Y-79.883
X54.661Y-92.265
X54.661Y-104.648
T8
X3.403Y-9.032
X3.403Y-26.685
X3.403Y-44.338
X3.403Y-61.991
X3.403Y-79.644
X12.192Y-9.032
X12.192Y-26.685
X12.192Y-44.338
X12.192Y-61.991
X12.192Y-79.644
T0
M30
