G04 #@! TF.GenerationSoftware,KiCad,Pcbnew,(5.99.0-12261-ga2c28b18a8)*
G04 #@! TF.CreationDate,2021-10-12T13:44:05-07:00*
G04 #@! TF.ProjectId,SCMv3,53434d76-332e-46b6-9963-61645f706362,rev?*
G04 #@! TF.SameCoordinates,Original*
G04 #@! TF.FileFunction,Paste,Top*
G04 #@! TF.FilePolarity,Positive*
%FSLAX46Y46*%
G04 Gerber Fmt 4.6, Leading zero omitted, Abs format (unit mm)*
G04 Created by KiCad (PCBNEW (5.99.0-12261-ga2c28b18a8)) date 2021-10-12 13:44:05*
%MOMM*%
%LPD*%
G01*
G04 APERTURE LIST*
G04 Aperture macros list*
%AMOutline4P*
0 Free polygon, 4 corners , with rotation*
0 The origin of the aperture is its center*
0 number of corners: always 4*
0 $1 to $8 corner X, Y*
0 $9 Rotation angle, in degrees counterclockwise*
0 create outline with 4 corners*
4,1,4,$1,$2,$3,$4,$5,$6,$7,$8,$1,$2,$9*%
G04 Aperture macros list end*
%ADD10R,2.750000X3.050000*%
%ADD11R,1.200000X2.200000*%
%ADD12R,1.000000X1.000000*%
%ADD13R,1.150000X1.400000*%
%ADD14R,0.800100X0.800100*%
%ADD15R,2.499360X1.800860*%
%ADD16R,1.450000X0.450000*%
%ADD17R,0.450000X1.450000*%
%ADD18R,3.000000X1.600000*%
%ADD19R,1.600000X3.000000*%
%ADD20R,1.000000X1.500000*%
%ADD21Outline4P,-1.100000X-0.500000X1.100000X-0.500000X0.400000X0.500000X-0.400000X0.500000X180.000000*%
%ADD22Outline4P,-1.100000X-0.425000X1.100000X-0.425000X0.500000X0.425000X-0.500000X0.425000X0.000000*%
%ADD23R,1.000000X1.800000*%
%ADD24R,2.200000X1.840000*%
%ADD25R,0.550000X1.600000*%
%ADD26R,1.600000X0.550000*%
G04 APERTURE END LIST*
D10*
X17115000Y-35795000D03*
X20165000Y-32445000D03*
X20165000Y-35795000D03*
X17115000Y-32445000D03*
D11*
X20920000Y-27820000D03*
X16360000Y-27820000D03*
D12*
X42860000Y-39610000D03*
X42860000Y-41310000D03*
X53950000Y-64320000D03*
X55650000Y-64320000D03*
D13*
X21240000Y-75550000D03*
X19740000Y-73450000D03*
X21240000Y-73450000D03*
X19740000Y-75550000D03*
D12*
X46110000Y-35850000D03*
X46110000Y-34150000D03*
X46070000Y-108620000D03*
X46070000Y-106920000D03*
X6100000Y-31170000D03*
X6100000Y-29470000D03*
X28300000Y-15800000D03*
X28300000Y-17500000D03*
X17710000Y-73690000D03*
X17710000Y-75390000D03*
X22640000Y-100310000D03*
X20940000Y-100310000D03*
X46180000Y-85060000D03*
X46180000Y-83360000D03*
D14*
X9590760Y-31140000D03*
X9590760Y-29240000D03*
X7591780Y-30190000D03*
D12*
X33410000Y-59660000D03*
X31710000Y-59660000D03*
D14*
X33720000Y-104269240D03*
X31820000Y-104269240D03*
X32770000Y-106268220D03*
D12*
X42930000Y-21120000D03*
X42930000Y-19420000D03*
D14*
X33040000Y-91099240D03*
X31140000Y-91099240D03*
X32090000Y-93098220D03*
X22650000Y-96459240D03*
X20750000Y-96459240D03*
X21700000Y-98458220D03*
D12*
X6380000Y-78480000D03*
X8080000Y-78480000D03*
X46140000Y-72730000D03*
X46140000Y-71030000D03*
D15*
X16041020Y-23940000D03*
X20038980Y-23940000D03*
D16*
X35900000Y-81440000D03*
X35900000Y-80790000D03*
X35900000Y-80140000D03*
X35900000Y-79490000D03*
X35900000Y-78840000D03*
X35900000Y-78190000D03*
X35900000Y-77540000D03*
X30000000Y-77540000D03*
X30000000Y-78190000D03*
X30000000Y-78840000D03*
X30000000Y-79490000D03*
X30000000Y-80140000D03*
X30000000Y-80790000D03*
X30000000Y-81440000D03*
D12*
X40980000Y-106140000D03*
X42680000Y-106140000D03*
X21100000Y-59810000D03*
X19400000Y-59810000D03*
X21730000Y-20330000D03*
X23430000Y-20330000D03*
X42910000Y-33480000D03*
X42910000Y-31780000D03*
X34830000Y-101380000D03*
X36530000Y-101380000D03*
X7430000Y-27540000D03*
X9130000Y-27540000D03*
X6390000Y-81850000D03*
X6390000Y-80150000D03*
X2820000Y-88330000D03*
X2820000Y-90030000D03*
X34860000Y-93530000D03*
X36560000Y-93530000D03*
D14*
X13670000Y-88430760D03*
X15570000Y-88430760D03*
X14620000Y-86431780D03*
D12*
X27920000Y-81580000D03*
X27920000Y-79880000D03*
X44400000Y-60730000D03*
X44400000Y-59030000D03*
X21250000Y-77670000D03*
X19550000Y-77670000D03*
X12710000Y-68810000D03*
X12710000Y-70510000D03*
D17*
X52040000Y-59470000D03*
X51390000Y-59470000D03*
X50740000Y-59470000D03*
X50090000Y-59470000D03*
X49440000Y-59470000D03*
X48790000Y-59470000D03*
X48140000Y-59470000D03*
X48140000Y-65370000D03*
X48790000Y-65370000D03*
X49440000Y-65370000D03*
X50090000Y-65370000D03*
X50740000Y-65370000D03*
X51390000Y-65370000D03*
X52040000Y-65370000D03*
D12*
X6810000Y-62670000D03*
X8510000Y-62670000D03*
X7430000Y-10010000D03*
X9130000Y-10010000D03*
D18*
X16730000Y-47330000D03*
X21130000Y-47330000D03*
D19*
X7840000Y-37200000D03*
X7840000Y-41600000D03*
D12*
X39540000Y-3890000D03*
X41240000Y-3890000D03*
X17090000Y-108470000D03*
X15390000Y-108470000D03*
X34740000Y-88490000D03*
X36440000Y-88490000D03*
X6840000Y-66640000D03*
X6840000Y-64940000D03*
X35520000Y-11370000D03*
X33820000Y-11370000D03*
D16*
X35510000Y-6945000D03*
X35510000Y-6295000D03*
X35510000Y-5645000D03*
X35510000Y-4995000D03*
X29610000Y-4995000D03*
X29610000Y-5645000D03*
X29610000Y-6295000D03*
X29610000Y-6945000D03*
D12*
X46030000Y-9570000D03*
X46030000Y-7870000D03*
D14*
X9380760Y-13550000D03*
X9380760Y-11650000D03*
X7381780Y-12600000D03*
D12*
X6470000Y-48350000D03*
X6470000Y-46650000D03*
X42890000Y-64340000D03*
X42890000Y-66040000D03*
X42900000Y-52000000D03*
X42900000Y-53700000D03*
D14*
X16350000Y-100539240D03*
X14450000Y-100539240D03*
X15400000Y-102538220D03*
D20*
X17370000Y-42580000D03*
D21*
X18870000Y-41176200D03*
D22*
X18870000Y-38433000D03*
D23*
X18870000Y-42433500D03*
D24*
X18870000Y-39766500D03*
D20*
X20370000Y-42580000D03*
D12*
X46110000Y-97370000D03*
X46110000Y-95670000D03*
X16790000Y-93140000D03*
X15090000Y-93140000D03*
X27240000Y-4900000D03*
X25540000Y-4900000D03*
X42840000Y-89020000D03*
X42840000Y-90720000D03*
D15*
X26858980Y-12830000D03*
X22861020Y-12830000D03*
D18*
X24280000Y-28540000D03*
X28680000Y-28540000D03*
D14*
X10160760Y-48410000D03*
X10160760Y-46510000D03*
X8161780Y-47460000D03*
D12*
X5720000Y-13420000D03*
X5720000Y-11720000D03*
X42880000Y-76680000D03*
X42880000Y-78380000D03*
X15020000Y-106650000D03*
X15020000Y-104950000D03*
X14580000Y-84760000D03*
X14580000Y-83060000D03*
X7410000Y-44890000D03*
X9110000Y-44890000D03*
D14*
X13099240Y-73620000D03*
X13099240Y-75520000D03*
X15098220Y-74570000D03*
D12*
X35370000Y-106400000D03*
X37070000Y-106400000D03*
X46140000Y-47840000D03*
X46140000Y-46140000D03*
D14*
X11190000Y-57629240D03*
X9290000Y-57629240D03*
X10240000Y-59628220D03*
D12*
X38320000Y-74930000D03*
X36620000Y-74930000D03*
D14*
X9960760Y-83220000D03*
X9960760Y-81320000D03*
X7961780Y-82270000D03*
D12*
X48470000Y-8810000D03*
X48470000Y-10510000D03*
X46070000Y-23200000D03*
X46070000Y-21500000D03*
X12940000Y-59460000D03*
X12940000Y-57760000D03*
X22990000Y-102080000D03*
X24690000Y-102080000D03*
D25*
X16390000Y-70980000D03*
X17190000Y-70980000D03*
X17990000Y-70980000D03*
X18790000Y-70980000D03*
X19590000Y-70980000D03*
X20390000Y-70980000D03*
X21190000Y-70980000D03*
X21990000Y-70980000D03*
D26*
X23440000Y-69530000D03*
X23440000Y-68730000D03*
X23440000Y-67930000D03*
X23440000Y-67130000D03*
X23440000Y-66330000D03*
X23440000Y-65530000D03*
X23440000Y-64730000D03*
X23440000Y-63930000D03*
D25*
X21990000Y-62480000D03*
X21190000Y-62480000D03*
X20390000Y-62480000D03*
X19590000Y-62480000D03*
X18790000Y-62480000D03*
X17990000Y-62480000D03*
X17190000Y-62480000D03*
X16390000Y-62480000D03*
D26*
X14940000Y-63930000D03*
X14940000Y-64730000D03*
X14940000Y-65530000D03*
X14940000Y-66330000D03*
X14940000Y-67130000D03*
X14940000Y-67930000D03*
X14940000Y-68730000D03*
X14940000Y-69530000D03*
D12*
X18060000Y-97990000D03*
X18060000Y-96290000D03*
X15070000Y-77200000D03*
X15070000Y-78900000D03*
X36360000Y-50000000D03*
X34660000Y-50000000D03*
X22330000Y-42340000D03*
X24030000Y-42340000D03*
D14*
X10390760Y-66340000D03*
X10390760Y-64440000D03*
X8391780Y-65390000D03*
D12*
X42990000Y-2220000D03*
X42990000Y-3920000D03*
D14*
X18040000Y-105230760D03*
X19940000Y-105230760D03*
X18990000Y-103231780D03*
M02*
